<?xml version="1.0" encoding="utf-8"?>
<!-- Generated by IcoMoon.io -->
<!DOCTYPE svg PUBLIC "-//W3C//DTD SVG 1.1//EN" "http://www.w3.org/Graphics/SVG/1.1/DTD/svg11.dtd">
<svg version="1.1" xmlns="http://www.w3.org/2000/svg" xmlns:xlink="http://www.w3.org/1999/xlink" width="13" height="16" viewBox="0 0 13 16">
<path fill="#444444" d="M12.509 13.813l-0.054 0.054q-1.009 1.018-2.313 1.563-1.375 0.571-2.83 0.571-1.473 0-2.83-0.571-1.321-0.563-2.313-1.563-1.009-1-1.563-2.304-0.375-0.92-0.482-1.688-0.036-0.25 0.429-0.321 0.455-0.071 0.5 0.179 0.009 0.009 0.009 0.036 0.161 0.804 0.411 1.42 0.446 1.107 1.357 2.018 0.875 0.875 2.018 1.357 1.179 0.5 2.464 0.5 1.277 0 2.464-0.5 1.143-0.491 2.009-1.357l0.054-0.054q0.089-0.089 0.223-0.054 0.107 0.027 0.295 0.196 0.321 0.33 0.152 0.518zM8.295 8.321l-0.589 0.589 0.563 0.563q0.188 0.188-0.063 0.438-0.152 0.152-0.286 0.152-0.089 0-0.17-0.089l-0.554-0.545-0.589 0.589q-0.045 0.045-0.134 0.045-0.134 0-0.277-0.143l-0.018-0.018q-0.161-0.134-0.161-0.259 0-0.063 0.071-0.152l0.589-0.58-0.589-0.589q-0.143-0.143 0.125-0.402 0.161-0.161 0.277-0.161 0.054 0 0.116 0.045l0.58 0.589 0.58-0.58q0.161-0.152 0.429 0.116 0.241 0.241 0.098 0.393zM12.5 8.83q0 1.054-0.411 2.036-0.402 0.938-1.125 1.661-0.714 0.714-1.67 1.125t-2.036 0.411-2.036-0.411-1.67-1.125q-0.732-0.732-1.116-1.661-0.134-0.286-0.134-0.357h-0.009q-0.080-0.241 0.384-0.393 0.446-0.143 0.536 0.107 0.33 0.884 0.866 1.491h0.009v-3.045q0.027-1.214 0.911-2.071 0.938-0.92 2.259-0.92 1.313 0 2.241 0.92t0.929 2.223q0 1.313-0.933 2.241t-2.237 0.929q-0.518 0-1-0.143-0.25-0.098-0.116-0.545 0.143-0.455 0.393-0.384l0.125 0.027q0.125 0.027 0.29 0.054t0.272 0.027q0.929 0 1.571-0.638t0.643-1.558q0-0.902-0.643-1.527-0.634-0.634-1.563-0.634-0.955 0-1.589 0.714-0.571 0.643-0.571 1.429v3.688q0.982 0.598 2.161 0.598 0.857 0 1.652-0.326t1.393-0.924 0.924-1.384 0.326-1.634q0-1.768-1.259-3.027-1.25-1.25-3.027-1.25-1.786 0-3.036 1.25-0.473 0.473-0.688 0.777l-0.018 0.018q-0.071 0.098-0.116 0.138t-0.192 0.085-0.344-0.027q-0.188-0.045-0.326-0.147t-0.138-0.237v-6.071q0-0.134 0.094-0.237t0.246-0.103h7.83q0.268 0 0.268 0.491t-0.268 0.491h-7.241v4.313h0.009q0.357-0.375 0.911-0.75t0.964-0.545q0.973-0.411 2.063-0.411 1.080 0 2.036 0.411t1.67 1.125q0.723 0.723 1.125 1.661 0.411 1 0.411 2.045zM12.223 3.643q0.080 0.071 0.080 0.161t-0.049 0.161-0.147 0.188q-0.232 0.232-0.348 0.232-0.080 0-0.143-0.063-0.946-0.813-1.848-1.188-1.143-0.5-2.464-0.5-1.188 0-2.339 0.438-0.241 0.089-0.402-0.33-0.080-0.223-0.071-0.339 0.027-0.143 0.143-0.179 1.161-0.509 2.67-0.509 1.464 0 2.821 0.571 1.223 0.518 2.098 1.357z"></path>
</svg>
