<?xml version="1.0" encoding="utf-8"?>
<!-- Generated by IcoMoon.io -->
<!DOCTYPE svg PUBLIC "-//W3C//DTD SVG 1.1//EN" "http://www.w3.org/Graphics/SVG/1.1/DTD/svg11.dtd">
<svg version="1.1" xmlns="http://www.w3.org/2000/svg" xmlns:xlink="http://www.w3.org/1999/xlink" width="16" height="16" viewBox="0 0 16 16">
<path fill="#444444" d="M13.848 13.179q0.134-0.054 0.232-0.027t0.098 0.156-0.134 0.299q-0.116 0.143-0.393 0.388t-0.853 0.607-1.259 0.661-1.679 0.518-2.049 0.219q-1.063 0-2.125-0.277t-1.866-0.683-1.54-0.929-1.183-0.938-0.75-0.781q-0.071-0.080-0.089-0.147t0.009-0.107 0.071-0.063 0.103-0.018 0.103 0.040q1.714 1.045 2.679 1.482 3.473 1.571 7.134 0.804 1.696-0.357 3.491-1.205zM15.696 12.152q0.098 0.143 0.022 0.621t-0.254 0.915q-0.304 0.741-0.759 1.107-0.152 0.125-0.232 0.080t0-0.214q0.188-0.402 0.397-1.085t0.058-0.879q-0.045-0.063-0.138-0.103t-0.241-0.054-0.263-0.022-0.313 0-0.281 0.018-0.277 0.027-0.201 0.018q-0.054 0.009-0.116 0.013t-0.098 0.009-0.076 0.009-0.063 0.004h-0.089t-0.027-0.004-0.018-0.013l-0.013-0.027q-0.054-0.143 0.42-0.357t0.92-0.268q0.411-0.063 0.964-0.009t0.679 0.214zM12.179 8.196q0 0.277 0.121 0.571t0.286 0.518 0.335 0.411 0.295 0.286l0.116 0.098-2.027 2q-0.357-0.33-0.705-0.674t-0.518-0.522l-0.17-0.179q-0.098-0.098-0.223-0.295-0.339 0.527-0.871 0.915t-1.138 0.567-1.25 0.205-1.228-0.188-1.049-0.585-0.741-1.009-0.277-1.451q0-0.75 0.25-1.375t0.643-1.040 0.951-0.741 1.094-0.509 1.161-0.308 1.067-0.165 0.888-0.058v-1.134q0-0.58-0.188-0.866-0.304-0.473-1.080-0.473-0.054 0-0.147 0.009t-0.362 0.107-0.5 0.263-0.5 0.531-0.429 0.857l-2.625-0.241q0-0.536 0.196-1.063t0.598-1.009 0.964-0.848 1.353-0.585 1.701-0.219q0.893 0 1.616 0.223t1.156 0.549 0.723 0.741 0.402 0.768 0.112 0.656v5.259zM6.179 8.384q0 0.768 0.625 1.188 0.589 0.393 1.241 0.196 0.75-0.223 1.018-1.098 0.125-0.402 0.125-0.902v-1.446q-0.527 0.018-0.991 0.107t-0.951 0.299-0.777 0.634-0.29 1.022z"></path>
</svg>
