<?xml version="1.0" encoding="utf-8"?>
<!-- Generated by IcoMoon.io -->
<!DOCTYPE svg PUBLIC "-//W3C//DTD SVG 1.1//EN" "http://www.w3.org/Graphics/SVG/1.1/DTD/svg11.dtd">
<svg version="1.1" xmlns="http://www.w3.org/2000/svg" xmlns:xlink="http://www.w3.org/1999/xlink" width="18" height="16" viewBox="0 0 18 16">
<path fill="#444444" d="M5.714 12.571q0-0.473-0.335-0.808t-0.808-0.335-0.808 0.335-0.335 0.808 0.335 0.808 0.808 0.335 0.808-0.335 0.335-0.808zM2.286 8h3.429v-2.286h-1.411q-0.125 0.018-0.196 0.080l-1.741 1.741q-0.063 0.107-0.080 0.196v0.268zM13.714 12.571q0-0.473-0.335-0.808t-0.808-0.335-0.808 0.335-0.335 0.808 0.335 0.808 0.808 0.335 0.808-0.335 0.335-0.808zM14.857 6.571v-1.714q0-0.125-0.080-0.205t-0.205-0.080h-2v-2q0-0.125-0.080-0.205t-0.205-0.080h-1.714q-0.125 0-0.205 0.080t-0.080 0.205v2h-2q-0.125 0-0.205 0.080t-0.080 0.205v1.714q0 0.125 0.080 0.205t0.205 0.080h2v2q0 0.125 0.080 0.205t0.205 0.080h1.714q0.125 0 0.205-0.080t0.080-0.205v-2h2q0.125 0 0.205-0.080t0.080-0.205zM17.143 1.714v10.286q0 0.232-0.17 0.402t-0.402 0.17h-1.714q0 0.946-0.67 1.616t-1.616 0.67-1.616-0.67-0.67-1.616h-3.429q0 0.946-0.67 1.616t-1.616 0.67-1.616-0.67-0.67-1.616h-1.143q-0.232 0-0.402-0.17t-0.17-0.402 0.17-0.402 0.402-0.17v-3.714q0-0.232 0.116-0.518t0.286-0.455l1.768-1.768q0.17-0.17 0.455-0.286t0.518-0.116h1.429v-2.857q0-0.232 0.17-0.402t0.402-0.17h10.286q0.232 0 0.402 0.17t0.17 0.402z"></path>
</svg>
