<?xml version="1.0" encoding="utf-8"?>
<!-- Generated by IcoMoon.io -->
<!DOCTYPE svg PUBLIC "-//W3C//DTD SVG 1.1//EN" "http://www.w3.org/Graphics/SVG/1.1/DTD/svg11.dtd">
<svg version="1.1" xmlns="http://www.w3.org/2000/svg" xmlns:xlink="http://www.w3.org/1999/xlink" width="16" height="16" viewBox="0 0 16 16">
<path fill="#444444" d="M8.571 2.286q0-0.232-0.17-0.402t-0.402-0.17-0.402 0.17-0.17 0.402 0.17 0.402 0.402 0.17 0.402-0.17 0.17-0.402zM16 10.571v3.143q0 0.196-0.179 0.268-0.071 0.018-0.107 0.018-0.116 0-0.205-0.080l-0.83-0.83q-1.063 1.277-2.844 2.022t-3.835 0.746-3.835-0.746-2.844-2.022l-0.83 0.83q-0.080 0.080-0.205 0.080-0.036 0-0.107-0.018-0.179-0.071-0.179-0.268v-3.143q0-0.125 0.080-0.205t0.205-0.080h3.143q0.196 0 0.268 0.179 0.071 0.17-0.063 0.313l-0.893 0.893q0.598 0.813 1.692 1.371t2.424 0.737v-5.777h-1.714q-0.232 0-0.402-0.17t-0.17-0.402v-1.143q0-0.232 0.17-0.402t0.402-0.17h1.714v-1.455q-0.518-0.304-0.83-0.826t-0.313-1.147q0-0.946 0.67-1.616t1.616-0.67 1.616 0.67 0.67 1.616q0 0.625-0.313 1.147t-0.83 0.826v1.455h1.714q0.232 0 0.402 0.17t0.17 0.402v1.143q0 0.232-0.17 0.402t-0.402 0.17h-1.714v5.777q1.33-0.179 2.424-0.737t1.692-1.371l-0.893-0.893q-0.134-0.143-0.063-0.313 0.071-0.179 0.268-0.179h3.143q0.125 0 0.205 0.080t0.080 0.205z"></path>
</svg>
