<?xml version="1.0" encoding="utf-8"?>
<!-- Generated by IcoMoon.io -->
<!DOCTYPE svg PUBLIC "-//W3C//DTD SVG 1.1//EN" "http://www.w3.org/Graphics/SVG/1.1/DTD/svg11.dtd">
<svg version="1.1" xmlns="http://www.w3.org/2000/svg" xmlns:xlink="http://www.w3.org/1999/xlink" width="13" height="16" viewBox="0 0 13 16">
<path fill="#444444" d="M4.402 4.313q0.143 0 0.246-0.103t0.103-0.246-0.103-0.246-0.246-0.103-0.241 0.103-0.098 0.246 0.098 0.246 0.241 0.103zM8.17 4.313q0.143 0 0.241-0.103t0.098-0.246-0.098-0.246-0.241-0.103-0.246 0.103-0.103 0.246 0.103 0.246 0.246 0.103zM0.92 5.955q0.375 0 0.643 0.268t0.268 0.643v3.839q0 0.384-0.263 0.652t-0.647 0.268-0.652-0.268-0.268-0.652v-3.839q0-0.375 0.268-0.643t0.652-0.268zM10.384 6.125v5.946q0 0.411-0.286 0.696t-0.688 0.286h-0.67v2.027q0 0.384-0.268 0.652t-0.652 0.268-0.652-0.268-0.268-0.652v-2.027h-1.232v2.027q0 0.384-0.268 0.652t-0.652 0.268q-0.375 0-0.643-0.268t-0.268-0.652l-0.009-2.027h-0.661q-0.411 0-0.696-0.286t-0.286-0.696v-5.946h8.196zM8.313 2.509q0.955 0.491 1.527 1.371t0.571 1.924h-8.259q0-1.045 0.571-1.924t1.536-1.371l-0.634-1.17q-0.063-0.116 0.045-0.179 0.116-0.054 0.179 0.054l0.643 1.179q0.848-0.375 1.795-0.375t1.795 0.375l0.643-1.179q0.063-0.107 0.179-0.054 0.107 0.063 0.045 0.179zM12.571 6.866v3.839q0 0.384-0.268 0.652t-0.652 0.268q-0.375 0-0.643-0.268t-0.268-0.652v-3.839q0-0.384 0.268-0.647t0.643-0.263q0.384 0 0.652 0.263t0.268 0.647z"></path>
</svg>
