<?xml version="1.0" encoding="utf-8"?>
<!-- Generated by IcoMoon.io -->
<!DOCTYPE svg PUBLIC "-//W3C//DTD SVG 1.1//EN" "http://www.w3.org/Graphics/SVG/1.1/DTD/svg11.dtd">
<svg version="1.1" xmlns="http://www.w3.org/2000/svg" xmlns:xlink="http://www.w3.org/1999/xlink" width="11" height="16" viewBox="0 0 11 16">
<path fill="#444444" d="M8.509 3.375l-1.018 2.929 1.045 0.188q1.473-4.027 1.473-4.625 0-0.5-0.339-0.5-0.509 0-1.161 2.009zM5.839 9.509l0.295 0.786q0.33-0.375 0.634-0.598l-0.295-0.049t-0.344-0.063-0.29-0.076zM3.232 1.509q0 0.875 1.42 4.652 0.161-0.089 0.438-0.089 0.134 0 0.67 0.045l-1.080-3.134q-0.67-1.964-1.098-1.964-0.17 0-0.259 0.156t-0.089 0.335zM2.527 8.286q0 0.321 0.46 1.063t1.049 1.366 0.893 0.625q0.125 0 0.228-0.116t0.103-0.241q0-0.214-0.286-0.911-0.116-0.286-0.286-0.643t-0.424-0.795-0.549-0.723-0.554-0.286q-0.179 0-0.406 0.241t-0.228 0.42zM1.116 11.277q0 0.366 0.223 0.929 0.527 1.295 1.638 2.027t2.513 0.732q2.027 0 3.411-1.518 1.357-1.509 1.357-3.813 0-0.384-0.009-0.598t-0.103-0.554-0.272-0.5q-0.5-0.438-1.888-0.674t-2.415-0.237q-0.33 0-0.438 0.098-0.107 0.045-0.107 0.313 0 0.304 0.192 0.536t0.496 0.357 0.692 0.21 0.781 0.103 0.759 0.036 0.625 0h0.205q0.214 0 0.357 0.17 0.134 0.17 0.17 0.491-0.25 0.25-0.857 0.482-0.545 0.196-0.83 0.411-0.571 0.411-0.969 1.018t-0.397 1.223q0 0.277 0.165 0.79t0.165 0.781l-0.027 0.107q-0.036 0.107-0.036 0.125-1.223-0.089-1.304-1.929-0.071 0.018-0.366 0.018 0.018 0.063 0.018 0.188 0 0.473-0.362 0.799t-0.844 0.326q-0.732 0-1.487-0.696t-0.754-1.42q0-0.304 0.295-0.598 0.464 0.571 0.536 0.679 0.688 0.929 1.188 0.929 0.107 0 0.237-0.076t0.129-0.183q0-0.304-0.781-1.295t-1.040-0.991q-0.384 0-0.625 0.397t-0.241 0.808zM0.098 11.357q0-0.902 0.379-1.455t1.219-0.786q-0.25-0.661-0.25-0.929 0-0.554 0.545-1.098t1.089-0.545q0.259 0 0.625 0.134-1.455-4.125-1.455-5.063 0-0.714 0.366-1.165t1.063-0.451q1.17 0 2.902 5.188 0.054 0.152 0.071 0.205 0.054-0.143 0.259-0.71t0.388-1.058 0.482-1.138 0.576-1.098 0.629-0.772 0.683-0.321q0.634 0 1 0.438t0.366 1.089q0 0.964-1.42 4.911 0.545 0.134 0.897 0.411t0.522 0.696 0.232 0.835 0.063 0.987q0 1.339-0.42 2.5t-1.179 2.009-1.884 1.339-2.482 0.491q-0.991 0-1.991-0.375-1.33-0.509-2.304-1.71t-0.973-2.558z"></path>
</svg>
