<?xml version="1.0" encoding="utf-8"?>
<!-- Generated by IcoMoon.io -->
<!DOCTYPE svg PUBLIC "-//W3C//DTD SVG 1.1//EN" "http://www.w3.org/Graphics/SVG/1.1/DTD/svg11.dtd">
<svg version="1.1" xmlns="http://www.w3.org/2000/svg" xmlns:xlink="http://www.w3.org/1999/xlink" width="12" height="16" viewBox="0 0 12 16">
<path fill="#444444" d="M12.438 10.848q-0.348 1.116-1.098 2.232-1.152 1.75-2.295 1.75-0.438 0-1.25-0.286-0.768-0.286-1.348-0.286-0.545 0-1.268 0.295-0.723 0.304-1.179 0.304-1.357 0-2.688-2.313-1.313-2.33-1.313-4.491 0-2.036 1.009-3.339 1-1.286 2.536-1.286 0.643 0 1.58 0.268 0.929 0.268 1.232 0.268 0.402 0 1.277-0.304 0.911-0.304 1.545-0.304 1.063 0 1.902 0.58 0.464 0.321 0.929 0.893-0.705 0.598-1.018 1.054-0.58 0.839-0.58 1.848 0 1.107 0.616 1.991t1.411 1.125zM9.080 0.375q0 0.545-0.259 1.214-0.268 0.67-0.83 1.232-0.482 0.482-0.964 0.643-0.33 0.098-0.929 0.152 0.027-1.33 0.696-2.295 0.661-0.955 2.232-1.321 0.009 0.027 0.022 0.098t0.022 0.098q0 0.036 0.004 0.089t0.004 0.089z"></path>
</svg>
