<?xml version="1.0" encoding="utf-8"?>
<!-- Generated by IcoMoon.io -->
<!DOCTYPE svg PUBLIC "-//W3C//DTD SVG 1.1//EN" "http://www.w3.org/Graphics/SVG/1.1/DTD/svg11.dtd">
<svg version="1.1" xmlns="http://www.w3.org/2000/svg" xmlns:xlink="http://www.w3.org/1999/xlink" width="16" height="16" viewBox="0 0 16 16">
<path fill="#444444" d="M9.714 7.429q0-0.232-0.17-0.402t-0.402-0.17h-2.286q-0.232 0-0.402 0.17t-0.17 0.402 0.17 0.402 0.402 0.17h2.286q0.232 0 0.402-0.17t0.17-0.402zM14.857 5.714v8.571q0 0.232-0.17 0.402t-0.402 0.17h-12.571q-0.232 0-0.402-0.17t-0.17-0.402v-8.571q0-0.232 0.17-0.402t0.402-0.17h12.571q0.232 0 0.402 0.17t0.17 0.402zM15.429 1.714v2.286q0 0.232-0.17 0.402t-0.402 0.17h-13.714q-0.232 0-0.402-0.17t-0.17-0.402v-2.286q0-0.232 0.17-0.402t0.402-0.17h13.714q0.232 0 0.402 0.17t0.17 0.402z"></path>
</svg>
