<?xml version="1.0" encoding="utf-8"?>
<!-- Generated by IcoMoon.io -->
<!DOCTYPE svg PUBLIC "-//W3C//DTD SVG 1.1//EN" "http://www.w3.org/Graphics/SVG/1.1/DTD/svg11.dtd">
<svg version="1.1" xmlns="http://www.w3.org/2000/svg" xmlns:xlink="http://www.w3.org/1999/xlink" width="14" height="16" viewBox="0 0 14 16">
<path fill="#444444" d="M10.286 8q0 0.125-0.080 0.205l-2.857 2.857q-0.080 0.080-0.205 0.080-0.116 0-0.201-0.085t-0.085-0.201v-1.714h-3.143q-0.116 0-0.201-0.085t-0.085-0.201v-1.714q0-0.116 0.085-0.201t0.201-0.085h3.143v-1.714q0-0.125 0.080-0.205t0.205-0.080q0.107 0 0.214 0.089l2.848 2.848q0.080 0.080 0.080 0.205zM11.714 8q0-1.321-0.652-2.438t-1.768-1.768-2.438-0.652-2.438 0.652-1.768 1.768-0.652 2.438 0.652 2.438 1.768 1.768 2.438 0.652 2.438-0.652 1.768-1.768 0.652-2.438zM13.714 8q0 1.866-0.92 3.442t-2.496 2.496-3.442 0.92-3.442-0.92-2.496-2.496-0.92-3.442 0.92-3.442 2.496-2.496 3.442-0.92 3.442 0.92 2.496 2.496 0.92 3.442z"></path>
</svg>
