<?xml version="1.0" encoding="utf-8"?>
<!-- Generated by IcoMoon.io -->
<!DOCTYPE svg PUBLIC "-//W3C//DTD SVG 1.1//EN" "http://www.w3.org/Graphics/SVG/1.1/DTD/svg11.dtd">
<svg version="1.1" xmlns="http://www.w3.org/2000/svg" xmlns:xlink="http://www.w3.org/1999/xlink" width="14" height="16" viewBox="0 0 14 16">
<path fill="#444444" d="M9.982 7.821q-0.071 0.179-0.268 0.179h-1.714v3.143q0 0.125-0.080 0.205t-0.205 0.080h-1.714q-0.125 0-0.205-0.080t-0.080-0.205v-3.143h-1.714q-0.125 0-0.205-0.080t-0.080-0.205q0-0.107 0.089-0.214l2.848-2.848q0.098-0.080 0.205-0.080t0.205 0.080l2.857 2.857q0.134 0.143 0.063 0.313zM6.857 3.143q-1.321 0-2.438 0.652t-1.768 1.768-0.652 2.438 0.652 2.438 1.768 1.768 2.438 0.652 2.437-0.652 1.768-1.768 0.652-2.438-0.652-2.438-1.768-1.768-2.438-0.652zM13.714 8q0 1.866-0.92 3.442t-2.496 2.496-3.442 0.92-3.442-0.92-2.496-2.496-0.92-3.442 0.92-3.442 2.496-2.496 3.442-0.92 3.442 0.92 2.496 2.496 0.92 3.442z"></path>
</svg>
