<?xml version="1.0" encoding="utf-8"?>
<!-- Generated by IcoMoon.io -->
<!DOCTYPE svg PUBLIC "-//W3C//DTD SVG 1.1//EN" "http://www.w3.org/Graphics/SVG/1.1/DTD/svg11.dtd">
<svg version="1.1" xmlns="http://www.w3.org/2000/svg" xmlns:xlink="http://www.w3.org/1999/xlink" width="14" height="16" viewBox="0 0 14 16">
<path fill="#444444" d="M11.455 4.83l-3.17 3.17 3.17 3.17 1.286-1.286q0.259-0.277 0.625-0.125 0.348 0.152 0.348 0.527v4q0 0.232-0.17 0.402t-0.402 0.17h-4q-0.375 0-0.527-0.357-0.152-0.348 0.125-0.616l1.286-1.286-3.17-3.17-3.17 3.17 1.286 1.286q0.277 0.268 0.125 0.616-0.152 0.357-0.527 0.357h-4q-0.232 0-0.402-0.17t-0.17-0.402v-4q0-0.375 0.357-0.527 0.348-0.152 0.616 0.125l1.286 1.286 3.17-3.17-3.17-3.17-1.286 1.286q-0.17 0.17-0.402 0.17-0.107 0-0.214-0.045-0.357-0.152-0.357-0.527v-4q0-0.232 0.17-0.402t0.402-0.17h4q0.375 0 0.527 0.357 0.152 0.348-0.125 0.616l-1.286 1.286 3.17 3.17 3.17-3.17-1.286-1.286q-0.277-0.268-0.125-0.616 0.152-0.357 0.527-0.357h4q0.232 0 0.402 0.17t0.17 0.402v4q0 0.375-0.348 0.527-0.116 0.045-0.223 0.045-0.232 0-0.402-0.17z"></path>
</svg>
