<?xml version="1.0" encoding="utf-8"?>
<!-- Generated by IcoMoon.io -->
<!DOCTYPE svg PUBLIC "-//W3C//DTD SVG 1.1//EN" "http://www.w3.org/Graphics/SVG/1.1/DTD/svg11.dtd">
<svg version="1.1" xmlns="http://www.w3.org/2000/svg" xmlns:xlink="http://www.w3.org/1999/xlink" width="14" height="16" viewBox="0 0 14 16">
<path fill="#444444" d="M11.464 8.009q0-0.241-0.161-0.402l-0.813-0.813q-0.161-0.161-0.402-0.161t-0.402 0.161l-1.688 1.687v-4.482q0-0.232-0.17-0.402t-0.402-0.17h-1.143q-0.232 0-0.402 0.17t-0.17 0.402v4.482l-1.688-1.688q-0.17-0.17-0.402-0.17t-0.402 0.17l-0.813 0.813q-0.161 0.161-0.161 0.402t0.161 0.402l4.045 4.045q0.161 0.161 0.402 0.161t0.402-0.161l4.045-4.045q0.161-0.161 0.161-0.402zM13.714 8q0 1.866-0.92 3.442t-2.496 2.496-3.442 0.92-3.442-0.92-2.496-2.496-0.92-3.442 0.92-3.442 2.496-2.496 3.442-0.92 3.442 0.92 2.496 2.496 0.92 3.442z"></path>
</svg>
