<?xml version="1.0" encoding="utf-8"?>
<!-- Generated by IcoMoon.io -->
<!DOCTYPE svg PUBLIC "-//W3C//DTD SVG 1.1//EN" "http://www.w3.org/Graphics/SVG/1.1/DTD/svg11.dtd">
<svg version="1.1" xmlns="http://www.w3.org/2000/svg" xmlns:xlink="http://www.w3.org/1999/xlink" width="15" height="16" viewBox="0 0 15 16">
<path fill="#444444" d="M13.232 9.375q0.411 0.232 0.531 0.692t-0.112 0.871l-0.571 0.982q-0.232 0.411-0.692 0.531t-0.871-0.112l-2.375-1.366v2.741q0 0.464-0.339 0.804t-0.804 0.339h-1.143q-0.464 0-0.804-0.339t-0.339-0.804v-2.741l-2.375 1.366q-0.411 0.232-0.871 0.112t-0.692-0.531l-0.571-0.982q-0.232-0.411-0.112-0.871t0.531-0.692l2.375-1.375-2.375-1.375q-0.411-0.232-0.531-0.692t0.112-0.871l0.571-0.982q0.232-0.411 0.692-0.531t0.871 0.112l2.375 1.366v-2.741q0-0.464 0.339-0.804t0.804-0.339h1.143q0.464 0 0.804 0.339t0.339 0.804v2.741l2.375-1.366q0.411-0.232 0.871-0.112t0.692 0.531l0.571 0.982q0.232 0.411 0.112 0.871t-0.531 0.692l-2.375 1.375z"></path>
</svg>
