<?xml version="1.0" encoding="utf-8"?>
<!-- Generated by IcoMoon.io -->
<!DOCTYPE svg PUBLIC "-//W3C//DTD SVG 1.1//EN" "http://www.w3.org/Graphics/SVG/1.1/DTD/svg11.dtd">
<svg version="1.1" xmlns="http://www.w3.org/2000/svg" xmlns:xlink="http://www.w3.org/1999/xlink" width="14" height="16" viewBox="0 0 14 16">
<path fill="#444444" d="M8.679 6.92q0-0.964-0.478-1.509t-1.317-0.545q-0.563 0-1.107 0.272t-0.982 0.754-0.71 1.223-0.272 1.607q0 1 0.478 1.545t1.344 0.545q0.857 0 1.571-0.594t1.094-1.482 0.379-1.817zM13.714 8q0 0.991-0.33 1.759t-0.879 1.205-1.174 0.665-1.295 0.246q-0.054 0-0.138 0.004t-0.147 0.004q-0.848 0-1.268-0.473-0.25-0.295-0.295-0.741-0.464 0.589-1.174 0.982t-1.549 0.393q-1.438 0-2.228-0.853t-0.79-2.406q0-1.402 0.589-2.589t1.598-1.879 2.196-0.692q0.777 0 1.384 0.317t0.946 0.888l0.018-0.17 0.098-0.5q0.009-0.054 0.049-0.107t0.085-0.054h1.054q0.045 0 0.116 0.098 0.045 0.045 0.027 0.143l-1.071 5.482q-0.045 0.214-0.045 0.429 0 0.348 0.112 0.464t0.397 0.116q0.25-0.009 0.509-0.049t0.652-0.214 0.688-0.446 0.509-0.799 0.214-1.223q0-2.607-1.554-4.161t-4.161-1.554q-1.161 0-2.219 0.455t-1.821 1.219-1.219 1.821-0.455 2.219 0.455 2.219 1.219 1.821 1.821 1.219 2.219 0.455q2.036 0 3.616-1.286 0.098-0.080 0.214-0.071t0.188 0.107l0.366 0.438q0.071 0.107 0.063 0.214-0.018 0.116-0.107 0.196-0.911 0.741-2.031 1.143t-2.308 0.402q-1.393 0-2.661-0.545t-2.188-1.464-1.464-2.188-0.545-2.661 0.545-2.661 1.464-2.188 2.188-1.464 2.661-0.545q3.071 0 4.964 1.893t1.893 4.964z"></path>
</svg>
