<?xml version="1.0" encoding="utf-8"?>
<!-- Generated by IcoMoon.io -->
<!DOCTYPE svg PUBLIC "-//W3C//DTD SVG 1.1//EN" "http://www.w3.org/Graphics/SVG/1.1/DTD/svg11.dtd">
<svg version="1.1" xmlns="http://www.w3.org/2000/svg" xmlns:xlink="http://www.w3.org/1999/xlink" width="18" height="16" viewBox="0 0 18 16">
<path fill="#444444" d="M4.286 9.714q0-0.589-0.42-1.009t-1.009-0.42-1.009 0.42-0.42 1.009 0.42 1.009 1.009 0.42 1.009-0.42 0.42-1.009zM4.607 6.857h9.071l-0.795-3.188q-0.018-0.071-0.125-0.156t-0.188-0.085h-6.857q-0.080 0-0.188 0.085t-0.125 0.156zM16.857 9.714q0-0.589-0.42-1.009t-1.009-0.42-1.009 0.42-0.42 1.009 0.42 1.009 1.009 0.42 1.009-0.42 0.42-1.009zM18.286 8.857v3.429q0 0.125-0.080 0.205t-0.205 0.080h-0.857v1.143q0 0.714-0.5 1.214t-1.214 0.5-1.214-0.5-0.5-1.214v-1.143h-9.143v1.143q0 0.714-0.5 1.214t-1.214 0.5-1.214-0.5-0.5-1.214v-1.143h-0.857q-0.125 0-0.205-0.080t-0.080-0.205v-3.429q0-0.83 0.585-1.415t1.415-0.585h0.25l0.938-3.741q0.205-0.839 0.929-1.406t1.598-0.567h6.857q0.875 0 1.598 0.567t0.929 1.406l0.937 3.741h0.25q0.83 0 1.415 0.585t0.585 1.415z"></path>
</svg>
