<?xml version="1.0" encoding="utf-8"?>
<!-- Generated by IcoMoon.io -->
<!DOCTYPE svg PUBLIC "-//W3C//DTD SVG 1.1//EN" "http://www.w3.org/Graphics/SVG/1.1/DTD/svg11.dtd">
<svg version="1.1" xmlns="http://www.w3.org/2000/svg" xmlns:xlink="http://www.w3.org/1999/xlink" width="19" height="16" viewBox="0 0 19 16">
<path fill="#444444" d="M15.429 4l-3.429 6.286h6.857zM4 4l-3.429 6.286h6.857zM11.33 2.286q-0.125 0.357-0.406 0.638t-0.638 0.406v11.527h5.429q0.125 0 0.205 0.080t0.080 0.205v0.571q0 0.125-0.080 0.205t-0.205 0.080h-12q-0.125 0-0.205-0.080t-0.080-0.205v-0.571q0-0.125 0.080-0.205t0.205-0.080h5.429v-11.527q-0.357-0.125-0.638-0.406t-0.406-0.638h-4.384q-0.125 0-0.205-0.080t-0.080-0.205v-0.571q0-0.125 0.080-0.205t0.205-0.080h4.384q0.188-0.509 0.625-0.826t0.991-0.317 0.991 0.317 0.625 0.826h4.384q0.125 0 0.205 0.080t0.080 0.205v0.571q0 0.125-0.080 0.205t-0.205 0.080h-4.384zM9.714 2.429q0.295 0 0.504-0.21t0.21-0.504-0.21-0.504-0.504-0.21-0.504 0.21-0.21 0.504 0.21 0.504 0.504 0.21zM19.429 10.286q0 0.652-0.415 1.17t-1.049 0.813-1.29 0.442-1.246 0.147-1.246-0.147-1.29-0.442-1.049-0.813-0.415-1.17q0-0.098 0.313-0.723t0.821-1.558 0.955-1.746 0.911-1.643 0.5-0.893q0.161-0.295 0.5-0.295t0.5 0.295q0.036 0.063 0.5 0.893t0.911 1.643 0.955 1.746 0.821 1.558 0.313 0.723zM8 10.286q0 0.652-0.415 1.17t-1.049 0.813-1.29 0.442-1.246 0.147-1.246-0.147-1.29-0.442-1.049-0.813-0.415-1.17q0-0.098 0.313-0.723t0.821-1.558 0.955-1.746 0.911-1.643 0.5-0.893q0.161-0.295 0.5-0.295t0.5 0.295q0.036 0.063 0.5 0.893t0.911 1.643 0.955 1.746 0.821 1.558 0.313 0.723z"></path>
</svg>
