<?xml version="1.0" encoding="utf-8"?>
<!-- Generated by IcoMoon.io -->
<!DOCTYPE svg PUBLIC "-//W3C//DTD SVG 1.1//EN" "http://www.w3.org/Graphics/SVG/1.1/DTD/svg11.dtd">
<svg version="1.1" xmlns="http://www.w3.org/2000/svg" xmlns:xlink="http://www.w3.org/1999/xlink" width="17" height="16" viewBox="0 0 17 16">
<path fill="#444444" d="M8.571 0l8.571 3.429v1.143h-1.143q0 0.232-0.183 0.402t-0.433 0.17h-13.625q-0.25 0-0.433-0.17t-0.183-0.402h-1.143v-1.143zM2.286 5.714h2.286v6.857h1.143v-6.857h2.286v6.857h1.143v-6.857h2.286v6.857h1.143v-6.857h2.286v6.857h0.527q0.25 0 0.433 0.17t0.183 0.402v0.571h-14.857v-0.571q0-0.232 0.183-0.402t0.433-0.17h0.527v-6.857zM16.527 14.286q0.25 0 0.433 0.17t0.183 0.402v1.143h-17.143v-1.143q0-0.232 0.183-0.402t0.433-0.17h15.911z"></path>
</svg>
