<?xml version="1.0" encoding="utf-8"?>
<!-- Generated by IcoMoon.io -->
<!DOCTYPE svg PUBLIC "-//W3C//DTD SVG 1.1//EN" "http://www.w3.org/Graphics/SVG/1.1/DTD/svg11.dtd">
<svg version="1.1" xmlns="http://www.w3.org/2000/svg" xmlns:xlink="http://www.w3.org/1999/xlink" width="16" height="16" viewBox="0 0 16 16">
<path fill="#444444" d="M15.707 5.293l-5-5c-0.248-0.248-0.607-0.347-0.948-0.264-0.18 0.044-0.34 0.137-0.467 0.264-0.114 0.113-0.199 0.254-0.248 0.411-0.226 0.735-0.618 1.373-1.197 1.952-0.774 0.773-1.782 1.36-2.848 1.979-1.132 0.656-2.301 1.336-3.26 2.294-0.815 0.816-1.369 1.723-1.694 2.775-0.11 0.355-0.014 0.74 0.248 1.003l5 5c0.248 0.248 0.607 0.348 0.948 0.264 0.179-0.045 0.34-0.136 0.467-0.264 0.114-0.114 0.199-0.254 0.248-0.412 0.227-0.735 0.619-1.373 1.198-1.952 0.774-0.774 1.781-1.358 2.848-1.977 1.131-0.657 2.301-1.337 3.259-2.295 0.815-0.815 1.369-1.723 1.694-2.776 0.109-0.355 0.013-0.741-0.248-1.003zM6 15c-1.656-1.656-3.344-3.345-5-5 1.421-4.601 7.58-4.399 9-9 1.656 1.655 3.345 3.344 5.001 5-1.421 4.599-7.58 4.399-9.001 9zM9.781 7.45c-0.163-0.136-0.327-0.229-0.492-0.276s-0.328-0.064-0.494-0.053c-0.164 0.013-0.332 0.050-0.5 0.114-0.168 0.066-0.337 0.136-0.507 0.219-0.269-0.308-0.537-0.614-0.806-0.896 0.121-0.109 0.239-0.165 0.351-0.169 0.114-0.005 0.223 0.007 0.326 0.033 0.106 0.027 0.202 0.049 0.291 0.067s0.168-0.002 0.237-0.059c0.072-0.063 0.113-0.144 0.118-0.241 0.005-0.098-0.032-0.194-0.114-0.288-0.105-0.121-0.232-0.194-0.385-0.221-0.151-0.027-0.304-0.024-0.465 0.011-0.158 0.036-0.309 0.096-0.451 0.179s-0.257 0.17-0.342 0.254c-0.032-0.031-0.065-0.061-0.098-0.092-0.036-0.033-0.081-0.051-0.135-0.050-0.054 0-0.099 0.024-0.136 0.066-0.036 0.042-0.053 0.091-0.046 0.143 0.005 0.053 0.027 0.095 0.064 0.126 0.032 0.027 0.065 0.054 0.098 0.083-0.128 0.154-0.234 0.325-0.316 0.505-0.084 0.181-0.134 0.359-0.152 0.533-0.019 0.175-0.001 0.335 0.053 0.484s0.152 0.277 0.297 0.396c0.236 0.195 0.513 0.278 0.834 0.26 0.321-0.020 0.666-0.115 1.038-0.315 0.295 0.341 0.591 0.68 0.886 0.994-0.125 0.105-0.235 0.166-0.331 0.185-0.097 0.021-0.182 0.018-0.261-0.005s-0.15-0.059-0.217-0.104c-0.066-0.046-0.132-0.085-0.197-0.117-0.064-0.032-0.131-0.050-0.199-0.051s-0.141 0.032-0.221 0.101c-0.082 0.072-0.123 0.155-0.123 0.248s0.043 0.188 0.127 0.283c0.085 0.095 0.196 0.176 0.329 0.239s0.284 0.104 0.45 0.114c0.166 0.011 0.341-0.014 0.525-0.082s0.369-0.19 0.55-0.371c0.087 0.085 0.175 0.166 0.262 0.244 0.037 0.032 0.082 0.048 0.136 0.044 0.053-0.002 0.098-0.027 0.135-0.070 0.037-0.045 0.053-0.095 0.047-0.146s-0.027-0.093-0.063-0.122c-0.088-0.070-0.176-0.145-0.264-0.223 0.149-0.184 0.27-0.377 0.358-0.569 0.089-0.193 0.142-0.378 0.159-0.55s-0.003-0.329-0.059-0.471c-0.056-0.144-0.155-0.266-0.298-0.385zM6.986 7.789c-0.141 0.006-0.265-0.041-0.373-0.146-0.046-0.044-0.078-0.098-0.098-0.161-0.021-0.064-0.027-0.133-0.019-0.209 0.007-0.075 0.029-0.154 0.069-0.232 0.037-0.079 0.092-0.158 0.162-0.234 0.253 0.252 0.506 0.529 0.76 0.814-0.192 0.106-0.359 0.162-0.5 0.168zM9.344 8.79c-0.045 0.083-0.097 0.157-0.157 0.222-0.28-0.283-0.56-0.594-0.84-0.913 0.072-0.032 0.146-0.066 0.227-0.099s0.162-0.056 0.243-0.071c0.083-0.013 0.165-0.009 0.247 0.011 0.081 0.021 0.158 0.065 0.229 0.134 0.070 0.070 0.115 0.143 0.133 0.223 0.020 0.080 0.021 0.161 0.007 0.244s-0.044 0.166-0.090 0.251zM7.359 11.090c0.098-0.079 0.244-0.075 0.334 0.017 0.098 0.098 0.098 0.257 0 0.354-0.008 0.008-0.016 0.014-0.026 0.021l0.001 0.001c-0.317 0.241-0.577 0.457-0.857 0.738-0.253 0.253-0.482 0.52-0.681 0.79l-0.319 0.438c-0.010 0.018-0.022 0.034-0.037 0.050-0.098 0.098-0.258 0.098-0.355 0-0.085-0.085-0.096-0.216-0.033-0.313l-0.001-0.001 0.342-0.467c0.213-0.292 0.459-0.578 0.731-0.85 0.282-0.284 0.588-0.537 0.9-0.777h0.001zM9.189 3.857c0.253-0.253 0.482-0.518 0.68-0.79l0.332-0.455c0.012-0.022 0.025-0.043 0.044-0.062 0.098-0.099 0.258-0.099 0.357 0 0.094 0.094 0.098 0.243 0.012 0.342l0.001 0.001-0.342 0.469c-0.214 0.292-0.459 0.577-0.73 0.849-0.283 0.282-0.587 0.537-0.899 0.777l-0.002-0.001c-0.1 0.091-0.254 0.090-0.35-0.007-0.098-0.098-0.098-0.259 0-0.357 0.018-0.019 0.038-0.032 0.059-0.043 0.294-0.224 0.578-0.46 0.839-0.721z"></path>
</svg>
