<?xml version="1.0" encoding="utf-8"?>
<!-- Generated by IcoMoon.io -->
<!DOCTYPE svg PUBLIC "-//W3C//DTD SVG 1.1//EN" "http://www.w3.org/Graphics/SVG/1.1/DTD/svg11.dtd">
<svg version="1.1" xmlns="http://www.w3.org/2000/svg" xmlns:xlink="http://www.w3.org/1999/xlink" width="16" height="16" viewBox="0 0 16 16">
<path fill="#444444" d="M0.563 13.714h-0.563v-12.571h0.563v12.571zM1.125 13.705h-0.286v-12.563h0.286v12.563zM1.964 13.705h-0.277v-12.563h0.277v12.563zM3.366 13.705h-0.277v-12.563h0.277v12.563zM4.768 13.705h-0.554v-12.563h0.554v12.563zM5.893 13.705h-0.277v-12.563h0.277v12.563zM6.455 13.705h-0.277v-12.563h0.277v12.563zM7.018 13.705h-0.277v-12.563h0.277v12.563zM8.42 13.705h-0.563v-12.563h0.563v12.563zM9.821 13.705h-0.563v-12.563h0.563v12.563zM10.946 13.705h-0.563v-12.563h0.563v12.563zM12.071 13.705h-0.563v-12.563h0.563v12.563zM12.911 13.705h-0.563v-12.563h0.563v12.563zM14.598 13.705h-0.839v-12.563h0.839v12.563zM15.161 13.705h-0.286v-12.563h0.286v12.563zM16 13.714h-0.563v-12.571h0.563v12.571z"></path>
</svg>
