<?xml version="1.0" encoding="utf-8"?>
<!-- Generated by IcoMoon.io -->
<!DOCTYPE svg PUBLIC "-//W3C//DTD SVG 1.1//EN" "http://www.w3.org/Graphics/SVG/1.1/DTD/svg11.dtd">
<svg version="1.1" xmlns="http://www.w3.org/2000/svg" xmlns:xlink="http://www.w3.org/1999/xlink" width="21" height="16" viewBox="0 0 21 16">
<path fill="#444444" d="M2.286 11.429v-6.857h8v6.857h-8zM19.429 5.143q0.473 0 0.808 0.335t0.335 0.808v3.429q0 0.473-0.335 0.808t-0.808 0.335v1.429q0 0.589-0.42 1.009t-1.009 0.42h-16.571q-0.589 0-1.009-0.42t-0.42-1.009v-8.571q0-0.589 0.42-1.009t1.009-0.42h16.571q0.589 0 1.009 0.42t0.42 1.009v1.429zM19.429 9.714v-3.429h-1.143v-2.571q0-0.125-0.080-0.205t-0.205-0.080h-16.571q-0.125 0-0.205 0.080t-0.080 0.205v8.571q0 0.125 0.080 0.205t0.205 0.080h16.571q0.125 0 0.205-0.080t0.080-0.205v-2.571h1.143z"></path>
</svg>
