<?xml version="1.0" encoding="utf-8"?>
<!-- Generated by IcoMoon.io -->
<!DOCTYPE svg PUBLIC "-//W3C//DTD SVG 1.1//EN" "http://www.w3.org/Graphics/SVG/1.1/DTD/svg11.dtd">
<svg version="1.1" xmlns="http://www.w3.org/2000/svg" xmlns:xlink="http://www.w3.org/1999/xlink" width="18" height="16" viewBox="0 0 18 16">
<path fill="#444444" d="M2.286 9.143h15.429q0.232 0 0.402 0.17t0.17 0.402v4h-2.286v-2.286h-13.714v2.286h-2.286v-10.857q0-0.232 0.17-0.402t0.402-0.17h1.143q0.232 0 0.402 0.17t0.17 0.402v6.286zM7.429 6.286q0-0.946-0.67-1.616t-1.616-0.67-1.616 0.67-0.67 1.616 0.67 1.616 1.616 0.67 1.616-0.67 0.67-1.616zM18.286 8.571v-0.571q0-1.42-1.004-2.424t-2.424-1.004h-6.286q-0.232 0-0.402 0.17t-0.17 0.402v3.429h10.286z"></path>
</svg>
