<?xml version="1.0" encoding="utf-8"?>
<!-- Generated by IcoMoon.io -->
<!DOCTYPE svg PUBLIC "-//W3C//DTD SVG 1.1//EN" "http://www.w3.org/Graphics/SVG/1.1/DTD/svg11.dtd">
<svg version="1.1" xmlns="http://www.w3.org/2000/svg" xmlns:xlink="http://www.w3.org/1999/xlink" width="18" height="16" viewBox="0 0 18 16">
<path fill="#444444" d="M16.5 3.027h-4.563v1.107h4.563v-1.107zM14.25 6.83q-0.804 0-1.304 0.469t-0.554 1.272h3.643q-0.161-1.741-1.786-1.741zM14.393 12.054q0.563 0 1.089-0.286t0.679-0.777h1.973q-0.893 2.741-3.813 2.741-1.911 0-3.040-1.179t-1.129-3.098q0-1.857 1.165-3.085t3.004-1.228q1.232 0 2.147 0.607t1.366 1.598 0.451 2.214q0 0.152-0.018 0.42h-5.875q0 0.991 0.513 1.531t1.487 0.54zM2.473 11.607h2.643q1.83 0 1.83-1.491 0-1.607-1.777-1.607h-2.696v3.098zM2.473 6.813h2.509q0.696 0 1.103-0.326t0.406-1.013q0-1.286-1.696-1.286h-2.321v2.625zM0 2.268h5.304q0.777 0 1.384 0.125t1.129 0.424 0.804 0.862 0.281 1.375q0 1.616-1.536 2.348 1.018 0.286 1.536 1.027t0.518 1.821q0 0.67-0.219 1.219t-0.589 0.924-0.879 0.634-1.080 0.375-1.196 0.116h-5.455v-11.25z"></path>
</svg>
