<?xml version="1.0" encoding="utf-8"?>
<!-- Generated by IcoMoon.io -->
<!DOCTYPE svg PUBLIC "-//W3C//DTD SVG 1.1//EN" "http://www.w3.org/Graphics/SVG/1.1/DTD/svg11.dtd">
<svg version="1.1" xmlns="http://www.w3.org/2000/svg" xmlns:xlink="http://www.w3.org/1999/xlink" width="14" height="16" viewBox="0 0 14 16">
<path fill="#444444" d="M11.143 1.143q1.063 0 1.817 0.754t0.754 1.817v8.571q0 1.063-0.754 1.817t-1.817 0.754h-8.571q-1.063 0-1.817-0.754t-0.754-1.817v-8.571q0-1.063 0.754-1.817t1.817-0.754h8.571zM4.455 4.42h-3.313v7.027h3.411q1.045 0 1.759-0.513t0.714-1.522q0-1.411-1.277-1.786 0.955-0.464 0.955-1.464 0-0.509-0.174-0.862t-0.504-0.54-0.705-0.263-0.866-0.076zM4.259 7.259h-1.571v-1.643h1.455q1.063 0 1.063 0.804 0 0.839-0.946 0.839zM4.339 10.25h-1.652v-1.938h1.688q1.107 0 1.107 1.009 0 0.929-1.143 0.929zM10.143 10.536q-0.607 0-0.929-0.339t-0.321-0.955h3.67q0.009-0.089 0.009-0.268 0-1.179-0.665-1.969t-1.817-0.79q-1.143 0-1.875 0.768t-0.732 1.929q0 1.205 0.705 1.938t1.902 0.732q1.83 0 2.384-1.705h-1.232q-0.098 0.304-0.424 0.482t-0.674 0.179zM10.054 7.268q1.009 0 1.107 1.089h-2.268q0.036-0.5 0.348-0.795t0.813-0.295zM8.607 4.893h2.848v0.688h-2.848v-0.688z"></path>
</svg>
