<?xml version="1.0" encoding="utf-8"?>
<!-- Generated by IcoMoon.io -->
<!DOCTYPE svg PUBLIC "-//W3C//DTD SVG 1.1//EN" "http://www.w3.org/Graphics/SVG/1.1/DTD/svg11.dtd">
<svg version="1.1" xmlns="http://www.w3.org/2000/svg" xmlns:xlink="http://www.w3.org/1999/xlink" width="18" height="16" viewBox="0 0 18 16">
<path fill="#444444" d="M13.911 7.607q0.545 3.179 2.661 4.964 0 0.464-0.339 0.804t-0.804 0.339h-4q0 0.946-0.67 1.616t-1.616 0.67-1.612-0.665-0.674-1.612zM9.143 15.286q0.143 0 0.143-0.143t-0.143-0.143q-0.527 0-0.906-0.379t-0.379-0.906q0-0.143-0.143-0.143t-0.143 0.143q0 0.652 0.46 1.112t1.112 0.46zM18.089 1q0.071 0.089 0.067 0.21t-0.094 0.201l-16.714 14.482q-0.089 0.071-0.21 0.063t-0.192-0.098l-0.75-0.857q-0.071-0.089-0.067-0.21t0.094-0.192l1.661-1.438q-0.17-0.286-0.17-0.589 0.446-0.375 0.813-0.786t0.759-1.067 0.665-1.415 0.446-1.839 0.174-2.321q0-1.357 1.045-2.522t2.741-1.415q-0.071-0.17-0.071-0.348 0-0.357 0.25-0.607t0.607-0.25 0.607 0.25 0.25 0.607q0 0.179-0.071 0.348 1.107 0.161 1.955 0.737t1.321 1.406l3.732-3.241q0.089-0.071 0.21-0.063t0.192 0.098z"></path>
</svg>
