<?xml version="1.0" encoding="utf-8"?>
<!-- Generated by IcoMoon.io -->
<!DOCTYPE svg PUBLIC "-//W3C//DTD SVG 1.1//EN" "http://www.w3.org/Graphics/SVG/1.1/DTD/svg11.dtd">
<svg version="1.1" xmlns="http://www.w3.org/2000/svg" xmlns:xlink="http://www.w3.org/1999/xlink" width="16" height="16" viewBox="0 0 16 16">
<path fill="#444444" d="M8.143 15.143q0-0.143-0.143-0.143-0.527 0-0.906-0.379t-0.379-0.906q0-0.143-0.143-0.143t-0.143 0.143q0 0.652 0.46 1.112t1.112 0.46q0.143 0 0.143-0.143zM2.196 12.571h11.607q-2.375-2.679-2.375-7.429 0-0.455-0.214-0.938t-0.616-0.92-1.085-0.719-1.513-0.281-1.513 0.281-1.085 0.719-0.616 0.92-0.214 0.938q0 4.75-2.375 7.429zM15.429 12.571q0 0.464-0.339 0.804t-0.804 0.339h-4q0 0.946-0.67 1.616t-1.616 0.67-1.616-0.67-0.67-1.616h-4q-0.464 0-0.804-0.339t-0.339-0.804q0.446-0.375 0.813-0.786t0.759-1.067 0.665-1.415 0.446-1.839 0.174-2.321q0-1.357 1.045-2.522t2.741-1.415q-0.071-0.17-0.071-0.348 0-0.357 0.25-0.607t0.607-0.25 0.607 0.25 0.25 0.607q0 0.179-0.071 0.348 1.696 0.25 2.741 1.415t1.045 2.522q0 1.241 0.174 2.321t0.446 1.839 0.665 1.415 0.759 1.067 0.813 0.786z"></path>
</svg>
