<?xml version="1.0" encoding="utf-8"?>
<!-- Generated by IcoMoon.io -->
<!DOCTYPE svg PUBLIC "-//W3C//DTD SVG 1.1//EN" "http://www.w3.org/Graphics/SVG/1.1/DTD/svg11.dtd">
<svg version="1.1" xmlns="http://www.w3.org/2000/svg" xmlns:xlink="http://www.w3.org/1999/xlink" width="21" height="16" viewBox="0 0 21 16">
<path fill="#444444" d="M6.804 10.286h-2.804q-0.357 0-0.513-0.313t0.058-0.598l1.679-2.241q-0.58-0.277-1.223-0.277-1.179 0-2.018 0.839t-0.839 2.018 0.839 2.018 2.018 0.839q1.027 0 1.813-0.647t0.991-1.638zM5.143 9.143h1.661q-0.161-0.759-0.67-1.321zM9.429 9.143l2.571-3.429h-4.286l-0.884 1.179q0.938 0.92 1.125 2.25h1.473zM19.429 9.714q0-1.179-0.839-2.018t-2.018-0.839q-0.536 0-1.080 0.214l1.554 2.321q0.134 0.205 0.089 0.438t-0.241 0.357q-0.134 0.098-0.321 0.098-0.313 0-0.473-0.259l-1.554-2.321q-0.83 0.848-0.83 2.009 0 1.179 0.839 2.018t2.018 0.839 2.018-0.839 0.839-2.018zM20.571 9.714q0 1.652-1.174 2.826t-2.826 1.174-2.826-1.174-1.174-2.826q0-0.866 0.353-1.638t0.978-1.335l-0.58-0.875-3.152 4.188q-0.161 0.232-0.455 0.232h-1.759q-0.205 1.464-1.33 2.446t-2.625 0.982q-1.652 0-2.826-1.174t-1.174-2.826 1.174-2.826 2.826-1.174q1.018 0 1.92 0.491l1.223-1.634h-2q-0.232 0-0.402-0.17t-0.17-0.402 0.17-0.402 0.402-0.17h3.429v1.143h3.884l-0.759-1.143h-1.982q-0.232 0-0.402-0.17t-0.17-0.402 0.17-0.402 0.402-0.17h2.286q0.295 0 0.473 0.25l2.384 3.571q0.813-0.393 1.714-0.393 1.652 0 2.826 1.174t1.174 2.826z"></path>
</svg>
