<?xml version="1.0" encoding="utf-8"?>
<!-- Generated by IcoMoon.io -->
<!DOCTYPE svg PUBLIC "-//W3C//DTD SVG 1.1//EN" "http://www.w3.org/Graphics/SVG/1.1/DTD/svg11.dtd">
<svg version="1.1" xmlns="http://www.w3.org/2000/svg" xmlns:xlink="http://www.w3.org/1999/xlink" width="16" height="16" viewBox="0 0 16 16">
<path fill="#444444" d="M6.286 2.857v6.857q0 0.232-0.17 0.402t-0.402 0.17v5.143q0 0.232-0.17 0.402t-0.402 0.17h-4.571q-0.232 0-0.402-0.17t-0.17-0.402v-4.571l2.223-7.795q0.063-0.205 0.277-0.205h3.786zM9.143 2.857v6.286h-2.286v-6.286h2.286zM16 10.857v4.571q0 0.232-0.17 0.402t-0.402 0.17h-4.571q-0.232 0-0.402-0.17t-0.17-0.402v-5.143q-0.232 0-0.402-0.17t-0.17-0.402v-6.857h3.786q0.214 0 0.277 0.205zM6.571 0.286v2h-3.143v-2q0-0.125 0.080-0.205t0.205-0.080h2.571q0.125 0 0.205 0.080t0.080 0.205zM12.571 0.286v2h-3.143v-2q0-0.125 0.080-0.205t0.205-0.080h2.571q0.125 0 0.205 0.080t0.080 0.205z"></path>
</svg>
