<?xml version="1.0" encoding="utf-8"?>
<!-- Generated by IcoMoon.io -->
<!DOCTYPE svg PUBLIC "-//W3C//DTD SVG 1.1//EN" "http://www.w3.org/Graphics/SVG/1.1/DTD/svg11.dtd">
<svg version="1.1" xmlns="http://www.w3.org/2000/svg" xmlns:xlink="http://www.w3.org/1999/xlink" width="16" height="16" viewBox="0 0 16 16">
<path fill="#444444" d="M16 12.571v3.429h-16v-3.429q0.402 0 0.759-0.125t0.527-0.246 0.42-0.335q0.268-0.241 0.46-0.339t0.504-0.098 0.496 0.098 0.469 0.339q0.259 0.223 0.42 0.339t0.518 0.241 0.768 0.125q0.402 0 0.759-0.129t0.518-0.241 0.429-0.335q0.188-0.17 0.29-0.241t0.277-0.134 0.388-0.063q0.313 0 0.504 0.098t0.46 0.339q0.25 0.214 0.42 0.335t0.527 0.246 0.759 0.125 0.759-0.125 0.527-0.246 0.42-0.335q0.268-0.241 0.46-0.339t0.504-0.098q0.304 0 0.496 0.098t0.46 0.339q0.25 0.214 0.42 0.335t0.527 0.246 0.759 0.125zM16 9.714v1.714q-0.313 0-0.496-0.098t-0.469-0.339q-0.259-0.223-0.42-0.339t-0.518-0.241-0.759-0.125q-0.411 0-0.768 0.125t-0.518 0.241-0.42 0.339q-0.196 0.17-0.295 0.241t-0.277 0.134-0.393 0.063q-0.313 0-0.504-0.098t-0.46-0.339q-0.259-0.223-0.42-0.339t-0.518-0.241-0.768-0.125q-0.402 0-0.759 0.129t-0.518 0.241-0.429 0.335q-0.188 0.17-0.29 0.241t-0.277 0.134-0.388 0.063q-0.313 0-0.504-0.098t-0.46-0.339q-0.25-0.214-0.42-0.335t-0.527-0.246-0.759-0.125q-0.411 0-0.768 0.125t-0.518 0.241-0.42 0.339q-0.268 0.241-0.46 0.339t-0.504 0.098v-1.714q0-0.714 0.5-1.214t1.214-0.5h0.571v-4h2.286v4h2.286v-4h2.286v4h2.286v-4h2.286v4h0.571q0.714 0 1.214 0.5t0.5 1.214zM4.571 2q0 0.688-0.321 1.058t-0.821 0.371q-0.473 0-0.808-0.335t-0.335-0.808q0-0.259 0.085-0.455t0.21-0.304 0.277-0.25 0.277-0.281 0.21-0.397 0.085-0.598q0.339 0 0.741 0.661t0.402 1.339zM9.143 2q0 0.688-0.321 1.058t-0.821 0.371q-0.473 0-0.808-0.335t-0.335-0.808q0-0.259 0.085-0.455t0.21-0.304 0.277-0.25 0.277-0.281 0.21-0.397 0.085-0.598q0.339 0 0.741 0.661t0.402 1.339zM13.714 2q0 0.688-0.321 1.058t-0.821 0.371q-0.473 0-0.808-0.335t-0.335-0.808q0-0.259 0.085-0.455t0.21-0.304 0.277-0.25 0.277-0.281 0.21-0.397 0.085-0.598q0.339 0 0.741 0.661t0.402 1.339z"></path>
</svg>
