<?xml version="1.0" encoding="utf-8"?>
<!-- Generated by IcoMoon.io -->
<!DOCTYPE svg PUBLIC "-//W3C//DTD SVG 1.1//EN" "http://www.w3.org/Graphics/SVG/1.1/DTD/svg11.dtd">
<svg version="1.1" xmlns="http://www.w3.org/2000/svg" xmlns:xlink="http://www.w3.org/1999/xlink" width="13" height="16" viewBox="0 0 13 16">
<path fill="#444444" d="M7.277 7.67q0.071 0.562-0.451 0.902t-0.996 0.054q-0.348-0.152-0.478-0.518t-0.004-0.732 0.464-0.518q0.321-0.161 0.647-0.107t0.571 0.317 0.246 0.603zM8.268 7.482q-0.125-0.955-1.009-1.464t-1.759-0.116q-0.563 0.25-0.897 0.79t-0.308 1.156q0.036 0.813 0.692 1.384t1.478 0.5q0.813-0.071 1.357-0.75t0.446-1.5zM10.402 2.643q-0.179-0.241-0.5-0.397t-0.518-0.196-0.634-0.112q-2.598-0.42-5.054 0.018-0.384 0.063-0.589 0.107t-0.491 0.196-0.446 0.384q0.268 0.25 0.679 0.406t0.656 0.196 0.781 0.103q2.036 0.259 4 0.009 0.563-0.071 0.799-0.107t0.647-0.192 0.67-0.415zM10.911 11.884q-0.071 0.232-0.138 0.683t-0.125 0.75-0.254 0.625-0.518 0.504q-0.768 0.429-1.692 0.638t-1.804 0.196-1.799-0.165q-0.411-0.071-0.728-0.161t-0.683-0.241-0.652-0.388-0.464-0.549q-0.223-0.857-0.509-2.607l0.054-0.143 0.161-0.080q1.991 1.321 4.522 1.321t4.531-1.321q0.188 0.054 0.214 0.205t-0.045 0.402-0.071 0.33zM12.527 3.304q-0.232 1.491-0.991 5.848-0.045 0.268-0.241 0.5t-0.388 0.357-0.487 0.277q-2.25 1.125-5.446 0.786-2.214-0.241-3.518-1.241-0.134-0.107-0.228-0.237t-0.152-0.313-0.080-0.304-0.054-0.353-0.049-0.313q-0.080-0.446-0.237-1.339t-0.25-1.442-0.21-1.317-0.196-1.411q0.027-0.232 0.156-0.433t0.281-0.335 0.402-0.268 0.411-0.201 0.429-0.165q1.116-0.411 2.795-0.571 3.384-0.33 6.036 0.446 1.384 0.411 1.92 1.089 0.143 0.179 0.147 0.455t-0.049 0.482z"></path>
</svg>
