<?xml version="1.0" encoding="utf-8"?>
<!-- Generated by IcoMoon.io -->
<!DOCTYPE svg PUBLIC "-//W3C//DTD SVG 1.1//EN" "http://www.w3.org/Graphics/SVG/1.1/DTD/svg11.dtd">
<svg version="1.1" xmlns="http://www.w3.org/2000/svg" xmlns:xlink="http://www.w3.org/1999/xlink" width="14" height="16" viewBox="0 0 14 16">
<path fill="#444444" d="M7.571 7.768q0-0.384-0.366-0.589t-0.688-0.009q-0.384 0.179-0.379 0.647t0.388 0.629q0.348 0.205 0.723-0.036t0.321-0.643zM8.286 7.625q0.071 0.589-0.321 1.080t-0.982 0.545-1.063-0.357-0.5-1.009q-0.018-0.438 0.228-0.83t0.647-0.571q0.625-0.277 1.263 0.089t0.728 1.054zM9.821 4.134q-0.179 0.188-0.478 0.304t-0.473 0.143-0.567 0.071q-1.384 0.179-2.893 0-0.393-0.054-0.563-0.085t-0.469-0.143-0.487-0.29q0.116-0.17 0.321-0.277t0.357-0.138 0.42-0.076q1.768-0.313 3.643-0.009 0.295 0.045 0.455 0.076t0.384 0.143 0.348 0.281zM10.196 10.795q0-0.063 0.049-0.237t0.027-0.286-0.156-0.147q-1.438 0.946-3.259 0.946t-3.268-0.946l-0.107 0.054-0.045 0.107q0.232 1.375 0.366 1.875 0.42 0.723 1.821 0.964 2.223 0.411 3.821-0.473 0.304-0.17 0.438-0.46t0.201-0.763 0.112-0.634zM11.357 4.607q0.080-0.473-0.071-0.67-0.384-0.491-1.384-0.786-1.929-0.563-4.348-0.321-1.179 0.107-2.018 0.411-0.339 0.134-0.531 0.223t-0.42 0.304-0.263 0.482q0.071 0.607 0.17 1.232t0.259 1.527 0.214 1.223q0.009 0.045 0.045 0.277t0.063 0.321 0.107 0.241 0.196 0.25q0.938 0.714 2.536 0.893 2.312 0.25 3.929-0.563 0.214-0.116 0.353-0.205t0.277-0.259 0.174-0.357q0.429-2.384 0.714-4.223zM13.714 3.714v8.571q0 1.063-0.754 1.817t-1.817 0.754h-8.571q-1.063 0-1.817-0.754t-0.754-1.817v-8.571q0-1.063 0.754-1.817t1.817-0.754h8.571q1.063 0 1.817 0.754t0.754 1.817z"></path>
</svg>
