<?xml version="1.0" encoding="utf-8"?>
<!-- Generated by IcoMoon.io -->
<!DOCTYPE svg PUBLIC "-//W3C//DTD SVG 1.1//EN" "http://www.w3.org/Graphics/SVG/1.1/DTD/svg11.dtd">
<svg version="1.1" xmlns="http://www.w3.org/2000/svg" xmlns:xlink="http://www.w3.org/1999/xlink" width="12" height="16" viewBox="0 0 12 16">
<path fill="#444444" d="M10.42 5.714q0.161 1.625-1.17 2.304 1.045 0.25 1.563 0.92t0.402 1.911q-0.063 0.634-0.29 1.116t-0.576 0.795-0.866 0.522-1.085 0.308-1.299 0.134v2.277h-1.375v-2.241q-0.714 0-1.089-0.009v2.25h-1.375v-2.277q-0.161 0-0.482-0.004t-0.491-0.004h-1.786l0.277-1.634h0.991q0.446 0 0.518-0.455v-3.589h0.143q-0.054-0.009-0.143-0.009v-2.563q-0.116-0.607-0.795-0.607h-0.991v-1.464l1.893 0.009q0.571 0 0.866-0.009v-2.25h1.375v2.205q0.732-0.018 1.089-0.018v-2.188h1.375v2.25q0.705 0.063 1.25 0.201t1.009 0.402 0.737 0.696 0.326 1.022zM8.5 10.58q0-0.321-0.134-0.571t-0.33-0.411-0.513-0.272-0.585-0.165-0.661-0.080-0.616-0.027-0.576 0.009-0.424 0.009v3.018q0.071 0 0.33 0.004t0.429 0.004 0.473-0.013 0.522-0.036 0.509-0.076 0.496-0.125 0.424-0.188 0.353-0.268 0.219-0.357 0.085-0.455zM7.866 6.33q0-0.295-0.112-0.522t-0.272-0.375-0.429-0.25-0.491-0.147-0.549-0.071-0.518-0.022-0.482 0.009-0.353 0.004v2.741q0.045 0 0.308 0.004t0.415 0 0.446-0.018 0.491-0.049 0.46-0.098 0.433-0.165 0.33-0.241 0.241-0.344 0.080-0.455z"></path>
</svg>
