<?xml version="1.0" encoding="utf-8"?>
<!-- Generated by IcoMoon.io -->
<!DOCTYPE svg PUBLIC "-//W3C//DTD SVG 1.1//EN" "http://www.w3.org/Graphics/SVG/1.1/DTD/svg11.dtd">
<svg version="1.1" xmlns="http://www.w3.org/2000/svg" xmlns:xlink="http://www.w3.org/1999/xlink" width="14" height="16" viewBox="0 0 14 16">
<path fill="#444444" d="M7.509 9.402l1.321 1.321-1.33 1.33zM7.5 3.946l1.33 1.33-1.321 1.321zM6.339 14.875l4.143-4.143-2.732-2.732 2.732-2.732-4.143-4.143v5.455l-2.277-2.277-0.83 0.83 2.857 2.866-2.857 2.866 0.83 0.83 2.277-2.277v5.455zM12.759 8q0 1.866-0.286 3.263t-0.781 2.295-1.254 1.451-1.621 0.772-1.96 0.219-1.96-0.219-1.621-0.772-1.254-1.451-0.781-2.295-0.286-3.263 0.286-3.263 0.781-2.295 1.254-1.451 1.621-0.772 1.96-0.219 1.96 0.219 1.621 0.772 1.254 1.451 0.781 2.295 0.286 3.263z"></path>
</svg>
