<?xml version="1.0" encoding="utf-8"?>
<!-- Generated by IcoMoon.io -->
<!DOCTYPE svg PUBLIC "-//W3C//DTD SVG 1.1//EN" "http://www.w3.org/Graphics/SVG/1.1/DTD/svg11.dtd">
<svg version="1.1" xmlns="http://www.w3.org/2000/svg" xmlns:xlink="http://www.w3.org/1999/xlink" width="8" height="16" viewBox="0 0 8 16">
<path fill="#444444" d="M7.902 5.054q0.161 0.179 0.063 0.393l-4.821 10.33q-0.116 0.223-0.375 0.223-0.036 0-0.125-0.018-0.152-0.045-0.228-0.17t-0.040-0.268l1.759-7.214-3.625 0.902q-0.036 0.009-0.107 0.009-0.161 0-0.277-0.098-0.161-0.134-0.116-0.348l1.795-7.366q0.036-0.125 0.143-0.205t0.25-0.080h2.929q0.17 0 0.286 0.112t0.116 0.263q0 0.071-0.045 0.161l-1.527 4.134 3.536-0.875q0.071-0.018 0.107-0.018 0.17 0 0.304 0.134z"></path>
</svg>
