<?xml version="1.0" encoding="utf-8"?>
<!-- Generated by IcoMoon.io -->
<!DOCTYPE svg PUBLIC "-//W3C//DTD SVG 1.1//EN" "http://www.w3.org/Graphics/SVG/1.1/DTD/svg11.dtd">
<svg version="1.1" xmlns="http://www.w3.org/2000/svg" xmlns:xlink="http://www.w3.org/1999/xlink" width="16" height="16" viewBox="0 0 16 16">
<path fill="#444444" d="M5.098 5.259q-0.089-0.223-0.304-0.313t-0.438 0q-0.964 0.393-1.705 1.134t-1.134 1.705q-0.089 0.223 0 0.438t0.313 0.304q0.116 0.045 0.214 0.045 0.375 0 0.536-0.357 0.304-0.75 0.879-1.326t1.326-0.879q0.223-0.098 0.313-0.313t0-0.438zM13.509 2.080l0.411 0.411-2.179 2.17 0.607 0.607q0.17 0.17 0.17 0.406t-0.17 0.406l-0.571 0.571q0.795 1.438 0.795 3.063 0 1.277-0.496 2.442t-1.339 2.009-2.009 1.339-2.442 0.496-2.442-0.496-2.009-1.339-1.339-2.009-0.496-2.442 0.496-2.442 1.339-2.009 2.009-1.339 2.442-0.496q1.625 0 3.063 0.795l0.571-0.571q0.17-0.17 0.406-0.17t0.406 0.17l0.607 0.607zM13.58 1.58q-0.089 0.089-0.196 0.089-0.116 0-0.205-0.089l-0.813-0.804q-0.080-0.089-0.080-0.205t0.080-0.205q0.089-0.080 0.205-0.080t0.205 0.080l0.804 0.813q0.089 0.080 0.089 0.201t-0.089 0.201zM15.634 3.634q-0.098 0.080-0.205 0.080t-0.205-0.080l-0.804-0.813q-0.089-0.080-0.089-0.201t0.089-0.201q0.080-0.089 0.201-0.089t0.201 0.089l0.813 0.804q0.080 0.089 0.080 0.205t-0.080 0.205zM16 2q0 0.125-0.080 0.205t-0.205 0.080h-0.857q-0.125 0-0.205-0.080t-0.080-0.205 0.080-0.205 0.205-0.080h0.857q0.125 0 0.205 0.080t0.080 0.205zM14.286 0.286v0.857q0 0.125-0.080 0.205t-0.205 0.080-0.205-0.080-0.080-0.205v-0.857q0-0.125 0.080-0.205t0.205-0.080 0.205 0.080 0.080 0.205zM15.634 0.777l-0.813 0.804q-0.089 0.089-0.196 0.089-0.116 0-0.205-0.089-0.089-0.080-0.089-0.201t0.089-0.201l0.804-0.813q0.089-0.080 0.205-0.080t0.205 0.080q0.080 0.089 0.080 0.205t-0.080 0.205z"></path>
</svg>
