<?xml version="1.0" encoding="utf-8"?>
<!-- Generated by IcoMoon.io -->
<!DOCTYPE svg PUBLIC "-//W3C//DTD SVG 1.1//EN" "http://www.w3.org/Graphics/SVG/1.1/DTD/svg11.dtd">
<svg version="1.1" xmlns="http://www.w3.org/2000/svg" xmlns:xlink="http://www.w3.org/1999/xlink" width="16" height="16" viewBox="0 0 16 16">
<path fill="#444444" d="M8 3.5c0.138 0 0.25 0.112 0.25 0.25s-0.113 0.25-0.25 0.25c-2.663 0-5 1.402-5 3 0 0.138-0.112 0.25-0.25 0.25s-0.25-0.112-0.25-0.25c0-1.897 2.518-3.5 5.5-3.5zM8 1c-4.418 0-8 2.687-8 6 0 2.063 1.389 3.883 3.504 4.963 0 0.014-0.004 0.023-0.004 0.037 0 0.896-0.67 1.861-0.964 2.368 0.001 0 0.001 0 0.001 0-0.023 0.055-0.037 0.116-0.037 0.179 0 0.25 0.203 0.453 0.453 0.453 0.047 0 0.13-0.012 0.127-0.007 1.563-0.256 3.035-1.691 3.377-2.107 0.5 0.073 1.014 0.114 1.543 0.114 4.418 0 8-2.687 8-6s-3.582-6-8-6zM8 12c-0.458 0-0.929-0.035-1.398-0.104-0.048-0.008-0.097-0.011-0.145-0.011-0.297 0-0.582 0.132-0.773 0.365-0.214 0.261-0.823 0.842-1.543 1.27 0.195-0.447 0.348-0.949 0.358-1.466 0.003-0.032 0.005-0.065 0.005-0.092 0-0.376-0.21-0.72-0.545-0.89-1.853-0.946-2.959-2.469-2.959-4.072 0-2.757 3.14-5 7-5s7 2.243 7 5c0 2.757-3.14 5-7 5z"></path>
</svg>
