<?xml version="1.0" encoding="utf-8"?>
<!-- Generated by IcoMoon.io -->
<!DOCTYPE svg PUBLIC "-//W3C//DTD SVG 1.1//EN" "http://www.w3.org/Graphics/SVG/1.1/DTD/svg11.dtd">
<svg version="1.1" xmlns="http://www.w3.org/2000/svg" xmlns:xlink="http://www.w3.org/1999/xlink" width="15" height="16" viewBox="0 0 15 16">
<path fill="#444444" d="M14.571 8.571q0 0.232-0.17 0.402t-0.402 0.17h-2q0 1.527-0.598 2.589l1.857 1.866q0.17 0.17 0.17 0.402t-0.17 0.402q-0.161 0.17-0.402 0.17t-0.402-0.17l-1.768-1.759q-0.045 0.045-0.134 0.116t-0.375 0.254-0.58 0.326-0.732 0.259-0.866 0.116v-8h-1.143v8q-0.455 0-0.906-0.121t-0.777-0.295-0.589-0.348-0.388-0.29l-0.134-0.125-1.634 1.848q-0.179 0.188-0.429 0.188-0.214 0-0.384-0.143-0.17-0.161-0.183-0.397t0.138-0.415l1.804-2.027q-0.518-1.018-0.518-2.446h-2q-0.232 0-0.402-0.17t-0.17-0.402 0.17-0.402 0.402-0.17h2v-2.625l-1.545-1.545q-0.17-0.17-0.17-0.402t0.17-0.402 0.402-0.17 0.402 0.17l1.545 1.545h7.536l1.545-1.545q0.17-0.17 0.402-0.17t0.402 0.17 0.17 0.402-0.17 0.402l-1.545 1.545v2.625h2q0.232 0 0.402 0.17t0.17 0.402zM10.286 3.429h-5.714q0-1.188 0.835-2.022t2.022-0.835 2.022 0.835 0.835 2.022z"></path>
</svg>
