<?xml version="1.0" encoding="utf-8"?>
<!-- Generated by IcoMoon.io -->
<!DOCTYPE svg PUBLIC "-//W3C//DTD SVG 1.1//EN" "http://www.w3.org/Graphics/SVG/1.1/DTD/svg11.dtd">
<svg version="1.1" xmlns="http://www.w3.org/2000/svg" xmlns:xlink="http://www.w3.org/1999/xlink" width="13" height="16" viewBox="0 0 13 16">
<path fill="#444444" d="M12 0q0.232 0 0.402 0.17t0.17 0.402v14.857q0 0.232-0.17 0.402t-0.402 0.17h-11.429q-0.232 0-0.402-0.17t-0.17-0.402v-14.857q0-0.232 0.17-0.402t0.402-0.17h11.429zM4.571 2.571v0.571q0 0.125 0.080 0.205t0.205 0.080h0.571q0.125 0 0.205-0.080t0.080-0.205v-0.571q0-0.125-0.080-0.205t-0.205-0.080h-0.571q-0.125 0-0.205 0.080t-0.080 0.205zM4.571 4.857v0.571q0 0.125 0.080 0.205t0.205 0.080h0.571q0.125 0 0.205-0.080t0.080-0.205v-0.571q0-0.125-0.080-0.205t-0.205-0.080h-0.571q-0.125 0-0.205 0.080t-0.080 0.205zM4.571 7.143v0.571q0 0.125 0.080 0.205t0.205 0.080h0.571q0.125 0 0.205-0.080t0.080-0.205v-0.571q0-0.125-0.080-0.205t-0.205-0.080h-0.571q-0.125 0-0.205 0.080t-0.080 0.205zM4.571 9.429v0.571q0 0.125 0.080 0.205t0.205 0.080h0.571q0.125 0 0.205-0.080t0.080-0.205v-0.571q0-0.125-0.080-0.205t-0.205-0.080h-0.571q-0.125 0-0.205 0.080t-0.080 0.205zM3.429 12.286v-0.571q0-0.125-0.080-0.205t-0.205-0.080h-0.571q-0.125 0-0.205 0.080t-0.080 0.205v0.571q0 0.125 0.080 0.205t0.205 0.080h0.571q0.125 0 0.205-0.080t0.080-0.205zM3.429 10v-0.571q0-0.125-0.080-0.205t-0.205-0.080h-0.571q-0.125 0-0.205 0.080t-0.080 0.205v0.571q0 0.125 0.080 0.205t0.205 0.080h0.571q0.125 0 0.205-0.080t0.080-0.205zM3.429 7.714v-0.571q0-0.125-0.080-0.205t-0.205-0.080h-0.571q-0.125 0-0.205 0.080t-0.080 0.205v0.571q0 0.125 0.080 0.205t0.205 0.080h0.571q0.125 0 0.205-0.080t0.080-0.205zM3.429 5.429v-0.571q0-0.125-0.080-0.205t-0.205-0.080h-0.571q-0.125 0-0.205 0.080t-0.080 0.205v0.571q0 0.125 0.080 0.205t0.205 0.080h0.571q0.125 0 0.205-0.080t0.080-0.205zM3.429 3.143v-0.571q0-0.125-0.080-0.205t-0.205-0.080h-0.571q-0.125 0-0.205 0.080t-0.080 0.205v0.571q0 0.125 0.080 0.205t0.205 0.080h0.571q0.125 0 0.205-0.080t0.080-0.205zM8 14.571v-1.714q0-0.125-0.080-0.205t-0.205-0.080h-2.857q-0.125 0-0.205 0.080t-0.080 0.205v1.714q0 0.125 0.080 0.205t0.205 0.080h2.857q0.125 0 0.205-0.080t0.080-0.205zM8 10v-0.571q0-0.125-0.080-0.205t-0.205-0.080h-0.571q-0.125 0-0.205 0.080t-0.080 0.205v0.571q0 0.125 0.080 0.205t0.205 0.080h0.571q0.125 0 0.205-0.080t0.080-0.205zM8 7.714v-0.571q0-0.125-0.080-0.205t-0.205-0.080h-0.571q-0.125 0-0.205 0.080t-0.080 0.205v0.571q0 0.125 0.080 0.205t0.205 0.080h0.571q0.125 0 0.205-0.080t0.080-0.205zM8 5.429v-0.571q0-0.125-0.080-0.205t-0.205-0.080h-0.571q-0.125 0-0.205 0.080t-0.080 0.205v0.571q0 0.125 0.080 0.205t0.205 0.080h0.571q0.125 0 0.205-0.080t0.080-0.205zM8 3.143v-0.571q0-0.125-0.080-0.205t-0.205-0.080h-0.571q-0.125 0-0.205 0.080t-0.080 0.205v0.571q0 0.125 0.080 0.205t0.205 0.080h0.571q0.125 0 0.205-0.080t0.080-0.205zM10.286 12.286v-0.571q0-0.125-0.080-0.205t-0.205-0.080h-0.571q-0.125 0-0.205 0.080t-0.080 0.205v0.571q0 0.125 0.080 0.205t0.205 0.080h0.571q0.125 0 0.205-0.080t0.080-0.205zM10.286 10v-0.571q0-0.125-0.080-0.205t-0.205-0.080h-0.571q-0.125 0-0.205 0.080t-0.080 0.205v0.571q0 0.125 0.080 0.205t0.205 0.080h0.571q0.125 0 0.205-0.080t0.080-0.205zM10.286 7.714v-0.571q0-0.125-0.080-0.205t-0.205-0.080h-0.571q-0.125 0-0.205 0.080t-0.080 0.205v0.571q0 0.125 0.080 0.205t0.205 0.080h0.571q0.125 0 0.205-0.080t0.080-0.205zM10.286 5.429v-0.571q0-0.125-0.080-0.205t-0.205-0.080h-0.571q-0.125 0-0.205 0.080t-0.080 0.205v0.571q0 0.125 0.080 0.205t0.205 0.080h0.571q0.125 0 0.205-0.080t0.080-0.205zM10.286 3.143v-0.571q0-0.125-0.080-0.205t-0.205-0.080h-0.571q-0.125 0-0.205 0.080t-0.080 0.205v0.571q0 0.125 0.080 0.205t0.205 0.080h0.571q0.125 0 0.205-0.080t0.080-0.205z"></path>
</svg>
