<?xml version="1.0" encoding="utf-8"?>
<!-- Generated by IcoMoon.io -->
<!DOCTYPE svg PUBLIC "-//W3C//DTD SVG 1.1//EN" "http://www.w3.org/Graphics/SVG/1.1/DTD/svg11.dtd">
<svg version="1.1" xmlns="http://www.w3.org/2000/svg" xmlns:xlink="http://www.w3.org/1999/xlink" width="16" height="16" viewBox="0 0 16 16">
<path fill="#444444" d="M8 0c-3.038 0-5.5 2.462-5.5 5.5 0 2.015 1.844 4.152 2.515 6.027 1.002 2.797 0.891 4.473 2.985 4.473 2.125 0 1.982-1.667 2.985-4.461 0.674-1.88 2.515-4.039 2.515-6.039 0-3.038-2.463-5.5-5.5-5.5zM9.296 13.588l-2.479 0.309c-0.088-0.256-0.183-0.556-0.299-0.947-0.002-0.005-0.003-0.011-0.005-0.015l3.094-0.386c-0.044 0.148-0.091 0.303-0.132 0.441-0.066 0.225-0.124 0.419-0.179 0.598zM6.368 12.454c-0.091-0.301-0.194-0.618-0.308-0.954h3.883c-0.062 0.18-0.123 0.36-0.176 0.53l-3.399 0.425zM8 15c-0.506 0-0.739-0.059-0.998-0.625l2.119-0.265c-0.307 0.827-0.53 0.89-1.12 0.89zM10.336 10.5h-4.667c-0.249-0.54-0.548-1.080-0.843-1.608-0.652-1.168-1.327-2.375-1.327-3.392 0-2.482 2.018-4.5 4.5-4.5s4.5 2.018 4.5 4.5c0 1.009-0.675 2.223-1.328 3.398-0.292 0.527-0.589 1.066-0.836 1.602zM8 2.5c0.137 0 0.25 0.112 0.25 0.25s-0.112 0.25-0.25 0.25c-1.378 0-2.5 1.122-2.5 2.5 0 0.138-0.112 0.25-0.25 0.25s-0.25-0.112-0.25-0.25c0-1.655 1.345-3 3-3z"></path>
</svg>
