<?xml version="1.0" encoding="utf-8"?>
<!-- Generated by IcoMoon.io -->
<!DOCTYPE svg PUBLIC "-//W3C//DTD SVG 1.1//EN" "http://www.w3.org/Graphics/SVG/1.1/DTD/svg11.dtd">
<svg version="1.1" xmlns="http://www.w3.org/2000/svg" xmlns:xlink="http://www.w3.org/1999/xlink" width="16" height="16" viewBox="0 0 16 16">
<path fill="#444444" d="M14.857 5.714q0.473 0 0.808 0.335t0.335 0.808-0.335 0.808-0.808 0.335v3.429q0 0.464-0.339 0.804t-0.804 0.339q-3.723-3.098-7.25-3.393-0.518 0.17-0.813 0.589t-0.277 0.897 0.357 0.826q-0.179 0.295-0.205 0.585t0.054 0.518 0.299 0.491 0.429 0.446 0.549 0.451q-0.259 0.518-0.996 0.741t-1.504 0.103-1.179-0.496q-0.063-0.205-0.263-0.781t-0.286-0.844-0.205-0.795-0.134-0.902 0.031-0.879 0.196-0.987h-1.089q-0.589 0-1.009-0.42t-0.42-1.009v-1.714q0-0.589 0.42-1.009t1.009-0.42h4.286q3.884 0 8-3.429 0.464 0 0.804 0.339t0.339 0.804v3.429zM13.714 11.107v-8.518q-3.518 2.696-6.857 3.063v2.411q3.366 0.375 6.857 3.045z"></path>
</svg>
