<?xml version="1.0" encoding="utf-8"?>
<!-- Generated by IcoMoon.io -->
<!DOCTYPE svg PUBLIC "-//W3C//DTD SVG 1.1//EN" "http://www.w3.org/Graphics/SVG/1.1/DTD/svg11.dtd">
<svg version="1.1" xmlns="http://www.w3.org/2000/svg" xmlns:xlink="http://www.w3.org/1999/xlink" width="14" height="16" viewBox="0 0 14 16">
<path fill="#444444" d="M3.429 10.857q0-0.473-0.335-0.808t-0.808-0.335-0.808 0.335-0.335 0.808 0.335 0.808 0.808 0.335 0.808-0.335 0.335-0.808zM12.571 10.857q0-0.473-0.335-0.808t-0.808-0.335-0.808 0.335-0.335 0.808 0.335 0.808 0.808 0.335 0.808-0.335 0.335-0.808zM12.161 7.321l-0.643-3.429q-0.045-0.205-0.201-0.335t-0.362-0.129h-8.196q-0.205 0-0.362 0.129t-0.201 0.335l-0.643 3.429q-0.045 0.268 0.125 0.473t0.438 0.205h9.482q0.268 0 0.438-0.205t0.125-0.473zM10.143 1.857q0-0.179-0.125-0.304t-0.304-0.125h-5.714q-0.179 0-0.304 0.125t-0.125 0.304 0.125 0.304 0.304 0.125h5.714q0.179 0 0.304-0.125t0.125-0.304zM13.714 8.33v5.384h-1.143v1.143q0 0.473-0.335 0.808t-0.808 0.335-0.808-0.335-0.335-0.808v-1.143h-6.857v1.143q0 0.473-0.335 0.808t-0.808 0.335-0.808-0.335-0.335-0.808v-1.143h-1.143v-5.384q0-1 0.223-1.991l0.92-4.054q0.080-0.696 0.871-1.223t2.054-0.795 2.79-0.268 2.79 0.268 2.054 0.795 0.871 1.223l0.938 4.054q0.205 0.911 0.205 1.991z"></path>
</svg>
