<?xml version="1.0" encoding="utf-8"?>
<!-- Generated by IcoMoon.io -->
<!DOCTYPE svg PUBLIC "-//W3C//DTD SVG 1.1//EN" "http://www.w3.org/Graphics/SVG/1.1/DTD/svg11.dtd">
<svg version="1.1" xmlns="http://www.w3.org/2000/svg" xmlns:xlink="http://www.w3.org/1999/xlink" width="18" height="16" viewBox="0 0 18 16">
<path fill="#444444" d="M16.286 8q0.83 0 1.415 0.585t0.585 1.415v3.429q0 0.125-0.080 0.205t-0.205 0.080h-0.857v0.571q0 0.714-0.5 1.214t-1.214 0.5-1.214-0.5-0.5-1.214v-0.571h-9.143v0.571q0 0.714-0.5 1.214t-1.214 0.5-1.214-0.5-0.5-1.214v-0.571h-0.857q-0.125 0-0.205-0.080t-0.080-0.205v-3.429q0-0.83 0.585-1.415t1.415-0.585h0.25l0.938-3.741q0.205-0.839 0.929-1.406t1.598-0.567h1.143v-2q0-0.125 0.080-0.205t0.205-0.080h4q0.125 0 0.205 0.080t0.080 0.205v2h1.143q0.875 0 1.598 0.567t0.929 1.406l0.938 3.741h0.25zM2.857 12.286q0.589 0 1.009-0.42t0.42-1.009-0.42-1.009-1.009-0.42-1.009 0.42-0.42 1.009 0.42 1.009 1.009 0.42zM4.607 8h9.071l-0.795-3.188q-0.018-0.071-0.125-0.156t-0.188-0.085h-6.857q-0.080 0-0.188 0.085t-0.125 0.156zM15.429 12.286q0.589 0 1.009-0.42t0.42-1.009-0.42-1.009-1.009-0.42-1.009 0.42-0.42 1.009 0.42 1.009 1.009 0.42z"></path>
</svg>
