<?xml version="1.0" encoding="utf-8"?>
<!-- Generated by IcoMoon.io -->
<!DOCTYPE svg PUBLIC "-//W3C//DTD SVG 1.1//EN" "http://www.w3.org/Graphics/SVG/1.1/DTD/svg11.dtd">
<svg version="1.1" xmlns="http://www.w3.org/2000/svg" xmlns:xlink="http://www.w3.org/1999/xlink" width="15" height="16" viewBox="0 0 15 16">
<path fill="#444444" d="M3.429 13.714q0-0.473-0.335-0.808t-0.808-0.335-0.808 0.335-0.335 0.808 0.335 0.808 0.808 0.335 0.808-0.335 0.335-0.808zM6.857 13.714q0-0.473-0.335-0.808t-0.808-0.335-0.808 0.335-0.335 0.808 0.335 0.808 0.808 0.335 0.808-0.335 0.335-0.808zM3.429 10.286q0-0.473-0.335-0.808t-0.808-0.335-0.808 0.335-0.335 0.808 0.335 0.808 0.808 0.335 0.808-0.335 0.335-0.808zM10.286 13.714q0-0.473-0.335-0.808t-0.808-0.335-0.808 0.335-0.335 0.808 0.335 0.808 0.808 0.335 0.808-0.335 0.335-0.808zM6.857 10.286q0-0.473-0.335-0.808t-0.808-0.335-0.808 0.335-0.335 0.808 0.335 0.808 0.808 0.335 0.808-0.335 0.335-0.808zM3.429 6.857q0-0.473-0.335-0.808t-0.808-0.335-0.808 0.335-0.335 0.808 0.335 0.808 0.808 0.335 0.808-0.335 0.335-0.808zM10.286 10.286q0-0.473-0.335-0.808t-0.808-0.335-0.808 0.335-0.335 0.808 0.335 0.808 0.808 0.335 0.808-0.335 0.335-0.808zM6.857 6.857q0-0.473-0.335-0.808t-0.808-0.335-0.808 0.335-0.335 0.808 0.335 0.808 0.808 0.335 0.808-0.335 0.335-0.808zM13.714 13.714v-3.429q0-0.464-0.339-0.804t-0.804-0.339-0.804 0.339-0.339 0.804v3.429q0 0.464 0.339 0.804t0.804 0.339 0.804-0.339 0.339-0.804zM10.286 6.857q0-0.473-0.335-0.808t-0.808-0.335-0.808 0.335-0.335 0.808 0.335 0.808 0.808 0.335 0.808-0.335 0.335-0.808zM13.714 4v-2.286q0-0.232-0.17-0.402t-0.402-0.17h-11.429q-0.232 0-0.402 0.17t-0.17 0.402v2.286q0 0.232 0.17 0.402t0.402 0.17h11.429q0.232 0 0.402-0.17t0.17-0.402zM13.714 6.857q0-0.473-0.335-0.808t-0.808-0.335-0.808 0.335-0.335 0.808 0.335 0.808 0.808 0.335 0.808-0.335 0.335-0.808zM14.857 1.143v13.714q0 0.464-0.339 0.804t-0.804 0.339h-12.571q-0.464 0-0.804-0.339t-0.339-0.804v-13.714q0-0.464 0.339-0.804t0.804-0.339h12.571q0.464 0 0.804 0.339t0.339 0.804z"></path>
</svg>
