<?xml version="1.0" encoding="utf-8"?>
<!-- Generated by IcoMoon.io -->
<!DOCTYPE svg PUBLIC "-//W3C//DTD SVG 1.1//EN" "http://www.w3.org/Graphics/SVG/1.1/DTD/svg11.dtd">
<svg version="1.1" xmlns="http://www.w3.org/2000/svg" xmlns:xlink="http://www.w3.org/1999/xlink" width="15" height="16" viewBox="0 0 15 16">
<path fill="#444444" d="M9.92 12.366l-0.411 0.411q-0.080 0.080-0.196 0.080t-0.205-0.080l-1.679-1.688-1.679 1.688q-0.089 0.080-0.205 0.080t-0.196-0.080l-0.411-0.411q-0.080-0.080-0.080-0.196t0.080-0.205l1.688-1.679-1.688-1.679q-0.080-0.089-0.080-0.205t0.080-0.196l0.411-0.411q0.080-0.080 0.196-0.080t0.205 0.080l1.679 1.679 1.679-1.679q0.089-0.080 0.205-0.080t0.196 0.080l0.411 0.411q0.080 0.080 0.080 0.196t-0.080 0.205l-1.679 1.679 1.679 1.679q0.080 0.089 0.080 0.205t-0.080 0.196zM1.143 14.857h12.571v-9.143h-12.571v9.143zM4.571 4v-2.571q0-0.125-0.080-0.205t-0.205-0.080h-0.571q-0.125 0-0.205 0.080t-0.080 0.205v2.571q0 0.125 0.080 0.205t0.205 0.080h0.571q0.125 0 0.205-0.080t0.080-0.205zM11.429 4v-2.571q0-0.125-0.080-0.205t-0.205-0.080h-0.571q-0.125 0-0.205 0.080t-0.080 0.205v2.571q0 0.125 0.080 0.205t0.205 0.080h0.571q0.125 0 0.205-0.080t0.080-0.205zM14.857 3.429v11.429q0 0.464-0.339 0.804t-0.804 0.339h-12.571q-0.464 0-0.804-0.339t-0.339-0.804v-11.429q0-0.464 0.339-0.804t0.804-0.339h1.143v-0.857q0-0.589 0.42-1.009t1.009-0.42h0.571q0.589 0 1.009 0.42t0.42 1.009v0.857h3.429v-0.857q0-0.589 0.42-1.009t1.009-0.42h0.571q0.589 0 1.009 0.42t0.42 1.009v0.857h1.143q0.464 0 0.804 0.339t0.339 0.804z"></path>
</svg>
