<?xml version="1.0" encoding="utf-8"?>
<!-- Generated by IcoMoon.io -->
<!DOCTYPE svg PUBLIC "-//W3C//DTD SVG 1.1//EN" "http://www.w3.org/Graphics/SVG/1.1/DTD/svg11.dtd">
<svg version="1.1" xmlns="http://www.w3.org/2000/svg" xmlns:xlink="http://www.w3.org/1999/xlink" width="16" height="16" viewBox="0 0 16 16">
<path fill="#444444" d="M8 5c-2.21 0-4 1.79-4 4s1.79 4 4 4c2.209 0 4-1.791 4-4s-1.791-4-4-4zM10.277 10.953c-1.078 1.258-2.971 1.403-4.229 0.325s-1.404-2.972-0.325-4.229c1.077-1.258 2.971-1.404 4.23-0.325 1.258 1.077 1.403 2.972 0.325 4.23zM8 7c0.138 0 0.25 0.112 0.25 0.25s-0.112 0.25-0.25 0.25c-0.829 0-1.5 0.672-1.5 1.5v0.001c0 0.137-0.112 0.25-0.25 0.25s-0.25-0.113-0.25-0.25v-0.001c0-1.104 0.896-2 2-2zM14.746 4.521l-2.167-0.362-0.687-1.717c-0.229-0.573-0.777-0.942-1.393-0.942h-5c-0.616 0-1.163 0.37-1.393 0.943l-0.686 1.716-2.167 0.362c-0.727 0.12-1.254 0.742-1.254 1.479v7.5c0 0.827 0.673 1.5 1.5 1.5h13c0.827 0 1.5-0.673 1.5-1.5v-7.5c0-0.737-0.527-1.359-1.254-1.479zM15 13.5c0 0.277-0.223 0.5-0.5 0.5h-13c-0.276 0-0.5-0.223-0.5-0.5v-7.5c0-0.245 0.177-0.453 0.418-0.493l2.722-0.454 0.896-2.239c0.077-0.189 0.26-0.314 0.465-0.314h5c0.204 0 0.387 0.124 0.464 0.314l0.896 2.239 2.723 0.454c0.241 0.040 0.418 0.248 0.418 0.493v7.5z"></path>
</svg>
