<?xml version="1.0" encoding="utf-8"?>
<!-- Generated by IcoMoon.io -->
<!DOCTYPE svg PUBLIC "-//W3C//DTD SVG 1.1//EN" "http://www.w3.org/Graphics/SVG/1.1/DTD/svg11.dtd">
<svg version="1.1" xmlns="http://www.w3.org/2000/svg" xmlns:xlink="http://www.w3.org/1999/xlink" width="17" height="16" viewBox="0 0 17 16">
<path fill="#444444" d="M8.571 6q1.063 0 1.817 0.754t0.754 1.817-0.754 1.817-1.817 0.754-1.817-0.754-0.754-1.817 0.754-1.817 1.817-0.754zM14.857 2.286q0.946 0 1.616 0.67t0.67 1.616v8q0 0.946-0.67 1.616t-1.616 0.67h-12.571q-0.946 0-1.616-0.67t-0.67-1.616v-8q0-0.946 0.67-1.616t1.616-0.67h2l0.455-1.214q0.17-0.438 0.621-0.754t0.924-0.317h4.571q0.473 0 0.924 0.317t0.621 0.754l0.455 1.214h2zM8.571 12.571q1.652 0 2.826-1.174t1.174-2.826-1.174-2.826-2.826-1.174-2.826 1.174-1.174 2.826 1.174 2.826 2.826 1.174z"></path>
</svg>
