<?xml version="1.0" encoding="utf-8"?>
<!-- Generated by IcoMoon.io -->
<!DOCTYPE svg PUBLIC "-//W3C//DTD SVG 1.1//EN" "http://www.w3.org/Graphics/SVG/1.1/DTD/svg11.dtd">
<svg version="1.1" xmlns="http://www.w3.org/2000/svg" xmlns:xlink="http://www.w3.org/1999/xlink" width="16" height="16" viewBox="0 0 16 16">
<path fill="#444444" d="M8.286 7.429q0-0.125-0.080-0.205t-0.205-0.080q-0.589 0-1.009 0.42t-0.42 1.009q0 0.125 0.080 0.205t0.205 0.080 0.205-0.080 0.080-0.205q0-0.357 0.25-0.607t0.607-0.25q0.125 0 0.205-0.080t0.080-0.205zM10.286 8.589q0 0.946-0.67 1.616t-1.616 0.67-1.616-0.67-0.67-1.616 0.67-1.616 1.616-0.67 1.616 0.67 0.67 1.616zM1.143 13.714h13.714v-1.143h-13.714v1.143zM11.429 8.589q0-1.42-1.004-2.424t-2.424-1.004-2.424 1.004-1.004 2.424 1.004 2.424 2.424 1.004 2.424-1.004 1.004-2.424zM2.286 2.857h3.429v-1.143h-3.429v1.143zM1.143 4.571h13.714v-2.286h-7.393l-0.571 1.143h-5.75v1.143zM16 2.286v11.429q0 0.473-0.335 0.808t-0.808 0.335h-13.714q-0.473 0-0.808-0.335t-0.335-0.808v-11.429q0-0.473 0.335-0.808t0.808-0.335h13.714q0.473 0 0.808 0.335t0.335 0.808z"></path>
</svg>
