<?xml version="1.0" encoding="utf-8"?>
<!-- Generated by IcoMoon.io -->
<!DOCTYPE svg PUBLIC "-//W3C//DTD SVG 1.1//EN" "http://www.w3.org/Graphics/SVG/1.1/DTD/svg11.dtd">
<svg version="1.1" xmlns="http://www.w3.org/2000/svg" xmlns:xlink="http://www.w3.org/1999/xlink" width="14" height="16" viewBox="0 0 14 16">
<path fill="#444444" d="M9.714 8q0 0.295-0.241 0.464l-4 2.857q-0.277 0.205-0.589 0.045-0.313-0.152-0.313-0.509v-5.714q0-0.357 0.313-0.509 0.313-0.161 0.589 0.045l4 2.857q0.241 0.17 0.241 0.464zM11.429 12.286v-8.571q0-0.125-0.080-0.205t-0.205-0.080h-8.571q-0.125 0-0.205 0.080t-0.080 0.205v8.571q0 0.125 0.080 0.205t0.205 0.080h8.571q0.125 0 0.205-0.080t0.080-0.205zM13.714 3.714v8.571q0 1.063-0.754 1.817t-1.817 0.754h-8.571q-1.063 0-1.817-0.754t-0.754-1.817v-8.571q0-1.063 0.754-1.817t1.817-0.754h8.571q1.063 0 1.817 0.754t0.754 1.817z"></path>
</svg>
