<?xml version="1.0" encoding="utf-8"?>
<!-- Generated by IcoMoon.io -->
<!DOCTYPE svg PUBLIC "-//W3C//DTD SVG 1.1//EN" "http://www.w3.org/Graphics/SVG/1.1/DTD/svg11.dtd">
<svg version="1.1" xmlns="http://www.w3.org/2000/svg" xmlns:xlink="http://www.w3.org/1999/xlink" width="14" height="16" viewBox="0 0 14 16">
<path fill="#444444" d="M10.223 6.027q0.161 0.313-0.045 0.589l-2.857 4q-0.17 0.241-0.464 0.241t-0.464-0.241l-2.857-4q-0.205-0.277-0.045-0.589 0.152-0.313 0.509-0.313h5.714q0.357 0 0.509 0.313zM11.429 12.286v-8.571q0-0.116-0.085-0.201t-0.201-0.085h-8.571q-0.116 0-0.201 0.085t-0.085 0.201v8.571q0 0.116 0.085 0.201t0.201 0.085h8.571q0.116 0 0.201-0.085t0.085-0.201zM13.714 3.714v8.571q0 1.063-0.754 1.817t-1.817 0.754h-8.571q-1.063 0-1.817-0.754t-0.754-1.817v-8.571q0-1.063 0.754-1.817t1.817-0.754h8.571q1.063 0 1.817 0.754t0.754 1.817z"></path>
</svg>
