<?xml version="1.0" encoding="utf-8"?>
<!-- Generated by IcoMoon.io -->
<!DOCTYPE svg PUBLIC "-//W3C//DTD SVG 1.1//EN" "http://www.w3.org/Graphics/SVG/1.1/DTD/svg11.dtd">
<svg version="1.1" xmlns="http://www.w3.org/2000/svg" xmlns:xlink="http://www.w3.org/1999/xlink" width="21" height="16" viewBox="0 0 21 16">
<path fill="#444444" d="M1.063 6.089h0.795l-0.402-0.964zM6.607 10.786l0.661-0.705-0.625-0.705h-1.455v0.438h1.268v0.491h-1.268v0.482h1.42zM8.018 10.089l0.884 0.982v-1.938zM10.589 9.67q0-0.295-0.357-0.295h-0.75v0.616h0.741q0.366 0 0.366-0.321zM13.17 9.634q0-0.259-0.375-0.259h-0.732v0.545h0.723q0.384 0 0.384-0.286zM10.688 5.473q0-0.259-0.375-0.259h-0.732v0.536h0.723q0.384 0 0.384-0.277zM14.786 6.089h0.795l-0.393-0.964zM6.241 4.705v2.42h-0.589v-1.893l-0.839 1.893h-0.509l-0.839-1.893v1.893h-1.179l-0.223-0.536h-1.205l-0.223 0.536h-0.625l1.036-2.42h0.857l0.982 2.295v-2.295h0.946l0.759 1.643 0.688-1.643h0.964zM11.205 9.67q0 0.179-0.049 0.313t-0.125 0.223-0.201 0.147-0.232 0.089-0.281 0.040-0.281 0.009-0.29-0.004-0.263-0.004v0.813h-1.125l-0.714-0.804-0.741 0.804h-2.286v-2.42h2.321l0.714 0.795 0.732-0.795h1.848q0.973 0 0.973 0.795zM8.607 6.625v0.5h-1.938v-2.42h1.938v0.509h-1.357v0.438h1.321v0.491h-1.321v0.482h1.357zM20.571 11.616v2.045q0 0.491-0.344 0.844t-0.835 0.353h-18.214q-0.491 0-0.835-0.353t-0.344-0.844v-6.054h0.991l0.223-0.545h0.491l0.223 0.545h1.946v-0.411l0.17 0.411h1.009l0.179-0.42v0.42h4.83v-0.884l0.089-0.009q0.089 0 0.089 0.125v0.768h2.491v-0.205q0.205 0.107 0.491 0.161t0.469 0.058 0.563-0.004 0.46-0.009l0.223-0.545h0.5l0.223 0.545h2.027v-0.518l0.304 0.518h1.625v-3.375h-1.607v0.393l-0.223-0.393h-1.652v0.393l-0.205-0.393h-2.223q-0.616 0-0.973 0.196v-0.196h-1.536v0.196q-0.214-0.196-0.652-0.196h-5.607l-0.384 0.866-0.384-0.866h-1.768v0.393l-0.196-0.393h-1.509l-0.696 1.598v-3.491q0-0.491 0.344-0.844t0.835-0.353h18.214q0.491 0 0.835 0.353t0.344 0.844v6.054h-1.071q-0.455 0-0.723 0.196v-0.196h-1.58q-0.491 0-0.696 0.196v-0.196h-2.821v0.196q-0.277-0.196-0.777-0.196h-1.866v0.196q-0.205-0.196-0.813-0.196h-2.089l-0.482 0.518-0.446-0.518h-3.116v3.375h3.063l0.491-0.527 0.464 0.527h1.884v-0.795h0.188q0.527 0 0.804-0.116v0.911h1.554v-0.884h0.071q0.071 0 0.089 0.018t0.018 0.089v0.777h4.723q0.509 0 0.786-0.214v0.214h1.5q0.536 0 0.848-0.152zM13.804 9.527q0 0.205-0.107 0.384t-0.304 0.259q0.223 0.080 0.304 0.232t0.080 0.411v0.482h-0.58v-0.402q0-0.295-0.107-0.388t-0.411-0.094h-0.616v0.884h-0.58v-2.42h1.375q0.429 0 0.688 0.134t0.259 0.518zM11.33 5.357q0 0.214-0.112 0.393t-0.299 0.259q0.232 0.080 0.308 0.228t0.076 0.415v0.473h-0.58q0-0.080 0.004-0.237t0-0.223-0.027-0.165-0.076-0.143-0.156-0.076-0.263-0.031h-0.625v0.875h-0.571v-2.42l1.366 0.009q0.438 0 0.696 0.129t0.259 0.513zM16.054 10.795v0.5h-1.929v-2.42h1.929v0.5h-1.348v0.438h1.321v0.491h-1.321v0.482zM12.25 4.705v2.42h-0.589v-2.42h0.589zM18.438 10.527q0 0.768-0.911 0.768h-1.125v-0.518h1.125q0.304 0 0.304-0.223 0-0.143-0.152-0.188t-0.371-0.045-0.442-0.031-0.375-0.201-0.152-0.491q0-0.348 0.232-0.536t0.589-0.188h1.161v0.509h-1.063q-0.321 0-0.321 0.223 0 0.143 0.156 0.183t0.375 0.036 0.438 0.022 0.375 0.192 0.156 0.487zM20.571 10.080v0.902q-0.214 0.313-0.786 0.313h-1.116v-0.518h1.116q0.295 0 0.295-0.223 0-0.116-0.112-0.17t-0.277-0.049-0.357-0.018-0.357-0.071-0.277-0.214-0.112-0.433q0-0.348 0.237-0.536t0.594-0.188h1.152v0.509h-1.054q-0.321 0-0.321 0.223 0 0.179 0.259 0.196t0.612 0.045 0.504 0.232zM19.098 4.714v2.411h-0.821l-1.089-1.813v1.813h-1.179l-0.232-0.536h-1.196l-0.223 0.536h-0.67q-1.152 0-1.152-1.188 0-1.232 1.188-1.232h0.563v0.527q-0.063 0-0.25-0.009t-0.254-0.004-0.205 0.018-0.192 0.058-0.129 0.121-0.103 0.205-0.027 0.299q0 0.339 0.121 0.518t0.442 0.179h0.259l0.821-1.902h0.866l0.973 2.286v-2.286h0.884l1.018 1.679v-1.679h0.589z"></path>
</svg>
