<?xml version="1.0" encoding="utf-8"?>
<!-- Generated by IcoMoon.io -->
<!DOCTYPE svg PUBLIC "-//W3C//DTD SVG 1.1//EN" "http://www.w3.org/Graphics/SVG/1.1/DTD/svg11.dtd">
<svg version="1.1" xmlns="http://www.w3.org/2000/svg" xmlns:xlink="http://www.w3.org/1999/xlink" width="21" height="16" viewBox="0 0 21 16">
<path fill="#444444" d="M2.795 6.938q0 0.455-0.321 0.75-0.259 0.232-0.795 0.232h-0.152v-1.964h0.152q0.545 0 0.795 0.241 0.321 0.277 0.321 0.741zM18.652 6.357q0 0.464-0.571 0.464h-0.17v-0.902h0.179q0.563 0 0.563 0.438zM3.393 6.938q0-0.661-0.446-1.076t-1.152-0.415h-0.848v2.973h0.848q0.661 0 1.063-0.339 0.536-0.455 0.536-1.143zM3.661 8.42h0.58v-2.973h-0.58v2.973zM6.518 7.518q0-0.357-0.183-0.554t-0.674-0.375q-0.259-0.089-0.353-0.17t-0.094-0.205q0-0.143 0.121-0.237t0.308-0.094q0.259 0 0.473 0.241l0.304-0.393q-0.366-0.33-0.875-0.33-0.393 0-0.661 0.246t-0.268 0.603q0 0.313 0.161 0.496t0.571 0.326q0.33 0.116 0.402 0.17 0.17 0.107 0.17 0.304 0 0.179-0.125 0.299t-0.321 0.121q-0.429 0-0.634-0.393l-0.375 0.357q0.393 0.571 1.027 0.571 0.455 0 0.741-0.272t0.286-0.71zM9 8.321v-0.688q-0.33 0.33-0.696 0.33-0.438 0-0.719-0.29t-0.281-0.737q0-0.429 0.281-0.728t0.692-0.299q0.384 0 0.723 0.339v-0.688q-0.357-0.179-0.714-0.179-0.661 0-1.121 0.451t-0.46 1.103 0.455 1.103 1.116 0.451q0.375 0 0.723-0.17zM20 13.714v-4.705q-0.58 0.357-1.29 0.75t-2.121 1.045-2.942 1.228-3.728 1.201-4.5 1.054h14.009q0.232 0 0.402-0.17t0.17-0.402zM12.402 6.955q0-0.67-0.473-1.143t-1.143-0.473-1.143 0.473-0.473 1.143 0.473 1.143 1.143 0.473 1.143-0.473 0.473-1.143zM13.759 8.5l1.286-3.054h-0.634l-0.804 2-0.795-2h-0.634l1.268 3.054h0.313zM15.304 8.42h1.643v-0.5h-1.063v-0.804h1.027v-0.5h-1.027v-0.661h1.063v-0.509h-1.643v2.973zM18.795 8.42h0.714l-0.938-1.25q0.679-0.143 0.679-0.839 0-0.42-0.277-0.652t-0.777-0.232h-0.866v2.973h0.58v-1.188h0.080zM20.571 2.339v11.321q0 0.5-0.344 0.848t-0.835 0.348h-18.214q-0.491 0-0.835-0.348t-0.344-0.848v-11.321q0-0.5 0.344-0.848t0.835-0.348h18.214q0.491 0 0.835 0.348t0.344 0.848z"></path>
</svg>
