<?xml version="1.0" encoding="utf-8"?>
<!-- Generated by IcoMoon.io -->
<!DOCTYPE svg PUBLIC "-//W3C//DTD SVG 1.1//EN" "http://www.w3.org/Graphics/SVG/1.1/DTD/svg11.dtd">
<svg version="1.1" xmlns="http://www.w3.org/2000/svg" xmlns:xlink="http://www.w3.org/1999/xlink" width="21" height="16" viewBox="0 0 21 16">
<path fill="#444444" d="M17.42 8.911q0 0.232-0.138 0.397t-0.344 0.21q-0.071 0.018-0.161 0.018h-1.366v-1.25h1.366q0.089 0 0.161 0.018 0.205 0.045 0.344 0.21t0.138 0.397zM17.259 7.009q0 0.223-0.134 0.375t-0.339 0.188q-0.027 0.009-0.134 0.009h-1.241v-1.152h1.241q0.027 0 0.076 0.004t0.058 0.004q0.205 0.036 0.339 0.192t0.134 0.379zM6.5 8.473v-2.75h-2.036v2.75q0 0.518-0.339 0.844t-0.938 0.326q-0.964 0-2.045-0.527v1q0.473 0.134 1.080 0.205t0.973 0.080l0.375 0.009q2.929 0 2.929-1.938zM12.875 10.116v-1.009q-0.884 0.464-1.786 0.527-0.964 0.071-1.509-0.366t-0.545-1.268 0.545-1.268 1.509-0.366q0.902 0.063 1.786 0.518v-1q-0.429-0.107-0.893-0.174t-0.714-0.085l-0.25-0.018q-1.134-0.054-1.951 0.125t-1.254 0.536-0.634 0.786-0.196 0.946 0.196 0.946 0.634 0.786 1.254 0.536 1.951 0.125q0.902-0.036 1.857-0.277zM19.429 9.089q0-0.482-0.384-0.79t-0.973-0.353v-0.027q0.509-0.071 0.795-0.371t0.286-0.71q0-0.491-0.366-0.786t-0.955-0.321q-0.027 0-0.107-0.004t-0.125-0.004h-4.063v4.554h4.384q0.661 0 1.085-0.326t0.424-0.862zM20.571 2.286v11.429q0 0.464-0.339 0.804t-0.804 0.339h-18.286q-0.464 0-0.804-0.339t-0.339-0.804v-11.429q0-0.464 0.339-0.804t0.804-0.339h18.286q0.464 0 0.804 0.339t0.339 0.804z"></path>
</svg>
