<?xml version="1.0" encoding="utf-8"?>
<!-- Generated by IcoMoon.io -->
<!DOCTYPE svg PUBLIC "-//W3C//DTD SVG 1.1//EN" "http://www.w3.org/Graphics/SVG/1.1/DTD/svg11.dtd">
<svg version="1.1" xmlns="http://www.w3.org/2000/svg" xmlns:xlink="http://www.w3.org/1999/xlink" width="21" height="16" viewBox="0 0 21 16">
<path fill="#444444" d="M5.991 8.33h-0.116q-0.42 0-0.42 0.286 0 0.196 0.179 0.196 0.152 0 0.25-0.134t0.107-0.348zM9.518 8.009h0.554v-0.027q0.009-0.036 0.004-0.058t-0.009-0.063-0.018-0.071-0.040-0.058-0.067-0.045-0.103-0.018q-0.25 0-0.321 0.339zM14.339 8.33h-0.107q-0.429 0-0.429 0.286 0 0.196 0.179 0.196 0.152 0 0.25-0.134t0.107-0.348zM17.188 8.098q0-0.366-0.268-0.366-0.17 0-0.277 0.179t-0.107 0.455q0 0.375 0.25 0.375 0.179 0 0.29-0.179t0.112-0.464zM4.286 6.839h0.777l-0.393 2.339h-0.5l0.286-1.795-0.634 1.795h-0.348l-0.036-1.786-0.304 1.786h-0.473l0.393-2.339h0.723l0.018 1.455zM6.545 7.795q0 0.054-0.036 0.375-0.143 0.902-0.152 1.009h-0.42l0.009-0.196q-0.179 0.232-0.518 0.232-0.205 0-0.335-0.143t-0.129-0.375q0-0.348 0.232-0.54t0.652-0.192q0.125 0 0.205 0.009 0-0.027 0.004-0.049t0.009-0.040 0.004-0.027q0-0.179-0.321-0.179-0.259 0-0.527 0.089 0-0.036 0.063-0.429 0.339-0.098 0.598-0.098 0.661 0 0.661 0.554zM7.938 7.277l-0.071 0.438q-0.196-0.027-0.366-0.027-0.241 0-0.241 0.152 0 0.071 0.040 0.107t0.192 0.098q0.357 0.17 0.357 0.536 0 0.643-0.777 0.634-0.304 0-0.518-0.054 0-0.018 0.063-0.438 0.259 0.071 0.455 0.071 0.286 0 0.286-0.17 0-0.063-0.040-0.103t-0.192-0.112q-0.384-0.179-0.384-0.527 0-0.643 0.75-0.643 0.268 0 0.446 0.036zM8.723 7.277h0.25l-0.063 0.464h-0.259q-0.018 0.152-0.058 0.362t-0.063 0.344-0.022 0.161q0 0.143 0.17 0.143 0.071 0 0.143-0.018l-0.071 0.42q-0.188 0.063-0.357 0.063-0.384 0-0.402-0.42 0-0.107 0.071-0.5 0.027-0.179 0.223-1.304h0.491zM10.536 7.929q0 0.205-0.063 0.464h-0.991q-0.027 0.196 0.089 0.295t0.339 0.098q0.268 0 0.518-0.125l-0.080 0.482q-0.268 0.071-0.509 0.071-0.848 0-0.848-0.848 0-0.491 0.246-0.808t0.621-0.317q0.313 0 0.496 0.188t0.183 0.5zM11.777 7.268q-0.116 0.205-0.196 0.554-0.196-0.018-0.277 0.214t-0.223 1.143h-0.5l0.027-0.125q0.196-1.161 0.259-1.777h0.455l-0.027 0.295q0.125-0.188 0.228-0.263t0.254-0.040zM13.446 6.902l-0.080 0.509q-0.25-0.125-0.446-0.125-0.277 0-0.455 0.246t-0.179 0.629q0 0.268 0.121 0.42t0.344 0.152q0.188 0 0.429-0.116l-0.089 0.527q-0.25 0.071-0.446 0.071-0.402 0-0.638-0.272t-0.237-0.737q0-0.625 0.317-1.022t0.817-0.397q0.232 0 0.545 0.116zM14.893 7.795q0 0.161-0.036 0.375-0.116 0.705-0.152 1.009h-0.411l0.009-0.196q-0.179 0.232-0.527 0.232-0.205 0-0.33-0.143t-0.125-0.375q0-0.348 0.228-0.54t0.647-0.192q0.134 0 0.205 0.009 0.018-0.063 0.018-0.116 0-0.179-0.321-0.179-0.259 0-0.527 0.089 0-0.036 0.071-0.429 0.339-0.098 0.598-0.098 0.652 0 0.652 0.554zM16.152 7.268q-0.125 0.214-0.188 0.554-0.205-0.018-0.281 0.205t-0.228 1.152h-0.5l0.027-0.125q0.17-0.929 0.259-1.777h0.464q0 0.098-0.036 0.295 0.134-0.188 0.237-0.263t0.246-0.040zM17.411 6.839h0.5l-0.384 2.339h-0.473l0.027-0.17q-0.205 0.205-0.464 0.205-0.277 0-0.442-0.214t-0.165-0.571q0-0.473 0.246-0.821t0.576-0.348q0.277 0 0.473 0.259zM18.402 8q0-1.321-0.647-2.438t-1.768-1.768-2.442-0.652q-1.616 0-2.929 0.982 1.134 1.036 1.527 2.536h-0.446q-0.393-1.339-1.411-2.259-1.018 0.92-1.411 2.259h-0.446q0.393-1.5 1.527-2.536-1.313-0.982-2.929-0.982-1.321 0-2.442 0.652t-1.768 1.768-0.647 2.437 0.647 2.438 1.768 1.768 2.442 0.652q1.616 0 2.929-0.982-1.071-0.991-1.473-2.357h0.446q0.411 1.232 1.357 2.080 0.946-0.848 1.357-2.080h0.446q-0.402 1.366-1.473 2.357 1.313 0.982 2.929 0.982 1.321 0 2.442-0.652t1.768-1.768 0.647-2.438zM20.571 2.286v11.429q0 0.464-0.339 0.804t-0.804 0.339h-18.286q-0.464 0-0.804-0.339t-0.339-0.804v-11.429q0-0.464 0.339-0.804t0.804-0.339h18.286q0.464 0 0.804 0.339t0.339 0.804z"></path>
</svg>
