<?xml version="1.0" encoding="utf-8"?>
<!-- Generated by IcoMoon.io -->
<!DOCTYPE svg PUBLIC "-//W3C//DTD SVG 1.1//EN" "http://www.w3.org/Graphics/SVG/1.1/DTD/svg11.dtd">
<svg version="1.1" xmlns="http://www.w3.org/2000/svg" xmlns:xlink="http://www.w3.org/1999/xlink" width="21" height="16" viewBox="0 0 21 16">
<path fill="#444444" d="M6.652 8.089q0 0.33-0.228 0.549t-0.558 0.219q-0.259 0-0.415-0.143t-0.156-0.393q0-0.33 0.223-0.558t0.554-0.228q0.25 0 0.415 0.147t0.165 0.406zM13.661 6.759q0 0.375-0.196 0.509t-0.589 0.134l-0.286 0.009 0.152-0.955q0.018-0.098 0.116-0.098h0.161q0.196 0 0.313 0.018t0.223 0.112 0.107 0.272zM16.795 8.089q0 0.321-0.228 0.545t-0.549 0.223q-0.259 0-0.42-0.143t-0.161-0.393q0-0.33 0.223-0.558t0.554-0.228q0.25 0 0.415 0.147t0.165 0.406zM4.58 6.563q0-0.527-0.344-0.763t-0.897-0.237h-1.429q-0.17 0-0.188 0.17l-0.58 3.643q-0.009 0.054 0.027 0.098t0.089 0.045h0.679q0.179 0 0.196-0.17l0.161-0.982q0.009-0.071 0.063-0.116t0.134-0.058 0.152-0.013 0.17 0.009 0.125 0.009q0.768 0 1.205-0.433t0.438-1.201zM7.339 9.348l0.366-2.33q0.009-0.054-0.027-0.098t-0.089-0.045h-0.679q-0.125 0-0.152 0.295-0.241-0.357-0.848-0.357-0.643 0-1.094 0.482t-0.451 1.134q0 0.527 0.308 0.839t0.826 0.313q0.25 0 0.518-0.107t0.429-0.286q-0.036 0.107-0.036 0.188 0 0.143 0.116 0.143h0.616q0.17 0 0.196-0.17zM11.33 7q0-0.045-0.036-0.085t-0.080-0.040h-0.688q-0.098 0-0.161 0.089l-0.946 1.393-0.393-1.339q-0.045-0.143-0.196-0.143h-0.67q-0.045 0-0.080 0.040t-0.036 0.085q0 0.018 0.174 0.527t0.375 1.098 0.21 0.625q-0.732 1-0.732 1.071 0 0.116 0.116 0.116h0.688q0.098 0 0.161-0.089l2.277-3.286q0.018-0.018 0.018-0.063zM14.723 6.563q0-0.527-0.344-0.763t-0.897-0.237h-1.42q-0.179 0-0.196 0.17l-0.58 3.643q-0.009 0.054 0.027 0.098t0.089 0.045h0.732q0.107 0 0.143-0.116l0.161-1.036q0.009-0.071 0.063-0.116t0.134-0.058 0.152-0.013 0.17 0.009 0.125 0.009q0.768 0 1.205-0.433t0.438-1.201zM17.482 9.348l0.366-2.33q0.009-0.054-0.027-0.098t-0.089-0.045h-0.679q-0.125 0-0.152 0.295-0.232-0.357-0.848-0.357-0.643 0-1.094 0.482t-0.451 1.134q0 0.527 0.308 0.839t0.826 0.313q0.259 0 0.527-0.107t0.42-0.286q0 0.009-0.018 0.080t-0.018 0.107q0 0.143 0.116 0.143h0.616q0.17 0 0.196-0.17zM19.429 5.696v-0.009q0-0.125-0.116-0.125h-0.661q-0.098 0-0.116 0.098l-0.58 3.714-0.009 0.018q0 0.045 0.036 0.085t0.089 0.040h0.589q0.17 0 0.188-0.17zM3.5 6.893q-0.045 0.313-0.232 0.411t-0.536 0.098l-0.295 0.009 0.152-0.955q0.018-0.098 0.116-0.098h0.17q0.357 0 0.518 0.103t0.107 0.433zM20.571 2.286v11.429q0 0.464-0.339 0.804t-0.804 0.339h-18.286q-0.464 0-0.804-0.339t-0.339-0.804v-11.429q0-0.464 0.339-0.804t0.804-0.339h18.286q0.464 0 0.804 0.339t0.339 0.804z"></path>
</svg>
