<?xml version="1.0" encoding="utf-8"?>
<!-- Generated by IcoMoon.io -->
<!DOCTYPE svg PUBLIC "-//W3C//DTD SVG 1.1//EN" "http://www.w3.org/Graphics/SVG/1.1/DTD/svg11.dtd">
<svg version="1.1" xmlns="http://www.w3.org/2000/svg" xmlns:xlink="http://www.w3.org/1999/xlink" width="21" height="16" viewBox="0 0 21 16">
<path fill="#444444" d="M14.259 8.063q0 0.616-0.188 0.946-0.17 0.313-0.464 0.313-0.205 0-0.366-0.080v-2q0.259-0.268 0.509-0.268 0.509 0 0.509 1.089zM18.17 7.741h-0.982q0.054-0.875 0.5-0.875 0.455 0 0.482 0.875zM4.25 8.946q0-0.527-0.295-0.817t-0.902-0.513q-0.321-0.116-0.464-0.214t-0.143-0.223q0-0.232 0.339-0.232 0.518 0 1.107 0.295l0.161-1q-0.598-0.286-1.33-0.286-0.688 0-1.098 0.339-0.429 0.348-0.429 0.973 0 0.518 0.29 0.808t0.888 0.504q0.348 0.125 0.487 0.228t0.138 0.246q0 0.277-0.429 0.277-0.259 0-0.625-0.112t-0.643-0.272l-0.161 1.009q0.643 0.366 1.5 0.366 0.723 0 1.152-0.33 0.455-0.366 0.455-1.045zM6.884 7.027l0.17-0.991h-0.857v-1.205l-1.152 0.188-0.161 1.018-0.411 0.071-0.152 0.92h0.554v1.955q0 0.75 0.393 1.071 0.339 0.268 0.991 0.268 0.286 0 0.705-0.098v-1.054q-0.286 0.063-0.393 0.063-0.375 0-0.375-0.446v-1.759h0.688zM9.705 7.25v-1.241q-0.134-0.027-0.25-0.027-0.286 0-0.496 0.143t-0.299 0.411l-0.089-0.5h-1.17v4.205h1.339v-2.732q0.232-0.277 0.732-0.277 0.143 0 0.232 0.018zM10.036 10.241h1.339v-4.205h-1.339v4.205zM15.589 8.018q0-1.089-0.402-1.598-0.357-0.464-0.991-0.464-0.571 0-1.045 0.5l-0.071-0.42h-1.179v5.759l1.339-0.223v-1.348q0.321 0.098 0.607 0.098 0.741 0 1.196-0.5 0.545-0.58 0.545-1.804zM11.411 4.911q0-0.295-0.205-0.5t-0.5-0.205-0.5 0.205-0.205 0.5 0.205 0.504 0.5 0.21 0.5-0.21 0.205-0.504zM19.429 8.098q0-1.009-0.429-1.571-0.446-0.571-1.286-0.571-0.857 0-1.353 0.589t-0.496 1.607q0 1.143 0.563 1.679 0.491 0.491 1.438 0.491 0.902 0 1.429-0.357l-0.143-0.92q-0.509 0.277-1.143 0.277-0.384 0-0.563-0.17-0.205-0.17-0.25-0.589h2.214q0.018-0.125 0.018-0.464zM20.571 2.286v11.429q0 0.464-0.339 0.804t-0.804 0.339h-18.286q-0.464 0-0.804-0.339t-0.339-0.804v-11.429q0-0.464 0.339-0.804t0.804-0.339h18.286q0.464 0 0.804 0.339t0.339 0.804z"></path>
</svg>
