<?xml version="1.0" encoding="utf-8"?>
<!-- Generated by IcoMoon.io -->
<!DOCTYPE svg PUBLIC "-//W3C//DTD SVG 1.1//EN" "http://www.w3.org/Graphics/SVG/1.1/DTD/svg11.dtd">
<svg version="1.1" xmlns="http://www.w3.org/2000/svg" xmlns:xlink="http://www.w3.org/1999/xlink" width="21" height="16" viewBox="0 0 21 16">
<path fill="#444444" d="M17.634 8.839h-1.232q0.125-0.33 0.589-1.598l0.027-0.080q0.036-0.089 0.089-0.232t0.080-0.232l0.107 0.491zM4.741 8.259l-0.518-2.634q-0.098-0.482-0.67-0.482h-2.393l-0.018 0.116q2.777 0.705 3.598 3zM6.339 5.143l-1.446 3.911-0.152-0.795q-0.232-0.625-0.759-1.156t-1.17-0.79l1.205 4.554h1.563l2.33-5.723h-1.571zM7.58 10.875h1.482l0.929-5.732h-1.482zM14.438 5.286q-0.616-0.241-1.33-0.241-1.098 0-1.795 0.527t-0.705 1.366q-0.009 0.911 1.295 1.554 0.429 0.205 0.598 0.366t0.17 0.348q0 0.268-0.268 0.411t-0.616 0.143q-0.768 0-1.393-0.295l-0.196-0.098-0.205 1.286q0.661 0.304 1.652 0.304 1.161 0.009 1.862-0.527t0.719-1.429q0-0.946-1.25-1.554-0.438-0.223-0.634-0.375t-0.196-0.339q0-0.196 0.219-0.344t0.629-0.147q0.625-0.009 1.107 0.214l0.134 0.071zM18.232 5.143h-1.143q-0.58 0-0.777 0.482l-2.196 5.25h1.554l0.313-0.857h1.893q0.045 0.196 0.179 0.857h1.375zM20.571 2.286v11.429q0 0.464-0.339 0.804t-0.804 0.339h-18.286q-0.464 0-0.804-0.339t-0.339-0.804v-11.429q0-0.464 0.339-0.804t0.804-0.339h18.286q0.464 0 0.804 0.339t0.339 0.804z"></path>
</svg>
