<?xml version="1.0" encoding="utf-8"?>
<!-- Generated by IcoMoon.io -->
<!DOCTYPE svg PUBLIC "-//W3C//DTD SVG 1.1//EN" "http://www.w3.org/Graphics/SVG/1.1/DTD/svg11.dtd">
<svg version="1.1" xmlns="http://www.w3.org/2000/svg" xmlns:xlink="http://www.w3.org/1999/xlink" width="18" height="16" viewBox="0 0 18 16">
<path fill="#444444" d="M7.009 9h1.848q-0.125 1.411-0.879 2.219t-1.915 0.808q-1.446 0-2.272-1.036t-0.826-2.821q0-1.732 0.83-2.781t2.080-1.049q1.321 0 2.071 0.777t0.866 2.205h-1.813q-0.045-0.571-0.317-0.884t-0.728-0.313q-0.509 0-0.79 0.54t-0.281 1.585q0 0.429 0.045 0.75t0.161 0.621 0.357 0.46 0.589 0.161q0.848 0 0.973-1.241zM13.366 9h1.839q-0.125 1.411-0.875 2.219t-1.911 0.808q-1.446 0-2.272-1.036t-0.826-2.821q0-1.732 0.83-2.781t2.080-1.049q1.321 0 2.071 0.777t0.866 2.205h-1.821q-0.036-0.571-0.313-0.884t-0.723-0.313q-0.509 0-0.79 0.54t-0.281 1.585q0 0.429 0.045 0.75t0.161 0.621 0.353 0.46 0.585 0.161q0.438 0 0.683-0.339t0.299-0.902zM16.571 7.938q0-1.848-0.138-2.741t-0.54-1.438q-0.054-0.071-0.121-0.125t-0.192-0.134-0.143-0.098q-0.768-0.563-6.223-0.563-5.58 0-6.339 0.563-0.045 0.036-0.156 0.103t-0.188 0.125-0.129 0.129q-0.402 0.536-0.536 1.424t-0.134 2.754q0 1.857 0.134 2.746t0.536 1.433q0.054 0.071 0.134 0.134t0.183 0.125 0.156 0.107q0.393 0.295 2.138 0.438t4.201 0.143q5.446 0 6.223-0.58 0.045-0.036 0.152-0.098t0.183-0.125 0.121-0.143q0.411-0.536 0.545-1.42t0.134-2.759zM18.286 1.143v13.714h-18.286v-13.714h18.286z"></path>
</svg>
