<?xml version="1.0" encoding="utf-8"?>
<!-- Generated by IcoMoon.io -->
<!DOCTYPE svg PUBLIC "-//W3C//DTD SVG 1.1//EN" "http://www.w3.org/Graphics/SVG/1.1/DTD/svg11.dtd">
<svg version="1.1" xmlns="http://www.w3.org/2000/svg" xmlns:xlink="http://www.w3.org/1999/xlink" width="15" height="16" viewBox="0 0 15 16">
<path fill="#444444" d="M12.571 8.304v2.839q0 1.063-0.754 1.817t-1.817 0.754h-7.429q-1.063 0-1.817-0.754t-0.754-1.817v-7.429q0-1.063 0.754-1.817t1.817-0.754h7.429q0.563 0 1.045 0.223 0.134 0.063 0.161 0.205 0.027 0.152-0.080 0.259l-0.438 0.438q-0.089 0.089-0.205 0.089-0.027 0-0.080-0.018-0.205-0.054-0.402-0.054h-7.429q-0.589 0-1.009 0.42t-0.42 1.009v7.429q0 0.589 0.42 1.009t1.009 0.42h7.429q0.589 0 1.009-0.42t0.42-1.009v-2.268q0-0.116 0.080-0.196l0.571-0.571q0.089-0.089 0.205-0.089 0.054 0 0.107 0.027 0.179 0.071 0.179 0.259zM14.634 3.938l-7.268 7.268q-0.214 0.214-0.509 0.214t-0.509-0.214l-3.839-3.839q-0.214-0.214-0.214-0.509t0.214-0.509l0.982-0.982q0.214-0.214 0.509-0.214t0.509 0.214l2.348 2.348 5.777-5.777q0.214-0.214 0.509-0.214t0.509 0.214l0.982 0.982q0.214 0.214 0.214 0.509t-0.214 0.509z"></path>
</svg>
