<?xml version="1.0" encoding="utf-8"?>
<!-- Generated by IcoMoon.io -->
<!DOCTYPE svg PUBLIC "-//W3C//DTD SVG 1.1//EN" "http://www.w3.org/Graphics/SVG/1.1/DTD/svg11.dtd">
<svg version="1.1" xmlns="http://www.w3.org/2000/svg" xmlns:xlink="http://www.w3.org/1999/xlink" width="14" height="16" viewBox="0 0 14 16">
<path fill="#444444" d="M6.116 11.598l5.482-5.482q0.17-0.17 0.17-0.402t-0.17-0.402l-0.911-0.911q-0.17-0.17-0.402-0.17t-0.402 0.17l-4.17 4.17-1.884-1.884q-0.17-0.17-0.402-0.17t-0.402 0.17l-0.911 0.911q-0.17 0.17-0.17 0.402t0.17 0.402l3.196 3.196q0.17 0.17 0.402 0.17t0.402-0.17zM13.714 3.714v8.571q0 1.063-0.754 1.817t-1.817 0.754h-8.571q-1.063 0-1.817-0.754t-0.754-1.817v-8.571q0-1.063 0.754-1.817t1.817-0.754h8.571q1.063 0 1.817 0.754t0.754 1.817z"></path>
</svg>
