<?xml version="1.0" encoding="utf-8"?>
<!-- Generated by IcoMoon.io -->
<!DOCTYPE svg PUBLIC "-//W3C//DTD SVG 1.1//EN" "http://www.w3.org/Graphics/SVG/1.1/DTD/svg11.dtd">
<svg version="1.1" xmlns="http://www.w3.org/2000/svg" xmlns:xlink="http://www.w3.org/1999/xlink" width="11" height="16" viewBox="0 0 11 16">
<path fill="#444444" d="M10.607 4.893l-2.607 2.607v7.357q0 0.411-0.295 0.705t-0.705 0.295-0.705-0.295-0.295-0.705v-3.429h-0.571v3.429q0 0.411-0.295 0.705t-0.705 0.295-0.705-0.295-0.295-0.705v-7.357l-2.607-2.607q-0.25-0.25-0.25-0.607t0.25-0.607 0.607-0.25 0.607 0.25l2.036 2.036h3.286l2.036-2.036q0.25-0.25 0.607-0.25t0.607 0.25 0.25 0.607-0.25 0.607zM7.714 3.429q0 0.83-0.585 1.415t-1.415 0.585-1.415-0.585-0.585-1.415 0.585-1.415 1.415-0.585 1.415 0.585 0.585 1.415z"></path>
</svg>
