<?xml version="1.0" encoding="utf-8"?>
<!-- Generated by IcoMoon.io -->
<!DOCTYPE svg PUBLIC "-//W3C//DTD SVG 1.1//EN" "http://www.w3.org/Graphics/SVG/1.1/DTD/svg11.dtd">
<svg version="1.1" xmlns="http://www.w3.org/2000/svg" xmlns:xlink="http://www.w3.org/1999/xlink" width="16" height="16" viewBox="0 0 16 16">
<path fill="#444444" d="M7.973 0q2.143-0.018 4.027 1.071 2.071 1.196 3.143 3.321l-6.625-0.348q-1.429-0.080-2.625 0.665t-1.652 2.049l-2.464-3.786q1.143-1.42 2.777-2.192t3.42-0.781zM1.304 3.616l3.009 5.92q0.643 1.277 1.884 1.938t2.616 0.402l-2.054 4.027q-1.893-0.295-3.438-1.406t-2.433-2.821-0.888-3.674q0-2.384 1.304-4.384zM15.464 5.125q0.518 1.339 0.531 2.772t-0.433 2.732-1.366 2.429-2.196 1.871q-2.054 1.188-4.446 1.063l3.616-5.563q0.786-1.17 0.737-2.594t-0.951-2.478zM8 5.304q1.116 0 1.906 0.79t0.79 1.906-0.79 1.906-1.906 0.79-1.906-0.79-0.79-1.906 0.79-1.906 1.906-0.79z"></path>
</svg>
