<?xml version="1.0" encoding="utf-8"?>
<!-- Generated by IcoMoon.io -->
<!DOCTYPE svg PUBLIC "-//W3C//DTD SVG 1.1//EN" "http://www.w3.org/Graphics/SVG/1.1/DTD/svg11.dtd">
<svg version="1.1" xmlns="http://www.w3.org/2000/svg" xmlns:xlink="http://www.w3.org/1999/xlink" width="16" height="16" viewBox="0 0 16 16">
<path fill="#444444" d="M15.714 8q0 1.571-0.612 3t-1.643 2.46-2.46 1.643-3 0.612-3-0.612-2.46-1.643-1.643-2.46-0.612-3q0-1.902 0.866-3.558t2.366-2.728 3.339-1.348v2.036q-1.973 0.402-3.272 1.973t-1.299 3.625q0 1.161 0.455 2.219t1.219 1.821 1.821 1.219 2.219 0.455 2.219-0.455 1.821-1.219 1.219-1.821 0.455-2.219q0-2.054-1.299-3.625t-3.272-1.973v-2.036q1.839 0.277 3.339 1.348t2.366 2.728 0.866 3.558z"></path>
</svg>
