<?xml version="1.0" encoding="utf-8"?>
<!-- Generated by IcoMoon.io -->
<!DOCTYPE svg PUBLIC "-//W3C//DTD SVG 1.1//EN" "http://www.w3.org/Graphics/SVG/1.1/DTD/svg11.dtd">
<svg version="1.1" xmlns="http://www.w3.org/2000/svg" xmlns:xlink="http://www.w3.org/1999/xlink" width="14" height="16" viewBox="0 0 14 16">
<path fill="#444444" d="M6.857 2.286q-1.161 0-2.219 0.455t-1.821 1.219-1.219 1.821-0.455 2.219 0.455 2.219 1.219 1.821 1.821 1.219 2.219 0.455 2.219-0.455 1.821-1.219 1.219-1.821 0.455-2.219-0.455-2.219-1.219-1.821-1.821-1.219-2.219-0.455zM13.714 8q0 1.866-0.92 3.442t-2.496 2.496-3.442 0.92-3.442-0.92-2.496-2.496-0.92-3.442 0.92-3.442 2.496-2.496 3.442-0.92 3.442 0.92 2.496 2.496 0.92 3.442z"></path>
</svg>
