<?xml version="1.0" encoding="utf-8"?>
<!-- Generated by IcoMoon.io -->
<!DOCTYPE svg PUBLIC "-//W3C//DTD SVG 1.1//EN" "http://www.w3.org/Graphics/SVG/1.1/DTD/svg11.dtd">
<svg version="1.1" xmlns="http://www.w3.org/2000/svg" xmlns:xlink="http://www.w3.org/1999/xlink" width="16" height="16" viewBox="0 0 16 16">
<path fill="#444444" d="M6.857 14.857h8v-5.714h-3.714q-0.357 0-0.607-0.25t-0.25-0.607v-3.714h-3.429v10.286zM9.143 2v-0.571q0-0.116-0.085-0.201t-0.201-0.085h-6.286q-0.116 0-0.201 0.085t-0.085 0.201v0.571q0 0.116 0.085 0.201t0.201 0.085h6.286q0.116 0 0.201-0.085t0.085-0.201zM11.429 8h2.67l-2.67-2.67v2.67zM16 9.143v6q0 0.357-0.25 0.607t-0.607 0.25h-8.571q-0.357 0-0.607-0.25t-0.25-0.607v-1.429h-4.857q-0.357 0-0.607-0.25t-0.25-0.607v-12q0-0.357 0.25-0.607t0.607-0.25h9.714q0.357 0 0.607 0.25t0.25 0.607v2.929q0.188 0.116 0.321 0.25l3.643 3.643q0.25 0.25 0.429 0.679t0.179 0.786z"></path>
</svg>
