<?xml version="1.0" encoding="utf-8"?>
<!-- Generated by IcoMoon.io -->
<!DOCTYPE svg PUBLIC "-//W3C//DTD SVG 1.1//EN" "http://www.w3.org/Graphics/SVG/1.1/DTD/svg11.dtd">
<svg version="1.1" xmlns="http://www.w3.org/2000/svg" xmlns:xlink="http://www.w3.org/1999/xlink" width="16" height="16" viewBox="0 0 16 16">
<path fill="#444444" d="M14.681 2.318c1.758 1.757 1.758 4.606 0 6.364l-5.483 5.484c-0.195 0.196-0.511 0.196-0.707 0s-0.197-0.511 0-0.707l5.413-5.413c1.367-1.367 1.367-3.582-0.001-4.949-1.365-1.367-3.582-1.367-4.949 0l-7.223 7.138c-0.977 0.976-0.977 2.559 0 3.535s2.559 0.976 3.535 0l7.295-7.208c0.585-0.585 0.585-1.537 0-2.122s-1.536-0.585-2.121 0l-5.484 5.484c-0.196 0.195-0.511 0.195-0.707 0s-0.196-0.511 0-0.707l5.484-5.484c0.976-0.976 2.559-0.976 3.535 0s0.976 2.559 0 3.535l-7.295 7.209c-1.364 1.364-3.584 1.364-4.949 0s-1.365-3.585 0-4.95l7.295-7.208c1.757-1.758 4.607-1.758 6.364 0z"></path>
</svg>
