<?xml version="1.0" encoding="utf-8"?>
<!-- Generated by IcoMoon.io -->
<!DOCTYPE svg PUBLIC "-//W3C//DTD SVG 1.1//EN" "http://www.w3.org/Graphics/SVG/1.1/DTD/svg11.dtd">
<svg version="1.1" xmlns="http://www.w3.org/2000/svg" xmlns:xlink="http://www.w3.org/1999/xlink" width="16" height="16" viewBox="0 0 16 16">
<path fill="#444444" d="M7.5 5c0-0.276 0.224-0.5 0.5-0.5s0.5 0.224 0.5 0.5c0 0.276-0.224 0.5-0.5 0.5s-0.5-0.224-0.5-0.5zM7.5 11c0-0.276 0.224-0.5 0.5-0.5s0.5 0.224 0.5 0.5c0 0.276-0.224 0.5-0.5 0.5s-0.5-0.224-0.5-0.5zM4.5 8c0-0.276 0.224-0.5 0.5-0.5s0.5 0.224 0.5 0.5c0 0.276-0.224 0.5-0.5 0.5s-0.5-0.224-0.5-0.5zM10.5 8c0-0.276 0.224-0.5 0.5-0.5s0.5 0.224 0.5 0.5c0 0.276-0.224 0.5-0.5 0.5s-0.5-0.224-0.5-0.5zM5.378 10.121c0-0.276 0.224-0.5 0.5-0.5s0.5 0.224 0.5 0.5c0 0.276-0.224 0.5-0.5 0.5s-0.5-0.224-0.5-0.5zM5.378 5.878c0-0.276 0.224-0.5 0.5-0.5s0.5 0.224 0.5 0.5c0 0.276-0.224 0.5-0.5 0.5s-0.5-0.224-0.5-0.5zM9.621 10.121c0-0.276 0.224-0.5 0.5-0.5s0.5 0.224 0.5 0.5c0 0.276-0.224 0.5-0.5 0.5s-0.5-0.224-0.5-0.5zM13 7c-0.035 0-0.065 0.016-0.098 0.020-0.174-0.873-0.585-1.653-1.149-2.297l-0.718-3.906c-0.088-0.473-0.501-0.817-0.983-0.817h-4c-0.482 0-0.895 0.344-0.984 0.818l-0.7 3.774c-0.84 0.893-1.369 2.084-1.369 3.408 0 1.292 0.507 2.453 1.311 3.339l0.706 3.844c0.088 0.473 0.502 0.817 0.984 0.817h4c0.482 0 0.895-0.344 0.983-0.818l0.712-3.841c0.595-0.655 1.027-1.46 1.206-2.363 0.034 0.005 0.063 0.021 0.098 0.021 0.552 0 1-0.448 1-1s-0.448-1-1-1zM6.052 1h4l0.5 2.693c-0.739-0.429-1.584-0.693-2.5-0.693s-1.761 0.264-2.5 0.694l0.5-2.693zM10 15h-4l-0.5-2.694c0.738 0.429 1.584 0.694 2.5 0.694s1.762-0.264 2.5-0.694l-0.5 2.694zM8 12c-2.205 0-4-1.795-4-4s1.795-4 4-4c2.206 0 4 1.795 4 4s-1.795 4-4 4zM10.47 5.513c0.060 0.061 0.066 0.158 0.014 0.224l-1.213 1.51-0.924 1.113c-0.095 0.091-0.225 0.137-0.349 0.139-0.135-0.001-0.26-0.053-0.354-0.146s-0.144-0.217-0.144-0.349c0-0.136 0.053-0.263 0.148-0.359l2.596-2.143c0.069-0.055 0.166-0.050 0.226 0.011z"></path>
</svg>
