<?xml version="1.0" encoding="utf-8"?>
<!-- Generated by IcoMoon.io -->
<!DOCTYPE svg PUBLIC "-//W3C//DTD SVG 1.1//EN" "http://www.w3.org/Graphics/SVG/1.1/DTD/svg11.dtd">
<svg version="1.1" xmlns="http://www.w3.org/2000/svg" xmlns:xlink="http://www.w3.org/1999/xlink" width="16" height="16" viewBox="0 0 16 16">
<path fill="#444444" d="M14.857 14.571v-9.714q0-0.116-0.085-0.201t-0.201-0.085h-9.714q-0.116 0-0.201 0.085t-0.085 0.201v9.714q0 0.116 0.085 0.201t0.201 0.085h9.714q0.116 0 0.201-0.085t0.085-0.201zM16 4.857v9.714q0 0.589-0.42 1.009t-1.009 0.42h-9.714q-0.589 0-1.009-0.42t-0.42-1.009v-9.714q0-0.589 0.42-1.009t1.009-0.42h9.714q0.589 0 1.009 0.42t0.42 1.009zM12.571 1.429v1.429h-1.143v-1.429q0-0.116-0.085-0.201t-0.201-0.085h-9.714q-0.116 0-0.201 0.085t-0.085 0.201v9.714q0 0.116 0.085 0.201t0.201 0.085h1.429v1.143h-1.429q-0.589 0-1.009-0.42t-0.42-1.009v-9.714q0-0.589 0.42-1.009t1.009-0.42h9.714q0.589 0 1.009 0.42t0.42 1.009z"></path>
</svg>
