<?xml version="1.0" encoding="utf-8"?>
<!-- Generated by IcoMoon.io -->
<!DOCTYPE svg PUBLIC "-//W3C//DTD SVG 1.1//EN" "http://www.w3.org/Graphics/SVG/1.1/DTD/svg11.dtd">
<svg version="1.1" xmlns="http://www.w3.org/2000/svg" xmlns:xlink="http://www.w3.org/1999/xlink" width="17" height="16" viewBox="0 0 17 16">
<path fill="#444444" d="M11.429 7.714q0-0.125-0.080-0.205l-3.143-3.143q-0.080-0.080-0.205-0.080t-0.205 0.080l-3.134 3.134q-0.089 0.107-0.089 0.214 0 0.125 0.080 0.205t0.205 0.080h2v3.143q0 0.116 0.085 0.201t0.201 0.085h1.714q0.116 0 0.201-0.085t0.085-0.201v-3.143h2q0.116 0 0.201-0.085t0.085-0.201zM17.143 10.286q0 1.42-1.004 2.424t-2.424 1.004h-9.714q-1.652 0-2.826-1.174t-1.174-2.826q0-1.161 0.625-2.143t1.679-1.473q-0.018-0.268-0.018-0.384 0-1.893 1.339-3.232t3.232-1.339q1.393 0 2.549 0.777t1.683 2.063q0.634-0.554 1.482-0.554 0.946 0 1.616 0.67t0.67 1.616q0 0.679-0.366 1.232 1.161 0.277 1.906 1.21t0.746 2.129z"></path>
</svg>
