<?xml version="1.0" encoding="utf-8"?>
<!-- Generated by IcoMoon.io -->
<!DOCTYPE svg PUBLIC "-//W3C//DTD SVG 1.1//EN" "http://www.w3.org/Graphics/SVG/1.1/DTD/svg11.dtd">
<svg version="1.1" xmlns="http://www.w3.org/2000/svg" xmlns:xlink="http://www.w3.org/1999/xlink" width="16" height="16" viewBox="0 0 16 16">
<path fill="#444444" d="M12.957 6.572c-0.219-2.281-2.118-4.072-4.457-4.072-1.809 0-3.358 1.074-4.073 2.615-0.215-0.068-0.439-0.115-0.676-0.115-1.242 0-2.25 1.008-2.25 2.25 0 0.247 0.050 0.481 0.123 0.702-0.967 0.563-1.623 1.598-1.623 2.797 0 1.795 1.455 3.25 3.25 3.25v0.001l9-0.001c2.072 0 3.75-1.678 3.75-3.75 0-1.828-1.31-3.346-3.043-3.678zM12.25 12.999v0.001h-8.999c-1.24-0.001-2.25-1.010-2.25-2.251 0-0.8 0.421-1.522 1.127-1.934 0.686-0.393 0.732-0.472 0.445-1.178-0.049-0.146-0.072-0.272-0.072-0.386 0-0.689 0.56-1.25 1.25-1.25 0 0 0.328-0.024 0.677 0.115 0.574 0.229 0.636 0.010 0.907-0.58 0.574-1.237 1.816-2.036 3.166-2.036 1.8 0 3.288 1.361 3.462 3.167 0.062 0.716 0.062 0.716 0.807 0.886 1.293 0.247 2.231 1.381 2.231 2.695 0 1.517-1.233 2.75-2.75 2.75z"></path>
</svg>
