<?xml version="1.0" encoding="utf-8"?>
<!-- Generated by IcoMoon.io -->
<!DOCTYPE svg PUBLIC "-//W3C//DTD SVG 1.1//EN" "http://www.w3.org/Graphics/SVG/1.1/DTD/svg11.dtd">
<svg version="1.1" xmlns="http://www.w3.org/2000/svg" xmlns:xlink="http://www.w3.org/1999/xlink" width="9" height="16" viewBox="0 0 9 16">
<path fill="#444444" d="M5.384 13.714h-1.536q-0.116 0-0.201-0.080t-0.085-0.205v-2.946h-2.571q-0.116 0-0.201-0.080t-0.085-0.205v-0.92q0-0.116 0.085-0.201t0.201-0.085h2.571v-0.759h-2.571q-0.116 0-0.201-0.080t-0.085-0.205v-0.929q0-0.116 0.085-0.201t0.201-0.085h1.911l-2.866-5.161q-0.071-0.143 0-0.286 0.089-0.143 0.25-0.143h1.732q0.17 0 0.259 0.161l1.92 3.795q0.17 0.339 0.5 1.116 0.089-0.214 0.272-0.607t0.246-0.545l1.705-3.75q0.071-0.17 0.259-0.17h1.705q0.152 0 0.241 0.143 0.080 0.125 0.009 0.277l-2.795 5.17h1.92q0.116 0 0.201 0.085t0.085 0.201v0.929q0 0.125-0.085 0.205t-0.201 0.080h-2.589v0.759h2.589q0.116 0 0.201 0.085t0.085 0.201v0.92q0 0.125-0.085 0.205t-0.201 0.080h-2.589v2.946q0 0.116-0.085 0.201t-0.201 0.085z"></path>
</svg>
