<?xml version="1.0" encoding="utf-8"?>
<!-- Generated by IcoMoon.io -->
<!DOCTYPE svg PUBLIC "-//W3C//DTD SVG 1.1//EN" "http://www.w3.org/Graphics/SVG/1.1/DTD/svg11.dtd">
<svg version="1.1" xmlns="http://www.w3.org/2000/svg" xmlns:xlink="http://www.w3.org/1999/xlink" width="9" height="16" viewBox="0 0 9 16">
<path fill="#444444" d="M2.571 13.143q0-0.357-0.25-0.607t-0.607-0.25-0.607 0.25-0.25 0.607 0.25 0.607 0.607 0.25 0.607-0.25 0.25-0.607zM2.571 2.857q0-0.357-0.25-0.607t-0.607-0.25-0.607 0.25-0.25 0.607 0.25 0.607 0.607 0.25 0.607-0.25 0.25-0.607zM8.286 4q0-0.357-0.25-0.607t-0.607-0.25-0.607 0.25-0.25 0.607 0.25 0.607 0.607 0.25 0.607-0.25 0.25-0.607zM9.143 4q0 0.464-0.232 0.862t-0.625 0.621q-0.018 2.562-2.018 3.696-0.607 0.339-1.813 0.723-1.143 0.357-1.513 0.634t-0.371 0.893v0.232q0.393 0.223 0.625 0.621t0.232 0.862q0 0.714-0.5 1.214t-1.214 0.5-1.214-0.5-0.5-1.214q0-0.464 0.232-0.862t0.625-0.621v-7.321q-0.393-0.223-0.625-0.621t-0.232-0.862q0-0.714 0.5-1.214t1.214-0.5 1.214 0.5 0.5 1.214q0 0.464-0.232 0.862t-0.625 0.621v4.438q0.482-0.232 1.375-0.509 0.491-0.152 0.781-0.263t0.629-0.277 0.527-0.353 0.362-0.455 0.25-0.621 0.076-0.817q-0.393-0.223-0.625-0.621t-0.232-0.862q0-0.714 0.5-1.214t1.214-0.5 1.214 0.5 0.5 1.214z"></path>
</svg>
