<?xml version="1.0" encoding="utf-8"?>
<!-- Generated by IcoMoon.io -->
<!DOCTYPE svg PUBLIC "-//W3C//DTD SVG 1.1//EN" "http://www.w3.org/Graphics/SVG/1.1/DTD/svg11.dtd">
<svg version="1.1" xmlns="http://www.w3.org/2000/svg" xmlns:xlink="http://www.w3.org/1999/xlink" width="16" height="16" viewBox="0 0 16 16">
<path fill="#444444" d="M1.929 10.438l5.384 3.589v-3.205l-2.982-1.991zM1.375 9.152l1.723-1.152-1.723-1.152v2.304zM8.688 14.027l5.384-3.589-2.402-1.607-2.982 1.991v3.205zM8 9.625l2.429-1.625-2.429-1.625-2.429 1.625zM4.33 7.17l2.982-1.991v-3.205l-5.384 3.589zM12.902 8l1.723 1.152v-2.304zM11.67 7.17l2.402-1.607-5.384-3.589v3.205zM16 5.563v4.875q0 0.366-0.304 0.571l-7.313 4.875q-0.188 0.116-0.384 0.116t-0.384-0.116l-7.313-4.875q-0.304-0.205-0.304-0.571v-4.875q0-0.366 0.304-0.571l7.313-4.875q0.188-0.116 0.384-0.116t0.384 0.116l7.313 4.875q0.304 0.205 0.304 0.571z"></path>
</svg>
