<?xml version="1.0" encoding="utf-8"?>
<!-- Generated by IcoMoon.io -->
<!DOCTYPE svg PUBLIC "-//W3C//DTD SVG 1.1//EN" "http://www.w3.org/Graphics/SVG/1.1/DTD/svg11.dtd">
<svg version="1.1" xmlns="http://www.w3.org/2000/svg" xmlns:xlink="http://www.w3.org/1999/xlink" width="15" height="16" viewBox="0 0 15 16">
<path fill="#444444" d="M13.83 6.063q0.491 0 0.763 0.254t0.272 0.746-0.304 0.732-0.813 0.241h-1.214v1.58h-0.223v-3.554h1.518zM15.268 11.33l-0.036 0.098-0.045 0.089q-1.009 2.054-2.951 3.268t-4.237 1.214q-1.625 0-3.107-0.634t-2.554-1.705-1.705-2.554-0.634-3.107 0.634-3.107 1.705-2.554 2.554-1.705 3.107-0.634q2.179 0 4.058 1.107t2.942 3.018l0.089 0.179q-0.268 0.134-1.219 0.612t-1.46 0.754q-0.054 0.027-4.277 2.393 3.429 1.634 7.134 3.268zM8 15.804q2.232 0 4.129-1.183t2.879-3.192l-2.563-1.152q-0.643 1.25-1.839 1.982t-2.607 0.732q-1.348 0-2.5-0.67t-1.821-1.821-0.67-2.5 0.67-2.5 1.821-1.821 2.5-0.67 2.5 0.656 1.821 1.826l2.5-1.277q-1.036-1.857-2.866-2.938t-3.955-1.080q-1.063 0-2.076 0.281t-1.866 0.781-1.576 1.223-1.223 1.576-0.781 1.866-0.281 2.076 0.281 2.076 0.781 1.866 1.223 1.576 1.576 1.223 1.866 0.781 2.076 0.281z"></path>
</svg>
