<?xml version="1.0" encoding="utf-8"?>
<!-- Generated by IcoMoon.io -->
<!DOCTYPE svg PUBLIC "-//W3C//DTD SVG 1.1//EN" "http://www.w3.org/Graphics/SVG/1.1/DTD/svg11.dtd">
<svg version="1.1" xmlns="http://www.w3.org/2000/svg" xmlns:xlink="http://www.w3.org/1999/xlink" width="17" height="16" viewBox="0 0 17 16">
<path fill="#444444" d="M14.857 5.714q0-0.714-0.5-1.214t-1.214-0.5h-0.571v3.429h0.571q0.714 0 1.214-0.5t0.5-1.214zM0 12.571h16q0 0.946-0.67 1.616t-1.616 0.67h-11.429q-0.946 0-1.616-0.67t-0.67-1.616zM16.571 5.714q0 1.42-1.004 2.424t-2.424 1.004h-0.571v0.286q0 0.821-0.589 1.411t-1.411 0.589h-6.286q-0.821 0-1.411-0.589t-0.589-1.411v-6.571q0-0.232 0.17-0.402t0.402-0.17h10.286q1.42 0 2.424 1.004t1.004 2.424z"></path>
</svg>
