<?xml version="1.0" encoding="utf-8"?>
<!-- Generated by IcoMoon.io -->
<!DOCTYPE svg PUBLIC "-//W3C//DTD SVG 1.1//EN" "http://www.w3.org/Graphics/SVG/1.1/DTD/svg11.dtd">
<svg version="1.1" xmlns="http://www.w3.org/2000/svg" xmlns:xlink="http://www.w3.org/1999/xlink" width="16" height="16" viewBox="0 0 16 16">
<path fill="#444444" d="M5.714 8q0-0.473-0.335-0.808t-0.808-0.335-0.808 0.335-0.335 0.808 0.335 0.808 0.808 0.335 0.808-0.335 0.335-0.808zM9.143 8q0-0.473-0.335-0.808t-0.808-0.335-0.808 0.335-0.335 0.808 0.335 0.808 0.808 0.335 0.808-0.335 0.335-0.808zM12.571 8q0-0.473-0.335-0.808t-0.808-0.335-0.808 0.335-0.335 0.808 0.335 0.808 0.808 0.335 0.808-0.335 0.335-0.808zM16 8q0 1.554-1.071 2.871t-2.911 2.080-4.018 0.763q-0.982 0-1.884-0.161-1.545 1.545-3.884 2.045-0.464 0.089-0.768 0.116-0.107 0.009-0.196-0.054t-0.116-0.161q-0.036-0.134 0.179-0.33 0.045-0.045 0.21-0.192t0.228-0.21 0.21-0.228 0.214-0.281 0.183-0.33 0.179-0.429 0.129-0.513 0.112-0.647q-1.304-0.804-2.049-1.933t-0.746-2.406q0-1.554 1.071-2.871t2.911-2.080 4.018-0.763 4.018 0.763 2.911 2.080 1.071 2.871z"></path>
</svg>
