<?xml version="1.0" encoding="utf-8"?>
<!-- Generated by IcoMoon.io -->
<!DOCTYPE svg PUBLIC "-//W3C//DTD SVG 1.1//EN" "http://www.w3.org/Graphics/SVG/1.1/DTD/svg11.dtd">
<svg version="1.1" xmlns="http://www.w3.org/2000/svg" xmlns:xlink="http://www.w3.org/1999/xlink" width="16" height="16" viewBox="0 0 16 16">
<path fill="#444444" d="M8 3.429q-1.821 0-3.406 0.621t-2.518 1.674-0.933 2.277q0 1 0.638 1.906t1.799 1.567l0.777 0.446-0.241 0.857q-0.214 0.813-0.625 1.536 1.357-0.563 2.455-1.527l0.384-0.339 0.509 0.054q0.616 0.071 1.161 0.071 1.821 0 3.406-0.621t2.518-1.674 0.933-2.277-0.933-2.277-2.518-1.674-3.406-0.621zM16 8q0 1.554-1.071 2.871t-2.911 2.080-4.018 0.763q-0.625 0-1.295-0.071-1.768 1.563-4.107 2.161-0.438 0.125-1.018 0.196h-0.045q-0.134 0-0.241-0.094t-0.143-0.246v-0.009q-0.027-0.036-0.004-0.107t0.018-0.089 0.040-0.085l0.054-0.080t0.063-0.076 0.071-0.080q0.063-0.071 0.277-0.308t0.308-0.339 0.277-0.353 0.29-0.455 0.241-0.527 0.232-0.679q-1.402-0.795-2.21-1.964t-0.808-2.509q0-1.554 1.071-2.871t2.911-2.080 4.018-0.763 4.018 0.763 2.911 2.080 1.071 2.871z"></path>
</svg>
