<?xml version="1.0" encoding="utf-8"?>
<!-- Generated by IcoMoon.io -->
<!DOCTYPE svg PUBLIC "-//W3C//DTD SVG 1.1//EN" "http://www.w3.org/Graphics/SVG/1.1/DTD/svg11.dtd">
<svg version="1.1" xmlns="http://www.w3.org/2000/svg" xmlns:xlink="http://www.w3.org/1999/xlink" width="16" height="16" viewBox="0 0 16 16">
<path fill="#444444" d="M12.571 6.857q0 1.241-0.839 2.295t-2.29 1.665-3.156 0.612q-0.768 0-1.571-0.143-1.107 0.786-2.482 1.143-0.321 0.080-0.768 0.143h-0.027q-0.098 0-0.183-0.071t-0.103-0.188q-0.009-0.027-0.009-0.058t0.004-0.058 0.018-0.054l0.022-0.045t0.031-0.049 0.036-0.045 0.040-0.045 0.036-0.040q0.045-0.054 0.205-0.223t0.232-0.263 0.201-0.259 0.223-0.344 0.183-0.393q-1.107-0.643-1.741-1.58t-0.634-2q0-1.241 0.839-2.295t2.29-1.665 3.156-0.612 3.156 0.612 2.29 1.665 0.839 2.295zM16 9.143q0 1.071-0.634 2.004t-1.741 1.576q0.089 0.214 0.183 0.393t0.223 0.344 0.201 0.259 0.232 0.263 0.205 0.223q0.009 0.009 0.036 0.040t0.040 0.045 0.036 0.045 0.031 0.049l0.022 0.045t0.018 0.054 0.004 0.058-0.009 0.058q-0.027 0.125-0.116 0.196t-0.196 0.063q-0.446-0.063-0.768-0.143-1.375-0.357-2.482-1.143-0.804 0.143-1.571 0.143-2.42 0-4.214-1.179 0.518 0.036 0.786 0.036 1.438 0 2.759-0.402t2.357-1.152q1.116-0.821 1.714-1.893t0.598-2.268q0-0.688-0.205-1.357 1.152 0.634 1.821 1.589t0.67 2.054z"></path>
</svg>
