<?xml version="1.0" encoding="utf-8"?>
<!-- Generated by IcoMoon.io -->
<!DOCTYPE svg PUBLIC "-//W3C//DTD SVG 1.1//EN" "http://www.w3.org/Graphics/SVG/1.1/DTD/svg11.dtd">
<svg version="1.1" xmlns="http://www.w3.org/2000/svg" xmlns:xlink="http://www.w3.org/1999/xlink" width="14" height="16" viewBox="0 0 14 16">
<path fill="#444444" d="M5.714 9.714l2.286-1.143-2.286-1.143v2.286zM9.143 4.438v4.839l-4.571 2.286v-4.839zM11.714 8q0-1.321-0.652-2.438t-1.768-1.768-2.438-0.652-2.438 0.652-1.768 1.768-0.652 2.438 0.652 2.438 1.768 1.768 2.438 0.652 2.438-0.652 1.768-1.768 0.652-2.438zM13.714 8q0 1.866-0.92 3.442t-2.496 2.496-3.442 0.92-3.442-0.92-2.496-2.496-0.92-3.442 0.92-3.442 2.496-2.496 3.442-0.92 3.442 0.92 2.496 2.496 0.92 3.442z"></path>
</svg>
