<?xml version="1.0" encoding="utf-8"?>
<!-- Generated by IcoMoon.io -->
<!DOCTYPE svg PUBLIC "-//W3C//DTD SVG 1.1//EN" "http://www.w3.org/Graphics/SVG/1.1/DTD/svg11.dtd">
<svg version="1.1" xmlns="http://www.w3.org/2000/svg" xmlns:xlink="http://www.w3.org/1999/xlink" width="16" height="16" viewBox="0 0 16 16">
<path fill="#444444" d="M1.232 1.143h1.759q-0.625 0.571-1.125 1.33-0.321 0.5-0.527 1.027t-0.268 1.121-0.076 1.071 0.094 1.179 0.188 1.125 0.25 1.219q0.036 0.17 0.054 0.25 0.455 2.125 0.723 2.938 0.509 1.527 1.357 2.455h-2.429q-0.429 0-0.732-0.304t-0.304-0.732v-11.643q0-0.429 0.304-0.732t0.732-0.304zM12.018 1.143h2.75q0.429 0 0.732 0.304t0.304 0.732v11.643q0 0.429-0.304 0.732t-0.732 0.304h-1.589q1.893-1.875 1.75-5.045l-4.188 0.902q-0.018 0.402-0.107 0.732t-0.277 0.643-0.531 0.531-0.835 0.326q-1.098 0.232-1.777-0.357-0.286-0.241-0.473-0.545t-0.46-1.152-0.576-2.304q-0.313-1.455-0.406-2.348t-0.049-1.241 0.205-0.688q0.179-0.366 0.558-0.652t0.915-0.402q0.402-0.107 0.746-0.058t0.598 0.152 0.482 0.313 0.384 0.429 0.308 0.504l4.179-0.893q-0.607-1.563-1.607-2.563z"></path>
</svg>
