<?xml version="1.0" encoding="utf-8"?>
<!-- Generated by IcoMoon.io -->
<!DOCTYPE svg PUBLIC "-//W3C//DTD SVG 1.1//EN" "http://www.w3.org/Graphics/SVG/1.1/DTD/svg11.dtd">
<svg version="1.1" xmlns="http://www.w3.org/2000/svg" xmlns:xlink="http://www.w3.org/1999/xlink" width="14" height="16" viewBox="0 0 14 16">
<path fill="#444444" d="M10.268 9.589v0.973q0 0.446-0.326 0.795t-0.839 0.54-1.054 0.29-1.049 0.098q-1.83 0-3.058-1.241t-1.228-3.089q0-1.813 1.214-3.027t3.027-1.214q0.304 0 0.674 0.040t0.83 0.161 0.826 0.304 0.616 0.504 0.25 0.723v0.973q0 0.143-0.143 0.143h-1.054q-0.143 0-0.143-0.143v-0.625q0-0.384-0.585-0.603t-1.228-0.219q-1.25 0-2.040 0.817t-0.79 2.121q0 1.348 0.817 2.228t2.085 0.879q0.607 0 1.232-0.214t0.625-0.589v-0.625q0-0.063 0.040-0.103t0.094-0.040h1.063q0.054 0 0.098 0.040t0.045 0.103zM6.857 2.286q-1.161 0-2.219 0.455t-1.821 1.219-1.219 1.821-0.455 2.219 0.455 2.219 1.219 1.821 1.821 1.219 2.219 0.455 2.219-0.455 1.821-1.219 1.219-1.821 0.455-2.219-0.455-2.219-1.219-1.821-1.821-1.219-2.219-0.455zM13.714 8q0 1.866-0.92 3.442t-2.496 2.496-3.442 0.92-3.442-0.92-2.496-2.496-0.92-3.442 0.92-3.442 2.496-2.496 3.442-0.92 3.442 0.92 2.496 2.496 0.92 3.442z"></path>
</svg>
