<?xml version="1.0" encoding="utf-8"?>
<!-- Generated by IcoMoon.io -->
<!DOCTYPE svg PUBLIC "-//W3C//DTD SVG 1.1//EN" "http://www.w3.org/Graphics/SVG/1.1/DTD/svg11.dtd">
<svg version="1.1" xmlns="http://www.w3.org/2000/svg" xmlns:xlink="http://www.w3.org/1999/xlink" width="16" height="16" viewBox="0 0 16 16">
<path fill="#444444" d="M5.402 11.009q1.366 0 2.295-0.929 0.125-0.161 0.027-0.321l-0.402-0.732q-0.054-0.116-0.214-0.152-0.143-0.018-0.241 0.098l-0.036 0.027q-0.036 0.036-0.103 0.089t-0.156 0.116-0.21 0.129-0.254 0.121-0.299 0.085-0.335 0.031q-0.679 0-1.116-0.446t-0.438-1.134q0-0.679 0.429-1.121t1.089-0.442q0.33 0 0.638 0.125t0.451 0.25l0.143 0.125q0.098 0.098 0.232 0.089 0.143-0.018 0.214-0.125l0.473-0.696q0.116-0.179-0.018-0.348-0.027-0.036-0.098-0.107t-0.268-0.21-0.433-0.25-0.603-0.201-0.768-0.089q-1.321 0-2.196 0.862t-0.875 2.147q0 1.304 0.866 2.156t2.205 0.853zM11.027 11.009q1.366 0 2.295-0.929 0.125-0.161 0.036-0.321l-0.402-0.732q-0.071-0.125-0.223-0.152-0.143-0.018-0.241 0.098l-0.036 0.027q-0.036 0.036-0.103 0.089t-0.156 0.116-0.21 0.129-0.254 0.121-0.299 0.085-0.335 0.031q-0.679 0-1.116-0.446t-0.438-1.134q0-0.679 0.429-1.121t1.089-0.442q0.33 0 0.638 0.125t0.451 0.25l0.143 0.125q0.098 0.098 0.232 0.089 0.143-0.018 0.214-0.125l0.473-0.696q0.116-0.179-0.018-0.348-0.027-0.036-0.098-0.107t-0.268-0.21-0.433-0.25-0.603-0.201-0.768-0.089q-1.313 0-2.192 0.862t-0.879 2.147q0 1.304 0.866 2.156t2.205 0.853zM8 1.429q-1.339 0-2.554 0.522t-2.094 1.402-1.402 2.094-0.522 2.554 0.522 2.554 1.402 2.094 2.094 1.402 2.554 0.522 2.554-0.522 2.094-1.402 1.402-2.094 0.522-2.554-0.522-2.554-1.402-2.094-2.094-1.402-2.554-0.522zM8 0q1.625 0 3.107 0.634t2.554 1.705 1.705 2.554 0.634 3.107-0.634 3.107-1.705 2.554-2.554 1.705-3.107 0.634-3.107-0.634-2.554-1.705-1.705-2.554-0.634-3.107 0.634-3.107 1.705-2.554 2.554-1.705 3.107-0.634z"></path>
</svg>
