<?xml version="1.0" encoding="utf-8"?>
<!-- Generated by IcoMoon.io -->
<!DOCTYPE svg PUBLIC "-//W3C//DTD SVG 1.1//EN" "http://www.w3.org/Graphics/SVG/1.1/DTD/svg11.dtd">
<svg version="1.1" xmlns="http://www.w3.org/2000/svg" xmlns:xlink="http://www.w3.org/1999/xlink" width="17" height="16" viewBox="0 0 17 16">
<path fill="#444444" d="M15.714 1.143q0.589 0 1.009 0.42t0.42 1.009v10.857q0 0.589-0.42 1.009t-1.009 0.42h-14.286q-0.589 0-1.009-0.42t-0.42-1.009v-10.857q0-0.589 0.42-1.009t1.009-0.42h14.286zM1.429 2.286q-0.116 0-0.201 0.085t-0.085 0.201v2h14.857v-2q0-0.116-0.085-0.201t-0.201-0.085h-14.286zM15.714 13.714q0.116 0 0.201-0.085t0.085-0.201v-5.429h-14.857v5.429q0 0.116 0.085 0.201t0.201 0.085h14.286zM2.286 12.571v-1.143h2.286v1.143h-2.286zM5.714 12.571v-1.143h3.429v1.143h-3.429z"></path>
</svg>
