<?xml version="1.0" encoding="utf-8"?>
<!-- Generated by IcoMoon.io -->
<!DOCTYPE svg PUBLIC "-//W3C//DTD SVG 1.1//EN" "http://www.w3.org/Graphics/SVG/1.1/DTD/svg11.dtd">
<svg version="1.1" xmlns="http://www.w3.org/2000/svg" xmlns:xlink="http://www.w3.org/1999/xlink" width="15" height="16" viewBox="0 0 15 16">
<path fill="#444444" d="M4.973 11.429h5.313v-5.313zM4.571 11.027l5.313-5.313h-5.313v5.313zM14.857 11.714v1.714q0 0.125-0.080 0.205t-0.205 0.080h-2v2q0 0.125-0.080 0.205t-0.205 0.080h-1.714q-0.125 0-0.205-0.080t-0.080-0.205v-2h-7.714q-0.125 0-0.205-0.080t-0.080-0.205v-7.714h-2q-0.125 0-0.205-0.080t-0.080-0.205v-1.714q0-0.125 0.080-0.205t0.205-0.080h2v-2q0-0.125 0.080-0.205t0.205-0.080h1.714q0.125 0 0.205 0.080t0.080 0.205v2h7.598l2.196-2.205q0.089-0.080 0.205-0.080t0.205 0.080q0.080 0.089 0.080 0.205t-0.080 0.205l-2.205 2.196v7.598h2q0.125 0 0.205 0.080t0.080 0.205z"></path>
</svg>
