<?xml version="1.0" encoding="utf-8"?>
<!-- Generated by IcoMoon.io -->
<!DOCTYPE svg PUBLIC "-//W3C//DTD SVG 1.1//EN" "http://www.w3.org/Graphics/SVG/1.1/DTD/svg11.dtd">
<svg version="1.1" xmlns="http://www.w3.org/2000/svg" xmlns:xlink="http://www.w3.org/1999/xlink" width="14" height="16" viewBox="0 0 14 16">
<path fill="#444444" d="M10.688 9.143h-0.973q-0.232 0-0.402-0.17t-0.17-0.402v-1.143q0-0.232 0.17-0.402t0.402-0.17h0.973q-0.286-0.964-1.004-1.683t-1.683-1.004v0.973q0 0.232-0.17 0.402t-0.402 0.17h-1.143q-0.232 0-0.402-0.17t-0.17-0.402v-0.973q-0.964 0.286-1.683 1.004t-1.004 1.683h0.973q0.232 0 0.402 0.17t0.17 0.402v1.143q0 0.232-0.17 0.402t-0.402 0.17h-0.973q0.286 0.964 1.004 1.683t1.683 1.004v-0.973q0-0.232 0.17-0.402t0.402-0.17h1.143q0.232 0 0.402 0.17t0.17 0.402v0.973q0.964-0.286 1.683-1.004t1.004-1.683zM13.714 7.429v1.143q0 0.232-0.17 0.402t-0.402 0.17h-1.277q-0.33 1.438-1.379 2.487t-2.487 1.379v1.277q0 0.232-0.17 0.402t-0.402 0.17h-1.143q-0.232 0-0.402-0.17t-0.17-0.402v-1.277q-1.438-0.33-2.487-1.379t-1.379-2.487h-1.277q-0.232 0-0.402-0.17t-0.17-0.402v-1.143q0-0.232 0.17-0.402t0.402-0.17h1.277q0.33-1.438 1.379-2.487t2.487-1.379v-1.277q0-0.232 0.17-0.402t0.402-0.17h1.143q0.232 0 0.402 0.17t0.17 0.402v1.277q1.438 0.33 2.487 1.379t1.379 2.487h1.277q0.232 0 0.402 0.17t0.17 0.402z"></path>
</svg>
