<?xml version="1.0" encoding="utf-8"?>
<!-- Generated by IcoMoon.io -->
<!DOCTYPE svg PUBLIC "-//W3C//DTD SVG 1.1//EN" "http://www.w3.org/Graphics/SVG/1.1/DTD/svg11.dtd">
<svg version="1.1" xmlns="http://www.w3.org/2000/svg" xmlns:xlink="http://www.w3.org/1999/xlink" width="15" height="16" viewBox="0 0 15 16">
<path fill="#444444" d="M8 14.545l5.714-3.116v-5.679l-5.714 2.080v6.714zM7.429 6.821l6.232-2.268-6.232-2.268-6.232 2.268zM14.857 4.571v6.857q0 0.313-0.161 0.58t-0.438 0.42l-6.286 3.429q-0.25 0.143-0.545 0.143t-0.545-0.143l-6.286-3.429q-0.277-0.152-0.438-0.42t-0.161-0.58v-6.857q0-0.357 0.205-0.652t0.545-0.42l6.286-2.286q0.196-0.071 0.393-0.071t0.393 0.071l6.286 2.286q0.339 0.125 0.545 0.42t0.205 0.652z"></path>
</svg>
