<?xml version="1.0" encoding="utf-8"?>
<!-- Generated by IcoMoon.io -->
<!DOCTYPE svg PUBLIC "-//W3C//DTD SVG 1.1//EN" "http://www.w3.org/Graphics/SVG/1.1/DTD/svg11.dtd">
<svg version="1.1" xmlns="http://www.w3.org/2000/svg" xmlns:xlink="http://www.w3.org/1999/xlink" width="19" height="16" viewBox="0 0 19 16">
<path fill="#444444" d="M5.714 14.571l3.429-1.714v-2.804l-3.429 1.464v3.054zM5.143 10.518l3.607-1.545-3.607-1.545-3.607 1.545zM14.857 14.571l3.429-1.714v-2.804l-3.429 1.464v3.054zM14.286 10.518l3.607-1.545-3.607-1.545-3.607 1.545zM10.286 7.902l3.429-1.473v-2.375l-3.429 1.464v2.384zM9.714 4.518l3.938-1.688-3.938-1.688-3.938 1.688zM19.429 9.143v3.714q0 0.321-0.17 0.598t-0.464 0.42l-4 2q-0.223 0.125-0.509 0.125t-0.509-0.125l-4-2q-0.045-0.018-0.063-0.036-0.018 0.018-0.063 0.036l-4 2q-0.223 0.125-0.509 0.125t-0.509-0.125l-4-2q-0.295-0.143-0.464-0.42t-0.17-0.598v-3.714q0-0.339 0.192-0.625t0.504-0.429l3.875-1.661v-3.571q0-0.339 0.192-0.625t0.504-0.429l4-1.714q0.205-0.089 0.446-0.089t0.446 0.089l4 1.714q0.313 0.143 0.504 0.429t0.192 0.625v3.571l3.875 1.661q0.321 0.143 0.509 0.429t0.188 0.625z"></path>
</svg>
