<?xml version="1.0" encoding="utf-8"?>
<!-- Generated by IcoMoon.io -->
<!DOCTYPE svg PUBLIC "-//W3C//DTD SVG 1.1//EN" "http://www.w3.org/Graphics/SVG/1.1/DTD/svg11.dtd">
<svg version="1.1" xmlns="http://www.w3.org/2000/svg" xmlns:xlink="http://www.w3.org/1999/xlink" width="16" height="16" viewBox="0 0 16 16">
<path fill="#444444" d="M14.056 2.511l-0.607-1.827c-0.136-0.408-0.518-0.683-0.948-0.683h-9c-0.431 0-0.813 0.275-0.949 0.683l-0.613 1.829c-0.522 0.034-0.939 0.458-0.939 0.988v1.5c0 0.552 0.448 1 1 1h0.517c0 0.037-0.015 0.073-0.010 0.111l1 9c0.056 0.505 0.483 0.889 0.994 0.889h7c0.51 0 0.938-0.384 0.993-0.889l1-9c0.005-0.037-0.011-0.073-0.011-0.111h0.518c0.552 0 1-0.448 1-1v-1.5c0-0.532-0.42-0.958-0.944-0.989zM3.5 1h9l0.5 1.5h-10l0.5-1.5zM4.5 15l-0.167-1.5h7.333l-0.166 1.5h-7zM11.722 13h-7.444l-0.555-5h8.556l-0.556 5zM12.333 7.5h-8.666l-0.167-1.5h9l-0.167 1.5zM14 5h-12v-1.5h12v1.5z"></path>
</svg>
