<?xml version="1.0" encoding="utf-8"?>
<!-- Generated by IcoMoon.io -->
<!DOCTYPE svg PUBLIC "-//W3C//DTD SVG 1.1//EN" "http://www.w3.org/Graphics/SVG/1.1/DTD/svg11.dtd">
<svg version="1.1" xmlns="http://www.w3.org/2000/svg" xmlns:xlink="http://www.w3.org/1999/xlink" width="16" height="16" viewBox="0 0 16 16">
<path fill="#444444" d="M8.571 8q0.232 0 0.402 0.17t0.17 0.402-0.17 0.402-0.402 0.17-0.402-0.17-0.17-0.402 0.17-0.402 0.402-0.17zM11.25 8.571l4.527 3.554q0.25 0.179 0.223 0.5-0.045 0.313-0.313 0.455l-1.143 0.571q-0.116 0.063-0.259 0.063-0.152 0-0.277-0.071l-6.161-3.455-0.982 0.589q-0.071 0.036-0.107 0.045 0.125 0.438 0.089 0.866-0.063 0.688-0.5 1.317t-1.179 1.103q-1.179 0.75-2.473 0.75-1.214 0-1.982-0.696-0.804-0.75-0.705-1.848 0.063-0.679 0.5-1.313t1.17-1.107q1.179-0.75 2.482-0.75 0.741 0 1.348 0.277 0.080-0.116 0.196-0.196l1.089-0.652-1.089-0.652q-0.116-0.080-0.196-0.196-0.607 0.277-1.348 0.277-1.304 0-2.482-0.75-0.732-0.473-1.17-1.107t-0.5-1.313q-0.045-0.527 0.138-1.009t0.567-0.83q0.759-0.705 1.982-0.705 1.295 0 2.473 0.75 0.741 0.464 1.179 1.098t0.5 1.321q0.036 0.429-0.089 0.866 0.036 0.009 0.107 0.045l0.982 0.589 6.161-3.455q0.125-0.071 0.277-0.071 0.143 0 0.259 0.063l1.143 0.571q0.268 0.143 0.313 0.455 0.027 0.321-0.223 0.5zM5.17 6.25q0.411-0.375 0.188-0.964t-0.946-1.045q-0.821-0.527-1.714-0.527-0.661 0-1.009 0.321-0.411 0.375-0.188 0.964t0.946 1.045q0.821 0.527 1.714 0.527 0.661 0 1.009-0.321zM4.411 12.902q0.723-0.455 0.946-1.045t-0.188-0.964q-0.348-0.321-1.009-0.321-0.893 0-1.714 0.527-0.723 0.455-0.946 1.045t0.188 0.964q0.348 0.321 1.009 0.321 0.893 0 1.714-0.527zM6 7.429l0.857 0.518v-0.098q0-0.321 0.295-0.5l0.125-0.071-0.705-0.42-0.232 0.232q-0.027 0.027-0.089 0.098t-0.107 0.107q-0.018 0.018-0.036 0.031t-0.027 0.022zM8 9.429l0.857 0.286 6.571-5.143-1.143-0.571-6.857 3.848v1.009l-1.429 0.857 0.080 0.071q0.018 0.018 0.063 0.054 0.036 0.036 0.098 0.107t0.098 0.107l0.232 0.232zM14.286 13.143l1.143-0.571-4.643-3.643-1.58 1.232q-0.018 0.027-0.116 0.063z"></path>
</svg>
