<?xml version="1.0" encoding="utf-8"?>
<!-- Generated by IcoMoon.io -->
<!DOCTYPE svg PUBLIC "-//W3C//DTD SVG 1.1//EN" "http://www.w3.org/Graphics/SVG/1.1/DTD/svg11.dtd">
<svg version="1.1" xmlns="http://www.w3.org/2000/svg" xmlns:xlink="http://www.w3.org/1999/xlink" width="13" height="16" viewBox="0 0 13 16">
<path fill="#444444" d="M5.714 0.571v5.714q0 0.545-0.317 0.991t-0.826 0.625v6.955q0 0.464-0.339 0.804t-0.804 0.339h-1.143q-0.464 0-0.804-0.339t-0.339-0.804v-6.955q-0.509-0.179-0.826-0.625t-0.317-0.991v-5.714q0-0.232 0.17-0.402t0.402-0.17 0.402 0.17 0.17 0.402v3.714q0 0.232 0.17 0.402t0.402 0.17 0.402-0.17 0.17-0.402v-3.714q0-0.232 0.17-0.402t0.402-0.17 0.402 0.17 0.17 0.402v3.714q0 0.232 0.17 0.402t0.402 0.17 0.402-0.17 0.17-0.402v-3.714q0-0.232 0.17-0.402t0.402-0.17 0.402 0.17 0.17 0.402zM12.571 0.571v14.286q0 0.464-0.339 0.804t-0.804 0.339h-1.143q-0.464 0-0.804-0.339t-0.339-0.804v-4.571h-2q-0.116 0-0.201-0.085t-0.085-0.201v-7.143q0-1.179 0.839-2.018t2.018-0.839h2.286q0.232 0 0.402 0.17t0.17 0.402z"></path>
</svg>
