<?xml version="1.0" encoding="utf-8"?>
<!-- Generated by IcoMoon.io -->
<!DOCTYPE svg PUBLIC "-//W3C//DTD SVG 1.1//EN" "http://www.w3.org/Graphics/SVG/1.1/DTD/svg11.dtd">
<svg version="1.1" xmlns="http://www.w3.org/2000/svg" xmlns:xlink="http://www.w3.org/1999/xlink" width="17" height="16" viewBox="0 0 17 16">
<path fill="#444444" d="M16 8.857v-7.429q0-0.116-0.085-0.201t-0.201-0.085h-14.286q-0.116 0-0.201 0.085t-0.085 0.201v7.429q0 0.116 0.085 0.201t0.201 0.085h14.286q0.116 0 0.201-0.085t0.085-0.201zM17.143 1.429v9.714q0 0.589-0.42 1.009t-1.009 0.42h-4.857q0 0.33 0.143 0.692t0.286 0.634 0.143 0.388q0 0.232-0.17 0.402t-0.402 0.17h-4.571q-0.232 0-0.402-0.17t-0.17-0.402q0-0.125 0.143-0.393t0.286-0.625 0.143-0.696h-4.857q-0.589 0-1.009-0.42t-0.42-1.009v-9.714q0-0.589 0.42-1.009t1.009-0.42h14.286q0.589 0 1.009 0.42t0.42 1.009z"></path>
</svg>
