<?xml version="1.0" encoding="utf-8"?>
<!-- Generated by IcoMoon.io -->
<!DOCTYPE svg PUBLIC "-//W3C//DTD SVG 1.1//EN" "http://www.w3.org/Graphics/SVG/1.1/DTD/svg11.dtd">
<svg version="1.1" xmlns="http://www.w3.org/2000/svg" xmlns:xlink="http://www.w3.org/1999/xlink" width="16" height="16" viewBox="0 0 16 16">
<path fill="#444444" d="M15.707 4.838l-2.54-2.541c-0.188-0.188-0.443-0.293-0.707-0.293h-8.919c-0.265 0-0.519 0.106-0.707 0.293l-2.54 2.541c-0.197 0.196-0.294 0.455-0.293 0.713 0.002 0.235 0.086 0.47 0.253 0.658l7 7.454c0.19 0.214 0.462 0.336 0.747 0.336s0.557-0.122 0.747-0.336l7-7.454c0.171-0.192 0.255-0.433 0.253-0.674-0.002-0.253-0.101-0.505-0.293-0.697zM9.11 5.505h-2.22l1.11-0.925 1.11 0.925zM8.391 4.255l1.366-1.139 1.009 1.009-1.266 1.054-1.109-0.925zM6.5 5.179l-1.266-1.054 1.009-1.009 1.367 1.139-1.109 0.925zM9.245 6.005l-1.245 6.227-1.245-6.226h2.49zM9.755 6.005h2.453l-3.679 6.135 1.226-6.135zM9.889 5.505l1.232-1.026 1.025 1.026h-2.257zM10.354 3.005h1.756l-0.958 0.798-0.798-0.798zM8 3.93l-1.11-0.925h2.219l-1.109 0.925zM4.848 3.804l-0.958-0.799h1.756l-0.798 0.798zM4.879 4.479l1.231 1.026h-2.256l1.026-1.026zM6.245 6.005l1.226 6.135-3.68-6.135h2.453zM6.352 11.244l-4.92-5.239h1.777l3.143 5.239zM12.791 6.005h1.777l-4.921 5.24 3.143-5.24zM12.854 5.505l-1.347-1.346 1.149-0.958 2.303 2.304h-2.105zM3.343 3.2l1.151 0.958-1.347 1.346h-2.143l2.34-2.305z"></path>
</svg>
