<?xml version="1.0" encoding="utf-8"?>
<!-- Generated by IcoMoon.io -->
<!DOCTYPE svg PUBLIC "-//W3C//DTD SVG 1.1//EN" "http://www.w3.org/Graphics/SVG/1.1/DTD/svg11.dtd">
<svg version="1.1" xmlns="http://www.w3.org/2000/svg" xmlns:xlink="http://www.w3.org/1999/xlink" width="18" height="16" viewBox="0 0 18 16">
<path fill="#444444" d="M1.893 6.857l5.563 5.937-2.679-5.938h-2.884zM9.143 13.75l3.116-6.893h-6.232zM4.804 5.714l1.821-3.429h-2.339l-2.571 3.429h3.089zM10.83 12.795l5.563-5.938h-2.884zM6.098 5.714h6.089l-1.821-3.429h-2.446zM13.482 5.714h3.089l-2.571-3.429h-2.339zM14.741 1.375l3.429 4.571q0.125 0.161 0.116 0.371t-0.152 0.362l-8.571 9.143q-0.161 0.179-0.42 0.179t-0.42-0.179l-8.571-9.143q-0.143-0.152-0.152-0.362t0.116-0.371l3.429-4.571q0.161-0.232 0.455-0.232h10.286q0.295 0 0.455 0.232z"></path>
</svg>
