<?xml version="1.0" encoding="utf-8"?>
<!-- Generated by IcoMoon.io -->
<!DOCTYPE svg PUBLIC "-//W3C//DTD SVG 1.1//EN" "http://www.w3.org/Graphics/SVG/1.1/DTD/svg11.dtd">
<svg version="1.1" xmlns="http://www.w3.org/2000/svg" xmlns:xlink="http://www.w3.org/1999/xlink" width="18" height="16" viewBox="0 0 18 16">
<path fill="#444444" d="M2.929 2.518h1.821v8.777h-4.75v-6.223h2.929v-2.554zM2.929 9.83v-3.295h-1.098v3.295h1.098zM5.482 5.071v6.223h1.83v-6.223h-1.83zM5.482 2.518v1.821h1.83v-1.821h-1.83zM8.045 5.071h4.759v8.411h-4.759v-1.455h2.929v-0.732h-2.929v-6.223zM10.973 9.83v-3.295h-1.098v3.295h1.098zM13.536 5.071h4.75v8.411h-4.75v-1.455h2.92v-0.732h-2.92v-6.223zM16.455 9.83v-3.295h-1.098v3.295h1.098z"></path>
</svg>
