<?xml version="1.0" encoding="utf-8"?>
<!-- Generated by IcoMoon.io -->
<!DOCTYPE svg PUBLIC "-//W3C//DTD SVG 1.1//EN" "http://www.w3.org/Graphics/SVG/1.1/DTD/svg11.dtd">
<svg version="1.1" xmlns="http://www.w3.org/2000/svg" xmlns:xlink="http://www.w3.org/1999/xlink" width="16" height="16" viewBox="0 0 16 16">
<path fill="#444444" d="M13.5 2.498l-11 0.002c-0.276 0-0.5 0.221-0.5 0.498v7c0 0.277 0.224 0.5 0.5 0.5h11c0.277 0 0.5-0.223 0.5-0.5v-7c0-0.276-0.223-0.5-0.5-0.5zM13.5 10h-11v-7.002h11v7.002zM14.5 0.5h-13c-0.829 0-1.5 0.671-1.5 1.5v10c0 0.827 0.669 1.497 1.495 1.499h5.005v0.608l-3.121 0.405c-0.223 0.056-0.379 0.255-0.379 0.485 0 0.277 0.224 0.5 0.5 0.5h9c0.277 0 0.5-0.223 0.5-0.5 0-0.229-0.156-0.429-0.379-0.486l-3.121-0.405v-0.608h5.005c0.826-0.002 1.495-0.672 1.495-1.499v-10c0-0.829-0.672-1.5-1.5-1.5zM15 12c0 0.275-0.225 0.5-0.5 0.5h-13c-0.276 0-0.5-0.225-0.5-0.5v-10c0-0.276 0.224-0.5 0.5-0.5h13c0.275 0 0.5 0.224 0.5 0.5v10z"></path>
</svg>
