<?xml version="1.0" encoding="utf-8"?>
<!-- Generated by IcoMoon.io -->
<!DOCTYPE svg PUBLIC "-//W3C//DTD SVG 1.1//EN" "http://www.w3.org/Graphics/SVG/1.1/DTD/svg11.dtd">
<svg version="1.1" xmlns="http://www.w3.org/2000/svg" xmlns:xlink="http://www.w3.org/1999/xlink" width="9" height="16" viewBox="0 0 9 16">
<path fill="#444444" d="M8.732 10.58q0 1.366-0.888 2.353t-2.308 1.219v1.563q0 0.125-0.080 0.205t-0.205 0.080h-1.205q-0.116 0-0.201-0.085t-0.085-0.201v-1.563q-0.589-0.080-1.138-0.277t-0.906-0.397-0.661-0.429-0.415-0.335-0.156-0.161q-0.152-0.188-0.018-0.366l0.92-1.205q0.063-0.089 0.205-0.107 0.134-0.018 0.214 0.080l0.018 0.018q1.009 0.884 2.17 1.116 0.33 0.071 0.661 0.071 0.723 0 1.272-0.384t0.549-1.089q0-0.25-0.134-0.473t-0.299-0.375-0.522-0.335-0.589-0.286-0.714-0.29q-0.348-0.143-0.549-0.223t-0.549-0.237-0.558-0.277-0.504-0.317-0.478-0.379-0.388-0.438-0.317-0.518-0.188-0.594-0.076-0.696q0-1.232 0.875-2.161t2.277-1.196v-1.607q0-0.116 0.085-0.201t0.201-0.085h1.205q0.125 0 0.205 0.080t0.080 0.205v1.571q0.509 0.054 0.987 0.205t0.777 0.299 0.567 0.335 0.348 0.259 0.134 0.125q0.152 0.161 0.045 0.339l-0.723 1.304q-0.071 0.134-0.205 0.143-0.125 0.027-0.241-0.063-0.027-0.027-0.129-0.107t-0.348-0.237-0.522-0.286-0.665-0.232-0.763-0.103q-0.848 0-1.384 0.384t-0.536 0.991q0 0.232 0.076 0.429t0.263 0.371 0.353 0.295 0.5 0.277 0.54 0.241 0.625 0.246q0.473 0.179 0.723 0.281t0.679 0.313 0.674 0.379 0.554 0.446 0.473 0.567 0.281 0.683 0.116 0.839z"></path>
</svg>
