<?xml version="1.0" encoding="utf-8"?>
<!-- Generated by IcoMoon.io -->
<!DOCTYPE svg PUBLIC "-//W3C//DTD SVG 1.1//EN" "http://www.w3.org/Graphics/SVG/1.1/DTD/svg11.dtd">
<svg version="1.1" xmlns="http://www.w3.org/2000/svg" xmlns:xlink="http://www.w3.org/1999/xlink" width="16" height="16" viewBox="0 0 16 16">
<path fill="#444444" d="M3.589 6.313l4.411 2.723-3.054 2.545-4.375-2.848zM12.393 11.268v0.964l-4.375 2.616v0.009l-0.009-0.009-0.009 0.009v-0.009l-4.366-2.616v-0.964l1.313 0.857 3.054-2.536v-0.018l0.009 0.009 0.009-0.009v0.018l3.063 2.536zM4.946 1.054l3.054 2.545-4.411 2.714-3.018-2.411zM12.411 6.313l3.018 2.42-4.366 2.848-3.063-2.545zM11.063 1.054l4.366 2.848-3.018 2.411-4.411-2.714z"></path>
</svg>
