<?xml version="1.0" encoding="utf-8"?>
<!-- Generated by IcoMoon.io -->
<!DOCTYPE svg PUBLIC "-//W3C//DTD SVG 1.1//EN" "http://www.w3.org/Graphics/SVG/1.1/DTD/svg11.dtd">
<svg version="1.1" xmlns="http://www.w3.org/2000/svg" xmlns:xlink="http://www.w3.org/1999/xlink" width="14" height="16" viewBox="0 0 14 16">
<path fill="#444444" d="M10.42 14.161q-0.045-0.17-0.214-0.045-0.268 0.196-0.777 0.348t-1.17 0.152q-1.152 0-1.723-0.438-0.045-0.036-0.116-0.036-0.098 0-0.232 0.107-0.063 0.054-0.067 0.143t0.067 0.179q0.304 0.286 0.781 0.411t0.915 0.112 0.884-0.040q0.366-0.036 0.754-0.183t0.58-0.268 0.254-0.183q0.107-0.107 0.063-0.259zM10.071 13.134q-0.17-0.42-0.348-0.545-0.205-0.134-0.679-0.134-0.42 0-0.634 0.089-0.259 0.107-0.696 0.5-0.232 0.214-0.107 0.393 0.080 0.071 0.156 0.040t0.281-0.21q0.027-0.018 0.094-0.076t0.094-0.076 0.089-0.063 0.103-0.063 0.112-0.045 0.134-0.040 0.147-0.022 0.183-0.009q0.241 0 0.397 0.067t0.205 0.129 0.121 0.196q0.089 0.152 0.112 0.179t0.112-0.009q0.205-0.107 0.125-0.304zM13.241 10.625q0-0.196-0.045-0.397t-0.147-0.402-0.304-0.326-0.469-0.125q-0.295 0-0.866 0.371t-1.152 0.746-0.902 0.375q-0.241 0.009-0.567-0.17t-0.679-0.438-0.746-0.518-0.893-0.438-0.991-0.17q-1.027 0.009-1.759 0.701t-0.75 1.594q-0.018 1 0.661 1.464 0.259 0.179 0.558 0.254t0.924 0.076q0.509 0 1.179-0.29t1.196-0.634 1.071-0.629 0.83-0.277q0.232 0.009 0.58 0.281t0.638 0.598 0.607 0.603 0.496 0.286q0.313 0.027 0.522-0.125t0.496-0.563q0.25-0.366 0.379-0.902t0.129-0.946zM13.714 9.196q0 1.464-0.554 2.719t-1.482 2.107-2.165 1.335-2.594 0.482-2.616-0.513-2.21-1.402-1.522-2.156-0.571-2.696q0-0.795 0.174-1.54t0.438-1.299 0.629-1.058 0.701-0.839 0.701-0.621 0.576-0.415 0.379-0.219q0.125-0.071 0.455-0.237t0.487-0.254 0.429-0.268 0.54-0.393q0.321-0.25 0.518-0.647t0.268-1.121q1.152 1.384 1.661 1.723 0.393 0.259 1.161 0.607t1.152 0.589q0.188 0.116 0.348 0.223t0.54 0.415 0.679 0.629 0.67 0.848 0.616 1.089 0.42 1.326 0.174 1.585z"></path>
</svg>
