<?xml version="1.0" encoding="utf-8"?>
<!-- Generated by IcoMoon.io -->
<!DOCTYPE svg PUBLIC "-//W3C//DTD SVG 1.1//EN" "http://www.w3.org/Graphics/SVG/1.1/DTD/svg11.dtd">
<svg version="1.1" xmlns="http://www.w3.org/2000/svg" xmlns:xlink="http://www.w3.org/1999/xlink" width="16" height="16" viewBox="0 0 16 16">
<path fill="#444444" d="M0.616 7.098h0.009q0.143-1.125 0.522-2.156t1.027-1.938 1.496-1.571 1.996-1.049 2.469-0.384q2.063 0 3.696 0.942t2.625 2.71q0.929 1.67 0.929 3.946v1.679h-10.045q0.009 0.991 0.478 1.719t1.219 1.094 1.692 0.509 1.902 0.027 1.857-0.415 1.549-0.754v3.366q-0.821 0.491-2.049 0.821t-2.79 0.339-2.821-0.473q-1.688-0.652-2.781-2.223t-1.112-3.321q-0.027-2.161 0.991-3.679t2.902-2.393q-0.429 0.536-0.696 1.121t-0.411 1.424h5.67q0.071-0.688-0.071-1.25t-0.42-0.906-0.629-0.594-0.719-0.366-0.67-0.183-0.5-0.076l-0.196-0.009q-1.205 0.045-2.317 0.397t-1.996 0.933-1.571 1.254-1.232 1.46z"></path>
</svg>
