<?xml version="1.0" encoding="utf-8"?>
<!-- Generated by IcoMoon.io -->
<!DOCTYPE svg PUBLIC "-//W3C//DTD SVG 1.1//EN" "http://www.w3.org/Graphics/SVG/1.1/DTD/svg11.dtd">
<svg version="1.1" xmlns="http://www.w3.org/2000/svg" xmlns:xlink="http://www.w3.org/1999/xlink" width="16" height="16" viewBox="0 0 16 16">
<path fill="#444444" d="M7.929 10.571l1.036-1.036-1.357-1.357-1.036 1.036v0.5h0.857v0.857h0.5zM11.857 4.143q-0.143-0.143-0.295 0.009l-3.125 3.125q-0.152 0.152-0.009 0.295t0.295-0.009l3.125-3.125q0.152-0.152 0.009-0.295zM12.571 9.446v1.696q0 1.063-0.754 1.817t-1.817 0.754h-7.429q-1.063 0-1.817-0.754t-0.754-1.817v-7.429q0-1.063 0.754-1.817t1.817-0.754h7.429q0.563 0 1.045 0.223 0.134 0.063 0.161 0.205 0.027 0.152-0.080 0.259l-0.438 0.438q-0.125 0.125-0.286 0.071-0.205-0.054-0.402-0.054h-7.429q-0.589 0-1.009 0.42t-0.42 1.009v7.429q0 0.589 0.42 1.009t1.009 0.42h7.429q0.589 0 1.009-0.42t0.42-1.009v-1.125q0-0.116 0.080-0.196l0.571-0.571q0.134-0.134 0.313-0.063t0.179 0.259zM11.714 2.857l2.571 2.571-6 6h-2.571v-2.571zM15.679 4.036l-0.821 0.821-2.571-2.571 0.821-0.821q0.25-0.25 0.607-0.25t0.607 0.25l1.357 1.357q0.25 0.25 0.25 0.607t-0.25 0.607z"></path>
</svg>
