<?xml version="1.0" encoding="utf-8"?>
<!-- Generated by IcoMoon.io -->
<!DOCTYPE svg PUBLIC "-//W3C//DTD SVG 1.1//EN" "http://www.w3.org/Graphics/SVG/1.1/DTD/svg11.dtd">
<svg version="1.1" xmlns="http://www.w3.org/2000/svg" xmlns:xlink="http://www.w3.org/1999/xlink" width="3" height="16" viewBox="0 0 3 16">
<path fill="#444444" d="M3.429 11.143v1.714q0 0.357-0.25 0.607t-0.607 0.25h-1.714q-0.357 0-0.607-0.25t-0.25-0.607v-1.714q0-0.357 0.25-0.607t0.607-0.25h1.714q0.357 0 0.607 0.25t0.25 0.607zM3.429 6.571v1.714q0 0.357-0.25 0.607t-0.607 0.25h-1.714q-0.357 0-0.607-0.25t-0.25-0.607v-1.714q0-0.357 0.25-0.607t0.607-0.25h1.714q0.357 0 0.607 0.25t0.25 0.607zM3.429 2v1.714q0 0.357-0.25 0.607t-0.607 0.25h-1.714q-0.357 0-0.607-0.25t-0.25-0.607v-1.714q0-0.357 0.25-0.607t0.607-0.25h1.714q0.357 0 0.607 0.25t0.25 0.607z"></path>
</svg>
