<?xml version="1.0" encoding="utf-8"?>
<!-- Generated by IcoMoon.io -->
<!DOCTYPE svg PUBLIC "-//W3C//DTD SVG 1.1//EN" "http://www.w3.org/Graphics/SVG/1.1/DTD/svg11.dtd">
<svg version="1.1" xmlns="http://www.w3.org/2000/svg" xmlns:xlink="http://www.w3.org/1999/xlink" width="16" height="16" viewBox="0 0 16 16">
<path fill="#444444" d="M7.804 14.625v0.589q-1.857-0.054-3.438-0.978t-2.527-2.46l0.518-0.304q0.259 0.438 0.652 0.884l0.58-0.509q1.321 1.5 3.286 1.893l-0.152 0.768q0.58 0.107 1.080 0.116zM2.464 9.893l-0.741 0.25q0.196 0.536 0.438 1l-0.509 0.295q-0.875-1.607-0.875-3.438t0.875-3.438l0.509 0.295q-0.268 0.5-0.438 1l0.732 0.25q-0.313 0.893-0.313 1.893 0 0.973 0.321 1.893zM13.643 11.473l0.518 0.304q-0.946 1.536-2.527 2.46t-3.438 0.978v-0.589q0.5-0.009 1.080-0.116l-0.152-0.768q1.964-0.393 3.286-1.893l0.58 0.509q0.393-0.446 0.652-0.884zM12.295 6.527l-2.080 0.714q0.125 0.375 0.125 0.759t-0.125 0.759l2.071 0.714q-0.277 0.821-0.875 1.509l-1.652-1.446q-0.509 0.598-1.313 0.759l0.429 2.152q-0.464 0.089-0.875 0.089t-0.875-0.089l0.429-2.152q-0.804-0.161-1.313-0.759l-1.652 1.446q-0.598-0.688-0.875-1.509l2.071-0.714q-0.125-0.375-0.125-0.759t0.125-0.759l-2.080-0.714q0.295-0.83 0.884-1.509l1.652 1.446q0.527-0.607 1.313-0.768l-0.429-2.143q0.393-0.089 0.875-0.089t0.875 0.089l-0.429 2.143q0.786 0.161 1.313 0.768l1.652-1.446q0.589 0.679 0.884 1.509zM7.804 0.786v0.589q-0.58 0.018-1.080 0.116l0.152 0.768q-1.964 0.375-3.286 1.884l-0.58-0.5q-0.339 0.375-0.652 0.875l-0.509-0.295q0.946-1.536 2.518-2.46t3.438-0.978zM15.223 8q0 1.83-0.875 3.438l-0.509-0.295q0.241-0.464 0.438-1l-0.741-0.25q0.321-0.92 0.321-1.893 0-1-0.313-1.893l0.732-0.25q-0.17-0.5-0.438-1l0.509-0.295q0.875 1.607 0.875 3.438zM14.152 4.223l-0.509 0.295q-0.313-0.5-0.652-0.875l-0.58 0.5q-1.321-1.509-3.286-1.884l0.152-0.768q-0.5-0.098-1.080-0.116v-0.589q1.866 0.054 3.438 0.978t2.518 2.46zM15.607 8q0-1.545-0.603-2.955t-1.621-2.429-2.429-1.621-2.955-0.603-2.955 0.603-2.429 1.621-1.621 2.429-0.603 2.955 0.603 2.955 1.621 2.429 2.429 1.621 2.955 0.603 2.955-0.603 2.429-1.621 1.621-2.429 0.603-2.955zM16 8q0 1.625-0.634 3.107t-1.705 2.554-2.554 1.705-3.107 0.634-3.107-0.634-2.554-1.705-1.705-2.554-0.634-3.107 0.634-3.107 1.705-2.554 2.554-1.705 3.107-0.634 3.107 0.634 2.554 1.705 1.705 2.554 0.634 3.107z"></path>
</svg>
