<?xml version="1.0" encoding="utf-8"?>
<!-- Generated by IcoMoon.io -->
<!DOCTYPE svg PUBLIC "-//W3C//DTD SVG 1.1//EN" "http://www.w3.org/Graphics/SVG/1.1/DTD/svg11.dtd">
<svg version="1.1" xmlns="http://www.w3.org/2000/svg" xmlns:xlink="http://www.w3.org/1999/xlink" width="14" height="16" viewBox="0 0 14 16">
<path fill="#444444" d="M11.143 1.143q1.063 0 1.817 0.754t0.754 1.817v8.571q0 1.063-0.754 1.817t-1.817 0.754h-8.571q-1.063 0-1.817-0.754t-0.754-1.817v-8.571q0-1.063 0.754-1.817t1.817-0.754h8.571zM11.429 10.571v-3.893q-0.277 0.313-0.571 0.491-0.304 0.196-1.183 0.759t-1.353 0.884q-0.875 0.616-1.464 0.616v0 0q-0.589 0-1.464-0.616-0.411-0.286-1.263-0.826t-1.272-0.826q-0.107-0.071-0.295-0.241t-0.277-0.241v3.893q0 0.357 0.25 0.607t0.607 0.25h7.429q0.357 0 0.607-0.25t0.25-0.607zM11.429 5.455q0-0.366-0.246-0.625t-0.612-0.259h-7.429q-0.357 0-0.607 0.25t-0.25 0.607q0 0.33 0.272 0.683t0.603 0.576q0.42 0.286 1.228 0.795t1.156 0.741q0.027 0.018 0.152 0.103t0.188 0.125 0.188 0.116 0.21 0.116 0.192 0.085 0.201 0.067 0.183 0.022 0.183-0.022 0.201-0.067 0.192-0.085 0.21-0.116 0.188-0.116 0.187-0.125 0.152-0.103l2.384-1.554q0.313-0.205 0.594-0.558t0.281-0.656z"></path>
</svg>
