<?xml version="1.0" encoding="utf-8"?>
<!-- Generated by IcoMoon.io -->
<!DOCTYPE svg PUBLIC "-//W3C//DTD SVG 1.1//EN" "http://www.w3.org/Graphics/SVG/1.1/DTD/svg11.dtd">
<svg version="1.1" xmlns="http://www.w3.org/2000/svg" xmlns:xlink="http://www.w3.org/1999/xlink" width="9" height="16" viewBox="0 0 9 16">
<path fill="#444444" d="M8.714 11.67l0.313 1.42q0.027 0.107-0.027 0.201t-0.152 0.129l-0.045 0.009q-0.036 0.018-0.094 0.031t-0.143 0.040-0.192 0.049-0.228 0.045-0.268 0.045-0.299 0.040-0.326 0.027-0.344 0.009q-2.089 0-3.652-1.165t-2.125-3.138h-0.848q-0.116 0-0.201-0.085t-0.085-0.201v-1.009q0-0.116 0.085-0.201t0.201-0.085h0.589q-0.018-0.509 0.009-0.938h-0.598q-0.125 0-0.205-0.080t-0.080-0.205v-1.018q0-0.125 0.080-0.205t0.205-0.080h0.875q0.598-1.875 2.174-3.018t3.576-1.143q0.911 0 1.732 0.205 0.098 0.027 0.179 0.134 0.054 0.098 0.027 0.214l-0.384 1.42q-0.027 0.116-0.125 0.174t-0.214 0.022l-0.036-0.009q-0.036-0.009-0.103-0.022l-0.156-0.031t-0.201-0.031-0.232-0.027-0.259-0.022-0.263-0.009q-1.125 0-2.018 0.571t-1.339 1.571h4.179q0.143 0 0.223 0.107 0.089 0.107 0.063 0.232l-0.214 1.018q-0.045 0.232-0.286 0.232h-4.357q-0.027 0.33 0 0.938h4.098q0.134 0 0.223 0.107 0.080 0.107 0.054 0.241l-0.214 1q-0.018 0.098-0.098 0.165t-0.179 0.067h-3.455q0.429 1.045 1.335 1.656t2.040 0.612q0.161 0 0.321-0.013t0.299-0.031 0.263-0.040 0.219-0.045 0.165-0.040l0.107-0.027 0.045-0.018q0.116-0.045 0.232 0.018 0.107 0.063 0.134 0.188z"></path>
</svg>
