<?xml version="1.0" encoding="utf-8"?>
<!-- Generated by IcoMoon.io -->
<!DOCTYPE svg PUBLIC "-//W3C//DTD SVG 1.1//EN" "http://www.w3.org/Graphics/SVG/1.1/DTD/svg11.dtd">
<svg version="1.1" xmlns="http://www.w3.org/2000/svg" xmlns:xlink="http://www.w3.org/1999/xlink" width="16" height="16" viewBox="0 0 16 16">
<path fill="#444444" d="M16 10.571v1.714q0 0.116-0.085 0.201t-0.201 0.085h-12.286v1.714q0 0.116-0.085 0.201t-0.201 0.085q-0.107 0-0.214-0.089l-2.848-2.857q-0.080-0.080-0.080-0.196 0-0.125 0.080-0.205l2.857-2.857q0.080-0.080 0.205-0.080 0.116 0 0.201 0.085t0.085 0.201v1.714h12.286q0.116 0 0.201 0.085t0.085 0.201zM16 5.714q0 0.125-0.080 0.205l-2.857 2.857q-0.080 0.080-0.205 0.080-0.116 0-0.201-0.085t-0.085-0.201v-1.714h-12.286q-0.116 0-0.201-0.085t-0.085-0.201v-1.714q0-0.116 0.085-0.201t0.201-0.085h12.286v-1.714q0-0.125 0.080-0.205t0.205-0.080q0.107 0 0.214 0.089l2.848 2.848q0.080 0.080 0.080 0.205z"></path>
</svg>
