<?xml version="1.0" encoding="utf-8"?>
<!-- Generated by IcoMoon.io -->
<!DOCTYPE svg PUBLIC "-//W3C//DTD SVG 1.1//EN" "http://www.w3.org/Graphics/SVG/1.1/DTD/svg11.dtd">
<svg version="1.1" xmlns="http://www.w3.org/2000/svg" xmlns:xlink="http://www.w3.org/1999/xlink" width="14" height="16" viewBox="0 0 14 16">
<path fill="#444444" d="M6.741 9.429q0 0.116-0.089 0.205l-2.964 2.964 1.286 1.286q0.17 0.17 0.17 0.402t-0.17 0.402-0.402 0.17h-4q-0.232 0-0.402-0.17t-0.17-0.402v-4q0-0.232 0.17-0.402t0.402-0.17 0.402 0.17l1.286 1.286 2.964-2.964q0.089-0.089 0.205-0.089t0.205 0.089l1.018 1.018q0.089 0.089 0.089 0.205zM13.714 1.714v4q0 0.232-0.17 0.402t-0.402 0.17-0.402-0.17l-1.286-1.286-2.964 2.964q-0.089 0.089-0.205 0.089t-0.205-0.089l-1.018-1.018q-0.089-0.089-0.089-0.205t0.089-0.205l2.964-2.964-1.286-1.286q-0.17-0.17-0.17-0.402t0.17-0.402 0.402-0.17h4q0.232 0 0.402 0.17t0.17 0.402z"></path>
</svg>
