<?xml version="1.0" encoding="utf-8"?>
<!-- Generated by IcoMoon.io -->
<!DOCTYPE svg PUBLIC "-//W3C//DTD SVG 1.1//EN" "http://www.w3.org/Graphics/SVG/1.1/DTD/svg11.dtd">
<svg version="1.1" xmlns="http://www.w3.org/2000/svg" xmlns:xlink="http://www.w3.org/1999/xlink" width="16" height="16" viewBox="0 0 16 16">
<path fill="#444444" d="M8 0.571q-1.509 0-2.884 0.589t-2.371 1.585-1.585 2.371-0.589 2.884 0.589 2.884 1.585 2.371 2.371 1.585 2.884 0.589 2.884-0.589 2.371-1.585 1.585-2.371 0.589-2.884-0.589-2.884-1.585-2.371-2.371-1.585-2.884-0.589zM8 0q1.625 0 3.107 0.634t2.554 1.705 1.705 2.554 0.634 3.107-0.634 3.107-1.705 2.554-2.554 1.705-3.107 0.634-3.107-0.634-2.554-1.705-1.705-2.554-0.634-3.107 0.634-3.107 1.705-2.554 2.554-1.705 3.107-0.634zM4.429 7.429q0.143 0 0.143 0.143v4.286q0 0.143-0.143 0.143h-0.286q-0.143 0-0.143-0.143v-4.286q0-0.143 0.143-0.143h0.286zM8 8q0.473 0 0.808 0.335t0.335 0.808q0 0.313-0.156 0.571t-0.415 0.411v1.018q0 0.125-0.080 0.205t-0.205 0.080h-0.571q-0.125 0-0.205-0.080t-0.080-0.205v-1.018q-0.259-0.152-0.415-0.411t-0.156-0.571q0-0.473 0.335-0.808t0.808-0.335zM8 1.143q1.866 0 3.442 0.92t2.496 2.496 0.92 3.442-0.92 3.442-2.496 2.496-3.442 0.92-3.442-0.92-2.496-2.496-0.92-3.442 0.92-3.442 2.496-2.496 3.442-0.92zM4.857 5.429v0.857q0 0.125 0.080 0.205t0.205 0.080h0.571q0.125 0 0.205-0.080t0.080-0.205v-0.857q0-0.83 0.585-1.415t1.415-0.585 1.415 0.585 0.585 1.415v0.857q0 0.125 0.080 0.205t0.205 0.080h0.571q0.125 0 0.205-0.080t0.080-0.205v-0.857q0-1.304-0.92-2.223t-2.223-0.92-2.223 0.92-0.92 2.223zM12.571 12v-4.571q0-0.232-0.17-0.402t-0.402-0.17h-8q-0.232 0-0.402 0.17t-0.17 0.402v4.571q0 0.232 0.17 0.402t0.402 0.17h8q0.232 0 0.402-0.17t0.17-0.402z"></path>
</svg>
