<?xml version="1.0" encoding="utf-8"?>
<!-- Generated by IcoMoon.io -->
<!DOCTYPE svg PUBLIC "-//W3C//DTD SVG 1.1//EN" "http://www.w3.org/Graphics/SVG/1.1/DTD/svg11.dtd">
<svg version="1.1" xmlns="http://www.w3.org/2000/svg" xmlns:xlink="http://www.w3.org/1999/xlink" width="16" height="16" viewBox="0 0 16 16">
<path fill="#444444" d="M15.982 7.888c-0.005-0.021-0.002-0.043-0.010-0.064-0.003-0.008-0.011-0.013-0.014-0.021-0.005-0.012-0.004-0.026-0.011-0.037-1.45-2.776-4.607-4.764-7.936-4.764s-6.487 1.986-7.938 4.761c-0.007 0.011-0.006 0.025-0.010 0.037-0.004 0.008-0.011 0.013-0.013 0.021-0.008 0.021-0.005 0.043-0.010 0.064-0.009 0.037-0.018 0.074-0.018 0.112s0.009 0.074 0.018 0.112c0.005 0.021 0.002 0.043 0.010 0.064 0.003 0.008 0.011 0.013 0.013 0.021 0.005 0.012 0.004 0.025 0.010 0.037 1.45 2.775 4.607 4.764 7.938 4.764s6.486-1.986 7.936-4.761c0.007-0.011 0.006-0.025 0.011-0.037 0.003-0.008 0.011-0.012 0.014-0.021 0.008-0.021 0.005-0.043 0.010-0.064 0.008-0.038 0.018-0.074 0.018-0.112s-0.009-0.074-0.018-0.112zM8.011 11.994c-2.808 0-5.556-1.595-6.926-3.998 1.377-2.405 4.122-3.995 6.926-3.995 2.806 0 5.556 1.596 6.925 3.997-1.377 2.405-4.121 3.995-6.925 3.995zM8.011 6c0.138 0 0.249 0.112 0.249 0.25s-0.111 0.25-0.249 0.25v0c-0.827 0-1.5 0.673-1.5 1.498 0 0.138-0.112 0.25-0.25 0.25s-0.25-0.112-0.25-0.25c0-1.103 0.893-1.996 1.996-1.998 0.001 0 0.002-0 0.003-0zM8 4.5c-1.934 0-3.5 1.567-3.5 3.5s1.567 3.5 3.5 3.5c1.933 0 3.5-1.567 3.5-3.5s-1.567-3.5-3.5-3.5zM8 11c-1.655 0-3-1.345-3-3s1.345-3 3-3c1.655 0 3 1.345 3 3s-1.345 3-3 3z"></path>
</svg>
