<?xml version="1.0" encoding="utf-8"?>
<!-- Generated by IcoMoon.io -->
<!DOCTYPE svg PUBLIC "-//W3C//DTD SVG 1.1//EN" "http://www.w3.org/Graphics/SVG/1.1/DTD/svg11.dtd">
<svg version="1.1" xmlns="http://www.w3.org/2000/svg" xmlns:xlink="http://www.w3.org/1999/xlink" width="16" height="16" viewBox="0 0 16 16">
<path fill="#444444" d="M15.161 0.839q0.839 0.839 0.839 2.022t-0.839 2.013l-2.009 1.991 0.929 0.929q0.089 0.089 0.089 0.205t-0.089 0.205l-1.875 1.875q-0.089 0.089-0.205 0.089t-0.205-0.089l-0.938-0.938-5.384 5.384q-0.33 0.33-0.804 0.33h-1.813l-2.286 1.143-0.571-0.571 1.143-2.286v-1.813q0-0.473 0.33-0.804l5.384-5.384-0.938-0.938q-0.089-0.089-0.089-0.205t0.089-0.205l1.875-1.875q0.089-0.089 0.205-0.089t0.205 0.089l0.929 0.929 1.991-2.009q0.83-0.839 2.013-0.839t2.022 0.839zM4.571 13.143l5.143-5.143-1.714-1.714-5.143 5.143v1.714h1.714z"></path>
</svg>
