<?xml version="1.0" encoding="utf-8"?>
<!-- Generated by IcoMoon.io -->
<!DOCTYPE svg PUBLIC "-//W3C//DTD SVG 1.1//EN" "http://www.w3.org/Graphics/SVG/1.1/DTD/svg11.dtd">
<svg version="1.1" xmlns="http://www.w3.org/2000/svg" xmlns:xlink="http://www.w3.org/1999/xlink" width="14" height="16" viewBox="0 0 14 16">
<path fill="#444444" d="M11.143 1.143q1.063 0 1.817 0.754t0.754 1.817v8.571q0 1.063-0.754 1.817t-1.817 0.754h-1.679v-5.313h1.777l0.268-2.071h-2.045v-1.321q0-0.5 0.21-0.75t0.817-0.25l1.089-0.009v-1.848q-0.563-0.080-1.589-0.080-1.214 0-1.942 0.714t-0.728 2.018v1.527h-1.786v2.071h1.786v5.313h-4.75q-1.063 0-1.817-0.754t-0.754-1.817v-8.571q0-1.063 0.754-1.817t1.817-0.754h8.571z"></path>
</svg>
