<?xml version="1.0" encoding="utf-8"?>
<!-- Generated by IcoMoon.io -->
<!DOCTYPE svg PUBLIC "-//W3C//DTD SVG 1.1//EN" "http://www.w3.org/Graphics/SVG/1.1/DTD/svg11.dtd">
<svg version="1.1" xmlns="http://www.w3.org/2000/svg" xmlns:xlink="http://www.w3.org/1999/xlink" width="14" height="16" viewBox="0 0 14 16">
<path fill="#444444" d="M12.955 1.143q0.313 0 0.536 0.223t0.223 0.536v12.196q0 0.313-0.223 0.536t-0.536 0.223h-3.491v-5.313h1.777l0.268-2.071h-2.045v-1.321q0-0.5 0.21-0.75t0.817-0.25l1.089-0.009v-1.848q-0.563-0.080-1.589-0.080-1.214 0-1.942 0.714t-0.728 2.018v1.527h-1.786v2.071h1.786v5.313h-6.563q-0.313 0-0.536-0.223t-0.223-0.536v-12.196q0-0.313 0.223-0.536t0.536-0.223h12.196z"></path>
</svg>
