<?xml version="1.0" encoding="utf-8"?>
<!-- Generated by IcoMoon.io -->
<!DOCTYPE svg PUBLIC "-//W3C//DTD SVG 1.1//EN" "http://www.w3.org/Graphics/SVG/1.1/DTD/svg11.dtd">
<svg version="1.1" xmlns="http://www.w3.org/2000/svg" xmlns:xlink="http://www.w3.org/1999/xlink" width="16" height="16" viewBox="0 0 16 16">
<path fill="#444444" d="M2.571 3.429q0.589 0 1.009 0.42t0.42 1.009v9.714q0 0.589-0.42 1.009t-1.009 0.42h-1.143q-0.589 0-1.009-0.42t-0.42-1.009v-9.714q0-0.589 0.42-1.009t1.009-0.42h1.143zM14.857 4.884q0.518 0.304 0.83 0.83t0.313 1.143v6.857q0 0.946-0.67 1.616t-1.616 0.67h-7.714q-0.589 0-1.009-0.42t-0.42-1.009v-13.714q0-0.357 0.25-0.607t0.607-0.25h6q0.357 0 0.786 0.179t0.679 0.429l1.357 1.357q0.25 0.25 0.429 0.679t0.179 0.786v1.455zM8.286 13.714v-1.143q0-0.125-0.080-0.205t-0.205-0.080h-1.143q-0.125 0-0.205 0.080t-0.080 0.205v1.143q0 0.125 0.080 0.205t0.205 0.080h1.143q0.125 0 0.205-0.080t0.080-0.205zM8.286 11.429v-1.143q0-0.125-0.080-0.205t-0.205-0.080h-1.143q-0.125 0-0.205 0.080t-0.080 0.205v1.143q0 0.125 0.080 0.205t0.205 0.080h1.143q0.125 0 0.205-0.080t0.080-0.205zM8.286 9.143v-1.143q0-0.125-0.080-0.205t-0.205-0.080h-1.143q-0.125 0-0.205 0.080t-0.080 0.205v1.143q0 0.125 0.080 0.205t0.205 0.080h1.143q0.125 0 0.205-0.080t0.080-0.205zM10.571 13.714v-1.143q0-0.125-0.080-0.205t-0.205-0.080h-1.143q-0.125 0-0.205 0.080t-0.080 0.205v1.143q0 0.125 0.080 0.205t0.205 0.080h1.143q0.125 0 0.205-0.080t0.080-0.205zM10.571 11.429v-1.143q0-0.125-0.080-0.205t-0.205-0.080h-1.143q-0.125 0-0.205 0.080t-0.080 0.205v1.143q0 0.125 0.080 0.205t0.205 0.080h1.143q0.125 0 0.205-0.080t0.080-0.205zM10.571 9.143v-1.143q0-0.125-0.080-0.205t-0.205-0.080h-1.143q-0.125 0-0.205 0.080t-0.080 0.205v1.143q0 0.125 0.080 0.205t0.205 0.080h1.143q0.125 0 0.205-0.080t0.080-0.205zM12.857 13.714v-1.143q0-0.125-0.080-0.205t-0.205-0.080h-1.143q-0.125 0-0.205 0.080t-0.080 0.205v1.143q0 0.125 0.080 0.205t0.205 0.080h1.143q0.125 0 0.205-0.080t0.080-0.205zM12.857 11.429v-1.143q0-0.125-0.080-0.205t-0.205-0.080h-1.143q-0.125 0-0.205 0.080t-0.080 0.205v1.143q0 0.125 0.080 0.205t0.205 0.080h1.143q0.125 0 0.205-0.080t0.080-0.205zM12.857 9.143v-1.143q0-0.125-0.080-0.205t-0.205-0.080h-1.143q-0.125 0-0.205 0.080t-0.080 0.205v1.143q0 0.125 0.080 0.205t0.205 0.080h1.143q0.125 0 0.205-0.080t0.080-0.205zM13.714 5.714v-2.286h-1.429q-0.357 0-0.607-0.25t-0.25-0.607v-1.429h-5.714v4.571h8z"></path>
</svg>
