<?xml version="1.0" encoding="utf-8"?>
<!-- Generated by IcoMoon.io -->
<!DOCTYPE svg PUBLIC "-//W3C//DTD SVG 1.1//EN" "http://www.w3.org/Graphics/SVG/1.1/DTD/svg11.dtd">
<svg version="1.1" xmlns="http://www.w3.org/2000/svg" xmlns:xlink="http://www.w3.org/1999/xlink" width="13" height="16" viewBox="0 0 13 16">
<path fill="#444444" d="M3.429 12q0 0.714-0.5 1.214t-1.214 0.5-1.214-0.5-0.5-1.214 0.5-1.214 1.214-0.5 1.214 0.5 0.5 1.214zM8 13.098q0.018 0.25-0.152 0.429-0.161 0.188-0.42 0.188h-1.205q-0.223 0-0.384-0.147t-0.179-0.371q-0.196-2.045-1.647-3.496t-3.496-1.647q-0.223-0.018-0.371-0.179t-0.147-0.384v-1.205q0-0.259 0.188-0.42 0.152-0.152 0.384-0.152h0.045q1.429 0.116 2.732 0.719t2.313 1.621q1.018 1.009 1.621 2.313t0.719 2.732zM12.571 13.116q0.018 0.241-0.161 0.42-0.161 0.179-0.411 0.179h-1.277q-0.232 0-0.397-0.156t-0.174-0.379q-0.107-1.92-0.902-3.647t-2.067-3-3-2.067-3.647-0.911q-0.223-0.009-0.379-0.174t-0.156-0.388v-1.277q0-0.25 0.179-0.411 0.161-0.161 0.393-0.161h0.027q2.339 0.116 4.478 1.071t3.799 2.625q1.67 1.661 2.625 3.799t1.071 4.478z"></path>
</svg>
