<?xml version="1.0" encoding="utf-8"?>
<!-- Generated by IcoMoon.io -->
<!DOCTYPE svg PUBLIC "-//W3C//DTD SVG 1.1//EN" "http://www.w3.org/Graphics/SVG/1.1/DTD/svg11.dtd">
<svg version="1.1" xmlns="http://www.w3.org/2000/svg" xmlns:xlink="http://www.w3.org/1999/xlink" width="11" height="16" viewBox="0 0 11 16">
<path fill="#444444" d="M11.429 9.429q0 0.357-0.25 0.607t-0.607 0.25q-0.455 0-0.714-0.384l-2.027-3.045h-0.402v1.179l2.205 3.67q0.080 0.134 0.080 0.295 0 0.232-0.17 0.402t-0.402 0.17h-1.714v2.429q0 0.411-0.295 0.705t-0.705 0.295h-1.429q-0.411 0-0.705-0.295t-0.295-0.705v-2.429h-1.714q-0.232 0-0.402-0.17t-0.17-0.402q0-0.161 0.080-0.295l2.205-3.67v-1.179h-0.402l-2.027 3.045q-0.259 0.384-0.714 0.384-0.357 0-0.607-0.25t-0.25-0.607q0-0.259 0.143-0.473l2.286-3.429q0.652-0.955 1.571-0.955h3.429q0.92 0 1.571 0.955l2.286 3.429q0.143 0.214 0.143 0.473zM7.714 2.286q0 0.83-0.585 1.415t-1.415 0.585-1.415-0.585-0.585-1.415 0.585-1.415 1.415-0.585 1.415 0.585 0.585 1.415z"></path>
</svg>
