<?xml version="1.0" encoding="utf-8"?>
<!-- Generated by IcoMoon.io -->
<!DOCTYPE svg PUBLIC "-//W3C//DTD SVG 1.1//EN" "http://www.w3.org/Graphics/SVG/1.1/DTD/svg11.dtd">
<svg version="1.1" xmlns="http://www.w3.org/2000/svg" xmlns:xlink="http://www.w3.org/1999/xlink" width="17" height="16" viewBox="0 0 17 16">
<path fill="#444444" d="M17.143 8.571q-0.009 0.286-2.571 0.857l-3.143 0.286-2 0.571h-0.571l-2.616 3.143h0.616q0.232 0 0.402 0.040t0.17 0.103-0.17 0.103-0.402 0.040h-2.857v-0.286h0.571v-3.714h-1.429l-1.714 2h-0.857l-0.286-0.286v-1.714h0.286v-0.286h1.143v-0.071l-1.714-0.214v-1.143l1.714-0.214v-0.071h-1.143v-0.286h-0.286v-1.714l0.286-0.286h0.857l1.714 2h1.429v-3.714h-0.571v-0.286h2.857q0.232 0 0.402 0.040t0.17 0.103-0.17 0.103-0.402 0.040h-0.616l2.616 3.143h0.571l2 0.571 3.143 0.286q2.33 0.518 2.563 0.83z"></path>
</svg>
