<?xml version="1.0" encoding="utf-8"?>
<!-- Generated by IcoMoon.io -->
<!DOCTYPE svg PUBLIC "-//W3C//DTD SVG 1.1//EN" "http://www.w3.org/Graphics/SVG/1.1/DTD/svg11.dtd">
<svg version="1.1" xmlns="http://www.w3.org/2000/svg" xmlns:xlink="http://www.w3.org/1999/xlink" width="14" height="16" viewBox="0 0 14 16">
<path fill="#444444" d="M13.107 3.393q0.25 0.25 0.429 0.679t0.179 0.786v10.286q0 0.357-0.25 0.607t-0.607 0.25h-12q-0.357 0-0.607-0.25t-0.25-0.607v-14.286q0-0.357 0.25-0.607t0.607-0.25h8q0.357 0 0.786 0.179t0.679 0.429zM9.143 1.214v3.357h3.357q-0.089-0.259-0.196-0.366l-2.795-2.795q-0.107-0.107-0.366-0.196zM12.571 14.857v-9.143h-3.714q-0.357 0-0.607-0.25t-0.25-0.607v-3.714h-6.857v13.714h11.429zM5.536 7.589q0.179 0.071 0.179 0.268v4.857q0 0.196-0.179 0.268-0.071 0.018-0.107 0.018-0.107 0-0.205-0.080l-1.482-1.491h-1.17q-0.125 0-0.205-0.080t-0.080-0.205v-1.714q0-0.125 0.080-0.205t0.205-0.080h1.17l1.482-1.491q0.143-0.134 0.313-0.063zM9.259 13.741q0.277 0 0.446-0.214 1.152-1.42 1.152-3.241t-1.152-3.241q-0.143-0.188-0.384-0.214t-0.42 0.125q-0.188 0.152-0.21 0.388t0.129 0.424q0.893 1.098 0.893 2.518t-0.893 2.518q-0.152 0.188-0.129 0.424t0.21 0.379q0.161 0.134 0.357 0.134zM7.375 12.42q0.241 0 0.42-0.179 0.777-0.83 0.777-1.955t-0.777-1.955q-0.161-0.17-0.402-0.179t-0.411 0.152-0.179 0.397 0.161 0.415q0.464 0.509 0.464 1.17t-0.464 1.17q-0.17 0.179-0.161 0.415t0.179 0.397q0.179 0.152 0.393 0.152z"></path>
</svg>
