<?xml version="1.0" encoding="utf-8"?>
<!-- Generated by IcoMoon.io -->
<!DOCTYPE svg PUBLIC "-//W3C//DTD SVG 1.1//EN" "http://www.w3.org/Graphics/SVG/1.1/DTD/svg11.dtd">
<svg version="1.1" xmlns="http://www.w3.org/2000/svg" xmlns:xlink="http://www.w3.org/1999/xlink" width="14" height="16" viewBox="0 0 14 16">
<path fill="#444444" d="M13.107 3.393q0.25 0.25 0.429 0.679t0.179 0.786v10.286q0 0.357-0.25 0.607t-0.607 0.25h-12q-0.357 0-0.607-0.25t-0.25-0.607v-14.286q0-0.357 0.25-0.607t0.607-0.25h8q0.357 0 0.786 0.179t0.679 0.429zM9.143 1.214v3.357h3.357q-0.089-0.259-0.196-0.366l-2.795-2.795q-0.107-0.107-0.366-0.196zM12.571 14.857v-9.143h-3.714q-0.357 0-0.607-0.25t-0.25-0.607v-3.714h-6.857v13.714h11.429zM7.982 9.563q0.295 0.232 0.75 0.5 0.527-0.063 1.045-0.063 1.313 0 1.58 0.438 0.143 0.196 0.018 0.464 0 0.009-0.009 0.018l-0.018 0.018v0.009q-0.054 0.339-0.634 0.339-0.429 0-1.027-0.179t-1.161-0.473q-1.973 0.214-3.5 0.741-1.366 2.339-2.161 2.339-0.134 0-0.25-0.063l-0.214-0.107q-0.009-0.009-0.054-0.045-0.089-0.089-0.054-0.321 0.080-0.357 0.5-0.817t1.179-0.862q0.125-0.080 0.205 0.054 0.018 0.018 0.018 0.036 0.464-0.759 0.955-1.759 0.607-1.214 0.929-2.339-0.214-0.732-0.272-1.424t0.058-1.138q0.098-0.357 0.375-0.357h0.196q0.205 0 0.313 0.134 0.161 0.188 0.080 0.607-0.018 0.054-0.036 0.071 0.009 0.027 0.009 0.071v0.268q-0.018 1.098-0.125 1.714 0.491 1.464 1.304 2.125zM2.839 13.232q0.464-0.214 1.223-1.411-0.455 0.357-0.781 0.75t-0.442 0.661zM6.393 5.018q-0.134 0.375-0.018 1.179 0.009-0.063 0.063-0.393 0-0.027 0.063-0.384 0.009-0.036 0.036-0.071-0.009-0.009-0.009-0.018t-0.004-0.013-0.004-0.013q-0.009-0.196-0.116-0.321 0 0.009-0.009 0.018v0.018zM5.286 10.92q1.205-0.482 2.536-0.723-0.018-0.009-0.116-0.085t-0.143-0.121q-0.679-0.598-1.134-1.571-0.241 0.768-0.741 1.759-0.268 0.5-0.402 0.741zM11.054 10.777q-0.214-0.214-1.25-0.214 0.679 0.25 1.107 0.25 0.125 0 0.161-0.009 0-0.009-0.018-0.027z"></path>
</svg>
