<?xml version="1.0" encoding="utf-8"?>
<!-- Generated by IcoMoon.io -->
<!DOCTYPE svg PUBLIC "-//W3C//DTD SVG 1.1//EN" "http://www.w3.org/Graphics/SVG/1.1/DTD/svg11.dtd">
<svg version="1.1" xmlns="http://www.w3.org/2000/svg" xmlns:xlink="http://www.w3.org/1999/xlink" width="14" height="16" viewBox="0 0 14 16">
<path fill="#444444" d="M13.107 4.25q0.125 0.125 0.25 0.321h-4.214v-4.214q0.196 0.125 0.321 0.25zM8.857 5.714h4.857v9.429q0 0.357-0.25 0.607t-0.607 0.25h-12q-0.357 0-0.607-0.25t-0.25-0.607v-14.286q0-0.357 0.25-0.607t0.607-0.25h7.143v4.857q0 0.357 0.25 0.607t0.607 0.25zM10.286 12.286v-0.571q0-0.125-0.080-0.205t-0.205-0.080h-6.286q-0.125 0-0.205 0.080t-0.080 0.205v0.571q0 0.125 0.080 0.205t0.205 0.080h6.286q0.125 0 0.205-0.080t0.080-0.205zM10.286 10v-0.571q0-0.125-0.080-0.205t-0.205-0.080h-6.286q-0.125 0-0.205 0.080t-0.080 0.205v0.571q0 0.125 0.080 0.205t0.205 0.080h6.286q0.125 0 0.205-0.080t0.080-0.205zM10.286 7.714v-0.571q0-0.125-0.080-0.205t-0.205-0.080h-6.286q-0.125 0-0.205 0.080t-0.080 0.205v0.571q0 0.125 0.080 0.205t0.205 0.080h6.286q0.125 0 0.205-0.080t0.080-0.205z"></path>
</svg>
