<?xml version="1.0" encoding="utf-8"?>
<!-- Generated by IcoMoon.io -->
<!DOCTYPE svg PUBLIC "-//W3C//DTD SVG 1.1//EN" "http://www.w3.org/Graphics/SVG/1.1/DTD/svg11.dtd">
<svg version="1.1" xmlns="http://www.w3.org/2000/svg" xmlns:xlink="http://www.w3.org/1999/xlink" width="14" height="16" viewBox="0 0 14 16">
<path fill="#444444" d="M13.107 3.393q0.25 0.25 0.429 0.679t0.179 0.786v10.286q0 0.357-0.25 0.607t-0.607 0.25h-12q-0.357 0-0.607-0.25t-0.25-0.607v-14.286q0-0.357 0.25-0.607t0.607-0.25h8q0.357 0 0.786 0.179t0.679 0.429zM9.143 1.214v3.357h3.357q-0.089-0.259-0.196-0.366l-2.795-2.795q-0.107-0.107-0.366-0.196zM12.571 14.857v-9.143h-3.714q-0.357 0-0.607-0.25t-0.25-0.607v-3.714h-6.857v13.714h11.429zM4.286 6.857q0.071-0.098 0.188-0.112t0.214 0.058l0.455 0.339q0.098 0.071 0.112 0.188t-0.058 0.214l-1.625 2.17 1.625 2.17q0.071 0.098 0.058 0.214t-0.112 0.188l-0.455 0.339q-0.098 0.071-0.214 0.058t-0.188-0.112l-2.018-2.688q-0.125-0.17 0-0.339zM11.446 9.545q0.125 0.17 0 0.339l-2.018 2.688q-0.071 0.098-0.188 0.112t-0.214-0.058l-0.455-0.339q-0.098-0.071-0.112-0.188t0.058-0.214l1.625-2.17-1.625-2.17q-0.071-0.098-0.058-0.214t0.112-0.188l0.455-0.339q0.098-0.071 0.214-0.058t0.188 0.112zM5.911 13.661q-0.116-0.018-0.183-0.116t-0.049-0.214l1.232-7.42q0.018-0.116 0.116-0.183t0.214-0.049l0.563 0.089q0.116 0.018 0.183 0.116t0.049 0.214l-1.232 7.42q-0.018 0.116-0.116 0.183t-0.214 0.049z"></path>
</svg>
