<?xml version="1.0" encoding="utf-8"?>
<!-- Generated by IcoMoon.io -->
<!DOCTYPE svg PUBLIC "-//W3C//DTD SVG 1.1//EN" "http://www.w3.org/Graphics/SVG/1.1/DTD/svg11.dtd">
<svg version="1.1" xmlns="http://www.w3.org/2000/svg" xmlns:xlink="http://www.w3.org/1999/xlink" width="13" height="16" viewBox="0 0 13 16">
<path fill="#444444" d="M4.571 1.714q0-0.232-0.17-0.402t-0.402-0.17-0.402 0.17-0.17 0.402 0.17 0.402 0.402 0.17 0.402-0.17 0.17-0.402zM12.571 1.429v2.857q0 0.143-0.107 0.223-0.071 0.063-0.179 0.063-0.036 0-0.063-0.009l-4-0.857q-0.098-0.018-0.161-0.098t-0.063-0.179h-2.286v0.911q0.991 0.205 1.638 0.991t0.647 1.813v7.143q0 0.232-0.17 0.402t-0.402 0.17h-4.571q-0.232 0-0.402-0.17t-0.17-0.402v-7.143q0-0.946 0.558-1.701t1.442-1.022v-0.991h-0.286q-0.527 0-1.027 0.21t-0.817 0.473-0.589 0.594-0.362 0.478-0.125 0.219q-0.152 0.313-0.509 0.313-0.143 0-0.259-0.063-0.205-0.107-0.281-0.33t0.031-0.438q0.045-0.089 0.129-0.232t0.335-0.478 0.54-0.625 0.759-0.598 0.969-0.469q-0.223-0.375-0.223-0.768 0-0.589 0.42-1.009t1.009-0.42 1.009 0.42 0.42 1.009q0 0.295-0.125 0.571h2.696q0-0.098 0.063-0.179t0.161-0.098l4-0.857q0.027-0.009 0.063-0.009 0.107 0 0.179 0.063 0.107 0.080 0.107 0.223z"></path>
</svg>
