<?xml version="1.0" encoding="utf-8"?>
<!-- Generated by IcoMoon.io -->
<!DOCTYPE svg PUBLIC "-//W3C//DTD SVG 1.1//EN" "http://www.w3.org/Graphics/SVG/1.1/DTD/svg11.dtd">
<svg version="1.1" xmlns="http://www.w3.org/2000/svg" xmlns:xlink="http://www.w3.org/1999/xlink" width="13" height="16" viewBox="0 0 13 16">
<path fill="#444444" d="M12.571 15.143v0.571q0 0.116-0.085 0.201t-0.201 0.085h-12q-0.116 0-0.201-0.085t-0.085-0.201v-0.571q0-0.116 0.085-0.201t0.201-0.085h12q0.116 0 0.201 0.085t0.085 0.201zM10.286 5.714q0 0.696-0.219 1.286t-0.571 1.004-0.781 0.786-0.857 0.692-0.781 0.643-0.571 0.728-0.219 0.862q0 0.857 0.598 2l-0.036-0.009 0.009 0.009q-0.804-0.366-1.429-0.741t-1.237-0.893-1.013-1.094-0.647-1.344-0.246-1.643q0-0.696 0.219-1.286t0.571-1.004 0.781-0.786 0.857-0.692 0.781-0.643 0.571-0.728 0.219-0.862q0-0.839-0.589-2l0.027 0.009-0.009-0.009q0.804 0.366 1.429 0.741t1.237 0.893 1.013 1.094 0.647 1.344 0.246 1.643z"></path>
</svg>
