<?xml version="1.0" encoding="utf-8"?>
<!-- Generated by IcoMoon.io -->
<!DOCTYPE svg PUBLIC "-//W3C//DTD SVG 1.1//EN" "http://www.w3.org/Graphics/SVG/1.1/DTD/svg11.dtd">
<svg version="1.1" xmlns="http://www.w3.org/2000/svg" xmlns:xlink="http://www.w3.org/1999/xlink" width="16" height="16" viewBox="0 0 16 16">
<path fill="#444444" d="M11 4.5c-0.031 1.338-1.035 2.467-1.035 2.467 0-2.488-1.965-4.467-1.965-4.467s-0.027 1.481-1.021 2.974c-0.995-3.483-3.981-5.474-3.981-5.474 1.493 5.474-0.498 7.465-0.498 11.446 0 2.335 1.977 4.554 5 4.554 4.479 0 5.345-1.644 5.808-3.497 0.638-2.55-0.318-5.516-2.308-8.004zM12.338 12.261c-0.322 1.284-0.684 2.739-4.838 2.739-2.504 0-4-1.807-4-3.554 0-1.338 0.244-2.437 0.502-3.599 0.328-1.474 0.664-2.984 0.518-4.981 1.542 2.135 2.091 4.963 2.091 4.963s1.436-2.015 1.821-2.951c0.296 0.601 0.567 2.623 0.567 4.623 0 0 1.328-1.094 2.324-2.739 1.049 1.881 1.427 3.847 1.014 5.5zM11.216 8.398l0.093 0.518c0.208 1.159 0.091 2.529-0.296 3.491-0.039 0.098-0.133 0.156-0.232 0.156-0.031 0-0.063-0.006-0.094-0.018-0.128-0.052-0.191-0.197-0.139-0.325 0.292-0.725 0.415-1.745 0.337-2.677-0.502 0.561-1.134 1.146-2.486 1.787l-0.253 0.12-0.091-0.264c-0.181-0.525-0.364-1.056-0.442-1.795-0.271 0.427-0.518 0.806-0.933 1.371l-0.254 0.346-0.176-0.392c-0.431-0.963-0.758-1.714-1.018-2.375-0.24 0.773-0.42 1.666-0.42 3.47 0 0.138-0.112 0.25-0.25 0.25s-0.25-0.112-0.25-0.25c0-2.354 0.313-3.261 0.643-4.222l0.26-0.755 0.239 0.675c0.258 0.725 0.596 1.525 1.076 2.606 0.316-0.447 0.528-0.783 0.784-1.188l0.759-1.189v0.854c0 0.962 0.173 1.591 0.364 2.162 1.329-0.669 1.828-1.251 2.354-1.865l0.425-0.492z"></path>
</svg>
