<?xml version="1.0" encoding="utf-8"?>
<!-- Generated by IcoMoon.io -->
<!DOCTYPE svg PUBLIC "-//W3C//DTD SVG 1.1//EN" "http://www.w3.org/Graphics/SVG/1.1/DTD/svg11.dtd">
<svg version="1.1" xmlns="http://www.w3.org/2000/svg" xmlns:xlink="http://www.w3.org/1999/xlink" width="16" height="16" viewBox="0 0 16 16">
<path fill="#444444" d="M8.063 16q-2.527 0-4.504-1.344t-2.942-3.558q-0.518-1.17-0.598-2.688t0.232-2.969 0.991-2.786 1.598-2.165l-0.098 2.509q0.098-0.125 0.607-0.138t0.625 0.138q0.375-0.723 1.433-1.232t2.094-0.527q-0.482 0.402-1.067 1.326t-0.522 1.46q0.223 0.071 0.558 0.121t0.563 0.067 0.607 0.036 0.451 0.027q0.134 0.045 0.085 0.406t-0.272 0.674q-0.045 0.063-0.147 0.165t-0.504 0.317-0.902 0.304l0.134 1.688-1.241-0.598q-0.161 0.384-0.067 0.728t0.321 0.594 0.585 0.371 0.723 0.058q0.455-0.080 0.875-0.308t0.746-0.402 0.656-0.156q0.545 0.036 0.799 0.295t0.174 0.58q-0.009 0.018-0.022 0.049t-0.076 0.112-0.161 0.138-0.281 0.094-0.415 0.009q-0.536 0.848-1.29 1.21t-1.871 0.263q0.661 0.545 1.451 0.737t1.504 0.054 1.379-0.464 1.143-0.781 0.719-0.929q0.384-0.813 0.348-1.719t-0.335-1.683-0.701-1.116q0.777 0.339 1.223 0.71t0.688 1.004q0.134-1.518-0.513-3.063t-1.871-2.536q2.366 0.688 3.679 2.496t1.348 4.621q0.018 1.134-0.362 2.277t-1.103 2.125-1.688 1.75-2.21 1.21-2.576 0.442z"></path>
</svg>
