<?xml version="1.0" encoding="utf-8"?>
<!-- Generated by IcoMoon.io -->
<!DOCTYPE svg PUBLIC "-//W3C//DTD SVG 1.1//EN" "http://www.w3.org/Graphics/SVG/1.1/DTD/svg11.dtd">
<svg version="1.1" xmlns="http://www.w3.org/2000/svg" xmlns:xlink="http://www.w3.org/1999/xlink" width="17" height="16" viewBox="0 0 17 16">
<path fill="#444444" d="M14.857 9.33v-5.5q-1.509 0.813-2.732 0.813-0.732 0-1.295-0.286-0.893-0.438-1.643-0.683t-1.589-0.246q-1.545 0-3.598 1.134v5.348q2.188-1.009 3.866-1.009 0.491 0 0.924 0.067t0.875 0.232 0.688 0.277 0.737 0.353l0.25 0.125q0.393 0.196 0.902 0.196 1.071 0 2.616-0.821zM2.857 2.286q0 0.313-0.156 0.571t-0.415 0.411v11.304q0 0.125-0.080 0.205t-0.205 0.080h-0.571q-0.125 0-0.205-0.080t-0.080-0.205v-11.304q-0.259-0.152-0.415-0.411t-0.156-0.571q0-0.473 0.335-0.808t0.808-0.335 0.808 0.335 0.335 0.808zM16 2.857v6.813q0 0.348-0.313 0.509-0.089 0.045-0.152 0.080-1.946 1.036-3.295 1.036-0.786 0-1.411-0.313l-0.25-0.125q-0.571-0.295-0.884-0.429t-0.813-0.259-1.018-0.125q-0.911 0-2.103 0.393t-2.040 0.911q-0.134 0.080-0.295 0.080-0.143 0-0.286-0.071-0.286-0.17-0.286-0.5v-6.625q0-0.313 0.277-0.491 0.313-0.188 0.701-0.379t1.018-0.464 1.362-0.442 1.384-0.17q1 0 1.866 0.277t1.866 0.768q0.339 0.17 0.795 0.17 1.089 0 2.768-1 0.196-0.107 0.277-0.152 0.277-0.143 0.554 0.018 0.277 0.179 0.277 0.491z"></path>
</svg>
