<?xml version="1.0" encoding="utf-8"?>
<!-- Generated by IcoMoon.io -->
<!DOCTYPE svg PUBLIC "-//W3C//DTD SVG 1.1//EN" "http://www.w3.org/Graphics/SVG/1.1/DTD/svg11.dtd">
<svg version="1.1" xmlns="http://www.w3.org/2000/svg" xmlns:xlink="http://www.w3.org/1999/xlink" width="17" height="16" viewBox="0 0 17 16">
<path fill="#444444" d="M7.429 8.929v-1.714q-1.616 0.143-3.429 1.045v1.652q1.83-0.857 3.429-0.982zM7.429 5.196v-1.759q-1.536 0.071-3.429 1.125v1.688q1.92-0.991 3.429-1.054zM14.857 9.33v-1.643q-2.098 1.036-3.429 0.634v-2q-0.179-0.054-0.348-0.134-0.045-0.027-0.295-0.152t-0.308-0.152-0.281-0.134-0.308-0.138-0.29-0.116-0.321-0.112-0.313-0.076-0.353-0.067-0.353-0.036-0.393-0.018q-0.205 0-0.438 0.027v1.982h0.17q0.911 0 1.719 0.259t1.763 0.732q0.17 0.080 0.348 0.134v1.679q0.375 0.152 0.813 0.152 1.071 0 2.616-0.821zM14.857 5.518v-1.688q-1.509 0.813-2.732 0.813-0.402 0-0.696-0.071v1.75q1.321 0.375 3.429-0.804zM2.857 2.286q0 0.313-0.156 0.571t-0.415 0.411v11.304q0 0.125-0.080 0.205t-0.205 0.080h-0.571q-0.125 0-0.205-0.080t-0.080-0.205v-11.304q-0.259-0.152-0.415-0.411t-0.156-0.571q0-0.473 0.335-0.808t0.808-0.335 0.808 0.335 0.335 0.808zM16 2.857v6.813q0 0.348-0.313 0.509-0.089 0.045-0.152 0.080-1.946 1.036-3.295 1.036-0.786 0-1.411-0.313l-0.25-0.125q-0.571-0.295-0.884-0.429t-0.813-0.259-1.018-0.125q-0.911 0-2.103 0.393t-2.040 0.911q-0.134 0.080-0.295 0.080-0.143 0-0.286-0.071-0.286-0.17-0.286-0.5v-6.625q0-0.313 0.277-0.491 0.313-0.188 0.701-0.379t1.018-0.464 1.362-0.442 1.384-0.17q1 0 1.866 0.277t1.866 0.768q0.339 0.17 0.795 0.17 1.089 0 2.768-1 0.196-0.107 0.277-0.152 0.277-0.143 0.554 0.018 0.277 0.179 0.277 0.491z"></path>
</svg>
