<?xml version="1.0" encoding="utf-8"?>
<!-- Generated by IcoMoon.io -->
<!DOCTYPE svg PUBLIC "-//W3C//DTD SVG 1.1//EN" "http://www.w3.org/Graphics/SVG/1.1/DTD/svg11.dtd">
<svg version="1.1" xmlns="http://www.w3.org/2000/svg" xmlns:xlink="http://www.w3.org/1999/xlink" width="14" height="16" viewBox="0 0 14 16">
<path fill="#444444" d="M11.143 1.143q1.063 0 1.817 0.754t0.754 1.817v8.571q0 1.063-0.754 1.817t-1.817 0.754h-8.571q-1.063 0-1.817-0.754t-0.754-1.817v-8.571q0-1.063 0.754-1.817t1.817-0.754h8.571zM6.232 8q0-0.786-0.554-1.339t-1.339-0.554-1.339 0.554-0.554 1.339 0.554 1.339 1.339 0.554 1.339-0.554 0.554-1.339zM11.268 8q0-0.786-0.554-1.339t-1.339-0.554-1.339 0.554-0.554 1.339 0.554 1.339 1.339 0.554 1.339-0.554 0.554-1.339z"></path>
</svg>
