<?xml version="1.0" encoding="utf-8"?>
<!-- Generated by IcoMoon.io -->
<!DOCTYPE svg PUBLIC "-//W3C//DTD SVG 1.1//EN" "http://www.w3.org/Graphics/SVG/1.1/DTD/svg11.dtd">
<svg version="1.1" xmlns="http://www.w3.org/2000/svg" xmlns:xlink="http://www.w3.org/1999/xlink" width="14" height="16" viewBox="0 0 14 16">
<path fill="#444444" d="M3.429 13.714h6.857v-3.429h-6.857v3.429zM11.429 13.714h1.143v-8q0-0.125-0.089-0.344t-0.179-0.308l-2.509-2.509q-0.089-0.089-0.304-0.179t-0.348-0.089v3.714q0 0.357-0.25 0.607t-0.607 0.25h-5.143q-0.357 0-0.607-0.25t-0.25-0.607v-3.714h-1.143v11.429h1.143v-3.714q0-0.357 0.25-0.607t0.607-0.25h7.429q0.357 0 0.607 0.25t0.25 0.607v3.714zM8 5.429v-2.857q0-0.116-0.085-0.201t-0.201-0.085h-1.714q-0.116 0-0.201 0.085t-0.085 0.201v2.857q0 0.116 0.085 0.201t0.201 0.085h1.714q0.116 0 0.201-0.085t0.085-0.201zM13.714 5.714v8.286q0 0.357-0.25 0.607t-0.607 0.25h-12q-0.357 0-0.607-0.25t-0.25-0.607v-12q0-0.357 0.25-0.607t0.607-0.25h8.286q0.357 0 0.786 0.179t0.679 0.429l2.5 2.5q0.25 0.25 0.429 0.679t0.179 0.786z"></path>
</svg>
