<?xml version="1.0" encoding="utf-8"?>
<!-- Generated by IcoMoon.io -->
<!DOCTYPE svg PUBLIC "-//W3C//DTD SVG 1.1//EN" "http://www.w3.org/Graphics/SVG/1.1/DTD/svg11.dtd">
<svg version="1.1" xmlns="http://www.w3.org/2000/svg" xmlns:xlink="http://www.w3.org/1999/xlink" width="15" height="16" viewBox="0 0 15 16">
<path fill="#444444" d="M13.714 11.714v-6.286q0-0.357-0.25-0.607t-0.607-0.25h-6.286q-0.357 0-0.607-0.25t-0.25-0.607v-0.571q0-0.357-0.25-0.607t-0.607-0.25h-2.857q-0.357 0-0.607 0.25t-0.25 0.607v8.571q0 0.357 0.25 0.607t0.607 0.25h10.857q0.357 0 0.607-0.25t0.25-0.607zM14.857 5.429v6.286q0 0.821-0.589 1.411t-1.411 0.589h-10.857q-0.821 0-1.411-0.589t-0.589-1.411v-8.571q0-0.821 0.589-1.411t1.411-0.589h2.857q0.821 0 1.411 0.589t0.589 1.411v0.286h6q0.821 0 1.411 0.589t0.589 1.411z"></path>
</svg>
