<?xml version="1.0" encoding="utf-8"?>
<!-- Generated by IcoMoon.io -->
<!DOCTYPE svg PUBLIC "-//W3C//DTD SVG 1.1//EN" "http://www.w3.org/Graphics/SVG/1.1/DTD/svg11.dtd">
<svg version="1.1" xmlns="http://www.w3.org/2000/svg" xmlns:xlink="http://www.w3.org/1999/xlink" width="17" height="16" viewBox="0 0 17 16">
<path fill="#444444" d="M15.902 8.313q0-0.313-0.473-0.313h-9.714q-0.357 0-0.763 0.192t-0.638 0.469l-2.625 3.241q-0.161 0.214-0.161 0.357 0 0.313 0.473 0.313h9.714q0.357 0 0.768-0.196t0.634-0.473l2.625-3.241q0.161-0.196 0.161-0.348zM5.714 6.857h6.857v-1.429q0-0.357-0.25-0.607t-0.607-0.25h-5.143q-0.357 0-0.607-0.25t-0.25-0.607v-0.571q0-0.357-0.25-0.607t-0.607-0.25h-2.857q-0.357 0-0.607 0.25t-0.25 0.607v7.616l2.286-2.813q0.393-0.473 1.036-0.781t1.25-0.308zM17.045 8.313q0 0.554-0.411 1.071l-2.634 3.241q-0.384 0.473-1.036 0.781t-1.25 0.308h-9.714q-0.821 0-1.411-0.589t-0.589-1.411v-8.571q0-0.821 0.589-1.411t1.411-0.589h2.857q0.821 0 1.411 0.589t0.589 1.411v0.286h4.857q0.821 0 1.411 0.589t0.589 1.411v1.429h1.714q0.482 0 0.884 0.219t0.598 0.629q0.134 0.286 0.134 0.607z"></path>
</svg>
