<?xml version="1.0" encoding="utf-8"?>
<!-- Generated by IcoMoon.io -->
<!DOCTYPE svg PUBLIC "-//W3C//DTD SVG 1.1//EN" "http://www.w3.org/Graphics/SVG/1.1/DTD/svg11.dtd">
<svg version="1.1" xmlns="http://www.w3.org/2000/svg" xmlns:xlink="http://www.w3.org/1999/xlink" width="17" height="16" viewBox="0 0 17 16">
<path fill="#444444" d="M16.777 8.5q0 0.277-0.277 0.589l-3 3.536q-0.384 0.455-1.076 0.772t-1.281 0.317h-9.714q-0.304 0-0.54-0.116t-0.237-0.384q0-0.277 0.277-0.589l3-3.536q0.384-0.455 1.076-0.772t1.281-0.317h9.714q0.304 0 0.54 0.116t0.237 0.384zM13.714 5.429v1.429h-7.429q-0.839 0-1.759 0.424t-1.464 1.067l-3.054 3.589q0-0.036-0.004-0.112t-0.004-0.112v-8.571q0-0.821 0.589-1.411t1.411-0.589h2.857q0.821 0 1.411 0.589t0.589 1.411v0.286h4.857q0.821 0 1.411 0.589t0.589 1.411z"></path>
</svg>
