<?xml version="1.0" encoding="utf-8"?>
<!-- Generated by IcoMoon.io -->
<!DOCTYPE svg PUBLIC "-//W3C//DTD SVG 1.1//EN" "http://www.w3.org/Graphics/SVG/1.1/DTD/svg11.dtd">
<svg version="1.1" xmlns="http://www.w3.org/2000/svg" xmlns:xlink="http://www.w3.org/1999/xlink" width="14" height="16" viewBox="0 0 14 16">
<path fill="#444444" d="M0 1.143h13.714v13.714h-13.714v-13.714zM8.107 4l-0.107 0.295 0.67 0.741-0.277 1.018 0.223 0.223 0.955-0.509 0.955 0.509 0.223-0.223-0.277-1.018 0.67-0.741-0.107-0.295h-0.848l-0.473-0.857h-0.286l-0.473 0.857h-0.848zM5.723 5.455q0.286 0 0.397 0.143t0.103 0.563l1.554-0.188q0-0.491-0.156-0.826t-0.451-0.5-0.616-0.228-0.759-0.063q-1.188 0-1.777 0.513t-0.589 1.629v0.643h-0.857v1.143h0.679q0.179 0 0.179 0.071v3.411q0 0.125-0.045 0.179t-0.161 0.063l-0.652 0.063v0.786h4v-0.768l-1.33-0.125q-0.054-0.009-0.076-0.013t-0.031-0.022-0.004-0.036 0.009-0.063 0.004-0.089v-3.455h1.705l0.339-1.143h-2.063q-0.054 0-0.018-0.054t0.036-0.080v-0.714q0-0.241 0.013-0.362t0.067-0.25 0.174-0.179 0.326-0.049zM11.143 12.857v-0.768l-0.482-0.080q-0.063-0.009-0.085-0.022t-0.022-0.027 0.009-0.067 0.009-0.107v-4.643h-2.455l-0.205 0.902 0.741 0.196q0.205 0.063 0.205 0.241v3.304q0 0.125-0.054 0.165t-0.179 0.058l-0.625 0.080v0.768h3.143z"></path>
</svg>
