<?xml version="1.0" encoding="utf-8"?>
<!-- Generated by IcoMoon.io -->
<!DOCTYPE svg PUBLIC "-//W3C//DTD SVG 1.1//EN" "http://www.w3.org/Graphics/SVG/1.1/DTD/svg11.dtd">
<svg version="1.1" xmlns="http://www.w3.org/2000/svg" xmlns:xlink="http://www.w3.org/1999/xlink" width="16" height="16" viewBox="0 0 16 16">
<path fill="#444444" d="M14.75 10.5h-1.345c-0.023-0.12-0.050-0.236-0.080-0.353l2.399-1.2c0.247-0.123 0.346-0.424 0.223-0.671-0.124-0.247-0.423-0.346-0.671-0.223l-2.289 1.144c-0.873-1.884-2.777-3.197-4.988-3.197-2.691 0-4.933 1.944-5.404 4.5h-1.345c-0.689 0-1.25 0.56-1.25 1.25 0 0.245 0.090 0.482 0.253 0.665l1.748 1.966v0.37c0 0.69 0.561 1.25 1.25 1.25h9.5c0.69 0 1.25-0.56 1.25-1.25v-0.37l1.747-1.966c0.163-0.183 0.253-0.419 0.253-0.665 0-0.69-0.56-1.25-1.25-1.25zM12.899 10.5h-0.281l0.249-0.125c0.009 0.042 0.023 0.082 0.032 0.125zM8 6.5c2.014 0 3.75 1.2 4.541 2.921l-0.445 0.223c-0.708-1.558-2.273-2.643-4.096-2.643-2.141 0-3.929 1.497-4.385 3.5h-0.514c0.465-2.28 2.484-4 4.899-4zM10.288 10.5c-0.386-0.881-1.265-1.5-2.288-1.5s-1.901 0.619-2.288 1.5h-0.537c0.413-1.163 1.522-2 2.825-2 1.232 0 2.294 0.748 2.754 1.813l-0.466 0.187zM8 10c-0.441 0-0.835 0.195-1.11 0.5h-0.612c0.347-0.595 0.985-1 1.722-1s1.375 0.405 1.722 1h-0.613c-0.274-0.305-0.668-0.5-1.109-0.5zM8 8c-1.582 0-2.921 1.056-3.353 2.5h-0.516c0.446-1.722 2.009-3 3.869-3 1.623 0 3.021 0.974 3.648 2.367l-0.447 0.223c-0.544-1.229-1.774-2.090-3.201-2.090zM13 14v0.75c0 0.138-0.113 0.25-0.25 0.25h-9.5c-0.138 0-0.25-0.112-0.25-0.25v-0.75l-2-2.25c0-0.138 0.112-0.25 0.25-0.25h13.5c0.137 0 0.25 0.112 0.25 0.25l-2 2.25zM3.989 5.856c-0.003-0.007-0.006-0.013-0.009-0.021-0.26-0.627-0.002-1.241 0.232-1.795 0.221-0.526 0.416-0.992 0.214-1.446-0.001-0.002-0.002-0.004-0.003-0.006s-0.001-0.003-0.002-0.005c-0-0.001-0-0.002-0-0.003-0.010-0.026-0.016-0.054-0.016-0.084 0-0.135 0.109-0.245 0.245-0.245 0.104 0 0.192 0.065 0.228 0.156 0.279 0.635 0.026 1.26-0.211 1.824-0.219 0.521-0.397 1.005-0.21 1.446 0.001 0.003 0.001 0.006 0 0.010 0.005 0.020 0.009 0.041 0.009 0.063 0 0.138-0.112 0.252-0.251 0.252-0.097 0-0.18-0.055-0.221-0.135-0.001 0-0.001 0-0.001 0-0.002-0.003-0.002-0.006-0.004-0.009zM10.077 5.783c-0.003-0.006-0.005-0.013-0.008-0.020-0.259-0.627-0.002-1.242 0.23-1.796 0.221-0.526 0.416-0.992 0.214-1.446 0-0.002-0.001-0.004-0.002-0.006s-0.001-0.003-0.002-0.005c0-0.001 0-0.002 0-0.003-0.009-0.026-0.017-0.054-0.017-0.084 0-0.135 0.11-0.245 0.245-0.245 0.104 0 0.193 0.065 0.229 0.156 0.279 0.635 0.025 1.26-0.211 1.824-0.219 0.521-0.396 1.005-0.21 1.446 0.002 0.003 0.002 0.006 0.001 0.010 0.005 0.020 0.009 0.041 0.009 0.063 0 0.138-0.114 0.252-0.252 0.252-0.097 0-0.18-0.056-0.222-0.136h-0.001c-0.001-0.003-0.002-0.006-0.004-0.009zM7.51 3.606c-0.003-0.007-0.006-0.014-0.010-0.021-0.26-0.627-0.002-1.242 0.231-1.796 0.221-0.526 0.416-0.992 0.214-1.446-0-0.002-0.002-0.004-0.002-0.006s-0.001-0.003-0.002-0.005c-0-0.001-0-0.002-0-0.003-0.010-0.027-0.016-0.054-0.016-0.085 0-0.135 0.11-0.245 0.245-0.245 0.104 0 0.193 0.065 0.229 0.157 0.279 0.635 0.025 1.26-0.211 1.823-0.219 0.521-0.397 1.005-0.21 1.446 0.001 0.003 0.001 0.006 0 0.010 0.005 0.020 0.009 0.041 0.009 0.063 0 0.139-0.112 0.252-0.251 0.252-0.096 0-0.179-0.055-0.221-0.135-0 0-0.001 0-0.001 0-0.002-0.003-0.003-0.006-0.004-0.009z"></path>
</svg>
