<?xml version="1.0" encoding="utf-8"?>
<!-- Generated by IcoMoon.io -->
<!DOCTYPE svg PUBLIC "-//W3C//DTD SVG 1.1//EN" "http://www.w3.org/Graphics/SVG/1.1/DTD/svg11.dtd">
<svg version="1.1" xmlns="http://www.w3.org/2000/svg" xmlns:xlink="http://www.w3.org/1999/xlink" width="15" height="16" viewBox="0 0 15 16">
<path fill="#444444" d="M5.714 9v-2q0-0.143-0.143-0.143h-0.857q-0.143 0-0.143 0.143v2q0 0.143 0.143 0.143h0.857q0.143 0 0.143-0.143zM10.286 9v-2q0-0.143-0.143-0.143h-0.857q-0.143 0-0.143 0.143v2q0 0.143 0.143 0.143h0.857q0.143 0 0.143-0.143zM14.857 9.286v6.714h-5.714v-2.857q0-0.714-0.5-1.214t-1.214-0.5-1.214 0.5-0.5 1.214v2.857h-5.714v-6.714q0-0.143 0.143-0.143h0.857q0.143 0 0.143 0.143v1h1.143v-5.571q0-0.143 0.143-0.143h0.857q0.143 0 0.143 0.143v1h1.143v-1q0-0.143 0.143-0.143h0.857q0.143 0 0.143 0.143v1h1.143v-1q0-0.143 0.143-0.143h0.143v-3.509q-0.286-0.17-0.286-0.491 0-0.232 0.17-0.402t0.402-0.17 0.402 0.17 0.17 0.402q0 0.321-0.286 0.491v0.080h2.429q0.143 0 0.143 0.143v2q0 0.143-0.143 0.143h-2.429v1.143h0.143q0.143 0 0.143 0.143v1h1.143v-1q0-0.143 0.143-0.143h0.857q0.143 0 0.143 0.143v1h1.143v-1q0-0.143 0.143-0.143h0.857q0.143 0 0.143 0.143v5.571h1.143v-1q0-0.143 0.143-0.143h0.857q0.143 0 0.143 0.143z"></path>
</svg>
