<?xml version="1.0" encoding="utf-8"?>
<!-- Generated by IcoMoon.io -->
<!DOCTYPE svg PUBLIC "-//W3C//DTD SVG 1.1//EN" "http://www.w3.org/Graphics/SVG/1.1/DTD/svg11.dtd">
<svg version="1.1" xmlns="http://www.w3.org/2000/svg" xmlns:xlink="http://www.w3.org/1999/xlink" width="14" height="16" viewBox="0 0 14 16">
<path fill="#444444" d="M8.339 1.339q-2.83 1.080-4.964 3.237t-3.196 5.004q-0.179-0.795-0.179-1.571 0-1.857 0.915-3.433t2.487-2.491 3.429-0.915q0.732 0 1.509 0.17zM10.741 2.402q0.83 0.58 1.464 1.384-3.473 1.009-6.022 3.576t-3.54 6.040q-0.83-0.643-1.384-1.446 1-3.446 3.527-5.991t5.955-3.563zM4.196 14.313q1.027-3.179 3.388-5.554t5.531-3.429q0.357 0.821 0.482 1.741-2.607 1.071-4.607 3.080t-3.063 4.625q-0.92-0.125-1.732-0.464zM13.714 14.83q-1.723-0.446-3.277-1.027-1.205 0.75-2.589 0.955 0.973-1.83 2.446-3.308t3.295-2.46q-0.188 1.357-0.902 2.536 0.58 1.563 1.027 3.304z"></path>
</svg>
