<?xml version="1.0" encoding="utf-8"?>
<!-- Generated by IcoMoon.io -->
<!DOCTYPE svg PUBLIC "-//W3C//DTD SVG 1.1//EN" "http://www.w3.org/Graphics/SVG/1.1/DTD/svg11.dtd">
<svg version="1.1" xmlns="http://www.w3.org/2000/svg" xmlns:xlink="http://www.w3.org/1999/xlink" width="11" height="16" viewBox="0 0 11 16">
<path fill="#444444" d="M8.929 3.875l0.33-1.732q0.045-0.205-0.080-0.357t-0.313-0.152h-6.357q-0.205 0-0.344 0.152t-0.138 0.33v9.83q0 0.063 0.054 0.009l2.598-3.143q0.205-0.232 0.339-0.299t0.429-0.067h2.134q0.196 0 0.33-0.129t0.161-0.263q0.214-1.161 0.33-1.705 0.036-0.188-0.103-0.357t-0.326-0.17h-2.625q-0.259 0-0.429-0.17t-0.17-0.429v-0.375q0-0.259 0.17-0.424t0.429-0.165h3.089q0.161 0 0.313-0.121t0.179-0.263zM10.955 1.893q-0.134 0.652-0.478 2.379t-0.621 3.125-0.313 1.549q-0.054 0.196-0.080 0.29t-0.125 0.29-0.219 0.295-0.344 0.188-0.518 0.089h-2.42q-0.116 0-0.196 0.089-0.071 0.080-3.804 4.411-0.196 0.223-0.522 0.254t-0.433-0.049q-0.491-0.196-0.491-0.875v-12.589q0-0.491 0.339-0.915t1.071-0.424h7.929q0.848 0 1.134 0.473t0.089 1.42zM10.955 1.893l-1.411 7.054q0.036-0.152 0.313-1.549t0.621-3.125 0.478-2.379z"></path>
</svg>
