<?xml version="1.0" encoding="utf-8"?>
<!-- Generated by IcoMoon.io -->
<!DOCTYPE svg PUBLIC "-//W3C//DTD SVG 1.1//EN" "http://www.w3.org/Graphics/SVG/1.1/DTD/svg11.dtd">
<svg version="1.1" xmlns="http://www.w3.org/2000/svg" xmlns:xlink="http://www.w3.org/1999/xlink" width="16" height="16" viewBox="0 0 16 16">
<path fill="#444444" d="M5.438 7.286l2.563-1.857 2.563 1.857-0.973 3h-3.17zM8 0q1.625 0 3.107 0.634t2.554 1.705 1.705 2.554 0.634 3.107-0.634 3.107-1.705 2.554-2.554 1.705-3.107 0.634-3.107-0.634-2.554-1.705-1.705-2.554-0.634-3.107 0.634-3.107 1.705-2.554 2.554-1.705 3.107-0.634zM13.527 12.054q1.33-1.813 1.33-4.054v-0.027l-0.911 0.795-2.143-2 0.563-2.884 1.196 0.107q-1.339-1.839-3.473-2.518l0.473 1.107-2.563 1.42-2.563-1.42 0.473-1.107q-2.134 0.679-3.473 2.518l1.205-0.107 0.554 2.884-2.143 2-0.911-0.795v0.027q0 2.241 1.33 4.054l0.268-1.179 2.911 0.357 1.241 2.661-1.036 0.616q1.045 0.348 2.143 0.348t2.143-0.348l-1.036-0.616 1.241-2.661 2.911-0.357z"></path>
</svg>
