<?xml version="1.0" encoding="utf-8"?>
<!-- Generated by IcoMoon.io -->
<!DOCTYPE svg PUBLIC "-//W3C//DTD SVG 1.1//EN" "http://www.w3.org/Graphics/SVG/1.1/DTD/svg11.dtd">
<svg version="1.1" xmlns="http://www.w3.org/2000/svg" xmlns:xlink="http://www.w3.org/1999/xlink" width="17" height="16" viewBox="0 0 17 16">
<path fill="#444444" d="M7.429 9.714v-1.143q0-0.125-0.080-0.205t-0.205-0.080h-1.714v-1.714q0-0.125-0.080-0.205t-0.205-0.080h-1.143q-0.125 0-0.205 0.080t-0.080 0.205v1.714h-1.714q-0.125 0-0.205 0.080t-0.080 0.205v1.143q0 0.125 0.080 0.205t0.205 0.080h1.714v1.714q0 0.125 0.080 0.205t0.205 0.080h1.143q0.125 0 0.205-0.080t0.080-0.205v-1.714h1.714q0.125 0 0.205-0.080t0.080-0.205zM12.571 10.286q0-0.473-0.335-0.808t-0.808-0.335-0.808 0.335-0.335 0.808 0.335 0.808 0.808 0.335 0.808-0.335 0.335-0.808zM14.857 8q0-0.473-0.335-0.808t-0.808-0.335-0.808 0.335-0.335 0.808 0.335 0.808 0.808 0.335 0.808-0.335 0.335-0.808zM17.143 9.143q0 1.893-1.339 3.232t-3.232 1.339q-1.714 0-3.018-1.143h-1.964q-1.304 1.143-3.018 1.143-1.893 0-3.232-1.339t-1.339-3.232 1.339-3.232 3.232-1.339h8q1.893 0 3.232 1.339t1.339 3.232z"></path>
</svg>
