<?xml version="1.0" encoding="utf-8"?>
<!-- Generated by IcoMoon.io -->
<!DOCTYPE svg PUBLIC "-//W3C//DTD SVG 1.1//EN" "http://www.w3.org/Graphics/SVG/1.1/DTD/svg11.dtd">
<svg version="1.1" xmlns="http://www.w3.org/2000/svg" xmlns:xlink="http://www.w3.org/1999/xlink" width="9" height="16" viewBox="0 0 9 16">
<path fill="#444444" d="M9.107 10.152v3.277q0 0.125-0.080 0.205t-0.205 0.080h-8.536q-0.125 0-0.205-0.080t-0.080-0.205v-1.339q0-0.116 0.085-0.201t0.201-0.085h0.866v-3.42h-0.848q-0.125 0-0.205-0.085t-0.080-0.201v-1.17q0-0.125 0.080-0.205t0.205-0.080h0.848v-1.991q0-1.527 1.103-2.518t2.808-0.991q1.652 0 2.991 1.116 0.080 0.071 0.089 0.183t-0.063 0.201l-0.92 1.134q-0.080 0.098-0.196 0.107-0.116 0.018-0.205-0.063-0.045-0.045-0.232-0.17t-0.616-0.286-0.83-0.161q-0.759 0-1.223 0.42t-0.464 1.098v1.92h2.723q0.116 0 0.201 0.080t0.085 0.205v1.17q0 0.116-0.085 0.201t-0.201 0.085h-2.723v3.384h3.696v-1.616q0-0.116 0.080-0.201t0.205-0.085h1.446q0.125 0 0.205 0.085t0.080 0.201z"></path>
</svg>
