<?xml version="1.0" encoding="utf-8"?>
<!-- Generated by IcoMoon.io -->
<!DOCTYPE svg PUBLIC "-//W3C//DTD SVG 1.1//EN" "http://www.w3.org/Graphics/SVG/1.1/DTD/svg11.dtd">
<svg version="1.1" xmlns="http://www.w3.org/2000/svg" xmlns:xlink="http://www.w3.org/1999/xlink" width="15" height="16" viewBox="0 0 15 16">
<path fill="#444444" d="M13.973 1.143q0.58 0 0.982 0.406t0.402 0.987v4.634q0 1.571-0.607 3t-1.629 2.455-2.446 1.629-2.987 0.603q-1.571 0-2.996-0.603t-2.451-1.629-1.634-2.455-0.607-3v-4.634q0-0.571 0.411-0.982t0.982-0.411h12.58zM7.688 10.643q0.42 0 0.732-0.295l3.607-3.464q0.33-0.313 0.33-0.759 0-0.438-0.308-0.746t-0.746-0.308q-0.42 0-0.732 0.295l-2.884 2.768-2.884-2.768q-0.313-0.295-0.723-0.295-0.438 0-0.746 0.308t-0.308 0.746q0 0.455 0.321 0.759l3.616 3.464q0.295 0.295 0.723 0.295z"></path>
</svg>
