<?xml version="1.0" encoding="utf-8"?>
<!-- Generated by IcoMoon.io -->
<!DOCTYPE svg PUBLIC "-//W3C//DTD SVG 1.1//EN" "http://www.w3.org/Graphics/SVG/1.1/DTD/svg11.dtd">
<svg version="1.1" xmlns="http://www.w3.org/2000/svg" xmlns:xlink="http://www.w3.org/1999/xlink" width="16" height="16" viewBox="0 0 16 16">
<path fill="#444444" d="M6.402 12.089l2.42-2.42-2.491-2.491-0.786 0.786 1.714 1.705-0.857 0.857-2.491-2.491 2.491-2.491 0.357 0.357 0.777-0.777-1.134-1.143-4.054 4.054zM9.598 12.018l4.054-4.054-4.054-4.054-2.42 2.42 2.491 2.491 0.786-0.786-1.714-1.705 0.857-0.857 2.491 2.491-2.491 2.491-0.357-0.357-0.777 0.786zM16 8q0 1.625-0.634 3.107t-1.705 2.554-2.554 1.705-3.107 0.634-3.107-0.634-2.554-1.705-1.705-2.554-0.634-3.107 0.634-3.107 1.705-2.554 2.554-1.705 3.107-0.634 3.107 0.634 2.554 1.705 1.705 2.554 0.634 3.107z"></path>
</svg>
