<?xml version="1.0" encoding="utf-8"?>
<!-- Generated by IcoMoon.io -->
<!DOCTYPE svg PUBLIC "-//W3C//DTD SVG 1.1//EN" "http://www.w3.org/Graphics/SVG/1.1/DTD/svg11.dtd">
<svg version="1.1" xmlns="http://www.w3.org/2000/svg" xmlns:xlink="http://www.w3.org/1999/xlink" width="14" height="16" viewBox="0 0 14 16">
<path fill="#444444" d="M8.286 12.107v-6.393h-2.857v6.393q0 0.223 0.161 0.344t0.411 0.121h1.714q0.25 0 0.411-0.121t0.161-0.344zM4.214 4.571h1.741l-1.125-1.438q-0.232-0.277-0.616-0.277-0.357 0-0.607 0.25t-0.25 0.607 0.25 0.607 0.607 0.25zM10.357 3.714q0-0.357-0.25-0.607t-0.607-0.25q-0.384 0-0.616 0.277l-1.116 1.438h1.732q0.357 0 0.607-0.25t0.25-0.607zM13.714 6v2.857q0 0.125-0.080 0.205t-0.205 0.080h-0.857v3.714q0 0.357-0.25 0.607t-0.607 0.25h-9.714q-0.357 0-0.607-0.25t-0.25-0.607v-3.714h-0.857q-0.125 0-0.205-0.080t-0.080-0.205v-2.857q0-0.125 0.080-0.205t0.205-0.080h3.929q-0.83 0-1.415-0.585t-0.585-1.415 0.585-1.415 1.415-0.585q0.955 0 1.5 0.688l1.143 1.473 1.143-1.473q0.545-0.688 1.5-0.688 0.83 0 1.415 0.585t0.585 1.415-0.585 1.415-1.415 0.585h3.929q0.125 0 0.205 0.080t0.080 0.205z"></path>
</svg>
