<?xml version="1.0" encoding="utf-8"?>
<!-- Generated by IcoMoon.io -->
<!DOCTYPE svg PUBLIC "-//W3C//DTD SVG 1.1//EN" "http://www.w3.org/Graphics/SVG/1.1/DTD/svg11.dtd">
<svg version="1.1" xmlns="http://www.w3.org/2000/svg" xmlns:xlink="http://www.w3.org/1999/xlink" width="14" height="16" viewBox="0 0 14 16">
<path fill="#444444" d="M5.196 11.679q0 0.589-0.83 0.589-0.955 0-0.955-0.563 0-0.571 0.875-0.571 0.911 0 0.911 0.545zM4.875 7.518q0 0.759-0.661 0.759-0.688 0-0.688-0.75 0-0.804 0.688-0.804 0.321 0 0.491 0.228t0.17 0.567zM6.357 6.848v-1.116q-0.696 0.259-1.205 0.259-0.446-0.259-0.982-0.259-0.768 0-1.295 0.509t-0.527 1.277q0 0.446 0.263 0.911t0.656 0.598v0.027q-0.339 0.152-0.339 0.759 0 0.473 0.366 0.688v0.027q-1.009 0.33-1.009 1.241 0 0.402 0.179 0.701t0.482 0.455 0.643 0.228 0.723 0.071q2 0 2-1.679 0-0.598-0.429-0.884t-1.125-0.411q-0.241-0.045-0.46-0.183t-0.219-0.353q0-0.393 0.438-0.464 0.688-0.134 1.089-0.625t0.402-1.196q0-0.214-0.089-0.464 0.33-0.080 0.438-0.116zM6.884 10.589h1.223q-0.018-0.241-0.018-0.732v-3.455q0-0.411 0.018-0.616h-1.223q0.027 0.205 0.027 0.634v3.5q0 0.446-0.027 0.67zM11.429 10.446v-1.080q-0.268 0.188-0.607 0.188-0.473 0-0.473-0.732v-2.009h0.464q0.080 0 0.237 0.009t0.237 0.009v-1.045h-0.938q0-0.732 0.027-0.911h-1.25q0.036 0.214 0.036 0.491v0.42h-0.536v1.045q0.321-0.027 0.33-0.027 0.027 0 0.098 0.004t0.107 0.004v0.018h-0.018v1.938q0 0.33 0.022 0.571t0.103 0.504 0.219 0.433 0.388 0.277 0.589 0.107q0.571 0 0.964-0.214zM8.25 4.143q0-0.321-0.214-0.567t-0.536-0.246-0.54 0.241-0.219 0.571q0 0.321 0.223 0.558t0.536 0.237 0.531-0.241 0.219-0.554zM13.714 3.714v8.571q0 1.063-0.754 1.817t-1.817 0.754h-8.571q-1.063 0-1.817-0.754t-0.754-1.817v-8.571q0-1.063 0.754-1.817t1.817-0.754h8.571q1.063 0 1.817 0.754t0.754 1.817z"></path>
</svg>
