<?xml version="1.0" encoding="utf-8"?>
<!-- Generated by IcoMoon.io -->
<!DOCTYPE svg PUBLIC "-//W3C//DTD SVG 1.1//EN" "http://www.w3.org/Graphics/SVG/1.1/DTD/svg11.dtd">
<svg version="1.1" xmlns="http://www.w3.org/2000/svg" xmlns:xlink="http://www.w3.org/1999/xlink" width="16" height="16" viewBox="0 0 16 16">
<path fill="#444444" d="M5.313 13.518q0-0.893-1.473-0.893-1.411 0-1.411 0.929 0 0.902 1.536 0.902 1.348 0 1.348-0.938zM4.786 6.777q0-0.545-0.268-0.911t-0.795-0.366q-1.107 0-1.107 1.295 0 1.205 1.107 1.205 1.063 0 1.063-1.223zM7.188 3.884v1.804q-0.321 0.107-0.705 0.196 0.143 0.384 0.143 0.75 0 1.134-0.652 1.933t-1.759 1.004q-0.357 0.071-0.531 0.241t-0.174 0.518q0 0.277 0.201 0.46t0.518 0.286 0.701 0.196 0.768 0.228 0.701 0.335 0.518 0.571 0.201 0.879q0 2.714-3.241 2.714-0.616 0-1.161-0.112t-1.036-0.366-0.781-0.732-0.29-1.138q0-1.473 1.625-2.009v-0.036q-0.598-0.366-0.598-1.125 0-0.973 0.563-1.223v-0.036q-0.643-0.214-1.067-0.969t-0.424-1.478q0-1.241 0.848-2.067t2.098-0.826q0.857 0 1.589 0.42 0.875 0 1.946-0.42zM10.027 11.75h-1.982q0.036-0.402 0.036-1.196v-5.438q0-0.839-0.036-1.143h1.982q-0.036 0.295-0.036 1.107v5.473q0 0.795 0.036 1.196zM15.393 9.768v1.75q-0.634 0.348-1.554 0.348-0.554 0-0.955-0.179t-0.625-0.446-0.353-0.696-0.165-0.821-0.036-0.92v-3.134h0.018v-0.036q-0.063 0-0.17-0.009t-0.161-0.009q-0.188 0-0.527 0.054v-1.696h0.857v-0.679q0-0.482-0.054-0.795h2.027q-0.054 0.366-0.054 1.473h1.527v1.696q-0.134 0-0.388-0.018t-0.379-0.018h-0.759v3.259q0 1.17 0.777 1.17 0.545 0 0.973-0.295zM10.25 1.313q0 0.518-0.348 0.906t-0.857 0.388q-0.518 0-0.875-0.388t-0.357-0.906q0-0.527 0.353-0.92t0.879-0.393q0.518 0 0.862 0.397t0.344 0.915z"></path>
</svg>
