<?xml version="1.0" encoding="utf-8"?>
<!-- Generated by IcoMoon.io -->
<!DOCTYPE svg PUBLIC "-//W3C//DTD SVG 1.1//EN" "http://www.w3.org/Graphics/SVG/1.1/DTD/svg11.dtd">
<svg version="1.1" xmlns="http://www.w3.org/2000/svg" xmlns:xlink="http://www.w3.org/1999/xlink" width="14" height="16" viewBox="0 0 14 16">
<path fill="#444444" d="M3.518 12.071q-0.071 0.080-0.179-0.027-0.116-0.098-0.036-0.17 0.071-0.080 0.179 0.027 0.107 0.098 0.036 0.17zM3.143 11.527q0.080 0.107 0 0.17-0.071 0.054-0.152-0.063t0-0.161q0.080-0.063 0.152 0.054zM2.598 10.991q-0.045 0.063-0.116 0.018-0.089-0.045-0.063-0.107 0.027-0.045 0.116-0.018 0.089 0.045 0.063 0.107zM2.875 11.295q-0.054 0.063-0.143-0.027-0.080-0.098-0.018-0.143 0.054-0.054 0.143 0.027 0.080 0.098 0.018 0.143zM4.027 12.295q-0.036 0.107-0.17 0.054-0.152-0.036-0.116-0.134t0.17-0.063q0.143 0.045 0.116 0.143zM4.589 12.339q0 0.098-0.143 0.098-0.152 0.018-0.152-0.098 0-0.098 0.143-0.098 0.152-0.018 0.152 0.098zM5.107 12.25q0.018 0.089-0.125 0.125t-0.161-0.071 0.125-0.134q0.143-0.018 0.161 0.080zM13.714 3.714v8.571q0 1.063-0.754 1.817t-1.817 0.754h-2q-0.143 0-0.219-0.009t-0.174-0.045-0.143-0.129-0.045-0.246v-2.134q0-0.866-0.464-1.268 0.509-0.054 0.915-0.161t0.839-0.348 0.723-0.594 0.473-0.938 0.183-1.344q0-1.080-0.705-1.839 0.33-0.813-0.071-1.821-0.25-0.080-0.723 0.098t-0.821 0.393l-0.339 0.214q-0.83-0.232-1.714-0.232t-1.714 0.232q-0.143-0.098-0.379-0.241t-0.746-0.344-0.768-0.121q-0.393 1.009-0.063 1.821-0.705 0.759-0.705 1.839 0 0.759 0.183 1.339t0.469 0.938 0.719 0.598 0.839 0.348 0.915 0.161q-0.357 0.321-0.438 0.92-0.188 0.089-0.402 0.134t-0.509 0.045-0.585-0.192-0.496-0.558q-0.17-0.286-0.433-0.464t-0.442-0.214l-0.179-0.027q-0.188 0-0.259 0.040t-0.045 0.103 0.080 0.125 0.116 0.107l0.063 0.045q0.196 0.089 0.388 0.339t0.281 0.455l0.089 0.205q0.116 0.339 0.393 0.549t0.598 0.268 0.621 0.063 0.496-0.031l0.205-0.036q0 0.339 0.004 0.92t0.004 0.607q0 0.196-0.098 0.299t-0.196 0.116-0.295 0.013h-2q-1.063 0-1.817-0.754t-0.754-1.817v-8.571q0-1.063 0.754-1.817t1.817-0.754h8.571q1.063 0 1.817 0.754t0.754 1.817z"></path>
</svg>
