<?xml version="1.0" encoding="utf-8"?>
<!-- Generated by IcoMoon.io -->
<!DOCTYPE svg PUBLIC "-//W3C//DTD SVG 1.1//EN" "http://www.w3.org/Graphics/SVG/1.1/DTD/svg11.dtd">
<svg version="1.1" xmlns="http://www.w3.org/2000/svg" xmlns:xlink="http://www.w3.org/1999/xlink" width="15" height="16" viewBox="0 0 15 16">
<path fill="#444444" d="M5.714 10.857q0 0.357-0.112 0.732t-0.384 0.679-0.647 0.304-0.647-0.304-0.384-0.679-0.112-0.732 0.112-0.732 0.384-0.679 0.647-0.304 0.647 0.304 0.384 0.679 0.112 0.732zM11.429 10.857q0 0.357-0.112 0.732t-0.384 0.679-0.647 0.304-0.647-0.304-0.384-0.679-0.112-0.732 0.112-0.732 0.384-0.679 0.647-0.304 0.647 0.304 0.384 0.679 0.112 0.732zM12.857 10.857q0-1.071-0.616-1.821t-1.67-0.75q-0.366 0-1.741 0.188-0.634 0.098-1.402 0.098t-1.402-0.098q-1.357-0.188-1.741-0.188-1.054 0-1.67 0.75t-0.616 1.821q0 0.786 0.286 1.371t0.723 0.92 1.089 0.536 1.25 0.263 1.33 0.063h1.5q0.732 0 1.33-0.063t1.25-0.263 1.089-0.536 0.723-0.92 0.286-1.371zM14.857 9.286q0 1.848-0.545 2.955-0.339 0.688-0.942 1.188t-1.259 0.768-1.518 0.424-1.531 0.196-1.491 0.040q-0.696 0-1.268-0.027t-1.317-0.112-1.362-0.268-1.223-0.46-1.080-0.723-0.768-1.027q-0.554-1.098-0.554-2.955 0-2.116 1.214-3.536-0.241-0.732-0.241-1.518 0-1.036 0.455-1.946 0.964 0 1.696 0.353t1.687 1.103q1.313-0.313 2.759-0.313 1.321 0 2.5 0.286 0.938-0.732 1.67-1.080t1.688-0.348q0.455 0.911 0.455 1.946 0 0.777-0.241 1.5 1.214 1.429 1.214 3.554z"></path>
</svg>
