<?xml version="1.0" encoding="utf-8"?>
<!-- Generated by IcoMoon.io -->
<!DOCTYPE svg PUBLIC "-//W3C//DTD SVG 1.1//EN" "http://www.w3.org/Graphics/SVG/1.1/DTD/svg11.dtd">
<svg version="1.1" xmlns="http://www.w3.org/2000/svg" xmlns:xlink="http://www.w3.org/1999/xlink" width="14" height="16" viewBox="0 0 14 16">
<path fill="#444444" d="M6.902 11.625l3.125-4.223q0.143-0.196 0.219-0.527t-0.054-0.759-0.549-0.705q-0.357-0.232-0.741-0.228t-0.656 0.156-0.487 0.402q-0.321 0.357-0.857 0.357-0.527 0-0.848-0.357-0.214-0.25-0.487-0.402t-0.656-0.156-0.75 0.228q-0.411 0.277-0.54 0.705t-0.054 0.759 0.219 0.527zM13.714 8q0 1.866-0.92 3.442t-2.496 2.496-3.442 0.92-3.442-0.92-2.496-2.496-0.92-3.442 0.92-3.442 2.496-2.496 3.442-0.92 3.442 0.92 2.496 2.496 0.92 3.442z"></path>
</svg>
