<?xml version="1.0" encoding="utf-8"?>
<!-- Generated by IcoMoon.io -->
<!DOCTYPE svg PUBLIC "-//W3C//DTD SVG 1.1//EN" "http://www.w3.org/Graphics/SVG/1.1/DTD/svg11.dtd">
<svg version="1.1" xmlns="http://www.w3.org/2000/svg" xmlns:xlink="http://www.w3.org/1999/xlink" width="14" height="16" viewBox="0 0 14 16">
<path fill="#444444" d="M8.188 8.080q0-0.232-0.054-0.571h-3.232v1.179h1.938q-0.027 0.214-0.147 0.446t-0.335 0.473-0.594 0.397-0.862 0.156q-0.884 0-1.509-0.634t-0.625-1.527 0.625-1.527 1.509-0.634q0.821 0 1.366 0.527l0.929-0.902q-0.964-0.893-2.295-0.893-1.429 0-2.429 1.004t-1 2.424 1 2.424 2.429 1.004q1.473 0 2.379-0.938t0.906-2.411zM11.268 8.491h0.973v-0.982h-0.973v-0.982h-0.982v0.982h-0.982v0.982h0.982v0.982h0.982v-0.982zM13.714 3.714v8.571q0 1.063-0.754 1.817t-1.817 0.754h-8.571q-1.063 0-1.817-0.754t-0.754-1.817v-8.571q0-1.063 0.754-1.817t1.817-0.754h8.571q1.063 0 1.817 0.754t0.754 1.817z"></path>
</svg>
