<?xml version="1.0" encoding="utf-8"?>
<!-- Generated by IcoMoon.io -->
<!DOCTYPE svg PUBLIC "-//W3C//DTD SVG 1.1//EN" "http://www.w3.org/Graphics/SVG/1.1/DTD/svg11.dtd">
<svg version="1.1" xmlns="http://www.w3.org/2000/svg" xmlns:xlink="http://www.w3.org/1999/xlink" width="16" height="16" viewBox="0 0 16 16">
<path fill="#444444" d="M5.375 5.241q0.17 0.545 0.277 1.103t0.152 1.263-0.125 1.42-0.554 1.295q-0.188-0.723-0.598-1.402t-0.853-1.134-0.884-0.808-0.701-0.513-0.295-0.17q-0.554-0.304-0.728-0.893t0.129-1.143 0.902-0.728 1.152 0.129q1.232 0.741 2.125 1.58zM8.277 2.679q0.098 0.223 0.183 0.411t0.326 0.897 0.379 1.344 0.228 1.603 0 1.835-0.424 1.871-0.942 1.862q-0.455 0.643-1.232 0.643-0.482 0-0.875-0.277-0.509-0.357-0.616-0.973t0.25-1.134q0.536-0.759 0.723-1.741t0.116-1.781-0.286-1.612-0.348-1.143-0.196-0.464q-0.277-0.563-0.076-1.156t0.763-0.871q0.304-0.152 0.67-0.152 0.42 0 0.79 0.223t0.567 0.616zM11.143 8.652q-0.152 1.429-0.643 2.777-0.152-1.17-0.563-2.196 0.223-1.554-0.045-3.223-0.241-1.589-0.839-3.054 1.018 0.804 1.893 1.884 0.080 0.33 0.134 0.714 0.232 1.598 0.063 3.098zM13.571 0.857q0.080 0.152 0.21 0.442t0.388 1.049 0.451 1.589 0.304 2.031 0.045 2.402-0.42 2.679-1.004 2.888q-0.196 0.429-0.589 0.674t-0.848 0.246q-0.348 0-0.661-0.143-0.598-0.277-0.826-0.893t0.040-1.214q0.518-1.125 0.804-2.299t0.335-2.138-0.031-1.906-0.237-1.612-0.344-1.237-0.29-0.804-0.138-0.29q-0.304-0.58-0.103-1.21t0.781-0.933q0.33-0.179 0.723-0.179 0.438 0 0.817 0.228t0.594 0.629z"></path>
</svg>
