<?xml version="1.0" encoding="utf-8"?>
<!-- Generated by IcoMoon.io -->
<!DOCTYPE svg PUBLIC "-//W3C//DTD SVG 1.1//EN" "http://www.w3.org/Graphics/SVG/1.1/DTD/svg11.dtd">
<svg version="1.1" xmlns="http://www.w3.org/2000/svg" xmlns:xlink="http://www.w3.org/1999/xlink" width="21" height="16" viewBox="0 0 21 16">
<path fill="#444444" d="M12.83 8.152q0 1.857-0.777 3.308t-2.214 2.268-3.295 0.817q-1.33 0-2.545-0.518t-2.089-1.393-1.393-2.089-0.518-2.545 0.518-2.545 1.393-2.089 2.089-1.393 2.545-0.518q2.554 0 4.384 1.714l-1.777 1.705q-1.045-1.009-2.607-1.009-1.098 0-2.031 0.554t-1.478 1.504-0.545 2.076 0.545 2.076 1.478 1.504 2.031 0.554q0.741 0 1.362-0.205t1.022-0.513 0.701-0.701 0.438-0.741 0.192-0.661h-3.714v-2.25h6.179q0.107 0.563 0.107 1.089zM20.571 7.063v1.875h-1.866v1.866h-1.875v-1.866h-1.866v-1.875h1.866v-1.866h1.875v1.866h1.866z"></path>
</svg>
