<?xml version="1.0" encoding="utf-8"?>
<!-- Generated by IcoMoon.io -->
<!DOCTYPE svg PUBLIC "-//W3C//DTD SVG 1.1//EN" "http://www.w3.org/Graphics/SVG/1.1/DTD/svg11.dtd">
<svg version="1.1" xmlns="http://www.w3.org/2000/svg" xmlns:xlink="http://www.w3.org/1999/xlink" width="13" height="16" viewBox="0 0 13 16">
<path fill="#444444" d="M6.857 7.018h6.473q0.107 0.598 0.107 1.143 0 1.938-0.813 3.46t-2.317 2.379-3.451 0.857q-1.402 0-2.67-0.54t-2.188-1.46-1.46-2.188-0.54-2.67 0.54-2.67 1.46-2.188 2.188-1.46 2.67-0.54q2.679 0 4.598 1.795l-1.866 1.795q-1.098-1.063-2.732-1.063-1.152 0-2.129 0.58t-1.549 1.576-0.571 2.174 0.571 2.174 1.549 1.576 2.129 0.58q0.777 0 1.429-0.214t1.071-0.536 0.732-0.732 0.46-0.777 0.201-0.696h-3.893v-2.357z"></path>
</svg>
