<?xml version="1.0" encoding="utf-8"?>
<!-- Generated by IcoMoon.io -->
<!DOCTYPE svg PUBLIC "-//W3C//DTD SVG 1.1//EN" "http://www.w3.org/Graphics/SVG/1.1/DTD/svg11.dtd">
<svg version="1.1" xmlns="http://www.w3.org/2000/svg" xmlns:xlink="http://www.w3.org/1999/xlink" width="21" height="16" viewBox="0 0 21 16">
<path fill="#444444" d="M15.839 7.464l0.161 2.821q0.036 0.616-0.732 1.143t-2.098 0.835-2.884 0.308-2.884-0.308-2.098-0.835-0.732-1.143l0.161-2.821 5.125 1.616q0.196 0.063 0.429 0.063t0.429-0.063zM20.571 4.571q0 0.205-0.196 0.277l-10 3.143q-0.036 0.009-0.089 0.009t-0.089-0.009l-5.821-1.839q-0.384 0.304-0.634 0.996t-0.304 1.594q0.563 0.321 0.563 0.973 0 0.616-0.518 0.955l0.518 3.866q0.018 0.125-0.071 0.223-0.080 0.098-0.214 0.098h-1.714q-0.134 0-0.214-0.098-0.089-0.098-0.071-0.223l0.518-3.866q-0.518-0.339-0.518-0.955 0-0.652 0.58-0.991 0.098-1.848 0.875-2.946l-2.973-0.929q-0.196-0.071-0.196-0.277t0.196-0.277l10-3.143q0.036-0.009 0.089-0.009t0.089 0.009l10 3.143q0.196 0.071 0.196 0.277z"></path>
</svg>
