<?xml version="1.0" encoding="utf-8"?>
<!-- Generated by IcoMoon.io -->
<!DOCTYPE svg PUBLIC "-//W3C//DTD SVG 1.1//EN" "http://www.w3.org/Graphics/SVG/1.1/DTD/svg11.dtd">
<svg version="1.1" xmlns="http://www.w3.org/2000/svg" xmlns:xlink="http://www.w3.org/1999/xlink" width="14" height="16" viewBox="0 0 14 16">
<path fill="#444444" d="M11.429 14.286q0-0.232-0.17-0.402t-0.402-0.17-0.402 0.17-0.17 0.402 0.17 0.402 0.402 0.17 0.402-0.17 0.17-0.402zM12.571 7.464q0-1.688-1.491-1.688-0.232 0-0.5 0.045-0.143-0.268-0.469-0.424t-0.656-0.156-0.616 0.161q-0.446-0.473-1.063-0.473-0.223 0-0.496 0.089t-0.424 0.223v-2.955q0-0.464-0.339-0.804t-0.804-0.339q-0.455 0-0.799 0.348t-0.344 0.795v5.143q-0.179 0-0.433-0.134t-0.491-0.295-0.607-0.295-0.754-0.134q-0.598 0-0.871 0.397t-0.272 1.031q0 0.214 1.241 0.804 0.393 0.214 0.58 0.33 0.571 0.357 1.295 1 0.723 0.634 0.946 0.902 0.509 0.616 0.509 1.25v0.286h5.714v-0.286q0-0.643 0.286-1.491t0.571-1.728 0.286-1.603zM13.714 7.42q0 1.187-0.616 2.875-0.527 1.464-0.527 1.991v2.571q0 0.473-0.335 0.808t-0.808 0.335h-5.714q-0.473 0-0.808-0.335t-0.335-0.808v-2.571q0-0.089-0.040-0.192t-0.125-0.21-0.161-0.201-0.201-0.214-0.192-0.183-0.192-0.17-0.152-0.125q-0.661-0.58-1.152-0.893-0.188-0.116-0.554-0.295t-0.643-0.33-0.563-0.362-0.442-0.491-0.156-0.621q0-1.116 0.598-1.844t1.688-0.728q0.607 0 1.143 0.196v-3.339q0-0.929 0.679-1.607t1.598-0.679q0.938 0 1.616 0.674t0.679 1.612v1.509q0.554 0.036 1.063 0.33 0.188-0.027 0.384-0.027 0.902 0 1.589 0.536 1.241-0.009 1.96 0.759t0.719 2.027z"></path>
</svg>
