<?xml version="1.0" encoding="utf-8"?>
<!-- Generated by IcoMoon.io -->
<!DOCTYPE svg PUBLIC "-//W3C//DTD SVG 1.1//EN" "http://www.w3.org/Graphics/SVG/1.1/DTD/svg11.dtd">
<svg version="1.1" xmlns="http://www.w3.org/2000/svg" xmlns:xlink="http://www.w3.org/1999/xlink" width="15" height="16" viewBox="0 0 15 16">
<path fill="#444444" d="M7.857 1.143q-0.411 0-0.705 0.295t-0.295 0.705v5.857h-0.286v-4.714q0-0.411-0.295-0.705t-0.705-0.295-0.705 0.295-0.295 0.705v7l-1.375-1.83q-0.339-0.455-0.911-0.455-0.473 0-0.808 0.335t-0.335 0.808q0 0.384 0.232 0.688l3.429 4.571q0.339 0.455 0.911 0.455h6.143q0.304 0 0.545-0.196t0.304-0.5l0.679-3.616q0.045-0.286 0.045-0.527v-4.446q0-0.411-0.295-0.705t-0.705-0.295-0.705 0.295-0.295 0.705v2.429h-0.286v-4.714q0-0.411-0.295-0.705t-0.705-0.295-0.705 0.295-0.295 0.705v4.714h-0.286v-5.857q0-0.411-0.295-0.705t-0.705-0.295zM7.857 0q0.607 0 1.121 0.317t0.79 0.862q0.17-0.036 0.375-0.036 0.884 0 1.513 0.629t0.629 1.513v0.152q0.938-0.054 1.612 0.571t0.674 1.563v4.446q0 0.357-0.071 0.741l-0.679 3.607q-0.125 0.705-0.683 1.17t-1.281 0.464h-6.143q-0.536 0-1.022-0.246t-0.808-0.665l-3.429-4.571q-0.455-0.607-0.455-1.375 0-0.946 0.67-1.616t1.616-0.67q0.696 0 1.143 0.304v-3.875q0-0.884 0.629-1.513t1.513-0.629q0.205 0 0.375 0.036 0.277-0.545 0.79-0.862t1.121-0.317z"></path>
</svg>
