<?xml version="1.0" encoding="utf-8"?>
<!-- Generated by IcoMoon.io -->
<!DOCTYPE svg PUBLIC "-//W3C//DTD SVG 1.1//EN" "http://www.w3.org/Graphics/SVG/1.1/DTD/svg11.dtd">
<svg version="1.1" xmlns="http://www.w3.org/2000/svg" xmlns:xlink="http://www.w3.org/1999/xlink" width="16" height="16" viewBox="0 0 16 16">
<path fill="#444444" d="M2.286 12q0-0.232-0.17-0.402t-0.402-0.17-0.402 0.17-0.17 0.402 0.17 0.402 0.402 0.17 0.402-0.17 0.17-0.402zM14.857 6.857q0-0.455-0.348-0.799t-0.795-0.344h-5.143q0-0.179 0.134-0.433t0.295-0.491 0.295-0.607 0.134-0.754q0-0.598-0.397-0.871t-1.031-0.272q-0.214 0-0.804 1.241-0.214 0.393-0.33 0.58-0.357 0.571-1 1.295-0.634 0.723-0.902 0.946-0.616 0.509-1.25 0.509h-0.286v5.714h0.286q0.643 0 1.491 0.286t1.728 0.571 1.603 0.286q1.688 0 1.688-1.491 0-0.232-0.045-0.5 0.268-0.143 0.424-0.469t0.156-0.656-0.161-0.616q0.473-0.446 0.473-1.063 0-0.223-0.089-0.496t-0.223-0.424h2.955q0.464 0 0.804-0.339t0.339-0.804zM16 6.848q0 0.938-0.674 1.616t-1.612 0.679h-1.509q-0.036 0.554-0.33 1.063 0.027 0.188 0.027 0.384 0 0.902-0.536 1.589 0.009 1.241-0.759 1.96t-2.027 0.719q-1.188 0-2.875-0.616-1.464-0.527-1.991-0.527h-2.571q-0.473 0-0.808-0.335t-0.335-0.808v-5.714q0-0.473 0.335-0.808t0.808-0.335h2.571q0.089 0 0.192-0.040t0.21-0.125 0.201-0.161 0.214-0.201 0.183-0.192 0.17-0.192 0.125-0.152q0.58-0.661 0.893-1.152 0.116-0.188 0.295-0.554t0.33-0.643 0.362-0.563 0.491-0.442 0.621-0.156q1.116 0 1.844 0.598t0.728 1.688q0 0.607-0.196 1.143h3.339q0.929 0 1.607 0.679t0.679 1.598z"></path>
</svg>
