<?xml version="1.0" encoding="utf-8"?>
<!-- Generated by IcoMoon.io -->
<!DOCTYPE svg PUBLIC "-//W3C//DTD SVG 1.1//EN" "http://www.w3.org/Graphics/SVG/1.1/DTD/svg11.dtd">
<svg version="1.1" xmlns="http://www.w3.org/2000/svg" xmlns:xlink="http://www.w3.org/1999/xlink" width="18" height="16" viewBox="0 0 18 16">
<path fill="#444444" d="M10.277 0q0.545 0 1.036 0.25t0.813 0.688l5.107 6.973q1.054 1.42 1.054 3.205v3.17q0 0.714-0.5 1.214t-1.214 0.5h-3.429q-0.714 0-1.214-0.5t-0.5-1.214v-1.58l-2.554-1.277h-4.875q-0.714 0-1.214-0.5t-0.5-1.214v-0.286q0-1.063 0.754-1.817t1.817-0.754h3.75l0.375-1.143h-6.125q-0.893 0-1.549-0.603t-0.728-1.487q-0.58-0.705-0.58-1.625v-0.286q0-0.714 0.5-1.214t1.214-0.5h8.563zM17.143 14.286v-3.17q0-1.402-0.83-2.536l-5.116-6.973q-0.348-0.464-0.92-0.464h-8.563q-0.232 0-0.402 0.17t-0.17 0.402q0 0.286 0.013 0.442t0.085 0.362 0.223 0.384q0.089-0.277 0.317-0.446t0.504-0.17h7.429v0.286h-7.429q-0.232 0-0.402 0.17t-0.17 0.402q0 0.393 0.027 0.518 0.071 0.393 0.393 0.652t0.723 0.259h6.527q0.357 0 0.607 0.25t0.25 0.607q0 0.134-0.045 0.268l-0.571 1.714q-0.089 0.259-0.313 0.424t-0.5 0.165h-3.955q-0.589 0-1.009 0.42t-0.42 1.009v0.286q0 0.232 0.17 0.402t0.402 0.17h5.009q0.143 0 0.259 0.063l2.83 1.411q0.214 0.116 0.344 0.321t0.129 0.446v1.759q0 0.232 0.17 0.402t0.402 0.17h3.429q0.232 0 0.402-0.17t0.17-0.402z"></path>
</svg>
