<?xml version="1.0" encoding="utf-8"?>
<!-- Generated by IcoMoon.io -->
<!DOCTYPE svg PUBLIC "-//W3C//DTD SVG 1.1//EN" "http://www.w3.org/Graphics/SVG/1.1/DTD/svg11.dtd">
<svg version="1.1" xmlns="http://www.w3.org/2000/svg" xmlns:xlink="http://www.w3.org/1999/xlink" width="16" height="16" viewBox="0 0 16 16">
<path fill="#444444" d="M9.58 14.857h-1.58q-1.455 0-2.018-1.259-0.205-0.438-0.205-0.911v-0.045q-0.554-0.268-0.879-0.79t-0.326-1.138q0-0.339 0.045-0.429h-2.33q-0.946 0-1.616-0.67t-0.67-1.616 0.67-1.616 1.616-0.67h1.009l-0.393-0.152q-0.661-0.25-1.067-0.835t-0.406-1.299q0-0.946 0.67-1.616t1.616-0.67q0.411 0 0.813 0.152l5.607 2.134h3.58q0.946 0 1.616 0.67t0.67 1.616v5.964q0 0.786-0.482 1.406t-1.25 0.808l-3.027 0.759q-0.821 0.205-1.661 0.205zM9.143 8.509l-1.384 0.634-1.455 0.661q-0.268 0.125-0.429 0.371t-0.161 0.54q0 0.411 0.295 0.705t0.705 0.295q0.232 0 0.411-0.089l3.018-1.375q-0.438-0.089-0.719-0.446t-0.281-0.804v-0.491zM12 11.286q0-0.411-0.295-0.705t-0.705-0.295q-0.232 0-0.411 0.089l-2.589 1.179q-0.25 0.116-0.33 0.152t-0.272 0.152-0.263 0.21-0.143 0.259-0.071 0.362q0 0.446 0.281 0.732t0.728 0.286q0.179 0 0.339-0.080l3.143-1.429q0.268-0.125 0.429-0.371t0.161-0.54zM9.929 4.571l-5.804-2.214q-0.214-0.071-0.411-0.071-0.473 0-0.808 0.335t-0.335 0.808q0 0.357 0.201 0.652t0.531 0.42l4.696 1.786v0.571h-5.714q-0.473 0-0.808 0.335t-0.335 0.808 0.335 0.808 0.808 0.335h4.777l2.080-0.946v-1.768q0-0.563 0.411-0.946l0.991-0.911h-0.616zM9.58 13.714q0.732 0 1.384-0.17l3.027-0.759q0.384-0.098 0.625-0.406t0.241-0.701v-5.964q0-0.473-0.335-0.808t-0.808-0.335h-2.75l-1.214 1.125q-0.321 0.295-0.321 0.732v2.643q0 0.411 0.295 0.688t0.705 0.277 0.705-0.313 0.295-0.723v-1.857h0.286v1.857q0 0.625-0.509 1.018 0.464 0.071 0.772 0.433t0.308 0.835q0 0.375-0.205 0.696t-0.545 0.473l-2.768 1.259h0.813z"></path>
</svg>
