<?xml version="1.0" encoding="utf-8"?>
<!-- Generated by IcoMoon.io -->
<!DOCTYPE svg PUBLIC "-//W3C//DTD SVG 1.1//EN" "http://www.w3.org/Graphics/SVG/1.1/DTD/svg11.dtd">
<svg version="1.1" xmlns="http://www.w3.org/2000/svg" xmlns:xlink="http://www.w3.org/1999/xlink" width="14" height="16" viewBox="0 0 14 16">
<path fill="#444444" d="M12.571 8.571q0-0.75-0.286-1.634t-0.571-1.732-0.286-1.491v-0.286h-5.714v0.286q0 0.313-0.107 0.603t-0.33 0.558-0.411 0.446-0.482 0.438q-0.080 0.071-0.125 0.107-0.723 0.643-1.295 1-0.196 0.125-0.607 0.339-0.027 0.009-0.201 0.094t-0.321 0.165-0.317 0.179-0.272 0.192-0.103 0.165q0 0.634 0.272 1.031t0.871 0.397q0.384 0 0.754-0.134t0.607-0.295 0.491-0.295 0.433-0.134v5.143q0 0.446 0.344 0.795t0.799 0.348q0.464 0 0.804-0.339t0.339-0.804v-2.955q0.411 0.313 0.92 0.313 0.616 0 1.063-0.473 0.286 0.161 0.616 0.161t0.656-0.156 0.469-0.424q0.214 0.036 0.5 0.036 0.759 0 1.125-0.433t0.366-1.21zM11.429 1.714q0-0.232-0.17-0.402t-0.402-0.17-0.402 0.17-0.17 0.402 0.17 0.402 0.402 0.17 0.402-0.17 0.17-0.402zM13.714 8.536q0 1.268-0.692 2.054t-1.942 0.777l-0.045-0.009q-0.679 0.545-1.589 0.545-0.196 0-0.384-0.027-0.482 0.268-1.063 0.33v1.509q0 0.938-0.679 1.612t-1.616 0.674q-0.92 0-1.598-0.679t-0.679-1.607v-3.339q-0.482 0.196-1.143 0.196-1.080 0-1.683-0.728t-0.603-1.844q0-0.339 0.156-0.621t0.442-0.491 0.563-0.362 0.643-0.33 0.554-0.295q0.491-0.313 1.152-0.893 0.027-0.018 0.152-0.125t0.192-0.17 0.192-0.183 0.201-0.214 0.161-0.201 0.125-0.21 0.040-0.192v-2.571q0-0.473 0.335-0.808t0.808-0.335h5.714q0.473 0 0.808 0.335t0.335 0.808v2.571q0 0.527 0.527 1.991 0.616 1.696 0.616 2.83z"></path>
</svg>
