<?xml version="1.0" encoding="utf-8"?>
<!-- Generated by IcoMoon.io -->
<!DOCTYPE svg PUBLIC "-//W3C//DTD SVG 1.1//EN" "http://www.w3.org/Graphics/SVG/1.1/DTD/svg11.dtd">
<svg version="1.1" xmlns="http://www.w3.org/2000/svg" xmlns:xlink="http://www.w3.org/1999/xlink" width="14" height="16" viewBox="0 0 14 16">
<path fill="#444444" d="M11.5 5.777q0.536 0 0.955 0.205 1.259 0.563 1.259 2.018v1.58q0 0.839-0.205 1.661l-0.759 3.027q-0.188 0.768-0.808 1.25t-1.406 0.482h-5.964q-0.946 0-1.616-0.67t-0.67-1.616v-3.58l-2.134-5.607q-0.152-0.402-0.152-0.813 0-0.946 0.67-1.616t1.616-0.67q0.714 0 1.299 0.406t0.835 1.067l0.152 0.393v-1.009q0-0.946 0.67-1.616t1.616-0.67 1.616 0.67 0.67 1.616v2.33q0.241-0.045 0.429-0.045 0.616 0 1.138 0.326t0.79 0.879zM9.571 5.714q-0.295 0-0.54 0.161t-0.371 0.429l-0.661 1.455-0.634 1.384h0.491q0.446 0 0.804 0.281t0.446 0.719l1.375-3.018q0.089-0.179 0.089-0.411 0-0.411-0.295-0.705t-0.705-0.295zM11.545 6.92q-0.196 0-0.362 0.071t-0.259 0.143-0.21 0.263-0.152 0.272-0.152 0.33l-1.179 2.589q-0.089 0.179-0.089 0.411 0 0.411 0.295 0.705t0.705 0.295q0.295 0 0.54-0.161t0.371-0.429l1.429-3.143q0.080-0.161 0.080-0.339 0-0.446-0.286-0.728t-0.732-0.281zM1.143 3.714q0 0.196 0.071 0.411l2.214 5.804v0.616l0.911-0.991q0.384-0.411 0.946-0.411h1.768l0.946-2.080v-4.777q0-0.473-0.335-0.808t-0.808-0.335-0.808 0.335-0.335 0.808v5.714h-0.571l-1.786-4.696q-0.125-0.33-0.42-0.531t-0.652-0.201q-0.473 0-0.808 0.335t-0.335 0.808zM10.536 14.857q0.393 0 0.701-0.241t0.406-0.625l0.759-3.027q0.17-0.652 0.17-1.384v-0.813l-1.259 2.768q-0.152 0.339-0.473 0.545t-0.696 0.205q-0.473 0-0.835-0.308t-0.433-0.772q-0.393 0.509-1.018 0.509h-1.857v-0.286h1.857q0.411 0 0.723-0.295t0.313-0.705-0.277-0.705-0.688-0.295h-2.643q-0.438 0-0.732 0.321l-1.125 1.214v2.75q0 0.473 0.335 0.808t0.808 0.335h5.964z"></path>
</svg>
