<?xml version="1.0" encoding="utf-8"?>
<!-- Generated by IcoMoon.io -->
<!DOCTYPE svg PUBLIC "-//W3C//DTD SVG 1.1//EN" "http://www.w3.org/Graphics/SVG/1.1/DTD/svg11.dtd">
<svg version="1.1" xmlns="http://www.w3.org/2000/svg" xmlns:xlink="http://www.w3.org/1999/xlink" width="15" height="16" viewBox="0 0 15 16">
<path fill="#444444" d="M5.714 1.143q-0.473 0-0.808 0.335t-0.335 0.808v8l-1.348-1.804q-0.366-0.482-0.955-0.482-0.464 0-0.795 0.339t-0.33 0.804q0 0.384 0.232 0.688l3.429 4.571q0.339 0.455 0.911 0.455h6.411q0.196 0 0.353-0.121t0.201-0.308l0.821-3.286q0.214-0.857 0.214-1.732v-1.938q0-0.366-0.25-0.634t-0.607-0.268-0.607 0.25-0.25 0.607h-0.286v-0.545q0-0.429-0.286-0.728t-0.714-0.299q-0.411 0-0.705 0.295t-0.295 0.705v0.571h-0.286v-0.804q0-0.491-0.33-0.844t-0.813-0.353q-0.473 0-0.808 0.335t-0.335 0.808v0.857h-0.286v-5.089q0-0.491-0.33-0.844t-0.813-0.353zM5.714 0q0.955 0 1.621 0.692t0.665 1.647v1.964q0.196-0.018 0.286-0.018 0.884 0 1.545 0.616 0.42-0.188 0.884-0.188 1.009 0 1.643 0.777 0.241-0.063 0.5-0.063 0.839 0 1.42 0.603t0.58 1.442v1.938q0 1.036-0.25 2.009l-0.821 3.286q-0.143 0.571-0.607 0.933t-1.054 0.362h-6.411q-0.536 0-1.022-0.246t-0.808-0.665l-3.429-4.571q-0.455-0.607-0.455-1.375 0-0.938 0.665-1.612t1.603-0.674q0.634 0 1.161 0.313v-4.884q0-0.946 0.67-1.616t1.616-0.67zM6.857 12.571v-3.429h-0.286v3.429h0.286zM9.143 12.571v-3.429h-0.286v3.429h0.286zM11.429 12.571v-3.429h-0.286v3.429h0.286z"></path>
</svg>
