<?xml version="1.0" encoding="utf-8"?>
<!-- Generated by IcoMoon.io -->
<!DOCTYPE svg PUBLIC "-//W3C//DTD SVG 1.1//EN" "http://www.w3.org/Graphics/SVG/1.1/DTD/svg11.dtd">
<svg version="1.1" xmlns="http://www.w3.org/2000/svg" xmlns:xlink="http://www.w3.org/1999/xlink" width="14" height="16" viewBox="0 0 14 16">
<path fill="#444444" d="M6.857 3.429q-0.473 0-0.808 0.335t-0.335 0.808v1.143h-0.286v-0.83q0-0.429-0.286-0.728t-0.714-0.299q-0.411 0-0.705 0.295t-0.295 0.705v3.83l-0.286-0.268v-1.536q0-0.429-0.286-0.728t-0.714-0.299q-0.411 0-0.705 0.295t-0.295 0.705v2q0 0.42 0.313 0.732l2.768 2.643q0.348 0.348 0.348 0.911 0 0.232 0.17 0.402t0.402 0.17h5.714q0.232 0 0.402-0.17t0.17-0.402v-0.223q0-0.366 0.089-0.688l0.964-3.893q0.089-0.321 0.089-0.688v-2.196q0-0.429-0.286-0.728t-0.714-0.299q-0.411 0-0.705 0.295t-0.295 0.705v0.286h-0.286v-1.116q0-0.357-0.223-0.647t-0.571-0.362q-0.125-0.018-0.205-0.018-0.411 0-0.705 0.295t-0.295 0.705v1.143h-0.286v-1.089q0-0.455-0.29-0.799t-0.737-0.388q-0.045-0.009-0.116-0.009zM6.857 2.286q0.75 0 1.33 0.446 0.509-0.304 1.098-0.304 0.527 0 0.991 0.241t0.768 0.679q0.241-0.063 0.527-0.063 0.893 0 1.518 0.638t0.625 1.531v2.196q0 0.455-0.116 0.964l-0.973 3.893q-0.054 0.214-0.054 0.634 0 0.714-0.5 1.214t-1.214 0.5h-5.714q-0.75 0-1.232-0.522t-0.482-1.272l-2.75-2.643q-0.679-0.652-0.679-1.563v-2q0-0.884 0.629-1.513t1.513-0.629q0.098 0 0.143 0.009 0.054-0.848 0.674-1.429t1.469-0.58q0.464 0 0.875 0.188 0.643-0.616 1.554-0.616z"></path>
</svg>
