<?xml version="1.0" encoding="utf-8"?>
<!-- Generated by IcoMoon.io -->
<!DOCTYPE svg PUBLIC "-//W3C//DTD SVG 1.1//EN" "http://www.w3.org/Graphics/SVG/1.1/DTD/svg11.dtd">
<svg version="1.1" xmlns="http://www.w3.org/2000/svg" xmlns:xlink="http://www.w3.org/1999/xlink" width="17" height="16" viewBox="0 0 17 16">
<path fill="#444444" d="M7.286 1.143q-0.429 0-0.71 0.304t-0.281 0.732q0 0.125 0.027 0.25l1.339 5.571h-0.232l-1.036-4.304q-0.080-0.339-0.353-0.554t-0.621-0.214q-0.42 0-0.705 0.304t-0.286 0.723q0 0.098 0.036 0.259 0.027 0.116 0.348 1.438t0.607 2.518 0.286 1.232v2.027l-2.741-2.054q-0.304-0.232-0.688-0.232-0.464 0-0.799 0.326t-0.335 0.79q0 0.598 0.5 0.982l4.527 3.384q0.304 0.232 0.679 0.232h6.196q0.295 0 0.527-0.183t0.304-0.469l0.893-3.58q0.071-0.268 0.089-0.786t0.080-0.768l1.036-4.268q0.027-0.107 0.027-0.232 0-0.411-0.295-0.705t-0.714-0.295q-0.339 0-0.616 0.228t-0.357 0.558l-0.884 3.643h-0.232l1.179-4.884q0.027-0.125 0.027-0.25 0-0.42-0.286-0.714t-0.714-0.295q-0.339 0-0.612 0.214t-0.353 0.554l-1.295 5.375h-1.134l-1.464-6.089q-0.080-0.339-0.353-0.554t-0.612-0.214zM13.045 16h-6.196q-0.759 0-1.366-0.455l-4.527-3.393q-0.446-0.339-0.701-0.839t-0.254-1.054q0-0.938 0.67-1.598t1.607-0.661q0.223 0 0.442 0.049t0.371 0.098 0.366 0.183 0.313 0.205 0.344 0.263 0.335 0.254l-1.098-4.571q-0.063-0.313-0.063-0.527 0-0.83 0.536-1.446t1.357-0.705q0.125-0.777 0.719-1.29t1.388-0.513q0.741 0 1.321 0.46t0.759 1.183l0.92 3.821 0.741-3.107q0.179-0.723 0.759-1.183t1.321-0.46q0.777 0 1.362 0.482t0.737 1.241q0.83 0.089 1.384 0.696t0.554 1.438q0 0.268-0.063 0.509l-1.036 4.259q-0.045 0.196-0.045 0.598 0 0.455-0.116 0.964l-0.902 3.58q-0.17 0.67-0.71 1.094t-1.228 0.424z"></path>
</svg>
