<?xml version="1.0" encoding="utf-8"?>
<!-- Generated by IcoMoon.io -->
<!DOCTYPE svg PUBLIC "-//W3C//DTD SVG 1.1//EN" "http://www.w3.org/Graphics/SVG/1.1/DTD/svg11.dtd">
<svg version="1.1" xmlns="http://www.w3.org/2000/svg" xmlns:xlink="http://www.w3.org/1999/xlink" width="16" height="16" viewBox="0 0 16 16">
<path fill="#444444" d="M12.286 12.571h0.286v-5.714h-0.286q-0.313 0-0.603-0.107t-0.558-0.33-0.446-0.411-0.438-0.482q-0.018-0.027-0.031-0.040t-0.036-0.040-0.040-0.045q-0.643-0.723-1-1.295-0.125-0.196-0.339-0.607-0.009-0.027-0.094-0.201t-0.165-0.321-0.179-0.317-0.192-0.272-0.165-0.103q-0.634 0-1.031 0.272t-0.397 0.871q0 0.384 0.134 0.754t0.295 0.607 0.295 0.491 0.134 0.433h-5.143q-0.446 0-0.795 0.344t-0.348 0.799q0 0.464 0.339 0.804t0.804 0.339h2.955q-0.134 0.152-0.223 0.424t-0.089 0.496q0 0.616 0.473 1.063-0.161 0.286-0.161 0.616t0.156 0.656 0.424 0.469q-0.036 0.214-0.036 0.5 0 0.759 0.433 1.125t1.21 0.366q0.75 0 1.634-0.286t1.732-0.571 1.491-0.286zM14.857 12q0-0.232-0.17-0.402t-0.402-0.17-0.402 0.17-0.17 0.402 0.17 0.402 0.402 0.17 0.402-0.17 0.17-0.402zM16 6.857v5.714q0 0.473-0.335 0.808t-0.808 0.335h-2.571q-0.527 0-1.991 0.527-1.696 0.616-2.83 0.616-1.268 0-2.054-0.692t-0.777-1.942l0.009-0.045q-0.545-0.679-0.545-1.589 0-0.196 0.027-0.384-0.295-0.509-0.33-1.063h-1.509q-0.938 0-1.612-0.679t-0.674-1.616q0-0.92 0.679-1.598t1.607-0.679h3.339q-0.196-0.536-0.196-1.143 0-1.089 0.728-1.688t1.844-0.598q0.339 0 0.621 0.156t0.491 0.442 0.362 0.563 0.33 0.643 0.295 0.554q0.313 0.491 0.893 1.152 0.018 0.027 0.125 0.152t0.17 0.192 0.183 0.192 0.214 0.201 0.201 0.161 0.21 0.125 0.192 0.040h2.571q0.473 0 0.808 0.335t0.335 0.808z"></path>
</svg>
