<?xml version="1.0" encoding="utf-8"?>
<!-- Generated by IcoMoon.io -->
<!DOCTYPE svg PUBLIC "-//W3C//DTD SVG 1.1//EN" "http://www.w3.org/Graphics/SVG/1.1/DTD/svg11.dtd">
<svg version="1.1" xmlns="http://www.w3.org/2000/svg" xmlns:xlink="http://www.w3.org/1999/xlink" width="16" height="16" viewBox="0 0 16 16">
<path fill="#444444" d="M8.848 9.143l0.571-2.286h-2.268l-0.571 2.286h2.268zM15.705 4.643l-0.5 2q-0.063 0.214-0.277 0.214h-2.92l-0.571 2.286h2.777q0.134 0 0.223 0.107 0.089 0.125 0.054 0.25l-0.5 2q-0.045 0.214-0.277 0.214h-2.92l-0.723 2.929q-0.063 0.214-0.277 0.214h-2q-0.143 0-0.232-0.107-0.080-0.107-0.054-0.25l0.696-2.786h-2.268l-0.723 2.929q-0.063 0.214-0.277 0.214h-2.009q-0.134 0-0.223-0.107-0.080-0.107-0.054-0.25l0.696-2.786h-2.777q-0.134 0-0.223-0.107-0.080-0.107-0.054-0.25l0.5-2q0.063-0.214 0.277-0.214h2.92l0.571-2.286h-2.777q-0.134 0-0.223-0.107-0.089-0.125-0.054-0.25l0.5-2q0.045-0.214 0.277-0.214h2.92l0.723-2.929q0.063-0.214 0.286-0.214h2q0.134 0 0.223 0.107 0.080 0.107 0.054 0.25l-0.696 2.786h2.268l0.723-2.929q0.063-0.214 0.286-0.214h2q0.134 0 0.223 0.107 0.080 0.107 0.054 0.25l-0.696 2.786h2.777q0.134 0 0.223 0.107 0.080 0.107 0.054 0.25z"></path>
</svg>
