<?xml version="1.0" encoding="utf-8"?>
<!-- Generated by IcoMoon.io -->
<!DOCTYPE svg PUBLIC "-//W3C//DTD SVG 1.1//EN" "http://www.w3.org/Graphics/SVG/1.1/DTD/svg11.dtd">
<svg version="1.1" xmlns="http://www.w3.org/2000/svg" xmlns:xlink="http://www.w3.org/1999/xlink" width="14" height="16" viewBox="0 0 14 16">
<path fill="#444444" d="M9.286 10.857q0 0.295-0.21 0.504t-0.504 0.21-0.504-0.21-0.21-0.504 0.21-0.504 0.504-0.21 0.504 0.21 0.21 0.504zM11.571 10.857q0 0.295-0.21 0.504t-0.504 0.21-0.504-0.21-0.21-0.504 0.21-0.504 0.504-0.21 0.504 0.21 0.21 0.504zM12.571 12.286v-2.857q0-0.116-0.085-0.201t-0.201-0.085h-10.857q-0.116 0-0.201 0.085t-0.085 0.201v2.857q0 0.116 0.085 0.201t0.201 0.085h10.857q0.116 0 0.201-0.085t0.085-0.201zM1.589 8h10.536l-1.402-4.304q-0.036-0.116-0.143-0.192t-0.232-0.076h-6.982q-0.125 0-0.232 0.076t-0.143 0.192zM13.714 9.429v2.857q0 0.589-0.42 1.009t-1.009 0.42h-10.857q-0.589 0-1.009-0.42t-0.42-1.009v-2.857q0-0.223 0.143-0.67l1.759-5.411q0.152-0.473 0.563-0.768t0.902-0.295h6.982q0.491 0 0.902 0.295t0.563 0.768l1.759 5.411q0.143 0.446 0.143 0.67z"></path>
</svg>
