<?xml version="1.0" encoding="utf-8"?>
<!-- Generated by IcoMoon.io -->
<!DOCTYPE svg PUBLIC "-//W3C//DTD SVG 1.1//EN" "http://www.w3.org/Graphics/SVG/1.1/DTD/svg11.dtd">
<svg version="1.1" xmlns="http://www.w3.org/2000/svg" xmlns:xlink="http://www.w3.org/1999/xlink" width="15" height="16" viewBox="0 0 15 16">
<path fill="#444444" d="M14.857 7.911q0 1.482-0.536 2.804l-0.179 0.438-1.652 0.295q-0.196 0.741-0.808 1.219t-1.397 0.478v0.286q0 0.125-0.080 0.205t-0.205 0.080h-0.571q-0.125 0-0.205-0.080t-0.080-0.205v-5.143q0-0.125 0.080-0.205t0.205-0.080h0.571q0.125 0 0.205 0.080t0.080 0.205v0.286q0.634 0 1.161 0.317t0.83 0.853l0.607-0.107q0.259-0.848 0.259-1.723 0-1.321-0.786-2.491t-2.112-1.866-2.817-0.696-2.817 0.696-2.112 1.866-0.786 2.491q0 0.875 0.259 1.723l0.607 0.107q0.304-0.536 0.83-0.853t1.161-0.317v-0.286q0-0.125 0.080-0.205t0.205-0.080h0.571q0.125 0 0.205 0.080t0.080 0.205v5.143q0 0.125-0.080 0.205t-0.205 0.080h-0.571q-0.125 0-0.205-0.080t-0.080-0.205v-0.286q-0.786 0-1.397-0.478t-0.808-1.219l-1.652-0.295-0.179-0.438q-0.536-1.321-0.536-2.804 0-1.348 0.598-2.598t1.598-2.165 2.375-1.46 2.857-0.545 2.857 0.545 2.375 1.46 1.598 2.165 0.598 2.598z"></path>
</svg>
