<?xml version="1.0" encoding="utf-8"?>
<!-- Generated by IcoMoon.io -->
<!DOCTYPE svg PUBLIC "-//W3C//DTD SVG 1.1//EN" "http://www.w3.org/Graphics/SVG/1.1/DTD/svg11.dtd">
<svg version="1.1" xmlns="http://www.w3.org/2000/svg" xmlns:xlink="http://www.w3.org/1999/xlink" width="16" height="16" viewBox="0 0 16 16">
<path fill="#444444" d="M15.018 14.857q-0.393 0-1.183-0.031t-1.192-0.031q-0.393 0-1.179 0.031t-1.179 0.031q-0.214 0-0.33-0.183t-0.116-0.406q0-0.277 0.152-0.411t0.348-0.152 0.455-0.063 0.402-0.134q0.295-0.188 0.295-1.25l-0.009-3.491q0-0.188-0.009-0.277-0.116-0.036-0.446-0.036h-6.027q-0.339 0-0.455 0.036-0.009 0.089-0.009 0.277l-0.009 3.313q0 1.268 0.33 1.464 0.143 0.089 0.429 0.116t0.509 0.031 0.402 0.134 0.179 0.406q0 0.232-0.112 0.429t-0.326 0.196q-0.42 0-1.246-0.031t-1.237-0.031q-0.384 0-1.143 0.031t-1.134 0.031q-0.205 0-0.317-0.188t-0.112-0.402q0-0.268 0.138-0.402t0.321-0.156 0.424-0.067 0.375-0.134q0.295-0.205 0.295-1.277l-0.009-0.509v-7.259q0-0.027 0.004-0.232t0-0.326-0.013-0.344-0.031-0.375-0.058-0.326-0.098-0.281-0.143-0.161q-0.134-0.089-0.402-0.107t-0.473-0.018-0.366-0.125-0.161-0.402q0-0.232 0.107-0.429t0.321-0.196q0.411 0 1.237 0.031t1.237 0.031q0.375 0 1.129-0.031t1.129-0.031q0.223 0 0.335 0.196t0.112 0.429q0 0.268-0.152 0.388t-0.344 0.129-0.442 0.036-0.384 0.116q-0.313 0.188-0.313 1.429l0.009 2.857q0 0.188 0.009 0.286 0.116 0.027 0.348 0.027h6.241q0.223 0 0.339-0.027 0.009-0.098 0.009-0.286l0.009-2.857q0-1.241-0.313-1.429-0.161-0.098-0.522-0.112t-0.589-0.116-0.228-0.442q0-0.232 0.112-0.429t0.335-0.196q0.393 0 1.179 0.031t1.179 0.031q0.384 0 1.152-0.031t1.152-0.031q0.223 0 0.335 0.196t0.112 0.429q0 0.268-0.156 0.393t-0.357 0.129-0.46 0.027-0.393 0.112q-0.313 0.205-0.313 1.438l0.009 8.42q0 1.063 0.304 1.25 0.143 0.089 0.411 0.121t0.478 0.040 0.371 0.138 0.161 0.397q0 0.232-0.107 0.429t-0.321 0.196z"></path>
</svg>
