<?xml version="1.0" encoding="utf-8"?>
<!-- Generated by IcoMoon.io -->
<!DOCTYPE svg PUBLIC "-//W3C//DTD SVG 1.1//EN" "http://www.w3.org/Graphics/SVG/1.1/DTD/svg11.dtd">
<svg version="1.1" xmlns="http://www.w3.org/2000/svg" xmlns:xlink="http://www.w3.org/1999/xlink" width="16" height="16" viewBox="0 0 16 16">
<path fill="#444444" d="M11.429 9.143h2.723q-0.045 0.054-0.089 0.094t-0.080 0.067l-0.027 0.036-5.563 5.357q-0.161 0.161-0.393 0.161t-0.393-0.161l-5.571-5.375q-0.045-0.018-0.188-0.179h3.295q0.196 0 0.353-0.121t0.201-0.308l0.625-2.509 1.696 5.955q0.054 0.179 0.205 0.295t0.348 0.116q0.188 0 0.339-0.116t0.205-0.295l1.304-4.33 0.5 1q0.161 0.313 0.509 0.313zM16 5.321q0 1.295-0.92 2.679h-3.295l-0.991-1.973q-0.071-0.152-0.228-0.241t-0.326-0.071q-0.402 0.045-0.5 0.411l-1.152 3.839-1.75-6.125q-0.054-0.179-0.21-0.295t-0.353-0.116-0.348 0.121-0.196 0.308l-1.036 4.143h-3.777q-0.92-1.384-0.92-2.679 0-1.964 1.134-3.071t3.134-1.107q0.554 0 1.129 0.192t1.071 0.518 0.853 0.612 0.679 0.607q0.321-0.321 0.679-0.607t0.853-0.612 1.071-0.518 1.129-0.192q2 0 3.134 1.107t1.134 3.071z"></path>
</svg>
