<?xml version="1.0" encoding="utf-8"?>
<!-- Generated by IcoMoon.io -->
<!DOCTYPE svg PUBLIC "-//W3C//DTD SVG 1.1//EN" "http://www.w3.org/Graphics/SVG/1.1/DTD/svg11.dtd">
<svg version="1.1" xmlns="http://www.w3.org/2000/svg" xmlns:xlink="http://www.w3.org/1999/xlink" width="15" height="16" viewBox="0 0 15 16">
<path fill="#444444" d="M12.571 8.857v4.286q0 0.232-0.17 0.402t-0.402 0.17h-3.429v-3.429h-2.286v3.429h-3.429q-0.232 0-0.402-0.17t-0.17-0.402v-4.286q0-0.009 0.004-0.027t0.004-0.027l5.134-4.232 5.134 4.232q0.009 0.018 0.009 0.054zM14.563 8.241l-0.554 0.661q-0.071 0.080-0.188 0.098h-0.027q-0.116 0-0.188-0.063l-6.179-5.152-6.179 5.152q-0.107 0.071-0.214 0.063-0.116-0.018-0.188-0.098l-0.554-0.661q-0.071-0.089-0.063-0.21t0.098-0.192l6.42-5.348q0.286-0.232 0.679-0.232t0.679 0.232l2.179 1.821v-1.741q0-0.125 0.080-0.205t0.205-0.080h1.714q0.125 0 0.205 0.080t0.080 0.205v3.643l1.955 1.625q0.089 0.071 0.098 0.192t-0.063 0.21z"></path>
</svg>
