<?xml version="1.0" encoding="utf-8"?>
<!-- Generated by IcoMoon.io -->
<!DOCTYPE svg PUBLIC "-//W3C//DTD SVG 1.1//EN" "http://www.w3.org/Graphics/SVG/1.1/DTD/svg11.dtd">
<svg version="1.1" xmlns="http://www.w3.org/2000/svg" xmlns:xlink="http://www.w3.org/1999/xlink" width="13" height="16" viewBox="0 0 13 16">
<path fill="#444444" d="M3.429 11.714v0.571q0 0.116-0.085 0.201t-0.201 0.085h-0.571q-0.116 0-0.201-0.085t-0.085-0.201v-0.571q0-0.116 0.085-0.201t0.201-0.085h0.571q0.116 0 0.201 0.085t0.085 0.201zM3.429 9.429v0.571q0 0.116-0.085 0.201t-0.201 0.085h-0.571q-0.116 0-0.201-0.085t-0.085-0.201v-0.571q0-0.116 0.085-0.201t0.201-0.085h0.571q0.116 0 0.201 0.085t0.085 0.201zM5.714 9.429v0.571q0 0.116-0.085 0.201t-0.201 0.085h-0.571q-0.116 0-0.201-0.085t-0.085-0.201v-0.571q0-0.116 0.085-0.201t0.201-0.085h0.571q0.116 0 0.201 0.085t0.085 0.201zM3.429 7.143v0.571q0 0.116-0.085 0.201t-0.201 0.085h-0.571q-0.116 0-0.201-0.085t-0.085-0.201v-0.571q0-0.116 0.085-0.201t0.201-0.085h0.571q0.116 0 0.201 0.085t0.085 0.201zM10.286 11.714v0.571q0 0.116-0.085 0.201t-0.201 0.085h-0.571q-0.116 0-0.201-0.085t-0.085-0.201v-0.571q0-0.116 0.085-0.201t0.201-0.085h0.571q0.116 0 0.201 0.085t0.085 0.201zM8 9.429v0.571q0 0.116-0.085 0.201t-0.201 0.085h-0.571q-0.116 0-0.201-0.085t-0.085-0.201v-0.571q0-0.116 0.085-0.201t0.201-0.085h0.571q0.116 0 0.201 0.085t0.085 0.201zM5.714 7.143v0.571q0 0.116-0.085 0.201t-0.201 0.085h-0.571q-0.116 0-0.201-0.085t-0.085-0.201v-0.571q0-0.116 0.085-0.201t0.201-0.085h0.571q0.116 0 0.201 0.085t0.085 0.201zM10.286 9.429v0.571q0 0.116-0.085 0.201t-0.201 0.085h-0.571q-0.116 0-0.201-0.085t-0.085-0.201v-0.571q0-0.116 0.085-0.201t0.201-0.085h0.571q0.116 0 0.201 0.085t0.085 0.201zM8 7.143v0.571q0 0.116-0.085 0.201t-0.201 0.085h-0.571q-0.116 0-0.201-0.085t-0.085-0.201v-0.571q0-0.116 0.085-0.201t0.201-0.085h0.571q0.116 0 0.201 0.085t0.085 0.201zM10.286 7.143v0.571q0 0.116-0.085 0.201t-0.201 0.085h-0.571q-0.116 0-0.201-0.085t-0.085-0.201v-0.571q0-0.116 0.085-0.201t0.201-0.085h0.571q0.116 0 0.201 0.085t0.085 0.201zM8 14.857h3.429v-10.286h-2.286v0.286q0 0.357-0.25 0.607t-0.607 0.25h-4q-0.357 0-0.607-0.25t-0.25-0.607v-0.286h-2.286v10.286h3.429v-2q0-0.116 0.085-0.201t0.201-0.085h2.857q0.116 0 0.201 0.085t0.085 0.201v2zM8 4.286v-2.857q0-0.116-0.085-0.201t-0.201-0.085h-0.571q-0.116 0-0.201 0.085t-0.085 0.201v0.857h-1.143v-0.857q0-0.116-0.085-0.201t-0.201-0.085h-0.571q-0.116 0-0.201 0.085t-0.085 0.201v2.857q0 0.116 0.085 0.201t0.201 0.085h0.571q0.116 0 0.201-0.085t0.085-0.201v-0.857h1.143v0.857q0 0.116 0.085 0.201t0.201 0.085h0.571q0.116 0 0.201-0.085t0.085-0.201zM12.571 4v11.429q0 0.232-0.17 0.402t-0.402 0.17h-11.429q-0.232 0-0.402-0.17t-0.17-0.402v-11.429q0-0.232 0.17-0.402t0.402-0.17h2.857v-2.571q0-0.357 0.25-0.607t0.607-0.25h4q0.357 0 0.607 0.25t0.25 0.607v2.571h2.857q0.232 0 0.402 0.17t0.17 0.402z"></path>
</svg>
