<?xml version="1.0" encoding="utf-8"?>
<!-- Generated by IcoMoon.io -->
<!DOCTYPE svg PUBLIC "-//W3C//DTD SVG 1.1//EN" "http://www.w3.org/Graphics/SVG/1.1/DTD/svg11.dtd">
<svg version="1.1" xmlns="http://www.w3.org/2000/svg" xmlns:xlink="http://www.w3.org/1999/xlink" width="14" height="16" viewBox="0 0 14 16">
<path fill="#444444" d="M12.571 1.143q0 2.33-0.951 4.121t-2.379 2.737q1.429 0.946 2.379 2.737t0.951 4.121h0.857q0.125 0 0.205 0.080t0.080 0.205v0.571q0 0.125-0.080 0.205t-0.205 0.080h-13.143q-0.125 0-0.205-0.080t-0.080-0.205v-0.571q0-0.125 0.080-0.205t0.205-0.080h0.857q0-2.33 0.951-4.121t2.379-2.737q-1.429-0.946-2.379-2.737t-0.951-4.121h-0.857q-0.125 0-0.205-0.080t-0.080-0.205v-0.571q0-0.125 0.080-0.205t0.205-0.080h13.143q0.125 0 0.205 0.080t0.080 0.205v0.571q0 0.125-0.080 0.205t-0.205 0.080h-0.857zM11.429 1.143h-9.143q0 0.589 0.080 1.143h8.982q0.080-0.545 0.080-1.143zM11.429 14.857q0-1.161-0.304-2.228t-0.808-1.857-1.129-1.357-1.304-0.844h-2.054q-0.679 0.277-1.304 0.844t-1.129 1.357-0.808 1.857-0.304 2.228h9.143z"></path>
</svg>
