<?xml version="1.0" encoding="utf-8"?>
<!-- Generated by IcoMoon.io -->
<!DOCTYPE svg PUBLIC "-//W3C//DTD SVG 1.1//EN" "http://www.w3.org/Graphics/SVG/1.1/DTD/svg11.dtd">
<svg version="1.1" xmlns="http://www.w3.org/2000/svg" xmlns:xlink="http://www.w3.org/1999/xlink" width="14" height="16" viewBox="0 0 14 16">
<path fill="#444444" d="M12.571 1.143q0 2.33-0.951 4.121t-2.379 2.737q1.429 0.946 2.379 2.737t0.951 4.121h0.857q0.125 0 0.205 0.080t0.080 0.205v0.571q0 0.125-0.080 0.205t-0.205 0.080h-13.143q-0.125 0-0.205-0.080t-0.080-0.205v-0.571q0-0.125 0.080-0.205t0.205-0.080h0.857q0-2.33 0.951-4.121t2.379-2.737q-1.429-0.946-2.379-2.737t-0.951-4.121h-0.857q-0.125 0-0.205-0.080t-0.080-0.205v-0.571q0-0.125 0.080-0.205t0.205-0.080h13.143q0.125 0 0.205 0.080t0.080 0.205v0.571q0 0.125-0.080 0.205t-0.205 0.080h-0.857zM7.804 7.464q0.688-0.259 1.33-0.826t1.156-1.362 0.826-1.875 0.313-2.259h-9.143q0 1.179 0.313 2.259t0.826 1.875 1.156 1.362 1.33 0.826q0.17 0.063 0.272 0.21t0.103 0.326-0.103 0.326-0.272 0.21q-1.223 0.455-2.179 1.75h6.25q-0.955-1.295-2.179-1.75-0.17-0.063-0.272-0.21t-0.103-0.326 0.103-0.326 0.272-0.21z"></path>
</svg>
