<?xml version="1.0" encoding="utf-8"?>
<!-- Generated by IcoMoon.io -->
<!DOCTYPE svg PUBLIC "-//W3C//DTD SVG 1.1//EN" "http://www.w3.org/Graphics/SVG/1.1/DTD/svg11.dtd">
<svg version="1.1" xmlns="http://www.w3.org/2000/svg" xmlns:xlink="http://www.w3.org/1999/xlink" width="14" height="16" viewBox="0 0 14 16">
<path fill="#444444" d="M13.429 14.286q0.125 0 0.205 0.080t0.080 0.205v1.143q0 0.125-0.080 0.205t-0.205 0.080h-13.143q-0.125 0-0.205-0.080t-0.080-0.205v-1.143q0-0.125 0.080-0.205t0.205-0.080h13.143zM1.161 13.714q0.027-0.491 0.143-0.955t0.268-0.848 0.411-0.777 0.478-0.679 0.576-0.621 0.589-0.536 0.629-0.491 0.594-0.424 0.58-0.384q-0.384-0.25-0.58-0.384t-0.594-0.424-0.629-0.491-0.589-0.536-0.576-0.621-0.478-0.679-0.411-0.777-0.268-0.848-0.143-0.955h11.393q-0.027 0.491-0.143 0.955t-0.268 0.848-0.411 0.777-0.478 0.679-0.576 0.621-0.589 0.536-0.629 0.491-0.594 0.424-0.58 0.384q0.384 0.25 0.58 0.384t0.594 0.424 0.629 0.491 0.589 0.536 0.576 0.621 0.478 0.679 0.411 0.777 0.268 0.848 0.143 0.955h-11.393zM13.429 0q0.125 0 0.205 0.080t0.080 0.205v1.143q0 0.125-0.080 0.205t-0.205 0.080h-13.143q-0.125 0-0.205-0.080t-0.080-0.205v-1.143q0-0.125 0.080-0.205t0.205-0.080h13.143z"></path>
</svg>
