<?xml version="1.0" encoding="utf-8"?>
<!-- Generated by IcoMoon.io -->
<!DOCTYPE svg PUBLIC "-//W3C//DTD SVG 1.1//EN" "http://www.w3.org/Graphics/SVG/1.1/DTD/svg11.dtd">
<svg version="1.1" xmlns="http://www.w3.org/2000/svg" xmlns:xlink="http://www.w3.org/1999/xlink" width="12" height="16" viewBox="0 0 12 16">
<path fill="#444444" d="M8.857 5.571v4.429q0 0.125-0.080 0.205t-0.205 0.080h-1.429q-0.125 0-0.205-0.080t-0.080-0.205v-4.429q0-1-0.714-1.714t-1.714-0.714h-2.429v10.286q0 0.125-0.080 0.205t-0.205 0.080h-1.429q-0.125 0-0.205-0.080t-0.080-0.205v-12q0-0.125 0.080-0.205t0.205-0.080h4.143q1.205 0 2.223 0.594t1.612 1.612 0.594 2.223zM12.286 1.429v7.857q0 1.205-0.594 2.223t-1.612 1.612-2.223 0.594h-4.143q-0.125 0-0.205-0.080t-0.080-0.205v-8.571q0-0.125 0.080-0.205t0.205-0.080h1.429q0.125 0 0.205 0.080t0.080 0.205v6.857h2.429q1 0 1.714-0.714t0.714-1.714v-7.857q0-0.125 0.080-0.205t0.205-0.080h1.429q0.125 0 0.205 0.080t0.080 0.205z"></path>
</svg>
