<?xml version="1.0" encoding="utf-8"?>
<!-- Generated by IcoMoon.io -->
<!DOCTYPE svg PUBLIC "-//W3C//DTD SVG 1.1//EN" "http://www.w3.org/Graphics/SVG/1.1/DTD/svg11.dtd">
<svg version="1.1" xmlns="http://www.w3.org/2000/svg" xmlns:xlink="http://www.w3.org/1999/xlink" width="14" height="16" viewBox="0 0 14 16">
<path fill="#444444" d="M9.134 8.571h2.821q-0.009-0.027-0.022-0.071t-0.022-0.071l-1.893-4.429h-6.321l-1.893 4.429q-0.009 0.018-0.022 0.071t-0.022 0.071h2.821l0.848 1.714h2.857zM13.714 8.839v4.304q0 0.232-0.17 0.402t-0.402 0.17h-12.571q-0.232 0-0.402-0.17t-0.17-0.402v-4.304q0-0.554 0.223-1.098l2.125-4.929q0.089-0.223 0.326-0.375t0.469-0.152h7.429q0.232 0 0.469 0.152t0.326 0.375l2.125 4.929q0.223 0.545 0.223 1.098z"></path>
</svg>
