<?xml version="1.0" encoding="utf-8"?>
<!-- Generated by IcoMoon.io -->
<!DOCTYPE svg PUBLIC "-//W3C//DTD SVG 1.1//EN" "http://www.w3.org/Graphics/SVG/1.1/DTD/svg11.dtd">
<svg version="1.1" xmlns="http://www.w3.org/2000/svg" xmlns:xlink="http://www.w3.org/1999/xlink" width="16" height="16" viewBox="0 0 16 16">
<path fill="#444444" d="M3.143 7.429q0 0.125-0.080 0.205l-2.571 2.571q-0.080 0.080-0.205 0.080-0.116 0-0.201-0.085t-0.085-0.201v-5.143q0-0.116 0.085-0.201t0.201-0.085q0.125 0 0.205 0.080l2.571 2.571q0.080 0.080 0.080 0.205zM16 11.714v1.714q0 0.116-0.085 0.201t-0.201 0.085h-15.429q-0.116 0-0.201-0.085t-0.085-0.201v-1.714q0-0.116 0.085-0.201t0.201-0.085h15.429q0.116 0 0.201 0.085t0.085 0.201zM16 8.286v1.714q0 0.116-0.085 0.201t-0.201 0.085h-9.714q-0.116 0-0.201-0.085t-0.085-0.201v-1.714q0-0.116 0.085-0.201t0.201-0.085h9.714q0.116 0 0.201 0.085t0.085 0.201zM16 4.857v1.714q0 0.116-0.085 0.201t-0.201 0.085h-9.714q-0.116 0-0.201-0.085t-0.085-0.201v-1.714q0-0.116 0.085-0.201t0.201-0.085h9.714q0.116 0 0.201 0.085t0.085 0.201zM16 1.429v1.714q0 0.116-0.085 0.201t-0.201 0.085h-15.429q-0.116 0-0.201-0.085t-0.085-0.201v-1.714q0-0.116 0.085-0.201t0.201-0.085h15.429q0.116 0 0.201 0.085t0.085 0.201z"></path>
</svg>
