<?xml version="1.0" encoding="utf-8"?>
<!-- Generated by IcoMoon.io -->
<!DOCTYPE svg PUBLIC "-//W3C//DTD SVG 1.1//EN" "http://www.w3.org/Graphics/SVG/1.1/DTD/svg11.dtd">
<svg version="1.1" xmlns="http://www.w3.org/2000/svg" xmlns:xlink="http://www.w3.org/1999/xlink" width="6" height="16" viewBox="0 0 6 16">
<path fill="#444444" d="M5.714 12v1.143q0 0.232-0.17 0.402t-0.402 0.17h-4.571q-0.232 0-0.402-0.17t-0.17-0.402v-1.143q0-0.232 0.17-0.402t0.402-0.17h0.571v-3.429h-0.571q-0.232 0-0.402-0.17t-0.17-0.402v-1.143q0-0.232 0.17-0.402t0.402-0.17h3.429q0.232 0 0.402 0.17t0.17 0.402v5.143h0.571q0.232 0 0.402 0.17t0.17 0.402zM4.571 1.714v1.714q0 0.232-0.17 0.402t-0.402 0.17h-2.286q-0.232 0-0.402-0.17t-0.17-0.402v-1.714q0-0.232 0.17-0.402t0.402-0.17h2.286q0.232 0 0.402 0.17t0.17 0.402z"></path>
</svg>
