<?xml version="1.0" encoding="utf-8"?>
<!-- Generated by IcoMoon.io -->
<!DOCTYPE svg PUBLIC "-//W3C//DTD SVG 1.1//EN" "http://www.w3.org/Graphics/SVG/1.1/DTD/svg11.dtd">
<svg version="1.1" xmlns="http://www.w3.org/2000/svg" xmlns:xlink="http://www.w3.org/1999/xlink" width="14" height="16" viewBox="0 0 14 16">
<path fill="#444444" d="M9.143 12.286v-1.429q0-0.125-0.080-0.205t-0.205-0.080h-0.857v-4.571q0-0.125-0.080-0.205t-0.205-0.080h-2.857q-0.125 0-0.205 0.080t-0.080 0.205v1.429q0 0.125 0.080 0.205t0.205 0.080h0.857v2.857h-0.857q-0.125 0-0.205 0.080t-0.080 0.205v1.429q0 0.125 0.080 0.205t0.205 0.080h4q0.125 0 0.205-0.080t0.080-0.205zM8 4.286v-1.429q0-0.125-0.080-0.205t-0.205-0.080h-1.714q-0.125 0-0.205 0.080t-0.080 0.205v1.429q0 0.125 0.080 0.205t0.205 0.080h1.714q0.125 0 0.205-0.080t0.080-0.205zM13.714 8q0 1.866-0.92 3.442t-2.496 2.496-3.442 0.92-3.442-0.92-2.496-2.496-0.92-3.442 0.92-3.442 2.496-2.496 3.442-0.92 3.442 0.92 2.496 2.496 0.92 3.442z"></path>
</svg>
