<?xml version="1.0" encoding="utf-8"?>
<!-- Generated by IcoMoon.io -->
<!DOCTYPE svg PUBLIC "-//W3C//DTD SVG 1.1//EN" "http://www.w3.org/Graphics/SVG/1.1/DTD/svg11.dtd">
<svg version="1.1" xmlns="http://www.w3.org/2000/svg" xmlns:xlink="http://www.w3.org/1999/xlink" width="8" height="16" viewBox="0 0 8 16">
<path fill="#444444" d="M8.018 4.196v0.911q0 0.125-0.080 0.205t-0.205 0.080h-1.5q-0.205 1.286-1.152 2.089t-2.464 0.982q1.491 1.589 4.098 4.786 0.125 0.143 0.036 0.304-0.071 0.161-0.259 0.161h-1.741q-0.143 0-0.223-0.107-2.732-3.277-4.446-5.098-0.080-0.080-0.080-0.196v-1.134q0-0.116 0.085-0.201t0.201-0.085h1q1.179 0 1.897-0.384t0.915-1.116h-3.813q-0.125 0-0.205-0.080t-0.080-0.205v-0.911q0-0.125 0.080-0.205t0.205-0.080h3.688q-0.509-1.009-2.393-1.009h-1.295q-0.116 0-0.201-0.085t-0.085-0.201v-1.188q0-0.125 0.080-0.205t0.205-0.080h7.429q0.125 0 0.205 0.080t0.080 0.205v0.911q0 0.125-0.080 0.205t-0.205 0.080h-2.080q0.42 0.545 0.571 1.286h1.527q0.125 0 0.205 0.080t0.080 0.205z"></path>
</svg>
