<?xml version="1.0" encoding="utf-8"?>
<!-- Generated by IcoMoon.io -->
<!DOCTYPE svg PUBLIC "-//W3C//DTD SVG 1.1//EN" "http://www.w3.org/Graphics/SVG/1.1/DTD/svg11.dtd">
<svg version="1.1" xmlns="http://www.w3.org/2000/svg" xmlns:xlink="http://www.w3.org/1999/xlink" width="14" height="16" viewBox="0 0 14 16">
<path fill="#444444" d="M12.161 12.732v-5.786h-1.205q0.179 0.563 0.179 1.17 0 1.125-0.571 2.076t-1.554 1.504-2.143 0.554q-1.759 0-3.009-1.21t-1.25-2.924q0-0.607 0.179-1.17h-1.259v5.786q0 0.232 0.156 0.388t0.388 0.156h9.545q0.223 0 0.384-0.156t0.161-0.388zM9.625 7.973q0-1.107-0.808-1.888t-1.951-0.781q-1.134 0-1.942 0.781t-0.808 1.888 0.808 1.888 1.942 0.781q1.143 0 1.951-0.781t0.808-1.888zM12.161 4.759v-1.473q0-0.25-0.179-0.433t-0.438-0.183h-1.554q-0.259 0-0.438 0.183t-0.179 0.433v1.473q0 0.259 0.179 0.438t0.438 0.179h1.554q0.259 0 0.438-0.179t0.179-0.438zM13.714 2.902v10.196q0 0.723-0.518 1.241t-1.241 0.518h-10.196q-0.723 0-1.241-0.518t-0.518-1.241v-10.196q0-0.723 0.518-1.241t1.241-0.518h10.196q0.723 0 1.241 0.518t0.518 1.241z"></path>
</svg>
