<?xml version="1.0" encoding="utf-8"?>
<!-- Generated by IcoMoon.io -->
<!DOCTYPE svg PUBLIC "-//W3C//DTD SVG 1.1//EN" "http://www.w3.org/Graphics/SVG/1.1/DTD/svg11.dtd">
<svg version="1.1" xmlns="http://www.w3.org/2000/svg" xmlns:xlink="http://www.w3.org/1999/xlink" width="13" height="16" viewBox="0 0 13 16">
<path fill="#444444" d="M9.143 0.286q0-0.125 0.080-0.205t0.205-0.080h2.571q0.232 0 0.402 0.17t0.17 0.402v2.571q0 0.125-0.080 0.205t-0.205 0.080h-0.571q-0.125 0-0.205-0.080t-0.080-0.205v-1.196l-2.268 2.277q1.125 1.411 1.125 3.205 0 1.973-1.317 3.433t-3.254 1.674v1.179h0.857q0.125 0 0.205 0.080t0.080 0.205v0.571q0 0.125-0.080 0.205t-0.205 0.080h-0.857v0.857q0 0.125-0.080 0.205t-0.205 0.080h-0.571q-0.125 0-0.205-0.080t-0.080-0.205v-0.857h-0.857q-0.125 0-0.205-0.080t-0.080-0.205v-0.571q0-0.125 0.080-0.205t0.205-0.080h0.857v-1.179q-1.33-0.143-2.415-0.92t-1.665-1.996-0.473-2.603q0.143-1.821 1.429-3.156t3.098-1.54q1.054-0.125 2.036 0.17t1.768 0.92l2.277-2.268h-1.196q-0.125 0-0.205-0.080t-0.080-0.205v-0.571zM5.143 11.429q1.652 0 2.826-1.174t1.174-2.826-1.174-2.826-2.826-1.174-2.826 1.174-1.174 2.826 1.174 2.826 2.826 1.174z"></path>
</svg>
