<?xml version="1.0" encoding="utf-8"?>
<!-- Generated by IcoMoon.io -->
<!DOCTYPE svg PUBLIC "-//W3C//DTD SVG 1.1//EN" "http://www.w3.org/Graphics/SVG/1.1/DTD/svg11.dtd">
<svg version="1.1" xmlns="http://www.w3.org/2000/svg" xmlns:xlink="http://www.w3.org/1999/xlink" width="16" height="16" viewBox="0 0 16 16">
<path fill="#444444" d="M16 8.366q0 0.5-0.063 0.929h-10.277q0 1.304 0.978 2.183t2.299 0.879q0.884 0 1.656-0.415t1.219-1.165h3.777q-0.5 1.42-1.522 2.509t-2.388 1.683-2.866 0.594q-1.67 0-3.179-0.741-2.036 1.036-3.518 1.036-2.116 0-2.116-2.348 0-1.027 0.402-2.455 0.152-0.536 0.973-2.045 1.777-3.214 4.241-5.411-1.643 0.705-3.813 3.161 0.563-2.446 2.531-4.013t4.478-1.567q0.268 0 0.402 0.009 2.277-1.045 3.866-1.045 0.571 0 1.036 0.116t0.844 0.362 0.594 0.683 0.214 1.027q0 1.036-0.67 2.554 0.902 1.625 0.902 3.482zM15.375 2.652q0-0.741-0.473-1.179t-1.223-0.438q-0.964 0-2.268 0.625 1.080 0.42 1.987 1.174t1.522 1.746q0.455-1.205 0.455-1.929zM1.143 13.696q0 0.768 0.433 1.183t1.201 0.415q1.027 0 2.375-0.741-1.089-0.643-1.906-1.634t-1.228-2.188q-0.875 1.83-0.875 2.964zM5.643 7.33h6.5q-0.045-1.268-1.009-2.116t-2.241-0.848q-1.286 0-2.246 0.848t-1.004 2.116z"></path>
</svg>
