<?xml version="1.0" encoding="utf-8"?>
<!-- Generated by IcoMoon.io -->
<!DOCTYPE svg PUBLIC "-//W3C//DTD SVG 1.1//EN" "http://www.w3.org/Graphics/SVG/1.1/DTD/svg11.dtd">
<svg version="1.1" xmlns="http://www.w3.org/2000/svg" xmlns:xlink="http://www.w3.org/1999/xlink" width="18" height="16" viewBox="0 0 18 16">
<path fill="#444444" d="M13.063 7.429q0 0.313-0.223 0.54t-0.545 0.228h-6.268q-0.321 0-0.545-0.228t-0.223-0.54 0.223-0.54 0.545-0.228h6.268q0.321 0 0.545 0.228t0.223 0.54zM14.973 7.429q0-0.768-0.205-1.518h-8.768q-0.321 0-0.545-0.223t-0.223-0.536q0-0.321 0.223-0.545t0.545-0.223h8.107q-0.786-1.277-2.098-2.027t-2.857-0.75q-1.58 0-2.924 0.781t-2.125 2.121-0.781 2.92q0 0.768 0.205 1.518h8.768q0.321 0 0.545 0.223t0.223 0.536q0 0.321-0.223 0.545t-0.545 0.223h-8.107q0.786 1.277 2.103 2.027t2.862 0.75q1.179 0 2.259-0.46t1.857-1.241 1.241-1.857 0.464-2.263zM18.286 5.152q0 0.313-0.223 0.536t-0.545 0.223h-1.17q0.152 0.759 0.152 1.518 0 1.491-0.585 2.853t-1.567 2.348-2.344 1.571-2.853 0.585q-2.196 0-4.004-1.188t-2.692-3.125h-1.688q-0.321 0-0.545-0.223t-0.223-0.545q0-0.313 0.223-0.536t0.545-0.223h1.179q-0.152-0.759-0.152-1.518 0-1.491 0.585-2.853t1.567-2.348 2.344-1.571 2.862-0.585q2.188 0 3.996 1.188t2.692 3.125h1.679q0.321 0 0.545 0.223t0.223 0.545z"></path>
</svg>
