<?xml version="1.0" encoding="utf-8"?>
<!-- Generated by IcoMoon.io -->
<!DOCTYPE svg PUBLIC "-//W3C//DTD SVG 1.1//EN" "http://www.w3.org/Graphics/SVG/1.1/DTD/svg11.dtd">
<svg version="1.1" xmlns="http://www.w3.org/2000/svg" xmlns:xlink="http://www.w3.org/1999/xlink" width="14" height="16" viewBox="0 0 14 16">
<path fill="#444444" d="M9.554 9.58l-1.429 1.429-1.348 1.357-0.268 0.268q-0.58 0.571-1.353 0.777t-1.531 0.018q-0.143 0.625-0.643 1.027t-1.152 0.402q-0.759 0-1.295-0.54t-0.536-1.299q0-0.643 0.397-1.143t1.013-0.643q-0.196-0.768 0.009-1.545t0.786-1.357l0.107-0.107 1.348 1.357-0.098 0.098q-0.33 0.33-0.33 0.795t0.33 0.804q0.33 0.33 0.795 0.33t0.795-0.33l0.268-0.268 1.348-1.357 1.438-1.429zM6.509 3.491l0.107 0.107-1.357 1.357-0.107-0.107q-0.33-0.33-0.795-0.33t-0.795 0.33-0.33 0.799 0.33 0.799l3.045 3.045-1.348 1.357-1.438-1.429-1.348-1.357-0.268-0.268q-0.607-0.598-0.804-1.424t0.045-1.603q-0.625-0.134-1.027-0.634t-0.402-1.152q0-0.759 0.536-1.299t1.295-0.54q0.679 0 1.192 0.438t0.621 1.098q0.75-0.179 1.513 0.031t1.335 0.781zM13.714 13.018q0 0.759-0.536 1.299t-1.295 0.54q-0.661 0-1.17-0.42t-0.634-1.054q-0.768 0.25-1.603 0.054t-1.442-0.804l-0.098-0.107 1.348-1.357 0.107 0.107q0.33 0.33 0.795 0.33t0.795-0.33 0.33-0.795-0.33-0.795l-3.054-3.054 1.357-1.357 2.786 2.786 0.259 0.268q0.571 0.571 0.781 1.344t0.022 1.531q0.679 0.098 1.129 0.612t0.451 1.201zM13.696 2.982q0 0.688-0.455 1.205t-1.134 0.616q0.232 0.759 0.027 1.576t-0.804 1.415l-0.107 0.107-1.348-1.357 0.107-0.107q0.33-0.33 0.33-0.795t-0.33-0.795-0.795-0.33-0.795 0.33l-3.054 3.054-1.357-1.357 1.438-1.429 1.357-1.357 0.259-0.268q0.598-0.598 1.42-0.799t1.589 0.031q0.098-0.67 0.612-1.125t1.21-0.455q0.759 0 1.295 0.54t0.536 1.299z"></path>
</svg>
