<?xml version="1.0" encoding="utf-8"?>
<!-- Generated by IcoMoon.io -->
<!DOCTYPE svg PUBLIC "-//W3C//DTD SVG 1.1//EN" "http://www.w3.org/Graphics/SVG/1.1/DTD/svg11.dtd">
<svg version="1.1" xmlns="http://www.w3.org/2000/svg" xmlns:xlink="http://www.w3.org/1999/xlink" width="18" height="16" viewBox="0 0 18 16">
<path fill="#444444" d="M16.071 6.893q0.991 0.411 1.603 1.299t0.612 1.978q0 1.464-1.054 2.504t-2.545 1.040q-0.036 0-0.103-0.004t-0.094-0.004h-10.866q-1.518-0.089-2.571-1.121t-1.054-2.504q0-0.982 0.491-1.813t1.313-1.313q-0.107-0.348-0.107-0.732 0-1.027 0.732-1.75t1.777-0.723q0.848 0 1.536 0.518 0.67-1.375 1.987-2.214t2.915-0.839q1.482 0 2.732 0.719t1.978 1.951 0.728 2.687q0 0.054-0.004 0.161t-0.004 0.161zM4.179 9.268q0 1.089 0.75 1.723t1.857 0.634q1.223 0 2.143-0.884-0.143-0.179-0.424-0.504t-0.388-0.451q-0.598 0.58-1.286 0.58-0.491 0-0.835-0.299t-0.344-0.781q0-0.473 0.344-0.777t0.817-0.304q0.393 0 0.754 0.188t0.652 0.491 0.58 0.67 0.616 0.732 0.688 0.67 0.866 0.491 1.085 0.188q1.080 0 1.826-0.638t0.746-1.701q0-1.080-0.75-1.714t-1.848-0.634q-1.277 0-2.152 0.866 0.125 0.143 0.263 0.304t0.308 0.357 0.259 0.304q0.589-0.571 1.268-0.571 0.464 0 0.821 0.295t0.357 0.75q0 0.509-0.33 0.817t-0.839 0.308q-0.384 0-0.737-0.188t-0.643-0.491-0.585-0.67-0.621-0.732-0.692-0.67-0.862-0.491-1.058-0.188q-1.089 0-1.848 0.629t-0.759 1.692z"></path>
</svg>
