<?xml version="1.0" encoding="utf-8"?>
<!-- Generated by IcoMoon.io -->
<!DOCTYPE svg PUBLIC "-//W3C//DTD SVG 1.1//EN" "http://www.w3.org/Graphics/SVG/1.1/DTD/svg11.dtd">
<svg version="1.1" xmlns="http://www.w3.org/2000/svg" xmlns:xlink="http://www.w3.org/1999/xlink" width="16" height="16" viewBox="0 0 16 16">
<path fill="#444444" d="M11.002 0c-2.761 0-5 2.239-5 5 0 0.643 0.135 1.25 0.356 1.814l-6.074 6.074c-0.175 0.176-0.284 0.343-0.284 0.611v1.5c0 0.535 0.465 1 1 1h1.5c0.268 0 0.438-0.107 0.613-0.282l0.717-0.718h1.171c0.552 0 1-0.448 1-1v-1h1c0.552 0 1-0.448 1-1v-1.172l1.184-1.185c0.565 0.223 1.172 0.357 1.816 0.357 2.761 0 5-2.239 5-5s-2.239-5-5-5zM11.002 9c-0.74 0-1.426-0.215-2.021-0.566l-0.172 0.171-1.515 1.515c-0.188 0.188-0.293 0.441-0.293 0.707v1.172h-1c-0.552 0-1 0.447-1 1v1h-1.171c-0.265 0-0.519 0.105-0.707 0.293l-0.709 0.709-1.413-0.002-0.001-1.425 5.832-5.822c0 0 0 0 0 0.001l0.734-0.734c-0.351-0.595-0.566-1.28-0.566-2.020 0-2.209 1.792-4 4-4s4 1.791 4 4-1.79 4-3.999 4zM13.91 4.12c-0.56-0.781-1.243-1.462-2.027-2.027-0.127-0.092-0.293-0.115-0.441-0.063-0.694 0.244-1.17 0.72-1.413 1.414-0.018 0.052-0.027 0.106-0.027 0.159 0 0.099 0.031 0.198 0.091 0.281 0.563 0.782 1.244 1.464 2.027 2.027 0.128 0.092 0.292 0.115 0.441 0.064 0.696-0.243 1.171-0.719 1.415-1.414 0.018-0.052 0.027-0.106 0.027-0.16-0.001-0.099-0.032-0.198-0.091-0.282zM12.41 5.505c-0.739-0.532-1.383-1.175-1.91-1.897 0.194-0.551 0.556-0.913 1.091-1.111 0.739 0.533 1.382 1.175 1.908 1.905-0.195 0.548-0.556 0.907-1.089 1.101z"></path>
</svg>
