<?xml version="1.0" encoding="utf-8"?>
<!-- Generated by IcoMoon.io -->
<!DOCTYPE svg PUBLIC "-//W3C//DTD SVG 1.1//EN" "http://www.w3.org/Graphics/SVG/1.1/DTD/svg11.dtd">
<svg version="1.1" xmlns="http://www.w3.org/2000/svg" xmlns:xlink="http://www.w3.org/1999/xlink" width="17" height="16" viewBox="0 0 17 16">
<path fill="#444444" d="M3.429 10.429v0.857q0 0.143-0.143 0.143h-0.857q-0.143 0-0.143-0.143v-0.857q0-0.143 0.143-0.143h0.857q0.143 0 0.143 0.143zM4.571 8.143v0.857q0 0.143-0.143 0.143h-2q-0.143 0-0.143-0.143v-0.857q0-0.143 0.143-0.143h2q0.143 0 0.143 0.143zM3.429 5.857v0.857q0 0.143-0.143 0.143h-0.857q-0.143 0-0.143-0.143v-0.857q0-0.143 0.143-0.143h0.857q0.143 0 0.143 0.143zM12.571 10.429v0.857q0 0.143-0.143 0.143h-7.714q-0.143 0-0.143-0.143v-0.857q0-0.143 0.143-0.143h7.714q0.143 0 0.143 0.143zM6.857 8.143v0.857q0 0.143-0.143 0.143h-0.857q-0.143 0-0.143-0.143v-0.857q0-0.143 0.143-0.143h0.857q0.143 0 0.143 0.143zM5.714 5.857v0.857q0 0.143-0.143 0.143h-0.857q-0.143 0-0.143-0.143v-0.857q0-0.143 0.143-0.143h0.857q0.143 0 0.143 0.143zM9.143 8.143v0.857q0 0.143-0.143 0.143h-0.857q-0.143 0-0.143-0.143v-0.857q0-0.143 0.143-0.143h0.857q0.143 0 0.143 0.143zM8 5.857v0.857q0 0.143-0.143 0.143h-0.857q-0.143 0-0.143-0.143v-0.857q0-0.143 0.143-0.143h0.857q0.143 0 0.143 0.143zM11.429 8.143v0.857q0 0.143-0.143 0.143h-0.857q-0.143 0-0.143-0.143v-0.857q0-0.143 0.143-0.143h0.857q0.143 0 0.143 0.143zM14.857 10.429v0.857q0 0.143-0.143 0.143h-0.857q-0.143 0-0.143-0.143v-0.857q0-0.143 0.143-0.143h0.857q0.143 0 0.143 0.143zM10.286 5.857v0.857q0 0.143-0.143 0.143h-0.857q-0.143 0-0.143-0.143v-0.857q0-0.143 0.143-0.143h0.857q0.143 0 0.143 0.143zM12.571 5.857v0.857q0 0.143-0.143 0.143h-0.857q-0.143 0-0.143-0.143v-0.857q0-0.143 0.143-0.143h0.857q0.143 0 0.143 0.143zM14.857 5.857v3.143q0 0.143-0.143 0.143h-2q-0.143 0-0.143-0.143v-0.857q0-0.143 0.143-0.143h1v-2.143q0-0.143 0.143-0.143h0.857q0.143 0 0.143 0.143zM16 12.571v-8h-14.857v8h14.857zM17.143 4.571v8q0 0.473-0.335 0.808t-0.808 0.335h-14.857q-0.473 0-0.808-0.335t-0.335-0.808v-8q0-0.473 0.335-0.808t0.808-0.335h14.857q0.473 0 0.808 0.335t0.335 0.808z"></path>
</svg>
