<?xml version="1.0" encoding="utf-8"?>
<!-- Generated by IcoMoon.io -->
<!DOCTYPE svg PUBLIC "-//W3C//DTD SVG 1.1//EN" "http://www.w3.org/Graphics/SVG/1.1/DTD/svg11.dtd">
<svg version="1.1" xmlns="http://www.w3.org/2000/svg" xmlns:xlink="http://www.w3.org/1999/xlink" width="16" height="16" viewBox="0 0 16 16">
<path fill="#444444" d="M4.589 10.67l0.723-2.67h-1.42l0.67 2.679q0.009 0.009 0.009 0.027t0.009 0.027q0-0.009 0.004-0.031t0.004-0.031zM5.625 6.857l0.313-1.143h-2.607l0.286 1.143h2.009zM7.339 6.857h1.241l-0.313-1.143h-0.625zM11.348 10.679l0.696-2.679h-1.446l0.723 2.67q0 0.009 0.004 0.031t0.013 0.031q0-0.009 0.004-0.027t0.004-0.027zM12.339 6.857l0.295-1.143h-2.652l0.304 1.143h2.054zM16 7.143v0.571q0 0.125-0.080 0.205t-0.205 0.080h-1.902l-1.464 5.5q-0.063 0.214-0.277 0.214h-1.42q-0.214 0-0.277-0.214l-1.482-5.5h-1.866l-1.491 5.5q-0.063 0.214-0.277 0.214h-1.42q-0.098 0-0.174-0.063t-0.094-0.152l-1.429-5.5h-1.857q-0.125 0-0.205-0.080t-0.080-0.205v-0.571q0-0.125 0.080-0.205t0.205-0.080h1.563l-0.295-1.143h-1.268q-0.125 0-0.205-0.080t-0.080-0.205v-0.571q0-0.125 0.080-0.205t0.205-0.080h0.973l-0.795-3.071q-0.045-0.134 0.045-0.25 0.089-0.107 0.232-0.107h1.223q0.232 0 0.277 0.214l0.804 3.214h3.205l0.866-3.214q0.063-0.214 0.277-0.214h1.125q0.214 0 0.277 0.214l0.875 3.214h3.259l0.83-3.214q0.045-0.214 0.277-0.214h1.223q0.143 0 0.232 0.107 0.089 0.116 0.045 0.25l-0.813 3.071h0.991q0.125 0 0.205 0.080t0.080 0.205v0.571q0 0.125-0.080 0.205t-0.205 0.080h-1.295l-0.304 1.143h1.598q0.125 0 0.205 0.080t0.080 0.205z"></path>
</svg>
