<?xml version="1.0" encoding="utf-8"?>
<!-- Generated by IcoMoon.io -->
<!DOCTYPE svg PUBLIC "-//W3C//DTD SVG 1.1//EN" "http://www.w3.org/Graphics/SVG/1.1/DTD/svg11.dtd">
<svg version="1.1" xmlns="http://www.w3.org/2000/svg" xmlns:xlink="http://www.w3.org/1999/xlink" width="16" height="16" viewBox="0 0 16 16">
<path fill="#444444" d="M10.341 1.866c-0.236-0.236-0.55-0.366-0.884-0.366s-0.647 0.13-0.885 0.367l-0.705 0.706c-0.237 0.236-0.367 0.55-0.367 0.885 0 0.236 0.064 0.461 0.186 0.657l-6.788 2.72c-0.454 0.2-0.779 0.609-0.871 1.095-0.092 0.489 0.063 0.989 0.417 1.344l6.36 6.29c0.274 0.274 0.638 0.43 1.022 0.438 0.009 0.001 0.030 0.001 0.039 0.001 0.101 0 0.204-0.011 0.305-0.031 0.497-0.103 0.904-0.447 1.088-0.914l2.671-6.688c0.201 0.133 0.438 0.204 0.684 0.204 0.335 0 0.649-0.13 0.884-0.367l0.704-0.704c0.239-0.237 0.369-0.551 0.369-0.886s-0.131-0.65-0.366-0.884l-3.862-3.864zM8.329 14.684c-0.062 0.156-0.198 0.272-0.364 0.306-0.038 0.008-0.077 0.011-0.114 0.011-0.127-0.003-0.25-0.054-0.341-0.146l-6.364-6.294c-0.117-0.117-0.168-0.284-0.137-0.447 0.030-0.162 0.139-0.299 0.291-0.365l3.108-1.245c2.095 0.697 4.189 0.026 6.285 2.261l-2.364 5.919zM13.496 6.79l-0.707 0.707c-0.098 0.098-0.256 0.098-0.354 0l-0.884-0.883-0.716 1.795 0.059-0.152c-1.505-1.502-3.034-1.692-4.415-1.861-0.444-0.054-0.873-0.112-1.296-0.202l4.246-1.7-0.857-0.857c-0.098-0.098-0.098-0.256 0-0.353l0.707-0.708c0.098-0.098 0.256-0.098 0.354 0l3.862 3.864c0.099 0.098 0.099 0.256 0.001 0.354zM8.25 10.5c0.689 0 1.25-0.56 1.25-1.25s-0.56-1.25-1.25-1.25c-0.689 0-1.25 0.56-1.25 1.25s0.561 1.25 1.25 1.25zM8.25 8.5c0.414 0 0.75 0.336 0.75 0.75s-0.336 0.75-0.75 0.75c-0.415 0-0.75-0.336-0.75-0.75s0.335-0.75 0.75-0.75zM14.75 0c-0.69 0-1.25 0.56-1.25 1.25s0.56 1.25 1.25 1.25 1.25-0.56 1.25-1.25-0.56-1.25-1.25-1.25zM14.75 2c-0.414 0-0.75-0.336-0.75-0.75s0.336-0.75 0.75-0.75 0.75 0.336 0.75 0.75-0.336 0.75-0.75 0.75zM4 8.5c0 0.552 0.449 1 1 1s1-0.448 1-1-0.449-1-1-1-1 0.449-1 1zM5 8c0.276 0 0.5 0.223 0.5 0.5s-0.224 0.5-0.5 0.5-0.5-0.223-0.5-0.5 0.224-0.5 0.5-0.5zM6 11.5c0-0.276 0.224-0.5 0.5-0.5s0.5 0.224 0.5 0.5c0 0.276-0.224 0.5-0.5 0.5s-0.5-0.224-0.5-0.5zM14 4c0-0.276 0.224-0.5 0.5-0.5s0.5 0.224 0.5 0.5c0 0.276-0.224 0.5-0.5 0.5s-0.5-0.224-0.5-0.5z"></path>
</svg>
