<?xml version="1.0" encoding="utf-8"?>
<!-- Generated by IcoMoon.io -->
<!DOCTYPE svg PUBLIC "-//W3C//DTD SVG 1.1//EN" "http://www.w3.org/Graphics/SVG/1.1/DTD/svg11.dtd">
<svg version="1.1" xmlns="http://www.w3.org/2000/svg" xmlns:xlink="http://www.w3.org/1999/xlink" width="14" height="16" viewBox="0 0 14 16">
<path fill="#444444" d="M5.839 9.625q-0.009 0.027-0.112-0.004t-0.281-0.103l-0.179-0.080q-0.393-0.179-0.777-0.438-0.063-0.045-0.366-0.281t-0.339-0.254q-0.598 0.92-1.196 1.616-0.723 0.848-0.938 0.982-0.036 0.018-0.174 0.036t-0.165 0q0.054-0.036 0.732-0.821 0.188-0.214 0.763-1.027t0.701-1.054q0.152-0.268 0.455-0.879t0.321-0.692q-0.071-0.009-0.982 0.295-0.071 0.018-0.246 0.067t-0.308 0.085-0.152 0.045q-0.018 0.018-0.018 0.094t-0.009 0.085q-0.045 0.089-0.277 0.134-0.205 0.063-0.42 0-0.161-0.036-0.25-0.188-0.036-0.054-0.045-0.205 0.054-0.018 0.219-0.045t0.263-0.054q0.518-0.143 0.938-0.286 0.893-0.313 0.911-0.313 0.089-0.018 0.384-0.174t0.393-0.192q0.080-0.027 0.192-0.071t0.129-0.049 0.054 0.004q0.018 0.107-0.009 0.295 0 0.018-0.112 0.241t-0.237 0.478-0.152 0.299q-0.223 0.446-0.688 1.17l0.571 0.25q0.107 0.054 0.665 0.286t0.603 0.25q0.036 0.009 0.094 0.228t0.040 0.272zM4.009 5.286q0.027 0.134-0.036 0.25-0.107 0.205-0.446 0.339-0.268 0.107-0.536 0.107-0.232-0.027-0.438-0.232-0.125-0.134-0.161-0.366l0.009-0.027q0.027 0.027 0.174 0.045t0.237 0 0.518-0.143q0.321-0.107 0.491-0.125 0.152 0 0.188 0.152zM10.241 6.438l0.563 2.027-1.241-0.375zM0.348 13.58l6.196-2.071v-9.214l-6.196 2.080v9.205zM11.429 10.75l0.911 0.277-1.616-5.866-0.893-0.277-1.929 4.786 0.911 0.277 0.402-0.982 1.884 0.58zM6.938 2.161l5.116 1.643v-3.393zM9.714 13.973l1.411 0.116-0.482 1.429-0.357-0.589q-1.161 0.741-2.464 0.964-0.518 0.107-0.813 0.107h-0.75q-0.705 0-1.781-0.348t-1.638-0.759q-0.071-0.063-0.071-0.143 0-0.071 0.045-0.121t0.116-0.049q0.036 0 0.161 0.067t0.272 0.147 0.183 0.098q0.652 0.33 1.424 0.549t1.406 0.219q0.848 0 1.491-0.129t1.402-0.451q0.134-0.063 0.272-0.138t0.304-0.17 0.254-0.147zM13.714 4.339v9.634l-6.911-2.196q-0.125 0.054-3.348 1.138t-3.286 1.085q-0.116 0-0.161-0.116 0-0.009-0.009-0.027v-9.625q0.027-0.080 0.036-0.089 0.045-0.054 0.179-0.098 0.946-0.313 1.33-0.446v-3.429l4.982 1.768q0.018 0 1.433-0.491t2.821-0.969 1.442-0.478q0.179 0 0.179 0.188v3.732z"></path>
</svg>
