<?xml version="1.0" encoding="utf-8"?>
<!-- Generated by IcoMoon.io -->
<!DOCTYPE svg PUBLIC "-//W3C//DTD SVG 1.1//EN" "http://www.w3.org/Graphics/SVG/1.1/DTD/svg11.dtd">
<svg version="1.1" xmlns="http://www.w3.org/2000/svg" xmlns:xlink="http://www.w3.org/1999/xlink" width="16" height="16" viewBox="0 0 16 16">
<path fill="#444444" d="M11.536 6.286q0 0.054 0.089 0.366 0.089 0.259 0.223 0.442t0.366 0.304 0.393 0.179 0.491 0.147q2.902 0.813 2.902 2.964 0 1.304-0.942 2.165t-2.272 0.862q-0.527 0-0.996-0.165t-0.817-0.406-0.688-0.665-0.563-0.781-0.478-0.924-0.388-0.92-0.353-0.951-0.317-0.848q-0.286-0.723-0.549-1.192t-0.656-0.862-0.929-0.571-1.268-0.179q-0.857 0-1.634 0.496t-1.232 1.29-0.455 1.652q0 1.429 0.951 2.496t2.353 1.067q1.58 0 2.304-0.848 0.5-0.563 0.741-1.036l0.75 1.357q-0.134 0.304-0.393 0.625l0.009 0.009q-1.17 1.357-3.464 1.357-1.313 0-2.406-0.705t-1.701-1.853-0.607-2.451q0-0.938 0.388-1.839t1.036-1.576 1.536-1.085 1.826-0.411q0.777 0 1.42 0.17t1.103 0.446 0.848 0.714 0.647 0.884 0.522 1.045 0.451 1.112 0.446 1.165 0.491 1.134q0.857 1.786 2.080 1.786 0.723 0 1.237-0.433t0.513-1.147q0-0.375-0.17-0.643t-0.451-0.411-0.647-0.281-0.754-0.241-0.781-0.304-0.723-0.464-0.58-0.732-0.348-1.094q-0.027-0.143-0.027-0.295 0-0.982 0.781-1.714t1.772-0.696q0.696 0.027 1.076 0.129t0.808 0.478h-0.009q0.107 0.098 0.205 0.219t0.232 0.321 0.17 0.246l-1.152 0.884q-0.232-0.438-0.482-0.625v-0.009q-0.205-0.188-0.866-0.188-0.438 0-0.75 0.295t-0.313 0.741z"></path>
</svg>
