<?xml version="1.0" encoding="utf-8"?>
<!-- Generated by IcoMoon.io -->
<!DOCTYPE svg PUBLIC "-//W3C//DTD SVG 1.1//EN" "http://www.w3.org/Graphics/SVG/1.1/DTD/svg11.dtd">
<svg version="1.1" xmlns="http://www.w3.org/2000/svg" xmlns:xlink="http://www.w3.org/1999/xlink" width="14" height="16" viewBox="0 0 14 16">
<path fill="#444444" d="M12.786 9.393q0-1.545-2.089-2.134-0.313-0.089-0.473-0.147t-0.339-0.223-0.259-0.415q0-0.018-0.018-0.076t-0.027-0.107-0.009-0.067q0-0.321 0.219-0.531t0.54-0.21q0.482 0 0.634 0.134h-0.009q0.179 0.134 0.348 0.455l0.83-0.634q-0.348-0.482-0.438-0.571-0.295-0.259-0.603-0.348t-0.763-0.089q-0.714 0-1.268 0.513t-0.554 1.228q0 0.063 0.018 0.205 0.143 0.857 0.576 1.25t1.326 0.652q0.259 0.071 0.438 0.138t0.402 0.192 0.344 0.308 0.121 0.415v0.045q0.009 0.518-0.362 0.83t-0.897 0.313q-0.866 0-1.491-1.286-0.205-0.42-0.46-1.085t-0.429-1.121-0.482-0.987-0.661-0.853-0.924-0.54-1.313-0.219q-0.902 0-1.714 0.5t-1.286 1.321-0.446 1.714v0.009q0.036 0.964 0.451 1.777t1.192 1.317 1.75 0.504q1.661 0 2.491-0.982 0.179-0.241 0.277-0.455l-0.536-0.973q-0.375 0.714-0.884 1.036t-1.304 0.321q-1.027 0-1.705-0.777t-0.679-1.821q0-0.938 0.732-1.688t1.661-0.75q1 0 1.518 0.478t0.929 1.54q0.071 0.188 0.228 0.612t0.254 0.683 0.281 0.665 0.344 0.661 0.406 0.558 0.496 0.478 0.589 0.295 0.714 0.121q0.955 0 1.634-0.621t0.679-1.558zM13.714 3.714v8.571q0 1.063-0.754 1.817t-1.817 0.754h-8.571q-1.063 0-1.817-0.754t-0.754-1.817v-8.571q0-1.063 0.754-1.817t1.817-0.754h8.571q1.063 0 1.817 0.754t0.754 1.817z"></path>
</svg>
