<?xml version="1.0" encoding="utf-8"?>
<!-- Generated by IcoMoon.io -->
<!DOCTYPE svg PUBLIC "-//W3C//DTD SVG 1.1//EN" "http://www.w3.org/Graphics/SVG/1.1/DTD/svg11.dtd">
<svg version="1.1" xmlns="http://www.w3.org/2000/svg" xmlns:xlink="http://www.w3.org/1999/xlink" width="16" height="16" viewBox="0 0 16 16">
<path fill="#444444" d="M11.429 6.286q0-0.232-0.17-0.402t-0.402-0.17q-1.536 0-2.839 0.442t-2.317 1.196-2.103 1.96q-0.17 0.188-0.17 0.402 0 0.232 0.17 0.402t0.402 0.17q0.214 0 0.402-0.17 0.241-0.214 0.661-0.634t0.598-0.589q1.223-1.107 2.397-1.571t2.799-0.464q0.232 0 0.402-0.17t0.17-0.402zM16 4.518q0 0.848-0.179 1.723-0.411 2-1.647 3.42t-3.192 2.393q-1.911 0.964-3.911 0.964-1.321 0-2.554-0.42-0.134-0.045-0.786-0.375t-0.857-0.33q-0.143 0-0.353 0.286t-0.402 0.625-0.469 0.625-0.536 0.286q-0.268 0-0.455-0.098t-0.277-0.214-0.241-0.375q-0.018-0.036-0.054-0.098t-0.049-0.089-0.027-0.085-0.013-0.121q0-0.313 0.277-0.656t0.607-0.585 0.607-0.5 0.277-0.429q0-0.036-0.125-0.339t-0.143-0.393q-0.080-0.455-0.080-0.929 0-1.027 0.388-1.964t1.063-1.647 1.522-1.241 1.821-0.853q0.491-0.161 1.295-0.228t1.603-0.080 1.594-0.054 1.46-0.214 1.013-0.504l0.263-0.263t0.263-0.25 0.241-0.179 0.326-0.143 0.388-0.040q0.348 0 0.629 0.411t0.424 1 0.214 1.107 0.071 0.857z"></path>
</svg>
