<?xml version="1.0" encoding="utf-8"?>
<!-- Generated by IcoMoon.io -->
<!DOCTYPE svg PUBLIC "-//W3C//DTD SVG 1.1//EN" "http://www.w3.org/Graphics/SVG/1.1/DTD/svg11.dtd">
<svg version="1.1" xmlns="http://www.w3.org/2000/svg" xmlns:xlink="http://www.w3.org/1999/xlink" width="18" height="16" viewBox="0 0 18 16">
<path fill="#444444" d="M16.902 3.5l1.384 11.357q-1.17 0-2.295-0.509-1.786-0.813-3.509-0.813-2.018 0-3.339 1.321-1.321-1.321-3.339-1.321-1.723 0-3.509 0.813-1.143 0.509-2.25 0.509h-0.045l1.384-11.357q2-1.134 4.304-1.134 2.080 0 3.455 0.946 1.375-0.946 3.455-0.946 2.304 0 4.304 1.134zM12.482 12.313q1.152 0 2.071 0.254t2.321 0.835l-1.107-9.116q-1.527-0.696-3.286-0.696-2 0-3.339 1.259-1.339-1.259-3.339-1.259-1.759 0-3.286 0.696l-1.107 9.116q0.938-0.384 1.478-0.58t1.326-0.353 1.589-0.156q1.804 0 3.339 0.964 1.536-0.964 3.339-0.964zM12.839 12.009l-0.491-8.098q-1.884 0.036-3.205 1.384-1.357-1.384-3.339-1.384-1.571 0-3 0.589l-1.018 8.402q1.107-0.455 2.040-0.679t1.978-0.223q1.866 0 3.339 0.911 1.536-0.955 3.339-0.911z"></path>
</svg>
