<?xml version="1.0" encoding="utf-8"?>
<!-- Generated by IcoMoon.io -->
<!DOCTYPE svg PUBLIC "-//W3C//DTD SVG 1.1//EN" "http://www.w3.org/Graphics/SVG/1.1/DTD/svg11.dtd">
<svg version="1.1" xmlns="http://www.w3.org/2000/svg" xmlns:xlink="http://www.w3.org/1999/xlink" width="14" height="16" viewBox="0 0 14 16">
<path fill="#444444" d="M12.563 7.375q0-0.393-0.063-1.013t-0.161-0.862q-0.107-0.268-0.152-0.393t-0.080-0.326-0.036-0.433q0-0.205 0.045-0.612t0.045-0.603q0-0.33-0.089-0.491-0.036-0.009-0.116-0.009-0.17 0-0.518 0.040t-0.527 0.040q-0.536 0-1.571-0.214t-1.563-0.214q-0.384 0-0.844 0.103t-0.759 0.21-0.799 0.304q-1.223 0.482-1.804 0.92-0.857 0.652-1.424 1.692t-0.786 2.107-0.219 2.219q0 0.357 0.112 1.071t0.112 1.080q0 0.205-0.098 0.594t-0.098 0.585 0.107 0.326 0.304 0.129q0.214 0 0.647-0.098t0.656-0.098q0.509 0 1.513 0.138t1.513 0.138q1.616 0 2.536-0.321 1.152-0.402 2.103-1.362t1.482-2.192 0.531-2.455zM13.705 7.357q0 1.473-0.625 2.924t-1.75 2.571-2.509 1.612q-1.107 0.393-2.911 0.393-0.509 0-1.518-0.129t-1.509-0.129q-0.214 0-0.647 0.129t-0.656 0.129q-0.652 0-1.103-0.496t-0.451-1.147q0-0.214 0.098-0.607t0.098-0.598q0-0.357-0.112-1.076t-0.112-1.085q0-0.991 0.161-1.942t0.487-1.871 0.897-1.732 1.339-1.393q0.696-0.527 2.071-1.071 1.732-0.696 2.821-0.696 0.536 0 1.567 0.214t1.549 0.214q0.17 0 0.509-0.045t0.518-0.045q0.723 0 1.054 0.451t0.33 1.201q0 0.205-0.045 0.607t-0.045 0.607q0 0.089 0.009 0.165t0.027 0.152 0.036 0.121 0.058 0.143 0.058 0.152q0.143 0.357 0.223 1.058t0.080 1.219z"></path>
</svg>
