<?xml version="1.0" encoding="utf-8"?>
<!-- Generated by IcoMoon.io -->
<!DOCTYPE svg PUBLIC "-//W3C//DTD SVG 1.1//EN" "http://www.w3.org/Graphics/SVG/1.1/DTD/svg11.dtd">
<svg version="1.1" xmlns="http://www.w3.org/2000/svg" xmlns:xlink="http://www.w3.org/1999/xlink" width="16" height="16" viewBox="0 0 16 16">
<path fill="#444444" d="M8 0q1.625 0 3.107 0.634t2.554 1.705 1.705 2.554 0.634 3.107-0.634 3.107-1.705 2.554-2.554 1.705-3.107 0.634-3.107-0.634-2.554-1.705-1.705-2.554-0.634-3.107 0.634-3.107 1.705-2.554 2.554-1.705 3.107-0.634zM8 1.143q-1.696 0-3.223 0.804l1.732 1.732q0.732-0.25 1.491-0.25t1.491 0.25l1.732-1.732q-1.527-0.804-3.223-0.804zM1.946 11.223l1.732-1.732q-0.25-0.732-0.25-1.491t0.25-1.491l-1.732-1.732q-0.804 1.527-0.804 3.223t0.804 3.223zM8 14.857q1.696 0 3.223-0.804l-1.732-1.732q-0.732 0.25-1.491 0.25t-1.491-0.25l-1.732 1.732q1.527 0.804 3.223 0.804zM8 11.429q1.42 0 2.424-1.004t1.004-2.424-1.004-2.424-2.424-1.004-2.424 1.004-1.004 2.424 1.004 2.424 2.424 1.004zM12.321 9.491l1.732 1.732q0.804-1.527 0.804-3.223t-0.804-3.223l-1.732 1.732q0.25 0.732 0.25 1.491t-0.25 1.491z"></path>
</svg>
