<?xml version="1.0" encoding="utf-8"?>
<!-- Generated by IcoMoon.io -->
<!DOCTYPE svg PUBLIC "-//W3C//DTD SVG 1.1//EN" "http://www.w3.org/Graphics/SVG/1.1/DTD/svg11.dtd">
<svg version="1.1" xmlns="http://www.w3.org/2000/svg" xmlns:xlink="http://www.w3.org/1999/xlink" width="18" height="16" viewBox="0 0 18 16">
<path fill="#444444" d="M18.286 13.714v1.143h-18.286v-13.714h1.143v12.571h17.143zM17.143 2.571v3.884q0 0.188-0.174 0.263t-0.317-0.067l-1.080-1.080-5.652 5.652q-0.089 0.089-0.205 0.089t-0.205-0.089l-2.080-2.080-3.714 3.714-1.714-1.714 5.223-5.223q0.089-0.089 0.205-0.089t0.205 0.089l2.080 2.080 4.143-4.143-1.080-1.080q-0.143-0.143-0.067-0.317t0.263-0.174h3.884q0.125 0 0.205 0.080t0.080 0.205z"></path>
</svg>
