<?xml version="1.0" encoding="utf-8"?>
<!-- Generated by IcoMoon.io -->
<!DOCTYPE svg PUBLIC "-//W3C//DTD SVG 1.1//EN" "http://www.w3.org/Graphics/SVG/1.1/DTD/svg11.dtd">
<svg version="1.1" xmlns="http://www.w3.org/2000/svg" xmlns:xlink="http://www.w3.org/1999/xlink" width="14" height="16" viewBox="0 0 14 16">
<path fill="#444444" d="M2.116 12.625h2.062v-6.196h-2.063v6.196zM4.313 4.518q-0.009-0.464-0.321-0.768t-0.83-0.304-0.844 0.304-0.326 0.768q0 0.455 0.317 0.763t0.826 0.308h0.009q0.527 0 0.848-0.308t0.321-0.763zM9.536 12.625h2.063v-3.554q0-1.375-0.652-2.080t-1.723-0.705q-1.214 0-1.866 1.045h0.018v-0.902h-2.063q0.027 0.589 0 6.196h2.063v-3.464q0-0.339 0.063-0.5 0.134-0.313 0.402-0.531t0.661-0.219q1.036 0 1.036 1.402v3.313zM13.714 3.714v8.571q0 1.063-0.754 1.817t-1.817 0.754h-8.571q-1.063 0-1.817-0.754t-0.754-1.817v-8.571q0-1.063 0.754-1.817t1.817-0.754h8.571q1.063 0 1.817 0.754t0.754 1.817z"></path>
</svg>
