<?xml version="1.0" encoding="utf-8"?>
<!-- Generated by IcoMoon.io -->
<!DOCTYPE svg PUBLIC "-//W3C//DTD SVG 1.1//EN" "http://www.w3.org/Graphics/SVG/1.1/DTD/svg11.dtd">
<svg version="1.1" xmlns="http://www.w3.org/2000/svg" xmlns:xlink="http://www.w3.org/1999/xlink" width="14" height="16" viewBox="0 0 14 16">
<path fill="#444444" d="M5.92 3.67q-0.098 0.009-0.138 0.094t-0.076 0.085q-0.045 0.009-0.045-0.045 0-0.107 0.17-0.134h0.089zM6.696 3.795q-0.036 0.009-0.103-0.058t-0.156-0.040q0.214-0.098 0.286 0.018 0.027 0.054-0.027 0.080zM3.563 7.607q-0.036-0.009-0.054 0.027t-0.040 0.112-0.049 0.121-0.089 0.116q-0.063 0.089-0.009 0.107 0.036 0.009 0.112-0.063t0.112-0.161q0.009-0.027 0.018-0.063t0.018-0.054 0.013-0.040 0.004-0.036v-0.027t-0.009-0.022-0.027-0.018zM11.196 10.813q0-0.161-0.491-0.375 0.036-0.134 0.067-0.246t0.045-0.232 0.027-0.192 0.004-0.201-0.009-0.174-0.031-0.196-0.036-0.183-0.045-0.223-0.049-0.237q-0.089-0.429-0.42-0.92t-0.643-0.67q0.214 0.179 0.509 0.741 0.777 1.446 0.482 2.482-0.098 0.357-0.446 0.375-0.277 0.036-0.344-0.165t-0.071-0.746-0.103-0.955q-0.080-0.348-0.174-0.616t-0.174-0.406-0.138-0.219-0.116-0.134-0.067-0.063q-0.125-0.554-0.277-0.92t-0.263-0.5-0.21-0.295-0.134-0.357q-0.036-0.188 0.054-0.478t0.040-0.442-0.397-0.223q-0.134-0.027-0.397-0.161t-0.317-0.143q-0.071-0.009-0.098-0.232t0.071-0.455 0.321-0.241q0.33-0.027 0.455 0.268t0.036 0.518q-0.098 0.17-0.018 0.237t0.268 0.004q0.116-0.036 0.116-0.321v-0.33q-0.045-0.268-0.121-0.446t-0.188-0.272-0.21-0.134-0.241-0.067q-0.955 0.071-0.795 1.196 0 0.134-0.009 0.134-0.080-0.080-0.263-0.094t-0.295 0.004-0.138-0.045q0.009-0.509-0.143-0.804t-0.402-0.304q-0.241-0.009-0.371 0.246t-0.147 0.531q-0.009 0.134 0.031 0.33t0.116 0.335 0.138 0.121q0.089-0.027 0.143-0.125 0.036-0.080-0.063-0.071-0.063 0-0.138-0.129t-0.085-0.299q-0.009-0.196 0.080-0.33t0.304-0.125q0.152 0 0.241 0.188t0.085 0.348-0.013 0.196q-0.196 0.134-0.277 0.259-0.071 0.107-0.246 0.21t-0.183 0.112q-0.116 0.125-0.138 0.241t0.067 0.161q0.125 0.071 0.223 0.174t0.143 0.17 0.165 0.116 0.317 0.058q0.42 0.018 0.911-0.134 0.018-0.009 0.205-0.063t0.308-0.094 0.263-0.116 0.188-0.156q0.080-0.125 0.179-0.071 0.045 0.027 0.058 0.076t-0.027 0.107-0.147 0.085q-0.179 0.054-0.504 0.192t-0.406 0.174q-0.393 0.17-0.625 0.205-0.223 0.045-0.705-0.018-0.089-0.018-0.080 0.018t0.152 0.17q0.223 0.205 0.598 0.196 0.152-0.009 0.321-0.063t0.321-0.125 0.299-0.156 0.268-0.152 0.219-0.107 0.156-0.022 0.076 0.098q0 0.018-0.009 0.040t-0.036 0.045-0.054 0.040-0.076 0.045-0.080 0.040-0.089 0.045-0.085 0.040q-0.25 0.125-0.603 0.393t-0.594 0.384-0.438 0.009q-0.188-0.098-0.563-0.652-0.196-0.277-0.223-0.196-0.009 0.027-0.009 0.089 0 0.223-0.134 0.504t-0.263 0.496-0.188 0.518 0.103 0.563q-0.205 0.054-0.558 0.804t-0.424 1.259q-0.018 0.161-0.013 0.616t-0.049 0.527q-0.071 0.214-0.259 0.027-0.286-0.277-0.321-0.839-0.018-0.25 0.036-0.5 0.036-0.17-0.009-0.161l-0.036 0.045q-0.321 0.58 0.089 1.482 0.045 0.107 0.223 0.25t0.214 0.179q0.179 0.205 0.929 0.808t0.83 0.683q0.143 0.134 0.156 0.339t-0.125 0.384-0.406 0.205q0.071 0.134 0.259 0.397t0.25 0.482 0.063 0.629q0.411-0.214 0.063-0.821-0.036-0.071-0.094-0.143t-0.085-0.107-0.018-0.054q0.027-0.045 0.116-0.085t0.179 0.022q0.411 0.464 1.482 0.321 1.188-0.134 1.58-0.777 0.205-0.339 0.304-0.268 0.107 0.054 0.089 0.464-0.009 0.223-0.205 0.821-0.080 0.205-0.054 0.335t0.214 0.138q0.027-0.17 0.129-0.688t0.121-0.804q0.018-0.188-0.058-0.656t-0.067-0.866 0.205-0.629q0.134-0.161 0.455-0.161 0.009-0.33 0.308-0.473t0.647-0.094 0.536 0.201zM5.589 3.429q0.027-0.152-0.022-0.268t-0.103-0.134q-0.080-0.018-0.080 0.063 0.018 0.045 0.045 0.054 0.089 0 0.063 0.134-0.027 0.179 0.071 0.179 0.027 0 0.027-0.027zM9.33 5.188q-0.018-0.071-0.058-0.103t-0.116-0.045-0.129-0.049q-0.045-0.027-0.085-0.071t-0.063-0.071-0.049-0.058-0.036-0.036-0.036 0.013q-0.125 0.143 0.063 0.388t0.348 0.281q0.080 0.009 0.129-0.071t0.031-0.179zM7.741 3.286q0-0.098-0.045-0.174t-0.098-0.112-0.080-0.027q-0.125 0.009-0.063 0.063l0.036 0.018q0.125 0.036 0.161 0.277 0 0.027 0.071-0.018zM8.223 1.205q0-0.018-0.022-0.045t-0.080-0.063-0.085-0.054q-0.134-0.134-0.214-0.134-0.080 0.009-0.103 0.067t-0.009 0.116-0.004 0.112q-0.009 0.036-0.054 0.094t-0.054 0.080 0.027 0.076q0.036 0.027 0.071 0t0.098-0.080 0.134-0.080q0.009-0.009 0.080-0.009t0.134-0.018 0.080-0.063zM13.268 13.179q0.179 0.107 0.277 0.219t0.107 0.214-0.022 0.201-0.138 0.196-0.21 0.174-0.268 0.165-0.281 0.147-0.286 0.138-0.241 0.116q-0.339 0.17-0.763 0.5t-0.674 0.571q-0.152 0.143-0.607 0.174t-0.795-0.129q-0.161-0.080-0.263-0.21t-0.147-0.228-0.196-0.174-0.42-0.085q-0.393-0.009-1.161-0.009-0.17 0-0.509 0.013t-0.518 0.022q-0.393 0.009-0.71 0.134t-0.478 0.268-0.388 0.254-0.478 0.103q-0.259-0.009-0.991-0.277t-1.304-0.384q-0.17-0.036-0.455-0.085t-0.446-0.080-0.353-0.085-0.299-0.129-0.152-0.174q-0.089-0.205 0.063-0.594t0.161-0.487q0.009-0.143-0.036-0.357t-0.089-0.379-0.040-0.326 0.094-0.241q0.125-0.107 0.509-0.125t0.536-0.107q0.268-0.161 0.375-0.313t0.107-0.455q0.188 0.652-0.286 0.946-0.286 0.179-0.741 0.134-0.304-0.027-0.384 0.089-0.116 0.134 0.045 0.509 0.018 0.054 0.071 0.161t0.076 0.161 0.040 0.152 0.009 0.196q0 0.134-0.152 0.438t-0.125 0.429q0.027 0.152 0.33 0.232 0.179 0.054 0.754 0.165t0.888 0.183q0.214 0.054 0.661 0.196t0.737 0.205 0.496 0.036q0.384-0.054 0.576-0.25t0.205-0.429-0.067-0.522-0.17-0.464-0.179-0.326q-1.080-1.696-1.509-2.161-0.607-0.661-1.009-0.357-0.098 0.080-0.134-0.134-0.027-0.143-0.018-0.339 0.009-0.259 0.089-0.464t0.214-0.42 0.196-0.375q0.071-0.188 0.237-0.643t0.263-0.696 0.268-0.545 0.348-0.482q0.982-1.277 1.107-1.741-0.107-1-0.143-2.768-0.018-0.804 0.214-1.353t0.946-0.933q0.348-0.188 0.929-0.188 0.473-0.009 0.946 0.121t0.795 0.371q0.509 0.375 0.817 1.085t0.263 1.317q-0.045 0.848 0.268 1.911 0.304 1.009 1.188 1.946 0.491 0.527 0.888 1.455t0.531 1.705q0.071 0.438 0.045 0.754t-0.107 0.496-0.179 0.196q-0.089 0.018-0.21 0.17t-0.241 0.317-0.362 0.299-0.545 0.125q-0.161-0.009-0.281-0.045t-0.201-0.121-0.121-0.138-0.103-0.183-0.080-0.174q-0.196-0.33-0.366-0.268t-0.25 0.438 0.063 0.866q0.179 0.625 0.009 1.741-0.089 0.58 0.161 0.897t0.652 0.295 0.759-0.317q0.527-0.438 0.799-0.594t0.924-0.379q0.473-0.161 0.688-0.326t0.165-0.308-0.223-0.254-0.46-0.21q-0.295-0.098-0.442-0.429t-0.134-0.647 0.138-0.424q0.009 0.277 0.071 0.504t0.129 0.362 0.183 0.254 0.188 0.17 0.192 0.116 0.147 0.085z"></path>
</svg>
