<?xml version="1.0" encoding="utf-8"?>
<!-- Generated by IcoMoon.io -->
<!DOCTYPE svg PUBLIC "-//W3C//DTD SVG 1.1//EN" "http://www.w3.org/Graphics/SVG/1.1/DTD/svg11.dtd">
<svg version="1.1" xmlns="http://www.w3.org/2000/svg" xmlns:xlink="http://www.w3.org/1999/xlink" width="16" height="16" viewBox="0 0 16 16">
<path fill="#444444" d="M2.286 11.714v1.714q0 0.116-0.085 0.201t-0.201 0.085h-1.714q-0.116 0-0.201-0.085t-0.085-0.201v-1.714q0-0.116 0.085-0.201t0.201-0.085h1.714q0.116 0 0.201 0.085t0.085 0.201zM2.286 8.286v1.714q0 0.116-0.085 0.201t-0.201 0.085h-1.714q-0.116 0-0.201-0.085t-0.085-0.201v-1.714q0-0.116 0.085-0.201t0.201-0.085h1.714q0.116 0 0.201 0.085t0.085 0.201zM2.286 4.857v1.714q0 0.116-0.085 0.201t-0.201 0.085h-1.714q-0.116 0-0.201-0.085t-0.085-0.201v-1.714q0-0.116 0.085-0.201t0.201-0.085h1.714q0.116 0 0.201 0.085t0.085 0.201zM16 11.714v1.714q0 0.116-0.085 0.201t-0.201 0.085h-12q-0.116 0-0.201-0.085t-0.085-0.201v-1.714q0-0.116 0.085-0.201t0.201-0.085h12q0.116 0 0.201 0.085t0.085 0.201zM2.286 1.429v1.714q0 0.116-0.085 0.201t-0.201 0.085h-1.714q-0.116 0-0.201-0.085t-0.085-0.201v-1.714q0-0.116 0.085-0.201t0.201-0.085h1.714q0.116 0 0.201 0.085t0.085 0.201zM16 8.286v1.714q0 0.116-0.085 0.201t-0.201 0.085h-12q-0.116 0-0.201-0.085t-0.085-0.201v-1.714q0-0.116 0.085-0.201t0.201-0.085h12q0.116 0 0.201 0.085t0.085 0.201zM16 4.857v1.714q0 0.116-0.085 0.201t-0.201 0.085h-12q-0.116 0-0.201-0.085t-0.085-0.201v-1.714q0-0.116 0.085-0.201t0.201-0.085h12q0.116 0 0.201 0.085t0.085 0.201zM16 1.429v1.714q0 0.116-0.085 0.201t-0.201 0.085h-12q-0.116 0-0.201-0.085t-0.085-0.201v-1.714q0-0.116 0.085-0.201t0.201-0.085h12q0.116 0 0.201 0.085t0.085 0.201z"></path>
</svg>
