<?xml version="1.0" encoding="utf-8"?>
<!-- Generated by IcoMoon.io -->
<!DOCTYPE svg PUBLIC "-//W3C//DTD SVG 1.1//EN" "http://www.w3.org/Graphics/SVG/1.1/DTD/svg11.dtd">
<svg version="1.1" xmlns="http://www.w3.org/2000/svg" xmlns:xlink="http://www.w3.org/1999/xlink" width="16" height="16" viewBox="0 0 16 16">
<path fill="#444444" d="M12.5 6.5v-2c0-2.486-2.014-4.5-4.5-4.5s-4.5 2.014-4.5 4.5v2c-0.829 0-1.5 0.671-1.5 1.5v3.5c0 2.486 2.014 4.5 4.5 4.5h3c2.486 0 4.5-2.014 4.5-4.5v-3.5c0-0.829-0.672-1.5-1.5-1.5zM4.5 4.5c0-1.933 1.567-3.5 3.5-3.5s3.5 1.567 3.5 3.5v2h-1v-1.999c0-1.381-1.119-2.5-2.5-2.5s-2.5 1.119-2.5 2.5v1.999h-1v-2zM10 4.5v2h-4v-2c0-1.104 0.896-2 2-2s2 0.896 2 2zM13 9.5v2c0 1.93-1.57 3.5-3.5 3.5h-3c-1.929 0-3.5-1.57-3.5-3.5v-3.5c0-0.276 0.224-0.5 0.5-0.5 0.333 0 0.667 0 1 0h7c0.333 0 0.666 0 1 0 0.275 0 0.5 0.224 0.5 0.5v1.5zM8 9.5c0.552 0 1 0.447 1 1 0 0.305-0.164 0.884-0.333 1.341-0.136 0.369-0.276 0.658-0.667 0.658-0.359 0-0.53-0.292-0.667-0.663-0.167-0.456-0.333-1.033-0.333-1.336 0-0.553 0.448-1 1-1z"></path>
</svg>
