<?xml version="1.0" encoding="utf-8"?>
<!-- Generated by IcoMoon.io -->
<!DOCTYPE svg PUBLIC "-//W3C//DTD SVG 1.1//EN" "http://www.w3.org/Graphics/SVG/1.1/DTD/svg11.dtd">
<svg version="1.1" xmlns="http://www.w3.org/2000/svg" xmlns:xlink="http://www.w3.org/1999/xlink" width="15" height="16" viewBox="0 0 15 16">
<path fill="#444444" d="M10.625 5.188l2.616-2.616-0.955-0.955-2.616 2.616zM14.616 2.571q0 0.241-0.161 0.402l-11.482 11.482q-0.161 0.161-0.402 0.161t-0.402-0.161l-1.768-1.768q-0.161-0.161-0.161-0.402t0.161-0.402l11.482-11.482q0.161-0.161 0.402-0.161t0.402 0.161l1.768 1.768q0.161 0.161 0.161 0.402zM2.554 0.875l0.875 0.268-0.875 0.268-0.268 0.875-0.268-0.875-0.875-0.268 0.875-0.268 0.268-0.875zM5.679 2.321l1.75 0.536-1.75 0.536-0.536 1.75-0.536-1.75-1.75-0.536 1.75-0.536 0.536-1.75zM13.982 6.589l0.875 0.268-0.875 0.268-0.268 0.875-0.268-0.875-0.875-0.268 0.875-0.268 0.268-0.875zM8.268 0.875l0.875 0.268-0.875 0.268-0.268 0.875-0.268-0.875-0.875-0.268 0.875-0.268 0.268-0.875z"></path>
</svg>
