<?xml version="1.0" encoding="utf-8"?>
<!-- Generated by IcoMoon.io -->
<!DOCTYPE svg PUBLIC "-//W3C//DTD SVG 1.1//EN" "http://www.w3.org/Graphics/SVG/1.1/DTD/svg11.dtd">
<svg version="1.1" xmlns="http://www.w3.org/2000/svg" xmlns:xlink="http://www.w3.org/1999/xlink" width="14" height="16" viewBox="0 0 14 16">
<path fill="#444444" d="M13.714 7.429v1.143q0 1.795-0.879 3.232t-2.446 2.246-3.531 0.808-3.531-0.808-2.446-2.246-0.879-3.232v-1.143q0-0.232 0.17-0.402t0.402-0.17h3.429q0.232 0 0.402 0.17t0.17 0.402v1.143q0 0.464 0.21 0.804t0.478 0.509 0.634 0.268 0.571 0.116 0.393 0.018 0.393-0.018 0.571-0.116 0.634-0.268 0.478-0.509 0.21-0.804v-1.143q0-0.232 0.17-0.402t0.402-0.17h3.429q0.232 0 0.402 0.17t0.17 0.402zM4.571 1.714v3.429q0 0.232-0.17 0.402t-0.402 0.17h-3.429q-0.232 0-0.402-0.17t-0.17-0.402v-3.429q0-0.232 0.17-0.402t0.402-0.17h3.429q0.232 0 0.402 0.17t0.17 0.402zM13.714 1.714v3.429q0 0.232-0.17 0.402t-0.402 0.17h-3.429q-0.232 0-0.402-0.17t-0.17-0.402v-3.429q0-0.232 0.17-0.402t0.402-0.17h3.429q0.232 0 0.402 0.17t0.17 0.402z"></path>
</svg>
