<?xml version="1.0" encoding="utf-8"?>
<!-- Generated by IcoMoon.io -->
<!DOCTYPE svg PUBLIC "-//W3C//DTD SVG 1.1//EN" "http://www.w3.org/Graphics/SVG/1.1/DTD/svg11.dtd">
<svg version="1.1" xmlns="http://www.w3.org/2000/svg" xmlns:xlink="http://www.w3.org/1999/xlink" width="16" height="16" viewBox="0 0 16 16">
<path fill="#444444" d="M16 5.714q0 0.232-0.17 0.402l-4.571 4.571q-0.17 0.17-0.402 0.17t-0.402-0.17-0.17-0.402v-2.286h-2q-0.875 0-1.567 0.054t-1.375 0.192-1.188 0.379-0.942 0.621-0.714 0.902-0.433 1.237-0.156 1.616q0 0.491 0.045 1.098 0 0.054 0.022 0.21t0.022 0.237q0 0.134-0.076 0.223t-0.21 0.089q-0.143 0-0.25-0.152-0.063-0.080-0.116-0.196t-0.121-0.268-0.094-0.214q-1.134-2.545-1.134-4.027 0-1.777 0.473-2.973 1.446-3.598 7.813-3.598h2v-2.286q0-0.232 0.17-0.402t0.402-0.17 0.402 0.17l4.571 4.571q0.17 0.17 0.17 0.402z"></path>
</svg>
