<?xml version="1.0" encoding="utf-8"?>
<!-- Generated by IcoMoon.io -->
<!DOCTYPE svg PUBLIC "-//W3C//DTD SVG 1.1//EN" "http://www.w3.org/Graphics/SVG/1.1/DTD/svg11.dtd">
<svg version="1.1" xmlns="http://www.w3.org/2000/svg" xmlns:xlink="http://www.w3.org/1999/xlink" width="16" height="16" viewBox="0 0 16 16">
<path fill="#444444" d="M14 2.5h-12c-1.105 0-2 0.896-2 2v6.5c0 1.104 0.895 2 2 2h12c1.104 0 2-0.896 2-2v-6.5c0-1.104-0.896-2-2-2zM1 5.125l3.499 2.625-3.499 2.625v-5.25zM15 11c0 0.552-0.449 1-1 1h-12c-0.551 0-1-0.448-1-1l3.916-2.938 2.184 1.639c0.266 0.199 0.583 0.3 0.9 0.3s0.633-0.101 0.899-0.3l2.184-1.639 3.916 2.938zM15 10.375l-3.5-2.625 3.5-2.625v5.25zM8.6 9.301c-0.175 0.131-0.382 0.2-0.6 0.2s-0.425-0.069-0.6-0.2l-6.4-4.801c0-0.551 0.449-1 1-1h12c0.551 0 1 0.449 1 1l-6.401 4.801z"></path>
</svg>
