<?xml version="1.0" encoding="utf-8"?>
<!-- Generated by IcoMoon.io -->
<!DOCTYPE svg PUBLIC "-//W3C//DTD SVG 1.1//EN" "http://www.w3.org/Graphics/SVG/1.1/DTD/svg11.dtd">
<svg version="1.1" xmlns="http://www.w3.org/2000/svg" xmlns:xlink="http://www.w3.org/1999/xlink" width="16" height="16" viewBox="0 0 16 16">
<path fill="#444444" d="M5.714 9.661v0.625q0 0.375-0.348 0.527-0.116 0.045-0.223 0.045-0.241 0-0.402-0.17l-4.571-4.571q-0.17-0.17-0.17-0.402t0.17-0.402l4.571-4.571q0.259-0.277 0.625-0.125 0.348 0.152 0.348 0.527v0.616l-3.545 3.554q-0.17 0.17-0.17 0.402t0.17 0.402zM16 10q0 0.518-0.152 1.192t-0.344 1.232-0.429 1.116-0.362 0.808l-0.179 0.357q-0.071 0.152-0.25 0.152-0.054 0-0.080-0.009-0.223-0.071-0.205-0.304 0.384-3.571-0.946-5.045-0.571-0.634-1.522-0.987t-2.388-0.469v2.241q0 0.375-0.348 0.527-0.116 0.045-0.223 0.045-0.241 0-0.402-0.17l-4.571-4.571q-0.17-0.17-0.17-0.402t0.17-0.402l4.571-4.571q0.259-0.277 0.625-0.125 0.348 0.152 0.348 0.527v2.339q3.67 0.25 5.348 1.973 1.509 1.545 1.509 4.545z"></path>
</svg>
