<?xml version="1.0" encoding="utf-8"?>
<!-- Generated by IcoMoon.io -->
<!DOCTYPE svg PUBLIC "-//W3C//DTD SVG 1.1//EN" "http://www.w3.org/Graphics/SVG/1.1/DTD/svg11.dtd">
<svg version="1.1" xmlns="http://www.w3.org/2000/svg" xmlns:xlink="http://www.w3.org/1999/xlink" width="9" height="16" viewBox="0 0 9 16">
<path fill="#444444" d="M9.143 6.286v3.714q0 0.357-0.25 0.607t-0.607 0.25-0.607-0.25-0.25-0.607v-3.143h-0.571v8.143q0 0.411-0.295 0.705t-0.705 0.295-0.705-0.295-0.295-0.705v-4.143h-0.571v4.143q0 0.411-0.295 0.705t-0.705 0.295-0.705-0.295-0.295-0.705v-8.143h-0.571v3.143q0 0.357-0.25 0.607t-0.607 0.25-0.607-0.25-0.25-0.607v-3.714q0-0.714 0.5-1.214t1.214-0.5h5.714q0.714 0 1.214 0.5t0.5 1.214zM6.571 2.286q0 0.83-0.585 1.415t-1.415 0.585-1.415-0.585-0.585-1.415 0.585-1.415 1.415-0.585 1.415 0.585 0.585 1.415z"></path>
</svg>
