<?xml version="1.0" encoding="utf-8"?>
<!-- Generated by IcoMoon.io -->
<!DOCTYPE svg PUBLIC "-//W3C//DTD SVG 1.1//EN" "http://www.w3.org/Graphics/SVG/1.1/DTD/svg11.dtd">
<svg version="1.1" xmlns="http://www.w3.org/2000/svg" xmlns:xlink="http://www.w3.org/1999/xlink" width="9" height="16" viewBox="0 0 9 16">
<path fill="#444444" d="M4.571 9.714q0.589 0 1.143-0.134v5.848q0 0.232-0.17 0.402t-0.402 0.17h-1.143q-0.232 0-0.402-0.17t-0.17-0.402v-5.848q0.545 0.134 1.143 0.134zM4.571 0q1.893 0 3.232 1.339t1.339 3.232-1.339 3.232-3.232 1.339-3.232-1.339-1.339-3.232 1.339-3.232 3.232-1.339zM4.571 2q0.125 0 0.205-0.080t0.080-0.205-0.080-0.205-0.205-0.080q-1.304 0-2.223 0.92t-0.92 2.223q0 0.125 0.080 0.205t0.205 0.080 0.205-0.080 0.080-0.205q0-1.063 0.754-1.817t1.817-0.754z"></path>
</svg>
