<?xml version="1.0" encoding="utf-8"?>
<!-- Generated by IcoMoon.io -->
<!DOCTYPE svg PUBLIC "-//W3C//DTD SVG 1.1//EN" "http://www.w3.org/Graphics/SVG/1.1/DTD/svg11.dtd">
<svg version="1.1" xmlns="http://www.w3.org/2000/svg" xmlns:xlink="http://www.w3.org/1999/xlink" width="16" height="16" viewBox="0 0 16 16">
<path fill="#444444" d="M15.58 2.652q0.089 0.089 0.089 0.205t-0.089 0.205l-1.259 1.259q-0.25 0.25-0.607 0.25h-12q-0.232 0-0.402-0.17t-0.17-0.402v-2.286q0-0.232 0.17-0.402t0.402-0.17h5.143v-0.571q0-0.232 0.17-0.402t0.402-0.17h1.143q0.232 0 0.402 0.17t0.17 0.402v0.571h4.571q0.357 0 0.607 0.25zM6.857 10.857h2.286v4.571q0 0.232-0.17 0.402t-0.402 0.17h-1.143q-0.232 0-0.402-0.17t-0.17-0.402v-4.571zM14.286 6.857q0.232 0 0.402 0.17t0.17 0.402v2.286q0 0.232-0.17 0.402t-0.402 0.17h-12q-0.357 0-0.607-0.25l-1.259-1.259q-0.089-0.089-0.089-0.205t0.089-0.205l1.259-1.259q0.25-0.25 0.607-0.25h4.571v-1.714h2.286v1.714h5.143z"></path>
</svg>
