<?xml version="1.0" encoding="utf-8"?>
<!-- Generated by IcoMoon.io -->
<!DOCTYPE svg PUBLIC "-//W3C//DTD SVG 1.1//EN" "http://www.w3.org/Graphics/SVG/1.1/DTD/svg11.dtd">
<svg version="1.1" xmlns="http://www.w3.org/2000/svg" xmlns:xlink="http://www.w3.org/1999/xlink" width="16" height="16" viewBox="0 0 16 16">
<path fill="#444444" d="M4.571 0q0.116 0 0.201 0.085t0.085 0.201v13.143q0 0.179-0.152 0.25l-4.286 2.286q-0.063 0.036-0.134 0.036-0.116 0-0.201-0.085t-0.085-0.201v-13.143q0-0.179 0.152-0.25l4.286-2.286q0.063-0.036 0.134-0.036zM15.714 0q0.116 0 0.201 0.085t0.085 0.201v13.143q0 0.179-0.152 0.25l-4.286 2.286q-0.063 0.036-0.134 0.036-0.116 0-0.201-0.085t-0.085-0.201v-13.143q0-0.179 0.152-0.25l4.286-2.286q0.063-0.036 0.134-0.036zM5.714 0q0.071 0 0.125 0.027l4.571 2.286q0.161 0.089 0.161 0.259v13.143q0 0.116-0.085 0.201t-0.201 0.085q-0.071 0-0.125-0.027l-4.571-2.286q-0.161-0.089-0.161-0.259v-13.143q0-0.116 0.085-0.201t0.201-0.085z"></path>
</svg>
