<?xml version="1.0" encoding="utf-8"?>
<!-- Generated by IcoMoon.io -->
<!DOCTYPE svg PUBLIC "-//W3C//DTD SVG 1.1//EN" "http://www.w3.org/Graphics/SVG/1.1/DTD/svg11.dtd">
<svg version="1.1" xmlns="http://www.w3.org/2000/svg" xmlns:xlink="http://www.w3.org/1999/xlink" width="17" height="16" viewBox="0 0 17 16">
<path fill="#444444" d="M13.714 3.714q0-0.125 0.080-0.205t0.205-0.080h2.571q0.232 0 0.402 0.17t0.17 0.402v2.571q0 0.125-0.080 0.205t-0.205 0.080h-0.571q-0.125 0-0.205-0.080t-0.080-0.205v-1.196l-2.268 2.277q0.679 0.848 0.96 1.911t0.085 2.205q-0.277 1.625-1.482 2.786t-2.839 1.393q-1.875 0.259-3.433-0.714t-2.156-2.679q-1.045-0.054-1.973-0.513t-1.585-1.188-1.013-1.719-0.286-2.054q0.080-1.205 0.696-2.25t1.625-1.71 2.214-0.799q1.054-0.125 2.031 0.17t1.772 0.92l2.277-2.268h-1.196q-0.125 0-0.205-0.080t-0.080-0.205v-0.571q0-0.125 0.080-0.205t0.205-0.080h2.571q0.232 0 0.402 0.17t0.17 0.402v2.571q0 0.125-0.080 0.205t-0.205 0.080h-0.571q-0.125 0-0.205-0.080t-0.080-0.205v-1.196l-2.268 2.277q0.527 0.661 0.83 1.509 1.625 0.080 2.929 1.107l2.277-2.268h-1.196q-0.125 0-0.205-0.080t-0.080-0.205v-0.571zM9.143 7.429q0-0.179-0.036-0.518-1.446 0.223-2.42 1.339t-0.973 2.607q0 0.179 0.036 0.518 1.446-0.223 2.42-1.339t0.973-2.607zM1.143 7.429q0 1.5 0.991 2.625t2.464 1.33q-0.027-0.259-0.027-0.527 0-1.875 1.205-3.299t3.018-1.754q-0.473-1.071-1.46-1.723t-2.192-0.652q-1.652 0-2.826 1.174t-1.174 2.826zM9.714 14.857q1.652 0 2.826-1.174t1.174-2.826q0-1.5-0.991-2.625t-2.464-1.33q0.027 0.259 0.027 0.527 0 1.875-1.205 3.299t-3.018 1.754q0.473 1.071 1.46 1.723t2.192 0.652z"></path>
</svg>
