<?xml version="1.0" encoding="utf-8"?>
<!-- Generated by IcoMoon.io -->
<!DOCTYPE svg PUBLIC "-//W3C//DTD SVG 1.1//EN" "http://www.w3.org/Graphics/SVG/1.1/DTD/svg11.dtd">
<svg version="1.1" xmlns="http://www.w3.org/2000/svg" xmlns:xlink="http://www.w3.org/1999/xlink" width="17" height="16" viewBox="0 0 17 16">
<path fill="#444444" d="M16.973 8.17q0.17 0.17 0.17 0.402t-0.17 0.402l-2.625 2.625q-0.080 0.089-0.201 0.089t-0.201-0.089l-0.402-0.402q-0.089-0.080-0.089-0.201t0.089-0.201l1.652-1.652h-2.625v2q0 0.125-0.080 0.205t-0.205 0.080h-0.571q-0.125 0-0.205-0.080t-0.080-0.205v-2h-1.179q-0.214 1.938-1.674 3.254t-3.433 1.317q-1.491 0-2.732-0.777t-1.893-2.107-0.482-2.848q0.134-1.188 0.786-2.192t1.679-1.625 2.223-0.719q1.384-0.107 2.607 0.469t2 1.661 0.92 2.424h1.179v-2q0-0.125 0.080-0.205t0.205-0.080h0.571q0.125 0 0.205 0.080t0.080 0.205v2h2.625l-1.652-1.652q-0.089-0.080-0.089-0.201t0.089-0.201l0.402-0.402q0.080-0.089 0.201-0.089t0.201 0.089zM5.143 12.571q1.652 0 2.826-1.174t1.174-2.826-1.174-2.826-2.826-1.174-2.826 1.174-1.174 2.826 1.174 2.826 2.826 1.174z"></path>
</svg>
