<?xml version="1.0" encoding="utf-8"?>
<!-- Generated by IcoMoon.io -->
<!DOCTYPE svg PUBLIC "-//W3C//DTD SVG 1.1//EN" "http://www.w3.org/Graphics/SVG/1.1/DTD/svg11.dtd">
<svg version="1.1" xmlns="http://www.w3.org/2000/svg" xmlns:xlink="http://www.w3.org/1999/xlink" width="14" height="16" viewBox="0 0 14 16">
<path fill="#444444" d="M13.143 1.143q0.232 0 0.402 0.17t0.17 0.402v3.714q0 0.125-0.080 0.205t-0.205 0.080h-0.571q-0.125 0-0.205-0.080t-0.080-0.205v-2.339l-3.411 3.42q1.125 1.393 1.125 3.205 0 1.045-0.406 1.996t-1.098 1.643-1.643 1.098-1.996 0.406-1.996-0.406-1.643-1.098-1.098-1.643-0.406-1.996 0.406-1.996 1.098-1.643 1.643-1.098 1.996-0.406q1.813 0 3.205 1.125l3.411-3.411h-2.33q-0.125 0-0.205-0.080t-0.080-0.205v-0.571q0-0.125 0.080-0.205t0.205-0.080h3.714zM5.143 13.714q1.652 0 2.826-1.174t1.174-2.826-1.174-2.826-2.826-1.174-2.826 1.174-1.174 2.826 1.174 2.826 2.826 1.174z"></path>
</svg>
