<?xml version="1.0" encoding="utf-8"?>
<!-- Generated by IcoMoon.io -->
<!DOCTYPE svg PUBLIC "-//W3C//DTD SVG 1.1//EN" "http://www.w3.org/Graphics/SVG/1.1/DTD/svg11.dtd">
<svg version="1.1" xmlns="http://www.w3.org/2000/svg" xmlns:xlink="http://www.w3.org/1999/xlink" width="10" height="16" viewBox="0 0 10 16">
<path fill="#444444" d="M5.714 5.75q1.938 0.214 3.254 1.674t1.317 3.433q0 1.491-0.777 2.732t-2.107 1.893-2.848 0.482q-1.188-0.134-2.192-0.786t-1.625-1.679-0.719-2.223q-0.107-1.384 0.469-2.607t1.661-2 2.424-0.92v-1.179h-1.429q-0.125 0-0.205-0.080t-0.080-0.205v-0.571q0-0.125 0.080-0.205t0.205-0.080h1.429v-1.473l-0.821 0.821q-0.089 0.080-0.205 0.080t-0.196-0.080l-0.411-0.411q-0.080-0.080-0.080-0.196t0.080-0.205l1.804-1.795q0.17-0.17 0.402-0.17t0.402 0.17l1.804 1.795q0.080 0.089 0.080 0.205t-0.080 0.196l-0.411 0.411q-0.080 0.080-0.196 0.080t-0.205-0.080l-0.821-0.821v1.473h1.429q0.125 0 0.205 0.080t0.080 0.205v0.571q0 0.125-0.080 0.205t-0.205 0.080h-1.429v1.179zM5.143 14.857q1.652 0 2.826-1.174t1.174-2.826-1.174-2.826-2.826-1.174-2.826 1.174-1.174 2.826 1.174 2.826 2.826 1.174z"></path>
</svg>
