<?xml version="1.0" encoding="utf-8"?>
<!-- Generated by IcoMoon.io -->
<!DOCTYPE svg PUBLIC "-//W3C//DTD SVG 1.1//EN" "http://www.w3.org/Graphics/SVG/1.1/DTD/svg11.dtd">
<svg version="1.1" xmlns="http://www.w3.org/2000/svg" xmlns:xlink="http://www.w3.org/1999/xlink" width="14" height="16" viewBox="0 0 14 16">
<path fill="#444444" d="M11.705 7.518v1.018q0 0.214-0.121 0.339t-0.335 0.125h-1.804q-0.214 0-0.339-0.125t-0.125-0.339v-1.018q0-0.214 0.125-0.339t0.339-0.125h1.804q0.214 0 0.335 0.125t0.121 0.339zM7.33 9.571v-2.232q0-0.473-0.29-0.763t-0.763-0.29h-1.188q-0.607 0-0.857 0.464-0.25-0.464-0.857-0.464h-1.161q-0.473 0-0.763 0.29t-0.29 0.763v2.232q0 0.196 0.188 0.196h0.491q0.196 0 0.196-0.196v-2.054q0-0.214 0.121-0.339t0.344-0.125h0.839q0.214 0 0.339 0.125t0.125 0.339v2.054q0 0.196 0.188 0.196h0.482q0.196 0 0.196-0.196v-2.054q0-0.214 0.125-0.339t0.339-0.125h0.866q0.214 0 0.335 0.125t0.121 0.339v2.054q0 0.196 0.196 0.196h0.491q0.188 0 0.188-0.196zM12.589 8.714v-1.375q0-0.473-0.295-0.763t-0.768-0.29h-2.357q-0.473 0-0.768 0.29t-0.295 0.763v3.661q0 0.188 0.196 0.188h0.491q0.188 0 0.188-0.188v-1.607q0.277 0.375 0.839 0.375h1.705q0.473 0 0.768-0.29t0.295-0.763zM13.714 3.214v9.571q0 0.857-0.607 1.464t-1.464 0.607h-9.571q-0.857 0-1.464-0.607t-0.607-1.464v-9.571q0-0.857 0.607-1.464t1.464-0.607h9.571q0.857 0 1.464 0.607t0.607 1.464z"></path>
</svg>
