<?xml version="1.0" encoding="utf-8"?>
<!-- Generated by IcoMoon.io -->
<!DOCTYPE svg PUBLIC "-//W3C//DTD SVG 1.1//EN" "http://www.w3.org/Graphics/SVG/1.1/DTD/svg11.dtd">
<svg version="1.1" xmlns="http://www.w3.org/2000/svg" xmlns:xlink="http://www.w3.org/1999/xlink" width="16" height="16" viewBox="0 0 16 16">
<path fill="#444444" d="M5.33 3.759v10.473q0 0.223-0.112 0.379t-0.326 0.156q-0.152 0-0.295-0.071l-4.152-2.080q-0.188-0.089-0.317-0.299t-0.129-0.415v-10.179q0-0.179 0.089-0.304t0.259-0.125q0.125 0 0.393 0.134l4.563 2.286q0.027 0.027 0.027 0.045zM5.902 4.661l4.768 7.732-4.768-2.375v-5.357zM16 4.821v9.411q0 0.223-0.125 0.362t-0.339 0.138-0.42-0.116l-3.938-1.964zM15.973 3.75q0 0.027-2.29 3.746t-2.683 4.353l-3.482-5.661 2.893-4.705q0.152-0.25 0.464-0.25 0.125 0 0.232 0.054l4.83 2.411q0.036 0.018 0.036 0.054z"></path>
</svg>
