<?xml version="1.0" encoding="utf-8"?>
<!-- Generated by IcoMoon.io -->
<!DOCTYPE svg PUBLIC "-//W3C//DTD SVG 1.1//EN" "http://www.w3.org/Graphics/SVG/1.1/DTD/svg11.dtd">
<svg version="1.1" xmlns="http://www.w3.org/2000/svg" xmlns:xlink="http://www.w3.org/1999/xlink" width="16" height="16" viewBox="0 0 16 16">
<path fill="#444444" d="M12.5 0c-1.027 0-1.833 0.705-2.412 1.793l-0.011-0.006c-0.841 1.647-2.093 2.713-3.465 2.713h-4.613c-1.121 0-2 1.098-2 2.5s0.878 2.5 2 2.5c0.551 0.002 0.998 0.448 0.998 1v4.5c0 0.553 0.448 1 1 1h2c0.552 0 1-0.447 1-1v-0.5c0-0.5-0.5-0.723-0.5-1v-3.5c0-0.011 0.008-0.020 0.009-0.031 0.005-0.072 0.024-0.137 0.056-0.197 0.009-0.017 0.019-0.030 0.029-0.044 0.040-0.059 0.090-0.108 0.152-0.146 0.003-0.002 0.004-0.005 0.007-0.007 0.002 0 0.003-0.002 0.005-0.002 0.040-0.023 0.088-0.027 0.133-0.040 1.262 0.134 2.405 1.152 3.188 2.687l0.012-0.006c0.579 1.085 1.384 1.787 2.409 1.787 2.298 0 3.5-3.521 3.5-7s-1.202-7-3.5-7zM10 7c0-0.518 0.030-1.019 0.082-1.5h1.418c0.552 0 1 0.672 1 1.5s-0.448 1.5-1 1.5h-1.418c-0.052-0.48-0.082-0.981-0.082-1.5zM1 7c0-0.828 0.448-1.5 1-1.5h3.507c-0.31 0.364-0.507 0.893-0.507 1.5s0.197 1.136 0.507 1.5h-3.507c-0.552 0-1-0.671-1-1.5zM5.997 15h-2v-4.5c0-0.364-0.098-0.705-0.268-1h0.349v0.006h1.504c-0.053 0.155-0.085 0.32-0.085 0.494v3.5c0 0.482 0.269 0.802 0.429 0.993 0.022 0.027 0.048 0.053 0.071 0.083v0.424zM6.613 8.506h-0.113v-0.006c-0.552 0-1-0.671-1-1.5s0.448-1.5 1-1.5h0.113c0.943 0 1.826-0.371 2.603-1.009-0.143 0.805-0.216 1.657-0.216 2.509 0 0.854 0.073 1.71 0.217 2.515-0.777-0.639-1.661-1.009-2.604-1.009zM12.5 13c-1.009 0-1.875-1.435-2.271-3.5h1.271c1.121 0 2-1.098 2-2.5s-0.879-2.5-2-2.5h-1.271c0.396-2.063 1.261-3.5 2.271-3.5 1.381 0 2.5 2.687 2.5 6s-1.119 6-2.5 6z"></path>
</svg>
