<?xml version="1.0" encoding="utf-8"?>
<!-- Generated by IcoMoon.io -->
<!DOCTYPE svg PUBLIC "-//W3C//DTD SVG 1.1//EN" "http://www.w3.org/Graphics/SVG/1.1/DTD/svg11.dtd">
<svg version="1.1" xmlns="http://www.w3.org/2000/svg" xmlns:xlink="http://www.w3.org/1999/xlink" width="10" height="16" viewBox="0 0 10 16">
<path fill="#444444" d="M7.411 2.821q1.295 0.643 2.085 1.879t0.79 2.728q0 1.973-1.317 3.433t-3.254 1.674v1.179h0.857q0.125 0 0.205 0.080t0.080 0.205v0.571q0 0.125-0.080 0.205t-0.205 0.080h-0.857v0.857q0 0.125-0.080 0.205t-0.205 0.080h-0.571q-0.125 0-0.205-0.080t-0.080-0.205v-0.857h-0.857q-0.125 0-0.205-0.080t-0.080-0.205v-0.571q0-0.125 0.080-0.205t0.205-0.080h0.857v-1.179q-1.938-0.214-3.254-1.674t-1.317-3.433q0-1.491 0.79-2.728t2.085-1.879q-1.473-0.857-2.036-2.438-0.054-0.143 0.031-0.263t0.237-0.121h0.616q0.188 0 0.259 0.179 0.393 0.946 1.25 1.527t1.911 0.58 1.911-0.58 1.25-1.527q0.071-0.179 0.33-0.179h0.545q0.152 0 0.237 0.121t0.031 0.263q-0.563 1.58-2.036 2.438zM5.143 11.429q1.652 0 2.826-1.174t1.174-2.826-1.174-2.826-2.826-1.174-2.826 1.174-1.174 2.826 1.174 2.826 2.826 1.174z"></path>
</svg>
