<?xml version="1.0" encoding="utf-8"?>
<!-- Generated by IcoMoon.io -->
<!DOCTYPE svg PUBLIC "-//W3C//DTD SVG 1.1//EN" "http://www.w3.org/Graphics/SVG/1.1/DTD/svg11.dtd">
<svg version="1.1" xmlns="http://www.w3.org/2000/svg" xmlns:xlink="http://www.w3.org/1999/xlink" width="13" height="16" viewBox="0 0 13 16">
<path fill="#444444" d="M2.42 8.438l-0.902 0.902q-0.375-0.92-0.375-1.911v-1.143q0-0.232 0.17-0.402t0.402-0.17 0.402 0.17 0.17 0.402v1.143q0 0.473 0.134 1.009zM12.366 3.063l-3.223 3.223v1.143q0 1.179-0.839 2.018t-2.018 0.839q-0.491 0-0.973-0.17l-0.857 0.857q0.866 0.455 1.83 0.455 1.652 0 2.826-1.174t1.174-2.826v-1.143q0-0.232 0.17-0.402t0.402-0.17 0.402 0.17 0.17 0.402v1.143q0 1.973-1.317 3.433t-3.254 1.674v1.179h2.286q0.232 0 0.402 0.17t0.17 0.402-0.17 0.402-0.402 0.17h-5.714q-0.232 0-0.402-0.17t-0.17-0.402 0.17-0.402 0.402-0.17h2.286v-1.179q-1.116-0.116-2.098-0.723l-2.268 2.268q-0.089 0.089-0.205 0.089t-0.205-0.089l-0.732-0.732q-0.089-0.089-0.089-0.205t0.089-0.205l11.018-11.018q0.089-0.089 0.205-0.089t0.205 0.089l0.732 0.732q0.089 0.089 0.089 0.205t-0.089 0.205zM8.973 1.884l-5.545 5.545v-4.571q0-1.179 0.839-2.018t2.018-0.839q0.911 0 1.647 0.527t1.040 1.357z"></path>
</svg>
