<?xml version="1.0" encoding="utf-8"?>
<!-- Generated by IcoMoon.io -->
<!DOCTYPE svg PUBLIC "-//W3C//DTD SVG 1.1//EN" "http://www.w3.org/Graphics/SVG/1.1/DTD/svg11.dtd">
<svg version="1.1" xmlns="http://www.w3.org/2000/svg" xmlns:xlink="http://www.w3.org/1999/xlink" width="10" height="16" viewBox="0 0 10 16">
<path fill="#444444" d="M10.286 6.286v1.143q0 1.973-1.317 3.433t-3.254 1.674v1.179h2.286q0.232 0 0.402 0.17t0.17 0.402-0.17 0.402-0.402 0.17h-5.714q-0.232 0-0.402-0.17t-0.17-0.402 0.17-0.402 0.402-0.17h2.286v-1.179q-1.938-0.214-3.254-1.674t-1.317-3.433v-1.143q0-0.232 0.17-0.402t0.402-0.17 0.402 0.17 0.17 0.402v1.143q0 1.652 1.174 2.826t2.826 1.174 2.826-1.174 1.174-2.826v-1.143q0-0.232 0.17-0.402t0.402-0.17 0.402 0.17 0.17 0.402zM8 2.857v4.571q0 1.179-0.839 2.018t-2.018 0.839-2.018-0.839-0.839-2.018v-4.571q0-1.179 0.839-2.018t2.018-0.839 2.018 0.839 0.839 2.018z"></path>
</svg>
