<?xml version="1.0" encoding="utf-8"?>
<!-- Generated by IcoMoon.io -->
<!DOCTYPE svg PUBLIC "-//W3C//DTD SVG 1.1//EN" "http://www.w3.org/Graphics/SVG/1.1/DTD/svg11.dtd">
<svg version="1.1" xmlns="http://www.w3.org/2000/svg" xmlns:xlink="http://www.w3.org/1999/xlink" width="21" height="16" viewBox="0 0 21 16">
<path fill="#444444" d="M14.688 9.804q0-0.527-0.304-0.951t-0.777-0.612q-0.063 0.402-0.205 0.821-0.063 0.214-0.246 0.339t-0.397 0.125q-0.107 0-0.214-0.027-0.277-0.089-0.402-0.344t-0.036-0.522q0.205-0.634 0.205-1.277 0-1.098-0.545-2.031t-1.482-1.478-2.036-0.545q-1.196 0-2.205 0.652t-1.491 1.732q0.964 0.25 1.679 0.946 0.196 0.205 0.196 0.491t-0.196 0.482-0.482 0.196-0.491-0.196q-0.67-0.67-1.607-0.67-0.946 0-1.616 0.665t-0.67 1.612 0.67 1.612 1.616 0.665h9.339q0.705 0 1.201-0.496t0.496-1.192zM16.054 9.804q0 1.268-0.897 2.161t-2.165 0.893h-9.339q-1.509 0-2.58-1.067t-1.071-2.576q0-1.366 0.893-2.384t2.223-1.214q0.554-1.643 1.973-2.661t3.161-1.018q2.098 0 3.647 1.415t1.754 3.478q1.036 0.223 1.719 1.058t0.683 1.915zM18.286 9.804q0 1.563-0.866 2.848-0.205 0.295-0.571 0.295-0.214 0-0.384-0.116-0.232-0.152-0.286-0.433t0.107-0.513q0.634-0.929 0.634-2.080t-0.634-2.080q-0.161-0.232-0.107-0.509t0.286-0.438 0.513-0.103 0.442 0.29q0.866 1.268 0.866 2.839zM20.571 9.804q0 2.179-1.196 3.955-0.205 0.304-0.571 0.304-0.205 0-0.375-0.116-0.232-0.161-0.29-0.438t0.103-0.509q0.964-1.464 0.964-3.196 0-1.741-0.964-3.188-0.161-0.232-0.103-0.513t0.29-0.433q0.232-0.161 0.509-0.107t0.438 0.295q1.196 1.768 1.196 3.946z"></path>
</svg>
