<?xml version="1.0" encoding="utf-8"?>
<!-- Generated by IcoMoon.io -->
<!DOCTYPE svg PUBLIC "-//W3C//DTD SVG 1.1//EN" "http://www.w3.org/Graphics/SVG/1.1/DTD/svg11.dtd">
<svg version="1.1" xmlns="http://www.w3.org/2000/svg" xmlns:xlink="http://www.w3.org/1999/xlink" width="7" height="16" viewBox="0 0 7 16">
<path fill="#444444" d="M4.143 12.571q0-0.295-0.21-0.504t-0.504-0.21-0.504 0.21-0.21 0.504 0.21 0.504 0.504 0.21 0.504-0.21 0.21-0.504zM6 11.143v-6.286q0-0.116-0.085-0.201t-0.201-0.085h-4.571q-0.116 0-0.201 0.085t-0.085 0.201v6.286q0 0.116 0.085 0.201t0.201 0.085h4.571q0.116 0 0.201-0.085t0.085-0.201zM4.286 3.571q0-0.143-0.143-0.143h-1.429q-0.143 0-0.143 0.143t0.143 0.143h1.429q0.143 0 0.143-0.143zM6.857 3.429v9.143q0 0.464-0.339 0.804t-0.804 0.339h-4.571q-0.464 0-0.804-0.339t-0.339-0.804v-9.143q0-0.464 0.339-0.804t0.804-0.339h4.571q0.464 0 0.804 0.339t0.339 0.804z"></path>
</svg>
