<?xml version="1.0" encoding="utf-8"?>
<!-- Generated by IcoMoon.io -->
<!DOCTYPE svg PUBLIC "-//W3C//DTD SVG 1.1//EN" "http://www.w3.org/Graphics/SVG/1.1/DTD/svg11.dtd">
<svg version="1.1" xmlns="http://www.w3.org/2000/svg" xmlns:xlink="http://www.w3.org/1999/xlink" width="17" height="16" viewBox="0 0 17 16">
<path fill="#444444" d="M6.857 10.286h3.429v-0.857h-1.143v-4h-1.018l-1.321 1.223 0.688 0.714q0.375-0.33 0.491-0.509h0.018v2.571h-1.143v0.857zM11.429 8q0 0.625-0.188 1.268t-0.531 1.196-0.906 0.902-1.232 0.348-1.232-0.348-0.906-0.902-0.531-1.196-0.188-1.268 0.188-1.268 0.531-1.196 0.906-0.902 1.232-0.348 1.232 0.348 0.906 0.902 0.531 1.196 0.188 1.268zM16 10.286v-4.571q-0.946 0-1.616-0.67t-0.67-1.616h-10.286q0 0.946-0.67 1.616t-1.616 0.67v4.571q0.946 0 1.616 0.67t0.67 1.616h10.286q0-0.946 0.67-1.616t1.616-0.67zM17.143 2.857v10.286q0 0.232-0.17 0.402t-0.402 0.17h-16q-0.232 0-0.402-0.17t-0.17-0.402v-10.286q0-0.232 0.17-0.402t0.402-0.17h16q0.232 0 0.402 0.17t0.17 0.402z"></path>
</svg>
