<?xml version="1.0" encoding="utf-8"?>
<!-- Generated by IcoMoon.io -->
<!DOCTYPE svg PUBLIC "-//W3C//DTD SVG 1.1//EN" "http://www.w3.org/Graphics/SVG/1.1/DTD/svg11.dtd">
<svg version="1.1" xmlns="http://www.w3.org/2000/svg" xmlns:xlink="http://www.w3.org/1999/xlink" width="13" height="16" viewBox="0 0 13 16">
<path fill="#444444" d="M11.268 11.634q-0.482 0.080-0.982 0.080-1.625 0-3.009-0.804t-2.188-2.188-0.804-3.009q0-1.714 0.929-3.188-1.795 0.536-2.933 2.045t-1.138 3.429q0 1.161 0.455 2.219t1.219 1.821 1.821 1.219 2.219 0.455q1.286 0 2.442-0.549t1.969-1.531zM13.080 10.875q-0.839 1.813-2.531 2.897t-3.692 1.085q-1.393 0-2.661-0.545t-2.188-1.464-1.464-2.188-0.545-2.661q0-1.366 0.513-2.612t1.393-2.156 2.103-1.469 2.589-0.612q0.393-0.018 0.545 0.348 0.161 0.366-0.134 0.643-0.768 0.696-1.174 1.621t-0.406 1.951q0 1.321 0.652 2.438t1.768 1.768 2.438 0.652q1.054 0 2.036-0.455 0.366-0.161 0.643 0.116 0.125 0.125 0.156 0.304t-0.040 0.339z"></path>
</svg>
