<?xml version="1.0" encoding="utf-8"?>
<!-- Generated by IcoMoon.io -->
<!DOCTYPE svg PUBLIC "-//W3C//DTD SVG 1.1//EN" "http://www.w3.org/Graphics/SVG/1.1/DTD/svg11.dtd">
<svg version="1.1" xmlns="http://www.w3.org/2000/svg" xmlns:xlink="http://www.w3.org/1999/xlink" width="21" height="16" viewBox="0 0 21 16">
<path fill="#444444" d="M20.545 9.25q0.107 0.92-0.196 1.772t-0.884 1.46-1.415 0.946-1.754 0.277q-1.438-0.098-2.496-1.116t-1.201-2.446q-0.107-0.991 0.246-1.879t1.058-1.522l-0.634-0.955q-0.857 0.714-1.348 1.732t-0.491 2.179q0 0.241-0.165 0.415t-0.406 0.174h-2.902q-0.205 1.464-1.33 2.446t-2.625 0.982q-1.652 0-2.826-1.174t-1.174-2.826 1.174-2.826 2.826-1.174q0.679 0 1.357 0.241l0.214-0.402q-1.098-0.982-2.714-0.982h-0.571q-0.232 0-0.402-0.17t-0.17-0.402 0.17-0.402 0.402-0.17h1.143q0.696 0 1.295 0.121t1.040 0.344 0.638 0.353 0.455 0.326h5.598l-0.759-1.143h-1.982q-0.268 0-0.438-0.201t-0.125-0.469q0.036-0.205 0.205-0.339t0.384-0.134h2.259q0.295 0 0.473 0.25l0.625 0.938 1.018-1.018q0.17-0.17 0.411-0.17h0.902q0.232 0 0.402 0.17t0.17 0.402v1.143q0 0.232-0.17 0.402t-0.402 0.17h-1.598l1.027 1.536q1.17-0.563 2.455-0.321 1.277 0.232 2.179 1.201t1.054 2.263zM4 12.571q1.027 0 1.813-0.647t0.991-1.638h-2.804q-0.313 0-0.491-0.277-0.161-0.286-0.009-0.563l1.313-2.473q-0.42-0.116-0.813-0.116-1.179 0-2.018 0.839t-0.839 2.018 0.839 2.018 2.018 0.839zM16.571 12.571q1.179 0 2.018-0.839t0.839-2.018-0.839-2.018-2.018-0.839q-0.536 0-1.080 0.214l1.554 2.321q0.134 0.205 0.089 0.438t-0.241 0.357q-0.134 0.098-0.321 0.098-0.313 0-0.473-0.259l-1.554-2.321q-0.83 0.848-0.83 2.009 0 1.179 0.839 2.018t2.018 0.839z"></path>
</svg>
