<?xml version="1.0" encoding="utf-8"?>
<!-- Generated by IcoMoon.io -->
<!DOCTYPE svg PUBLIC "-//W3C//DTD SVG 1.1//EN" "http://www.w3.org/Graphics/SVG/1.1/DTD/svg11.dtd">
<svg version="1.1" xmlns="http://www.w3.org/2000/svg" xmlns:xlink="http://www.w3.org/1999/xlink" width="14" height="16" viewBox="0 0 14 16">
<path fill="#444444" d="M13.714 2v10q0 0.446-0.304 0.795t-0.768 0.54-0.924 0.286-0.862 0.094-0.862-0.094-0.924-0.286-0.768-0.54-0.304-0.795 0.304-0.795 0.768-0.54 0.924-0.286 0.862-0.094q0.938 0 1.714 0.348v-4.795l-6.857 2.116v6.33q0 0.446-0.304 0.795t-0.768 0.54-0.924 0.286-0.862 0.094-0.862-0.094-0.924-0.286-0.768-0.54-0.304-0.795 0.304-0.795 0.768-0.54 0.924-0.286 0.862-0.094q0.938 0 1.714 0.348v-8.634q0-0.277 0.17-0.504t0.438-0.317l7.429-2.286q0.107-0.036 0.25-0.036 0.357 0 0.607 0.25t0.25 0.607z"></path>
</svg>
