<?xml version="1.0" encoding="utf-8"?>
<!-- Generated by IcoMoon.io -->
<!DOCTYPE svg PUBLIC "-//W3C//DTD SVG 1.1//EN" "http://www.w3.org/Graphics/SVG/1.1/DTD/svg11.dtd">
<svg version="1.1" xmlns="http://www.w3.org/2000/svg" xmlns:xlink="http://www.w3.org/1999/xlink" width="16" height="16" viewBox="0 0 16 16">
<path fill="#444444" d="M15.643 0.234c-0.181-0.152-0.409-0.234-0.643-0.234-0.057 0-0.116 0.005-0.174 0.015l-8.501 1.5c-0.478 0.084-0.826 0.499-0.826 0.984v8.585c-0.508-0.368-1.166-0.585-1.897-0.585-0.425 0-0.85 0.070-1.264 0.208-0.949 0.316-1.71 0.951-2.088 1.742-0.292 0.611-0.33 1.277-0.107 1.873 0.381 1.019 1.462 1.677 2.754 1.677 0.425 0 0.85-0.069 1.264-0.208 0.949-0.316 1.71-0.95 2.087-1.74 0.162-0.341 0.239-0.698 0.242-1.052h0.009v-8c0.058 0 0.116-0.005 0.174-0.014l8.328-1.47v6.069c-0.508-0.368-1.166-0.585-1.898-0.585-0.425 0-0.851 0.070-1.264 0.208-0.949 0.316-1.71 0.951-2.087 1.742-0.292 0.611-0.33 1.277-0.107 1.873 0.381 1.019 1.461 1.677 2.754 1.677 0.425 0 0.851-0.069 1.264-0.208 0.948-0.316 1.709-0.95 2.087-1.74 0.163-0.341 0.239-0.698 0.242-1.052h0.009v-10.5c0-0.295-0.131-0.576-0.357-0.765zM3.844 14.844c-1.198 0.399-2.437 0.009-2.764-0.87-0.329-0.88 0.375-1.917 1.573-2.316s2.437-0.010 2.764 0.87c0.33 0.88-0.375 1.917-1.573 2.316zM13.326 13.344c-1.199 0.399-2.438 0.009-2.765-0.87-0.329-0.88 0.376-1.917 1.573-2.316 1.199-0.399 2.438-0.010 2.765 0.87 0.329 0.88-0.374 1.917-1.573 2.316zM14.98 2.5l-8.501 1.5v-1.5l8.501-1.5v1.5z"></path>
</svg>
