<?xml version="1.0" encoding="utf-8"?>
<!-- Generated by IcoMoon.io -->
<!DOCTYPE svg PUBLIC "-//W3C//DTD SVG 1.1//EN" "http://www.w3.org/Graphics/SVG/1.1/DTD/svg11.dtd">
<svg version="1.1" xmlns="http://www.w3.org/2000/svg" xmlns:xlink="http://www.w3.org/1999/xlink" width="10" height="16" viewBox="0 0 10 16">
<path fill="#444444" d="M10.286 5.143q0 1.973-1.317 3.433t-3.254 1.674v5.464q0 0.125-0.080 0.205t-0.205 0.080h-0.571q-0.125 0-0.205-0.080t-0.080-0.205v-5.464q-1.938-0.214-3.254-1.674t-1.317-3.433q0-1.045 0.406-1.996t1.098-1.643 1.643-1.098 1.996-0.406 1.996 0.406 1.643 1.098 1.098 1.643 0.406 1.996zM5.143 9.143q1.652 0 2.826-1.174t1.174-2.826-1.174-2.826-2.826-1.174-2.826 1.174-1.174 2.826 1.174 2.826 2.826 1.174z"></path>
</svg>
