<?xml version="1.0" encoding="utf-8"?>
<!-- Generated by IcoMoon.io -->
<!DOCTYPE svg PUBLIC "-//W3C//DTD SVG 1.1//EN" "http://www.w3.org/Graphics/SVG/1.1/DTD/svg11.dtd">
<svg version="1.1" xmlns="http://www.w3.org/2000/svg" xmlns:xlink="http://www.w3.org/1999/xlink" width="16" height="16" viewBox="0 0 16 16">
<path fill="#444444" d="M14.5 0h-11c-0.829 0-1.5 0.671-1.5 1.5v1h-0.5c-0.829 0-1.5 0.671-1.5 1.5v10c0 1.104 0.895 2 2 2h12c1.104 0 2-0.896 2-2v-12.5c0-0.829-0.672-1.5-1.5-1.5zM15 14c0 0.551-0.449 1-1 1h-12c-0.551 0-1-0.449-1-1v-10c0-0.276 0.224-0.5 0.5-0.5h0.5v10c0 0.277 0.224 0.5 0.5 0.5s0.5-0.223 0.5-0.5v-12c0-0.276 0.224-0.5 0.5-0.5h11c0.275 0 0.5 0.224 0.5 0.5v12.5zM9.749 6.503c-0.137 0-0.25-0.112-0.25-0.25s0.113-0.25 0.25-0.25h4c0.139 0 0.25 0.112 0.25 0.25s-0.111 0.25-0.25 0.25h-4zM9.749 5.003c-0.137 0-0.25-0.112-0.25-0.25s0.113-0.25 0.25-0.25h4c0.139 0 0.25 0.112 0.25 0.25s-0.111 0.25-0.25 0.25h-4zM9.749 3.502c-0.137 0-0.25-0.112-0.25-0.25s0.113-0.25 0.25-0.25h4c0.139 0 0.25 0.112 0.25 0.25s-0.111 0.25-0.25 0.25h-4zM8.25 13.502c0.138 0 0.25 0.113 0.25 0.25 0 0.139-0.113 0.25-0.25 0.25h-4c-0.138 0-0.25-0.111-0.25-0.25 0-0.137 0.112-0.25 0.25-0.25h4zM8.25 12.002c0.138 0 0.25 0.113 0.25 0.25 0 0.139-0.113 0.25-0.25 0.25h-4c-0.138 0-0.25-0.111-0.25-0.25 0-0.137 0.112-0.25 0.25-0.25h4zM8.25 10.502c0.138 0 0.25 0.113 0.25 0.25 0 0.139-0.113 0.25-0.25 0.25h-4c-0.138 0-0.25-0.111-0.25-0.25 0-0.137 0.112-0.25 0.25-0.25h4zM13.75 13.502c0.137 0 0.25 0.113 0.25 0.25 0 0.139-0.113 0.25-0.25 0.25h-4c-0.139 0-0.25-0.111-0.25-0.25 0-0.137 0.111-0.25 0.25-0.25h4zM13.75 12.002c0.137 0 0.25 0.113 0.25 0.25 0 0.139-0.113 0.25-0.25 0.25h-4c-0.139 0-0.25-0.111-0.25-0.25 0-0.137 0.111-0.25 0.25-0.25h4zM13.75 10.502c0.137 0 0.25 0.113 0.25 0.25 0 0.139-0.113 0.25-0.25 0.25h-4c-0.139 0-0.25-0.111-0.25-0.25 0-0.137 0.111-0.25 0.25-0.25h4zM13.75 7.502c0.137 0 0.25 0.112 0.25 0.25s-0.113 0.25-0.25 0.25h-9.5c-0.138 0-0.25-0.112-0.25-0.25s0.112-0.25 0.25-0.25h9.5zM13.75 9.002c0.137 0 0.25 0.113 0.25 0.25 0 0.139-0.113 0.25-0.25 0.25h-9.5c-0.138 0-0.25-0.111-0.25-0.25 0-0.137 0.112-0.25 0.25-0.25h9.5zM4.5 6.5h3.5c0.277 0 0.5-0.223 0.5-0.5v-3.498c0-0.276-0.223-0.5-0.5-0.5h-3.5c-0.277 0-0.5 0.224-0.5 0.5v3.498c0 0.276 0.223 0.5 0.5 0.5zM5 3h2.5v2.5h-2.5v-2.5z"></path>
</svg>
