<?xml version="1.0" encoding="utf-8"?>
<!-- Generated by IcoMoon.io -->
<!DOCTYPE svg PUBLIC "-//W3C//DTD SVG 1.1//EN" "http://www.w3.org/Graphics/SVG/1.1/DTD/svg11.dtd">
<svg version="1.1" xmlns="http://www.w3.org/2000/svg" xmlns:xlink="http://www.w3.org/1999/xlink" width="18" height="16" viewBox="0 0 18 16">
<path fill="#444444" d="M9.143 4.571h-3.429v3.429h3.429v-3.429zM10.286 10.286v1.143h-5.714v-1.143h5.714zM10.286 3.429v5.714h-5.714v-5.714h5.714zM16 10.286v1.143h-4.571v-1.143h4.571zM16 8v1.143h-4.571v-1.143h4.571zM16 5.714v1.143h-4.571v-1.143h4.571zM16 3.429v1.143h-4.571v-1.143h4.571zM2.286 12v-8.571h-1.143v8.571q0 0.232 0.17 0.402t0.402 0.17 0.402-0.17 0.17-0.402zM17.143 12v-9.714h-13.714v9.714q0 0.295-0.098 0.571h13.241q0.232 0 0.402-0.17t0.17-0.402zM18.286 1.143v10.857q0 0.714-0.5 1.214t-1.214 0.5h-14.857q-0.714 0-1.214-0.5t-0.5-1.214v-9.714h2.286v-1.143h16z"></path>
</svg>
