<?xml version="1.0" encoding="utf-8"?>
<!-- Generated by IcoMoon.io -->
<!DOCTYPE svg PUBLIC "-//W3C//DTD SVG 1.1//EN" "http://www.w3.org/Graphics/SVG/1.1/DTD/svg11.dtd">
<svg version="1.1" xmlns="http://www.w3.org/2000/svg" xmlns:xlink="http://www.w3.org/1999/xlink" width="16" height="16" viewBox="0 0 16 16">
<path fill="#444444" d="M15.707 3.792l-3-3c-0.188-0.188-0.443-0.292-0.707-0.292h-10.5c-0.827 0-1.5 0.672-1.5 1.5v12c0 0.827 0.673 1.5 1.5 1.5h13c0.827 0 1.5-0.673 1.5-1.5v-9.5c0-0.266-0.105-0.52-0.293-0.708zM15 14c0 0.277-0.223 0.5-0.5 0.5h-13c-0.276 0-0.5-0.223-0.5-0.5v-12c0-0.276 0.224-0.5 0.5-0.5h10v2h-0.001c0 0.829 0.672 1.5 1.5 1.5h2.001v9zM13.499 4.5h-0.5c-0.551 0-1-0.449-1-1h0.001v-2l3 3h-1.501zM7.75 4c-0.138 0-0.25-0.111-0.25-0.25s0.112-0.25 0.25-0.25h2.5c0.137 0 0.25 0.112 0.25 0.25s-0.113 0.25-0.25 0.25h-2.5zM7.75 5.5c-0.138 0-0.25-0.112-0.25-0.25s0.112-0.25 0.25-0.25h2.5c0.137 0 0.25 0.112 0.25 0.25s-0.113 0.25-0.25 0.25h-2.5zM7.5 6.75c0-0.138 0.112-0.25 0.25-0.25h6c0.137 0 0.25 0.112 0.25 0.25s-0.113 0.25-0.25 0.25h-6c-0.138 0-0.25-0.112-0.25-0.25zM13.75 9.5c0.137 0 0.25 0.111 0.25 0.25 0 0.137-0.113 0.25-0.25 0.25h-11.5c-0.138 0-0.25-0.113-0.25-0.25 0-0.139 0.112-0.25 0.25-0.25h11.5zM13.75 11c0.137 0 0.25 0.111 0.25 0.25 0 0.137-0.113 0.25-0.25 0.25h-11.5c-0.138 0-0.25-0.113-0.25-0.25 0-0.139 0.112-0.25 0.25-0.25h11.5zM13.75 12.5c0.137 0 0.25 0.111 0.25 0.25 0 0.137-0.113 0.25-0.25 0.25h-11.5c-0.138 0-0.25-0.113-0.25-0.25 0-0.139 0.112-0.25 0.25-0.25h11.5zM13.75 8c0.137 0 0.25 0.112 0.25 0.25s-0.113 0.25-0.25 0.25h-11.5c-0.138 0-0.25-0.111-0.25-0.25s0.112-0.25 0.25-0.25h11.5zM2.5 7h3.5c0.277 0 0.5-0.223 0.5-0.5v-3c0-0.276-0.223-0.5-0.5-0.5h-3.5c-0.276 0-0.5 0.224-0.5 0.5v3c0 0.276 0.224 0.5 0.5 0.5zM3 4h2.5v2h-2.5v-2z"></path>
</svg>
