<?xml version="1.0" encoding="utf-8"?>
<!-- Generated by IcoMoon.io -->
<!DOCTYPE svg PUBLIC "-//W3C//DTD SVG 1.1//EN" "http://www.w3.org/Graphics/SVG/1.1/DTD/svg11.dtd">
<svg version="1.1" xmlns="http://www.w3.org/2000/svg" xmlns:xlink="http://www.w3.org/1999/xlink" width="21" height="16" viewBox="0 0 21 16">
<path fill="#444444" d="M20.571 6.857h-1.143v5.714h1.143v3.429h-3.429v-1.143h-8v1.143h-3.429v-3.429h1.143v-1.143h-3.429v1.143h-3.429v-3.429h1.143v-5.714h-1.143v-3.429h3.429v1.143h8v-1.143h3.429v3.429h-1.143v1.143h3.429v-1.143h3.429v3.429zM18.286 4.571v1.143h1.143v-1.143h-1.143zM12.571 1.143v1.143h1.143v-1.143h-1.143zM1.143 1.143v1.143h1.143v-1.143h-1.143zM2.286 11.429v-1.143h-1.143v1.143h1.143zM13.714 10.286h-1.143v1.143h1.143v-1.143zM3.429 10.286h8v-1.143h1.143v-5.714h-1.143v-1.143h-8v1.143h-1.143v5.714h1.143v1.143zM8 14.857v-1.143h-1.143v1.143h1.143zM19.429 14.857v-1.143h-1.143v1.143h1.143zM18.286 12.571v-5.714h-1.143v-1.143h-3.429v3.429h1.143v3.429h-3.429v-1.143h-3.429v1.143h1.143v1.143h8v-1.143h1.143z"></path>
</svg>
