<?xml version="1.0" encoding="utf-8"?>
<!-- Generated by IcoMoon.io -->
<!DOCTYPE svg PUBLIC "-//W3C//DTD SVG 1.1//EN" "http://www.w3.org/Graphics/SVG/1.1/DTD/svg11.dtd">
<svg version="1.1" xmlns="http://www.w3.org/2000/svg" xmlns:xlink="http://www.w3.org/1999/xlink" width="18" height="16" viewBox="0 0 18 16">
<path fill="#444444" d="M18.286 3.429h-1.143v9.143h1.143v3.429h-3.429v-1.143h-11.429v1.143h-3.429v-3.429h1.143v-9.143h-1.143v-3.429h3.429v1.143h11.429v-1.143h3.429v3.429zM16 1.143v1.143h1.143v-1.143h-1.143zM1.143 1.143v1.143h1.143v-1.143h-1.143zM2.286 14.857v-1.143h-1.143v1.143h1.143zM14.857 13.714v-1.143h1.143v-9.143h-1.143v-1.143h-11.429v1.143h-1.143v9.143h1.143v1.143h11.429zM17.143 14.857v-1.143h-1.143v1.143h1.143zM11.429 5.714h3.429v6.857h-8v-2.286h-3.429v-6.857h8v2.286zM4.571 9.143h5.714v-4.571h-5.714v4.571zM13.714 11.429v-4.571h-2.286v3.429h-3.429v1.143h5.714z"></path>
</svg>
