<?xml version="1.0" encoding="utf-8"?>
<!-- Generated by IcoMoon.io -->
<!DOCTYPE svg PUBLIC "-//W3C//DTD SVG 1.1//EN" "http://www.w3.org/Graphics/SVG/1.1/DTD/svg11.dtd">
<svg version="1.1" xmlns="http://www.w3.org/2000/svg" xmlns:xlink="http://www.w3.org/1999/xlink" width="14" height="16" viewBox="0 0 14 16">
<path fill="#444444" d="M8.277 5.179q0 0.589-0.415 1.004t-1.004 0.415-1.004-0.415-0.415-1.004 0.415-1.004 1.004-0.415 1.004 0.415 0.415 1.004zM10.188 8.42q-0.089-0.179-0.25-0.286t-0.424-0.085-0.54 0.246q-0.089 0.071-0.259 0.179t-0.723 0.286-1.134 0.179-1.107-0.161-0.768-0.321l-0.241-0.161q-0.277-0.223-0.54-0.246t-0.424 0.085-0.25 0.286q-0.196 0.402-0.018 0.665t0.777 0.656q0.741 0.473 2.018 0.598l-0.455 0.464q-1.268 1.268-1.705 1.696-0.196 0.196-0.196 0.469t0.196 0.469l0.080 0.080q0.196 0.196 0.469 0.196t0.469-0.196l1.705-1.705q1.018 1.027 1.705 1.705 0.196 0.196 0.469 0.196t0.469-0.196l0.080-0.080q0.196-0.196 0.196-0.469t-0.196-0.469l-1.705-1.696-0.464-0.464q1.259-0.125 2.009-0.598 0.598-0.393 0.777-0.656t-0.018-0.665zM9.75 5.179q0-1.196-0.848-2.045t-2.045-0.848-2.045 0.848-0.848 2.045 0.848 2.045 2.045 0.848 2.045-0.848 0.848-2.045zM13.714 3.714v8.571q0 1.063-0.754 1.817t-1.817 0.754h-8.571q-1.063 0-1.817-0.754t-0.754-1.817v-8.571q0-1.063 0.754-1.817t1.817-0.754h8.571q1.063 0 1.817 0.754t0.754 1.817z"></path>
</svg>
