<?xml version="1.0" encoding="utf-8"?>
<!-- Generated by IcoMoon.io -->
<!DOCTYPE svg PUBLIC "-//W3C//DTD SVG 1.1//EN" "http://www.w3.org/Graphics/SVG/1.1/DTD/svg11.dtd">
<svg version="1.1" xmlns="http://www.w3.org/2000/svg" xmlns:xlink="http://www.w3.org/1999/xlink" width="11" height="16" viewBox="0 0 11 16">
<path fill="#444444" d="M5.714 8.098q-1.679 0-2.866-1.188t-1.188-2.857q0-1.679 1.188-2.866t2.866-1.188 2.866 1.188 1.188 2.866q0 1.67-1.188 2.857t-2.866 1.188zM5.714 2.054q-0.821 0-1.406 0.585t-0.585 1.415q0 0.821 0.585 1.406t1.406 0.585 1.406-0.585 0.585-1.406q0-0.83-0.585-1.415t-1.406-0.585zM10.384 8.589q0.116 0.241 0.134 0.442t-0.040 0.362-0.237 0.344-0.379 0.33-0.549 0.371q-1.027 0.652-2.813 0.839l0.652 0.643 2.384 2.384q0.268 0.277 0.268 0.661t-0.268 0.652l-0.107 0.116q-0.277 0.268-0.661 0.268t-0.661-0.268q-0.598-0.607-2.384-2.393l-2.384 2.393q-0.277 0.268-0.661 0.268t-0.652-0.268l-0.107-0.116q-0.277-0.268-0.277-0.652t0.277-0.661l3.027-3.027q-1.813-0.188-2.83-0.839-0.348-0.223-0.549-0.371t-0.379-0.33-0.237-0.344-0.040-0.362 0.134-0.442q0.089-0.179 0.25-0.313t0.375-0.196 0.5 0.018 0.58 0.313q0.045 0.036 0.134 0.098t0.384 0.219 0.616 0.272 0.821 0.214 1.009 0.098q0.813 0 1.554-0.228t1.071-0.451l0.339-0.223q0.295-0.232 0.58-0.313t0.5-0.018 0.375 0.196 0.25 0.313z"></path>
</svg>
