<?xml version="1.0" encoding="utf-8"?>
<!-- Generated by IcoMoon.io -->
<!DOCTYPE svg PUBLIC "-//W3C//DTD SVG 1.1//EN" "http://www.w3.org/Graphics/SVG/1.1/DTD/svg11.dtd">
<svg version="1.1" xmlns="http://www.w3.org/2000/svg" xmlns:xlink="http://www.w3.org/1999/xlink" width="21" height="16" viewBox="0 0 21 16">
<path fill="#444444" d="M13.607 13.938q0 0.607-0.429 1.036t-1.036 0.429-1.040-0.429-0.433-1.036 0.433-1.040 1.040-0.433 1.036 0.433 0.429 1.040zM6.92 13.938q0 0.607-0.433 1.036t-1.040 0.429-1.036-0.429-0.429-1.036 0.429-1.040 1.036-0.433 1.040 0.433 0.433 1.040zM0 0.598q0.509 0.536 0.987 0.933t1.080 0.732 1.214 0.563 1.482 0.406 1.786 0.281 2.232 0.165 2.714 0.085 3.326 0.022q1.241 0 2.183 0.045t1.616 0.147 1.107 0.246 0.634 0.353 0.214 0.46-0.174 0.571-0.504 0.683-0.799 0.813-1.036 0.933-1.241 1.063q-1.652 1.402-2.554 2.205 0.259-0.455 0.683-0.973t0.839-0.942 0.844-0.879 0.741-0.817 0.482-0.719 0.116-0.625-0.406-0.496-1.040-0.366-1.821-0.21-2.714-0.045q-1.5 0.018-2.804-0.054t-2.286-0.205-1.826-0.366-1.424-0.46-1.094-0.558-0.817-0.594-0.607-0.638-0.451-0.621-0.357-0.607-0.326-0.531z"></path>
</svg>
