<?xml version="1.0" encoding="utf-8"?>
<!-- Generated by IcoMoon.io -->
<!DOCTYPE svg PUBLIC "-//W3C//DTD SVG 1.1//EN" "http://www.w3.org/Graphics/SVG/1.1/DTD/svg11.dtd">
<svg version="1.1" xmlns="http://www.w3.org/2000/svg" xmlns:xlink="http://www.w3.org/1999/xlink" width="16" height="16" viewBox="0 0 16 16">
<path fill="#444444" d="M13.33 2.036q-1.473-0.982-3.205-0.982-1.384 0-2.616 0.652t-2.143 1.786q-0.67 0.83-1.067 1.946t-0.433 2.375v0.375q0.036 1.259 0.433 2.375t1.067 1.946q0.911 1.134 2.143 1.786t2.616 0.652q1.732 0 3.205-0.982-1.080 0.964-2.451 1.5t-2.879 0.536q-0.259 0-0.384-0.009-1.563-0.071-2.973-0.732t-2.429-1.723-1.616-2.509-0.598-3.027q0-1.625 0.634-3.107t1.705-2.554 2.554-1.705 3.107-0.634h0.027q1.5 0.009 2.862 0.54t2.442 1.496zM16 8q0 1.714-0.688 3.237t-1.902 2.647q-0.929 0.563-1.982 0.563-1.223 0-2.277-0.75 1.375-0.5 2.263-2.080t0.888-3.616q0-2.027-0.884-3.607t-2.259-2.089q1.063-0.741 2.268-0.741 1.063 0 2.018 0.58 1.205 1.116 1.879 2.634t0.674 3.223z"></path>
</svg>
