<?xml version="1.0" encoding="utf-8"?>
<!-- Generated by IcoMoon.io -->
<!DOCTYPE svg PUBLIC "-//W3C//DTD SVG 1.1//EN" "http://www.w3.org/Graphics/SVG/1.1/DTD/svg11.dtd">
<svg version="1.1" xmlns="http://www.w3.org/2000/svg" xmlns:xlink="http://www.w3.org/1999/xlink" width="21" height="16" viewBox="0 0 21 16">
<path fill="#444444" d="M4.268 14.955q-0.071 0.143-0.241 0.308t-0.33 0.228q-0.223 0.080-0.46-0.031t-0.254-0.281q-0.009-0.196 0.357-0.491t0.607-0.339q0.205-0.036 0.304 0.192t0.018 0.415zM16.241 14.955q0.063 0.143 0.232 0.308t0.339 0.228q0.223 0.080 0.46-0.031t0.246-0.281q0.018-0.196-0.353-0.491t-0.612-0.339q-0.196-0.036-0.295 0.192t-0.018 0.415zM16.67 13.982q0.116 0.241 0.504 0.531t0.692 0.371q0.402 0.116 0.732-0.040t0.33-0.451q0-0.411-0.603-0.897t-1.031-0.531q-0.357-0.045-0.567 0.335t-0.058 0.683zM3.821 13.982q-0.116 0.241-0.5 0.531t-0.688 0.371q-0.402 0.116-0.732-0.040t-0.33-0.451q0-0.411 0.603-0.897t1.031-0.531q0.357-0.045 0.563 0.335t0.054 0.683zM10.339 3.946h0.009q-0.366 0-0.679 0.134 0.241 0.071 0.393 0.272t0.152 0.442q0 0.313-0.241 0.536t-0.58 0.223q-0.464 0-0.714-0.384-0.045 0.205-0.045 0.375 0 0.661 0.5 1.129t1.205 0.469q0.714 0 1.214-0.469t0.5-1.129-0.5-1.129-1.214-0.469zM13.054 2q-0.884-0.973-1.969-1.174t-2.192 0.397q0.241-0.536 0.737-0.862t1.054-0.353 1.085 0.152 0.888 0.665 0.397 1.174zM19.75 13.063q0.071 0.098-0.098 0.375 0.063 0.205 0.063 0.357 0.009 0.5-0.397 1.004t-0.978 0.817-1.054 0.33q-0.429 0.018-0.821-0.192t-0.589-0.585q-6.134 0.223-11.241 0-0.205 0.366-0.594 0.58t-0.826 0.196q-0.768-0.027-1.603-0.719t-0.826-1.433q0.018-0.196 0.063-0.357-0.17-0.277-0.098-0.375 0.054-0.089 0.277-0.009 0.125-0.196 0.366-0.455-0.063-0.259 0.018-0.339 0.098-0.089 0.348 0.036 0.259-0.179 0.527-0.304 0-0.259 0.116-0.33 0.205-0.107 0.455 0.143 0.313-0.045 0.545 0.018 0.161 0.036 0.339 0.17v-0.652q-0.098 0-0.161-0.018-0.473-0.089-0.866-0.397t-0.491-0.781q-0.080-0.339 0-0.723 0.134-0.554 0.83-0.848 0.018-0.152 0.17-0.317t0.321-0.21 0.295 0.067 0.17 0.272h0.116q0.411 0.045 0.536 0.205 0.027 0.027 0.045 0.063 0.089-0.009 0.272-0.031t0.272-0.031q-0.134-0.098-0.268-0.152-0.205-0.357-0.813-0.384 0-0.054 0.009-0.089-0.554-0.018-1.058-0.165t-0.754-0.424q-0.286-0.321-0.379-0.821t-0.022-1q0.143-1.125 0.804-1.598 0.205-0.143 0.464-0.040t0.286 0.362q0 0.009 0.013 0.125t0.022 0.188 0.027 0.179 0.049 0.17 0.076 0.089q0.241 0.125 0.679 0.107 0.429-0.411 0.875-0.661-0.357-0.036-1.446 0.125l0.42-0.411q0.545-0.518 1.455-0.991 1.295-0.652 2.518-0.768-0.179-0.071-0.366-0.138t-0.42-0.125-0.379-0.094-0.424-0.098-0.384-0.089q5.313-1.125 8.071 1.241 0.875 0.75 1.411 1.982 0.759 0.089 1.080-0.080h0.009q0.045-0.027 0.076-0.089t0.049-0.17 0.027-0.174 0.027-0.192l0.009-0.125q0.027-0.25 0.286-0.357t0.464 0.045q0.652 0.464 0.813 1.589 0.063 0.509-0.031 1.009t-0.379 0.813q-0.25 0.286-0.746 0.433t-1.031 0.165v0.089q-0.634 0.018-0.848 0.384-0.125 0.045-0.277 0.152 0.098 0.009 0.286 0.031t0.268 0.031q0.009-0.036 0.045-0.071 0.143-0.161 0.536-0.205h0.116q0.045-0.161 0.17-0.268t0.295-0.071 0.321 0.205 0.17 0.321q0.705 0.286 0.83 0.848 0.080 0.357 0.009 0.723-0.107 0.473-0.5 0.786t-0.866 0.393q-0.089 0.018-0.152 0.018 0 0.438-0.009 0.652 0.179-0.134 0.339-0.17 0.232-0.063 0.545-0.018 0.25-0.25 0.455-0.143 0.125 0.080 0.125 0.33 0.295 0.143 0.527 0.304 0.241-0.116 0.339-0.036 0.089 0.089 0.018 0.339 0.25 0.268 0.366 0.455 0.205-0.071 0.277 0.009zM17.295 4.563q0 0.259-0.080 0.482 0.732 0.286 1 1.179 0.036-0.33-0.085-0.879t-0.371-0.808q-0.179-0.17-0.321-0.152t-0.143 0.179zM16.598 5.455q0.313 0.375 0.424 0.969t-0.004 1.112q0.598-0.116 0.866-0.402 0.116-0.125 0.161-0.25-0.027-0.571-0.277-1.022t-0.705-0.594q-0.134 0.134-0.464 0.188zM16.268 5.491q-0.268 0-0.393-0.009 0.375 1.027 0.473 2.134 0.188 0 0.384-0.027 0.143-0.607 0.009-1.205t-0.473-0.893zM2.304 6.223q0.268-0.893 1-1.179-0.080-0.223-0.080-0.482 0-0.161-0.147-0.179t-0.317 0.152q-0.25 0.259-0.371 0.808t-0.085 0.879zM2.625 7.134q0.259 0.277 0.866 0.402-0.116-0.518-0.004-1.112t0.424-0.969v0q-0.33-0.054-0.464-0.188-0.455 0.143-0.701 0.589t-0.281 1.027q0.080 0.152 0.161 0.25zM4.205 7.616q0.125-1.107 0.652-2.098-0.17 0.036-0.491 0.161l-0.402 0.17v-0.009q-0.411 0.795-0.179 1.75 0.223 0.027 0.42 0.027zM12.804 7.964q0.071 0.339 0.147 0.969t0.103 0.799q0.027 0.161 0.085 0.192t0.21-0.040q0.357-0.179 0.554-0.763t0.205-1.121q-0.214-0.018-1.304-0.036zM10.286 2.241q-1.036 0-1.777 0.737t-0.741 1.772q0 1.045 0.741 1.781t1.777 0.737 1.777-0.737 0.741-1.781q0-1.036-0.741-1.772t-1.777-0.737zM12.321 7.946q-0.946-0.018-1.884 0v-0.009q-0.009 0.241 0.022 0.768t0.121 0.589q0.259 0.125 0.835 0.129t0.853-0.094q0.080-0.027 0.098-0.348t-0.004-0.621-0.040-0.415zM9.929 9.723q0.071-0.036 0.085-0.429t-0.004-0.786-0.036-0.563v-0.009q-1.893 0.027-1.911 0.027-0.036 0.179-0.063 0.554t0 0.741 0.125 0.411q0.304 0.134 0.902 0.143t0.902-0.089zM6.411 8.036q-0.143 0.527 0.040 1.058t0.692 0.754q0.134 0.071 0.214 0.045t0.107-0.188q0.027-0.143 0.071-0.804t0.089-0.92q-0.616 0.018-1.214 0.054zM5.277 9.161q0.027 0.205-0.304 0.321 1.179 1.259 2.424 2.143t2.728 1.375q1.536-0.438 2.772-1.304t2.621-2.232q-0.295-0.116-0.268-0.304l0.027-0.080q-0.152-0.018-0.446-0.049t-0.429-0.040q-0.232 0.804-0.732 1.179-0.455 0.339-0.732-0.009-0.045-0.054-0.080-0.125-0.063-0.116-0.152-0.554-0.018 0.045-0.045 0.080t-0.067 0.063-0.071 0.049-0.085 0.036l-0.089 0.022t-0.107 0.018l-0.107 0.013t-0.121 0.009-0.121 0.004q-0.946 0.080-1.455-0.098-0.036 0.152-0.089 0.237t-0.188 0.134-0.205 0.063-0.321 0.031q-0.018 0-0.027 0.004t-0.027 0.004h-0.027q-1.598 0.152-1.813-0.357-0.018 0.563-0.5 0.482-0.42-0.071-0.813-0.482-0.107-0.116-0.179-0.232-0.152-0.259-0.232-0.58-0.518 0.054-0.777 0.089 0.009 0.018 0.036 0.089zM4.527 14.768q0.027-0.125 0.027-0.268-0.152-0.634-0.455-1.161t-0.652-0.625q-0.366-0.107-0.906 0.129t-0.933 0.714-0.348 0.96q0.313 0.473 0.893 0.83t1.063 0.375q0.455 0.018 0.839-0.25t0.473-0.705zM4.554 13.241q0.205 0.563 0.241 1.063 1.741-1.009 3.5-1.554-0.875-0.464-1.612-1.071t-1.603-1.473q-0.054 0.036-0.259 0.116 0 0.018-0.009 0.045t-0.009 0.036q0.277 0.161 0.196 0.33-0.107 0.205-0.5 0.304-0.089 0.116-0.259 0.214h-0.009q-0.018 0.741 0.009 1.339 0.17 0.304 0.313 0.652zM5.17 14.723q4.75 0.188 10.223 0-2.268-1.313-3.821-1.75-0.679 0.313-1.393 0.509-0.071 0.027-0.143 0-0.58-0.188-1.152-0.438-1.857 0.536-3.714 1.679h-0.009v0.009q0.009 0 0.009-0.009zM15.741 14.313q0.036-0.482 0.25-1.071 0.125-0.339 0.295-0.634l-0.009 0.009q0.027-0.688 0.027-1.366-0.134-0.071-0.268-0.223-0.375-0.080-0.5-0.295-0.080-0.179 0.196-0.339-0.018-0.036-0.018-0.080-0.143-0.036-0.25-0.107-1.821 1.696-3.42 2.536 1.768 0.527 3.696 1.571zM19.241 14.518q0.045-0.482-0.348-0.96t-0.929-0.714-0.911-0.129q-0.339 0.098-0.647 0.629t-0.46 1.156q0 0.143 0.027 0.268 0.089 0.438 0.473 0.705t0.839 0.25q0.482-0.018 1.063-0.375t0.893-0.83z"></path>
</svg>
