<?xml version="1.0" encoding="utf-8"?>
<!-- Generated by IcoMoon.io -->
<!DOCTYPE svg PUBLIC "-//W3C//DTD SVG 1.1//EN" "http://www.w3.org/Graphics/SVG/1.1/DTD/svg11.dtd">
<svg version="1.1" xmlns="http://www.w3.org/2000/svg" xmlns:xlink="http://www.w3.org/1999/xlink" width="13" height="16" viewBox="0 0 13 16">
<path fill="#444444" d="M12.518 9.848q-0.286 0.714-0.679 1.232t-0.813 0.79-0.884 0.415-0.906 0.129-0.862-0.076-0.772-0.196-0.621-0.246-0.411-0.201l-0.152-0.089q-1.009 2.036-2.585 3.21t-3.433 1.183q-0.17 0-0.286-0.116t-0.116-0.286 0.116-0.281 0.286-0.112q1.545-0.009 2.879-0.96t2.246-2.629q-0.321 0.125-0.643 0.205t-0.741 0.116-0.813-0.022-0.83-0.254-0.821-0.527-0.754-0.893-0.665-1.304q1.018-0.42 1.911-0.509t1.496 0.067 1.112 0.504 0.79 0.688 0.504 0.732q0.473-1.17 0.705-2.598-0.063 0.009-0.161 0.022t-0.415 0.022-0.621-0.004-0.728-0.089-0.79-0.205-0.75-0.379-0.67-0.58-0.487-0.844-0.254-1.138q0.625-0.25 1.192-0.326t1.004 0.009 0.821 0.268 0.656 0.446 0.5 0.545 0.375 0.563 0.246 0.5 0.143 0.353l0.036 0.143q0.107-1.089 0.107-1.741-0.071-0.054-0.192-0.143t-0.438-0.397-0.567-0.638-0.482-0.83-0.295-1.004 0.107-1.134 0.625-1.237q0.652 0.223 1.138 0.549t0.754 0.683 0.429 0.759 0.183 0.795-0.004 0.763-0.116 0.683-0.17 0.554-0.152 0.375l-0.063 0.134q0.009 0.045 0.009 0.451t-0.009 0.638q0.027-0.063 0.089-0.165t0.272-0.384 0.451-0.518 0.634-0.496 0.817-0.397 1-0.129 1.183 0.214q-0.018 0.696-0.192 1.263t-0.446 0.933-0.621 0.638-0.728 0.406-0.754 0.214-0.714 0.085-0.603-0.009-0.415-0.040l-0.152-0.027q-0.205 1.313-0.652 2.527 0.054-0.063 0.161-0.165t0.442-0.366 0.692-0.469 0.888-0.375 1.049-0.179 1.152 0.21 1.223 0.692z"></path>
</svg>
