<?xml version="1.0" encoding="utf-8"?>
<!-- Generated by IcoMoon.io -->
<!DOCTYPE svg PUBLIC "-//W3C//DTD SVG 1.1//EN" "http://www.w3.org/Graphics/SVG/1.1/DTD/svg11.dtd">
<svg version="1.1" xmlns="http://www.w3.org/2000/svg" xmlns:xlink="http://www.w3.org/1999/xlink" width="16" height="16" viewBox="0 0 16 16">
<path fill="#444444" d="M14.42 0q0.625 0 1.094 0.415t0.469 1.040q0 0.563-0.402 1.348-2.964 5.616-4.152 6.714-0.866 0.813-1.946 0.813-1.125 0-1.933-0.826t-0.808-1.96q0-1.143 0.821-1.893l5.696-5.17q0.527-0.482 1.161-0.482zM6.304 9.232q0.348 0.679 0.951 1.161t1.344 0.679l0.009 0.634q0.036 1.902-1.156 3.098t-3.112 1.196q-1.098 0-1.946-0.415t-1.362-1.138-0.772-1.634-0.259-1.964q0.063 0.045 0.366 0.268t0.554 0.397 0.527 0.326 0.411 0.152q0.366 0 0.491-0.33 0.223-0.589 0.513-1.004t0.621-0.679 0.786-0.424 0.92-0.228 1.116-0.094z"></path>
</svg>
