<?xml version="1.0" encoding="utf-8"?>
<!-- Generated by IcoMoon.io -->
<!DOCTYPE svg PUBLIC "-//W3C//DTD SVG 1.1//EN" "http://www.w3.org/Graphics/SVG/1.1/DTD/svg11.dtd">
<svg version="1.1" xmlns="http://www.w3.org/2000/svg" xmlns:xlink="http://www.w3.org/1999/xlink" width="13" height="16" viewBox="0 0 13 16">
<path fill="#444444" d="M12.536 12.366q0 1.045-0.705 1.75t-1.75 0.705q-1.205 0-2.098-0.893l-6.938-6.929q-1.009-1.027-1.009-2.42 0-1.42 0.982-2.411t2.402-0.991q1.411 0 2.438 1.009l5.402 5.411q0.089 0.089 0.089 0.196 0 0.143-0.272 0.415t-0.415 0.272q-0.116 0-0.205-0.089l-5.411-5.42q-0.705-0.688-1.616-0.688-0.946 0-1.598 0.67t-0.652 1.616q0 0.938 0.679 1.616l6.929 6.938q0.563 0.563 1.295 0.563 0.571 0 0.946-0.375t0.375-0.946q0-0.732-0.563-1.295l-5.188-5.188q-0.232-0.214-0.536-0.214-0.259 0-0.429 0.17t-0.17 0.429q0 0.286 0.223 0.527l3.661 3.661q0.089 0.089 0.089 0.196 0 0.143-0.277 0.42t-0.42 0.277q-0.107 0-0.196-0.089l-3.661-3.661q-0.563-0.545-0.563-1.33 0-0.732 0.509-1.241t1.241-0.509q0.786 0 1.33 0.563l5.188 5.188q0.893 0.875 0.893 2.098z"></path>
</svg>
