<?xml version="1.0" encoding="utf-8"?>
<!-- Generated by IcoMoon.io -->
<!DOCTYPE svg PUBLIC "-//W3C//DTD SVG 1.1//EN" "http://www.w3.org/Graphics/SVG/1.1/DTD/svg11.dtd">
<svg version="1.1" xmlns="http://www.w3.org/2000/svg" xmlns:xlink="http://www.w3.org/1999/xlink" width="16" height="16" viewBox="0 0 16 16">
<path fill="#444444" d="M15.771 0.080c-0.083-0.053-0.178-0.080-0.271-0.080-0.097 0-0.194 0.028-0.277 0.084l-15 10c-0.154 0.102-0.239 0.283-0.22 0.468s0.139 0.344 0.311 0.412l3.912 1.566 1.84 3.219c0.088 0.155 0.252 0.25 0.428 0.252 0.002 0 0.003 0 0.005 0 0.176 0 0.338-0.093 0.428-0.243l1.038-1.732 4.848 1.938c0.059 0.024 0.122 0.036 0.185 0.036 0.085 0 0.169-0.021 0.245-0.065 0.132-0.074 0.223-0.204 0.248-0.354l2.5-15c0.033-0.197-0.055-0.394-0.222-0.502zM1.568 10.389l11.588-7.726-8.425 9.018c-0.045-0.027-0.084-0.062-0.133-0.081l-3.030-1.212zM5.095 12.033c-0.001-0.002-0.003-0.003-0.003-0.005l9.471-10.137-8.075 12.581-1.393-2.438zM12.608 14.805l-4.271-1.708c-0.101-0.040-0.207-0.053-0.312-0.059l6.576-10.194-1.994 11.961z"></path>
</svg>
