<?xml version="1.0" encoding="utf-8"?>
<!-- Generated by IcoMoon.io -->
<!DOCTYPE svg PUBLIC "-//W3C//DTD SVG 1.1//EN" "http://www.w3.org/Graphics/SVG/1.1/DTD/svg11.dtd">
<svg version="1.1" xmlns="http://www.w3.org/2000/svg" xmlns:xlink="http://www.w3.org/1999/xlink" width="16" height="16" viewBox="0 0 16 16">
<path fill="#444444" d="M15.75 0.098q0.295 0.214 0.241 0.571l-2.286 13.714q-0.045 0.259-0.286 0.402-0.125 0.071-0.277 0.071-0.098 0-0.214-0.045l-4.045-1.652-2.161 2.634q-0.161 0.205-0.438 0.205-0.116 0-0.196-0.036-0.17-0.063-0.272-0.21t-0.103-0.326v-3.116l7.714-9.455-9.545 8.259-3.527-1.446q-0.33-0.125-0.357-0.491-0.018-0.357 0.286-0.527l14.857-8.571q0.134-0.080 0.286-0.080 0.179 0 0.321 0.098z"></path>
</svg>
