<?xml version="1.0" encoding="utf-8"?>
<!-- Generated by IcoMoon.io -->
<!DOCTYPE svg PUBLIC "-//W3C//DTD SVG 1.1//EN" "http://www.w3.org/Graphics/SVG/1.1/DTD/svg11.dtd">
<svg version="1.1" xmlns="http://www.w3.org/2000/svg" xmlns:xlink="http://www.w3.org/1999/xlink" width="16" height="16" viewBox="0 0 16 16">
<path fill="#444444" d="M15.75 0.098q0.295 0.214 0.241 0.571l-2.286 13.714q-0.045 0.259-0.286 0.402-0.125 0.071-0.277 0.071-0.098 0-0.214-0.045l-4.705-1.92-2.661 2.92q-0.161 0.188-0.42 0.188-0.125 0-0.205-0.036-0.17-0.063-0.268-0.21t-0.098-0.326v-4.036l-4.214-1.723q-0.33-0.125-0.357-0.491-0.027-0.348 0.286-0.527l14.857-8.571q0.313-0.188 0.607 0.018zM12.696 13.482l1.973-11.813-12.804 7.384 3 1.223 7.705-5.705-4.268 7.116z"></path>
</svg>
