<?xml version="1.0" encoding="utf-8"?>
<!-- Generated by IcoMoon.io -->
<!DOCTYPE svg PUBLIC "-//W3C//DTD SVG 1.1//EN" "http://www.w3.org/Graphics/SVG/1.1/DTD/svg11.dtd">
<svg version="1.1" xmlns="http://www.w3.org/2000/svg" xmlns:xlink="http://www.w3.org/1999/xlink" width="16" height="16" viewBox="0 0 16 16">
<path fill="#444444" d="M4 3.010v-1.51c0-0.827-0.673-1.5-1.5-1.5s-1.5 0.673-1.5 1.5v1.51c-0.604 0.458-1 1.174-1 1.99s0.396 1.532 1 1.989v7.511c0 0.827 0.673 1.5 1.5 1.5s1.5-0.673 1.5-1.5v-7.511c0.604-0.456 1-1.173 1-1.989s-0.396-1.532-1-1.99zM2 1.5c0-0.276 0.224-0.5 0.5-0.5s0.5 0.224 0.5 0.5v1.050c-0.162-0.033-0.329-0.050-0.5-0.050s-0.338 0.018-0.5 0.050v-1.050zM3 14.5c0 0.277-0.224 0.5-0.5 0.5s-0.5-0.223-0.5-0.5v-7.051c0.162 0.034 0.329 0.051 0.5 0.051s0.338-0.018 0.5-0.051v7.051zM3.933 5.42c-0.008 0.027-0.015 0.053-0.025 0.079-0.047 0.132-0.108 0.257-0.189 0.368-0.002 0.003-0.005 0.005-0.007 0.008-0.087 0.119-0.191 0.224-0.308 0.314-0.002 0.002-0.003 0.003-0.005 0.004-0.12 0.091-0.255 0.164-0.4 0.215-0.156 0.056-0.323 0.093-0.499 0.093s-0.343-0.036-0.5-0.093c-0.145-0.051-0.279-0.124-0.399-0.215-0.002-0.001-0.003-0.002-0.005-0.004-0.117-0.089-0.221-0.194-0.308-0.314-0.002-0.003-0.005-0.005-0.007-0.008-0.081-0.112-0.141-0.237-0.189-0.368-0.010-0.027-0.016-0.053-0.024-0.079-0.040-0.133-0.067-0.273-0.067-0.42s0.028-0.287 0.068-0.421c0.008-0.027 0.015-0.053 0.024-0.078 0.047-0.132 0.108-0.257 0.189-0.369 0.002-0.003 0.005-0.005 0.007-0.008 0.087-0.118 0.191-0.224 0.308-0.313 0.002-0.001 0.004-0.003 0.005-0.004 0.12-0.090 0.254-0.163 0.399-0.215 0.157-0.056 0.324-0.092 0.5-0.092s0.343 0.036 0.5 0.092c0.144 0.052 0.279 0.125 0.4 0.215 0.002 0.001 0.003 0.003 0.005 0.004 0.118 0.089 0.221 0.195 0.308 0.313 0.002 0.003 0.005 0.005 0.007 0.008 0.080 0.112 0.142 0.237 0.188 0.369 0.010 0.026 0.017 0.051 0.025 0.078 0.040 0.134 0.067 0.274 0.067 0.421 0 0.146-0.027 0.286-0.067 0.42zM15 3.010v-1.51c0-0.827-0.673-1.5-1.5-1.5s-1.5 0.673-1.5 1.5v1.51c-0.604 0.458-1 1.174-1 1.99s0.396 1.532 1 1.989v7.511c0 0.827 0.673 1.5 1.5 1.5s1.5-0.673 1.5-1.5v-7.511c0.604-0.456 1-1.173 1-1.989s-0.396-1.532-1-1.99zM13 1.5c0-0.276 0.223-0.5 0.5-0.5s0.5 0.224 0.5 0.5v1.050c-0.162-0.033-0.329-0.050-0.5-0.050-0.172 0-0.339 0.018-0.5 0.050v-1.050zM14 14.5c0 0.277-0.223 0.5-0.5 0.5s-0.5-0.223-0.5-0.5v-7.051c0.161 0.034 0.328 0.051 0.5 0.051 0.171 0 0.338-0.018 0.5-0.051v7.051zM14.932 5.42c-0.008 0.027-0.015 0.053-0.024 0.079-0.048 0.132-0.108 0.257-0.19 0.368-0.002 0.003-0.005 0.005-0.007 0.008-0.087 0.119-0.191 0.224-0.307 0.314-0.002 0.002-0.004 0.003-0.005 0.004-0.121 0.091-0.255 0.164-0.399 0.215-0.156 0.056-0.323 0.093-0.499 0.093s-0.343-0.036-0.5-0.093c-0.145-0.051-0.28-0.124-0.399-0.215-0.002-0.001-0.003-0.002-0.005-0.004-0.118-0.089-0.222-0.194-0.309-0.314-0.002-0.003-0.005-0.005-0.007-0.008-0.080-0.112-0.142-0.237-0.188-0.368-0.010-0.027-0.017-0.053-0.024-0.079-0.040-0.133-0.067-0.273-0.067-0.42s0.027-0.287 0.068-0.421c0.008-0.027 0.014-0.053 0.024-0.078 0.047-0.132 0.108-0.257 0.188-0.369 0.002-0.003 0.005-0.005 0.007-0.008 0.087-0.118 0.191-0.224 0.309-0.313 0.002-0.001 0.003-0.003 0.005-0.004 0.12-0.090 0.255-0.163 0.399-0.215 0.156-0.055 0.322-0.091 0.499-0.091s0.343 0.036 0.5 0.092c0.145 0.052 0.278 0.125 0.399 0.215 0.001 0.001 0.003 0.003 0.005 0.004 0.117 0.089 0.22 0.196 0.307 0.314 0.002 0.003 0.005 0.005 0.007 0.008 0.081 0.112 0.142 0.237 0.19 0.369 0.009 0.026 0.017 0.052 0.024 0.078 0.040 0.133 0.067 0.273 0.067 0.42 0 0.146-0.027 0.286-0.068 0.42zM9.5 9.011v-7.511c0-0.827-0.673-1.5-1.5-1.5s-1.5 0.673-1.5 1.5v7.511c-0.604 0.457-1 1.174-1 1.989s0.396 1.532 1 1.989v1.511c0 0.827 0.673 1.5 1.5 1.5s1.5-0.673 1.5-1.5v-1.511c0.604-0.456 1-1.173 1-1.989s-0.396-1.532-1-1.989zM7.5 1.5c0-0.276 0.223-0.5 0.5-0.5s0.5 0.224 0.5 0.5v7.050c-0.162-0.032-0.329-0.050-0.5-0.050s-0.338 0.018-0.5 0.050v-7.050zM8.5 14.5c0 0.277-0.223 0.5-0.5 0.5s-0.5-0.223-0.5-0.5v-1.051c0.162 0.034 0.329 0.051 0.5 0.051s0.338-0.018 0.5-0.051v1.051zM9.432 11.42c-0.008 0.027-0.015 0.053-0.024 0.079-0.048 0.132-0.108 0.257-0.19 0.368-0.002 0.003-0.005 0.005-0.007 0.008-0.087 0.119-0.191 0.225-0.307 0.313-0.002 0.002-0.004 0.003-0.005 0.004-0.121 0.091-0.255 0.164-0.399 0.215-0.156 0.056-0.323 0.092-0.5 0.092s-0.343-0.036-0.5-0.093c-0.144-0.051-0.279-0.124-0.399-0.215-0.002-0.001-0.003-0.002-0.005-0.004-0.117-0.089-0.221-0.194-0.308-0.313-0.002-0.003-0.005-0.005-0.007-0.008-0.080-0.111-0.141-0.236-0.189-0.368-0.010-0.027-0.016-0.053-0.024-0.079-0.040-0.133-0.067-0.273-0.067-0.419 0-0.148 0.027-0.287 0.067-0.421 0.008-0.027 0.015-0.053 0.024-0.078 0.048-0.132 0.109-0.257 0.189-0.369 0.002-0.003 0.005-0.005 0.007-0.008 0.087-0.118 0.191-0.225 0.308-0.313 0.002-0.001 0.003-0.003 0.005-0.004 0.12-0.090 0.255-0.163 0.399-0.215 0.157-0.056 0.323-0.091 0.5-0.091s0.343 0.036 0.5 0.092c0.145 0.052 0.278 0.125 0.399 0.215 0.001 0.001 0.003 0.003 0.005 0.004 0.117 0.089 0.22 0.195 0.307 0.313 0.002 0.003 0.005 0.005 0.007 0.008 0.081 0.113 0.142 0.238 0.19 0.369 0.009 0.025 0.017 0.052 0.024 0.078 0.040 0.133 0.067 0.273 0.067 0.421 0 0.146-0.027 0.286-0.068 0.42z"></path>
</svg>
