<?xml version="1.0" encoding="utf-8"?>
<!-- Generated by IcoMoon.io -->
<!DOCTYPE svg PUBLIC "-//W3C//DTD SVG 1.1//EN" "http://www.w3.org/Graphics/SVG/1.1/DTD/svg11.dtd">
<svg version="1.1" xmlns="http://www.w3.org/2000/svg" xmlns:xlink="http://www.w3.org/1999/xlink" width="12" height="16" viewBox="0 0 12 16">
<path fill="#444444" d="M11.411 1.688v0.652q0 0.259-0.165 0.545t-0.379 0.286q-0.446 0-0.482 0.009-0.232 0.054-0.286 0.277-0.027 0.098-0.027 0.571v10.286q0 0.223-0.161 0.384t-0.384 0.161h-0.964q-0.223 0-0.384-0.161t-0.161-0.384v-10.875h-1.277v10.875q0 0.223-0.156 0.384t-0.388 0.161h-0.964q-0.232 0-0.388-0.161t-0.156-0.384v-4.429q-1.313-0.107-2.188-0.527-1.125-0.518-1.714-1.598-0.571-1.045-0.571-2.313 0-1.482 0.786-2.554 0.786-1.054 1.866-1.42 0.991-0.33 3.723-0.33h4.277q0.223 0 0.384 0.161t0.161 0.384z"></path>
</svg>
