<?xml version="1.0" encoding="utf-8"?>
<!-- Generated by IcoMoon.io -->
<!DOCTYPE svg PUBLIC "-//W3C//DTD SVG 1.1//EN" "http://www.w3.org/Graphics/SVG/1.1/DTD/svg11.dtd">
<svg version="1.1" xmlns="http://www.w3.org/2000/svg" xmlns:xlink="http://www.w3.org/1999/xlink" width="15" height="16" viewBox="0 0 15 16">
<path fill="#444444" d="M6.964 4.214q0 0.536-0.17 1.013t-0.563 0.826-0.938 0.348q-0.679 0-1.232-0.513t-0.821-1.21-0.268-1.348q0-0.536 0.17-1.013t0.563-0.826 0.938-0.348q0.688 0 1.237 0.513t0.817 1.205 0.268 1.353zM3.911 8.527q0 0.714-0.375 1.241t-1.063 0.527q-0.679 0-1.263-0.496t-0.897-1.192-0.313-1.357q0-0.714 0.375-1.246t1.063-0.531q0.679 0 1.263 0.496t0.897 1.196 0.313 1.362zM7.429 8.286q1.054 0 2.277 0.871t2.045 2.116 0.821 2.272q0 0.411-0.152 0.683t-0.433 0.402-0.576 0.179-0.679 0.049q-0.607 0-1.674-0.402t-1.629-0.402q-0.589 0-1.719 0.397t-1.79 0.397q-1.634 0-1.634-1.304 0-0.768 0.5-1.71t1.246-1.719 1.674-1.304 1.723-0.527zM9.563 6.402q-0.545 0-0.938-0.348t-0.563-0.826-0.17-1.013q0-0.661 0.268-1.353t0.817-1.205 1.237-0.513q0.545 0 0.938 0.348t0.563 0.826 0.17 1.013q0 0.652-0.268 1.348t-0.821 1.21-1.232 0.513zM13.42 5.473q0.688 0 1.063 0.531t0.375 1.246q0 0.661-0.313 1.357t-0.897 1.192-1.263 0.496q-0.688 0-1.063-0.527t-0.375-1.241q0-0.661 0.313-1.362t0.897-1.196 1.263-0.496z"></path>
</svg>
