<?xml version="1.0" encoding="utf-8"?>
<!-- Generated by IcoMoon.io -->
<!DOCTYPE svg PUBLIC "-//W3C//DTD SVG 1.1//EN" "http://www.w3.org/Graphics/SVG/1.1/DTD/svg11.dtd">
<svg version="1.1" xmlns="http://www.w3.org/2000/svg" xmlns:xlink="http://www.w3.org/1999/xlink" width="14" height="16" viewBox="0 0 14 16">
<path fill="#444444" d="M13.563 5.768q0.161 0.75-0.036 1.821-0.777 3.964-5.045 3.964h-0.393q-0.223 0-0.393 0.147t-0.214 0.379l-0.036 0.17-0.491 3.089-0.018 0.134q-0.045 0.232-0.219 0.379t-0.397 0.147h-2.241q-0.188 0-0.295-0.134t-0.080-0.321q0.080-0.5 0.237-1.5t0.237-1.5 0.241-1.496 0.241-1.496q0.045-0.33 0.384-0.33h1.17q1.188 0.018 2.107-0.188 1.563-0.348 2.563-1.286 0.911-0.848 1.384-2.196 0.214-0.625 0.313-1.188 0.009-0.054 0.022-0.067t0.031-0.009 0.054 0.031q0.705 0.527 0.875 1.446zM12.027 3.25q0 0.955-0.411 2.107-0.714 2.080-2.696 2.813-1.009 0.357-2.25 0.375 0 0.009-0.804 0.009l-0.804-0.009q-0.893 0-1.054 0.857-0.018 0.071-0.759 4.732-0.009 0.089-0.107 0.089h-2.634q-0.196 0-0.326-0.147t-0.103-0.344l2.071-13.134q0.045-0.259 0.246-0.429t0.46-0.17h5.339q0.304 0 0.871 0.116t0.996 0.286q0.955 0.366 1.46 1.098t0.504 1.75z"></path>
</svg>
