<?xml version="1.0" encoding="utf-8"?>
<!-- Generated by IcoMoon.io -->
<!DOCTYPE svg PUBLIC "-//W3C//DTD SVG 1.1//EN" "http://www.w3.org/Graphics/SVG/1.1/DTD/svg11.dtd">
<svg version="1.1" xmlns="http://www.w3.org/2000/svg" xmlns:xlink="http://www.w3.org/1999/xlink" width="16" height="16" viewBox="0 0 16 16">
<path fill="#444444" d="M14.697 1.29c-0.822-0.822-1.905-1.29-2.973-1.29-0.9 0-1.729 0.334-2.335 0.939l-2.434 2.452c-0.008 0.007-0.016 0.011-0.024 0.019-0.004 0.004-0.006 0.010-0.011 0.013l0.001 0.001-5.165 5.205c-0.238 0.236-0.41 0.531-0.506 0.852l-1.175 4.254c-0.001 0.011-0.077 0.345-0.077 0.515 0 0.966 0.784 1.75 1.752 1.75 0.192 0 0.565-0.092 0.579-0.094l4.239-1.114c0.322-0.095 0.615-0.27 0.853-0.508l7.631-7.691c1.388-1.389 1.232-3.717-0.356-5.302zM8.007 11.898c-0.041-0.451-0.168-0.893-0.359-1.313l4.728-4.727c0.289 0.913 0.14 1.868-0.493 2.502-0.004 0.004-0.009 0.007-0.012 0.011l0.007 0.007-3.864 3.895c0-0.124 0.006-0.246-0.005-0.373zM7.396 10.128c-0.186-0.306-0.399-0.602-0.661-0.864-0.306-0.306-0.656-0.545-1.022-0.746l4.766-4.766c0.374 0.166 0.732 0.402 1.049 0.719 0.271 0.269 0.479 0.572 0.64 0.885l-4.772 4.772zM5.243 8.281c-0.463-0.187-0.948-0.293-1.434-0.3l3.852-3.881c0.589-0.575 1.448-0.74 2.293-0.531l-4.711 4.712zM2.083 14.937c-0.054 0.012-0.224 0.056-0.339 0.063-0.411-0.005-0.745-0.339-0.745-0.75 0.006-0.084 0.039-0.229 0.051-0.281l0.526-1.907c0.572-0.015 1.187 0.207 1.67 0.691 0.491 0.49 0.722 1.117 0.697 1.695l-1.861 0.488zM4.437 14.319c-0.012-0.671-0.285-1.369-0.836-1.919-0.521-0.521-1.203-0.822-1.883-0.85l0.498-1.803c0.036-0.12 0.107-0.239 0.196-0.342 1.003-0.718 2.546-0.506 3.617 0.566 1.133 1.133 1.308 2.793 0.436 3.784-0.058 0.030-0.117 0.059-0.179 0.078l-1.848 0.486zM14.345 5.886l-0.842 0.849c0-0.113 0.014-0.221 0.003-0.337-0.088-0.968-0.539-1.903-1.271-2.635-0.815-0.815-1.895-1.282-2.964-1.285l0.828-0.835c0.415-0.413 0.993-0.643 1.626-0.643 0.805 0 1.631 0.364 2.267 0.998 0.597 0.595 0.952 1.336 1.003 2.084 0.047 0.699-0.184 1.339-0.649 1.804z"></path>
</svg>
