<?xml version="1.0" encoding="utf-8"?>
<!-- Generated by IcoMoon.io -->
<!DOCTYPE svg PUBLIC "-//W3C//DTD SVG 1.1//EN" "http://www.w3.org/Graphics/SVG/1.1/DTD/svg11.dtd">
<svg version="1.1" xmlns="http://www.w3.org/2000/svg" xmlns:xlink="http://www.w3.org/1999/xlink" width="14" height="16" viewBox="0 0 14 16">
<path fill="#444444" d="M3.607 9.893l1.357 1.357-0.464 0.464h-0.5v-0.857h-0.857v-0.5zM7.304 6.411q0.125 0.116-0.027 0.268l-2.598 2.598q-0.152 0.152-0.268 0.027-0.125-0.116 0.027-0.268l2.598-2.598q0.152-0.152 0.268-0.027zM4.857 12.571l4.857-4.857-2.571-2.571-4.857 4.857v2.571h2.571zM10.286 7.143l0.821-0.821q0.25-0.25 0.25-0.607t-0.25-0.607l-1.357-1.357q-0.25-0.25-0.607-0.25t-0.607 0.25l-0.821 0.821zM13.714 3.714v8.571q0 1.063-0.754 1.817t-1.817 0.754h-8.571q-1.063 0-1.817-0.754t-0.754-1.817v-8.571q0-1.063 0.754-1.817t1.817-0.754h8.571q1.063 0 1.817 0.754t0.754 1.817z"></path>
</svg>
