<?xml version="1.0" encoding="utf-8"?>
<!-- Generated by IcoMoon.io -->
<!DOCTYPE svg PUBLIC "-//W3C//DTD SVG 1.1//EN" "http://www.w3.org/Graphics/SVG/1.1/DTD/svg11.dtd">
<svg version="1.1" xmlns="http://www.w3.org/2000/svg" xmlns:xlink="http://www.w3.org/1999/xlink" width="14" height="16" viewBox="0 0 14 16">
<path fill="#444444" d="M3.241 13.714l0.812-0.813-2.098-2.098-0.813 0.813v0.955h1.143v1.143h0.955zM7.911 5.429q0-0.196-0.196-0.196-0.089 0-0.152 0.063l-4.839 4.839q-0.063 0.063-0.063 0.152 0 0.196 0.196 0.196 0.089 0 0.152-0.063l4.839-4.839q0.063-0.063 0.063-0.152zM7.429 3.714l3.714 3.714-7.429 7.429h-3.714v-3.714zM13.527 4.571q0 0.473-0.33 0.804l-1.482 1.482-3.714-3.714 1.482-1.473q0.321-0.339 0.804-0.339 0.473 0 0.813 0.339l2.098 2.089q0.33 0.348 0.33 0.813z"></path>
</svg>
