<?xml version="1.0" encoding="utf-8"?>
<!-- Generated by IcoMoon.io -->
<!DOCTYPE svg PUBLIC "-//W3C//DTD SVG 1.1//EN" "http://www.w3.org/Graphics/SVG/1.1/DTD/svg11.dtd">
<svg version="1.1" xmlns="http://www.w3.org/2000/svg" xmlns:xlink="http://www.w3.org/1999/xlink" width="14" height="16" viewBox="0 0 14 16">
<path fill="#444444" d="M11.429 11.429q0-0.464-0.339-0.804t-0.804-0.339-0.804 0.339-0.339 0.804 0.339 0.804 0.804 0.339 0.804-0.339 0.339-0.804zM4.571 4.571q0-0.464-0.339-0.804t-0.804-0.339-0.804 0.339-0.339 0.804 0.339 0.804 0.804 0.339 0.804-0.339 0.339-0.804zM13.714 11.429q0 1.42-1.004 2.424t-2.424 1.004-2.424-1.004-1.004-2.424 1.004-2.424 2.424-1.004 2.424 1.004 1.004 2.424zM12.857 1.714q0 0.179-0.116 0.339l-9.429 12.571q-0.17 0.232-0.455 0.232h-1.429q-0.232 0-0.402-0.17t-0.17-0.402q0-0.179 0.116-0.339l9.429-12.571q0.17-0.232 0.455-0.232h1.429q0.232 0 0.402 0.17t0.17 0.402zM6.857 4.571q0 1.42-1.004 2.424t-2.424 1.004-2.424-1.004-1.004-2.424 1.004-2.424 2.424-1.004 2.424 1.004 1.004 2.424z"></path>
</svg>
