<?xml version="1.0" encoding="utf-8"?>
<!-- Generated by IcoMoon.io -->
<!DOCTYPE svg PUBLIC "-//W3C//DTD SVG 1.1//EN" "http://www.w3.org/Graphics/SVG/1.1/DTD/svg11.dtd">
<svg version="1.1" xmlns="http://www.w3.org/2000/svg" xmlns:xlink="http://www.w3.org/1999/xlink" width="13" height="16" viewBox="0 0 13 16">
<path fill="#444444" d="M12.571 11.071q0 0.241-0.089 0.629t-0.188 0.612q-0.188 0.446-1.089 0.946-0.839 0.455-1.661 0.455-0.241 0-0.469-0.031t-0.513-0.112-0.424-0.129-0.496-0.183-0.438-0.161q-0.875-0.313-1.563-0.741-1.143-0.705-2.362-1.924t-1.924-2.362q-0.429-0.688-0.741-1.563-0.027-0.080-0.161-0.438t-0.183-0.496-0.129-0.424-0.112-0.513-0.031-0.469q0-0.821 0.455-1.661 0.5-0.902 0.946-1.089 0.223-0.098 0.612-0.188t0.629-0.089q0.125 0 0.188 0.027 0.161 0.054 0.473 0.679 0.098 0.17 0.268 0.482t0.313 0.567 0.277 0.478q0.027 0.036 0.156 0.223t0.192 0.317 0.063 0.254q0 0.179-0.254 0.446t-0.554 0.491-0.554 0.473-0.254 0.411q0 0.080 0.045 0.201t0.076 0.183 0.125 0.214 0.103 0.17q0.679 1.223 1.554 2.098t2.098 1.554q0.018 0.009 0.17 0.103t0.214 0.125 0.183 0.076 0.201 0.045q0.161 0 0.411-0.254t0.473-0.554 0.491-0.554 0.446-0.254q0.125 0 0.254 0.063t0.317 0.192 0.223 0.156q0.223 0.134 0.478 0.277t0.567 0.313 0.482 0.268q0.625 0.313 0.679 0.473 0.027 0.063 0.027 0.188z"></path>
</svg>
