<?xml version="1.0" encoding="utf-8"?>
<!-- Generated by IcoMoon.io -->
<!DOCTYPE svg PUBLIC "-//W3C//DTD SVG 1.1//EN" "http://www.w3.org/Graphics/SVG/1.1/DTD/svg11.dtd">
<svg version="1.1" xmlns="http://www.w3.org/2000/svg" xmlns:xlink="http://www.w3.org/1999/xlink" width="16" height="16" viewBox="0 0 16 16">
<path fill="#444444" d="M13.5 0h-11c-1.105 0-2 0.895-2 2v12c0 1.104 0.895 2 2 2h11c1.104 0 2-0.896 2-2v-12c0-1.105-0.896-2-2-2zM14.5 14c0 0.551-0.449 1-1 1h-11c-0.551 0-1-0.449-1-1v-12c0-0.551 0.449-1 1-1h11c0.551 0 1 0.449 1 1v12zM13 2h-10c-0.276 0-0.5 0.224-0.5 0.5v9c0 0.277 0.224 0.5 0.5 0.5h10c0.277 0 0.5-0.223 0.5-0.5v-9c0-0.276-0.223-0.5-0.5-0.5zM13 2.5v6.934l-1.625-1.765c-0.095-0.108-0.232-0.17-0.375-0.17s-0.28 0.061-0.375 0.17l-1.302 1.475-3.948-4.475c-0.095-0.108-0.231-0.17-0.375-0.17s-0.28 0.061-0.375 0.17l-1.625 1.874v-4.043h10zM3 7.3l2-2.3 4.323 4.901 1.381 1.599h-7.704v-4.2zM11.37 11.5l-1.714-1.977 1.344-1.523 2 2.189v1.31h-1.63zM10 6.5c0.828 0 1.5-0.671 1.5-1.5s-0.672-1.5-1.5-1.5c-0.829 0-1.5 0.671-1.5 1.5s0.671 1.5 1.5 1.5zM10 4c0.551 0 1 0.449 1 1s-0.449 1-1 1c-0.552 0-1-0.449-1-1s0.448-1 1-1z"></path>
</svg>
