<?xml version="1.0" encoding="utf-8"?>
<!-- Generated by IcoMoon.io -->
<!DOCTYPE svg PUBLIC "-//W3C//DTD SVG 1.1//EN" "http://www.w3.org/Graphics/SVG/1.1/DTD/svg11.dtd">
<svg version="1.1" xmlns="http://www.w3.org/2000/svg" xmlns:xlink="http://www.w3.org/1999/xlink" width="18" height="16" viewBox="0 0 18 16">
<path fill="#444444" d="M10.911 8.295q0.67-0.027 1.281 0.183t1.054 0.522 0.902 0.844 0.75 0.964 0.674 1.076q0.295 0.5 0.701 0.973t0.674 0.719 0.884 0.79q-0.429 0.268-0.969 0.513t-1.237 0.527-1.018 0.424q-0.393-0.33-0.661-1.027t-0.388-1.469-0.295-1.612-0.379-1.504-0.647-1.098-1.094-0.433l-0.089 0.018-0.054 0.036q0.036 0.045 0.116 0.125 0.054 0.045 0.25 0.21t0.228 0.196 0.17 0.161 0.161 0.183 0.103 0.188 0.094 0.246 0.040 0.277 0.036 0.362l0.009 0.295q0.009 0.232-0.022 0.513t-0.067 0.464-0.112 0.522-0.103 0.473q-0.313-0.009-0.902 0.085t-0.875 0.094q-0.348 0-0.643-0.089-0.018-0.143-0.018-0.42 0-0.661 0.027-0.857 0.018-0.116 0.281-0.371t0.509-0.527 0.237-0.46q-0.214-0.018-0.384 0.214-0.321 0.473-0.996 0.888t-1.219 0.415q-0.223 0-0.674-0.563t-0.951-1.246-0.75-0.862q-0.054-0.036-0.241-0.268-4.304 1-4.58 1-0.143 0-0.25-0.098t-0.107-0.241q0-0.134 0.076-0.237t0.201-0.129l4.339-0.946q-0.071-0.125-0.071-0.223t0.049-0.156 0.143-0.103 0.179-0.063 0.205-0.040 0.165-0.040q0.036-0.009 0.138-0.067t0.156-0.058q0.134 0 0.25 0.143t0.179 0.295q1.455-0.33 1.536-0.33 0.152 0 0.263 0.098t0.112 0.25q0 0.134-0.076 0.232t-0.21 0.125l-1.625 0.357-0.009 0.143q-0.009 0.232 0.728 1.049t0.933 0.817q0.42 0 1.063-0.714t0.643-1.152q0-0.321-0.21-0.473t-0.455-0.165-0.455-0.103-0.21-0.304q0-0.143 0.089-0.304l-0.607-0.17q0.384-0.393 0.384-1.045 0-0.232-0.045-0.518 0.732-0.143 1.286-0.143 0.393 0 0.638 0.013t0.433 0.076 0.277 0.121 0.183 0.219 0.138 0.299 0.152 0.424 0.214 0.536l0.446-0.223q-0.027 0.357-0.205 0.536t-0.379 0.188-0.357 0.058-0.147 0.183zM11.446 6.196q-0.045-0.045-0.121-0.138t-0.107-0.129-0.094-0.103-0.089-0.094l-0.071-0.071t-0.076-0.067-0.071-0.045-0.076-0.040q-0.063-0.027-0.129-0.045t-0.183-0.022-0.196-0.004h-0.625q-1.125 0-1.938 0.384 0.143-0.268 0.321-0.415t0.482-0.263 0.585-0.321 0.411-0.326 0.446-0.491 0.388-0.451q0.107 0.080 0.25 0.281t0.286 0.326 0.339 0.116l0.107-0.009v0.679l0.196 0.009q2.205-0.848 3.313-1.696 0.25-0.188 0.446-0.348t0.379-0.335 0.295-0.277 0.263-0.304 0.214-0.277 0.219-0.33 0.205-0.339 0.241-0.424 0.263-0.473l0.063-0.080q-0.018 0.473-0.384 1.241-0.705 1.473-1.83 2.357t-2.732 1.268q-0.125 0.027-0.375 0.067t-0.446 0.085-0.348 0.125q0.027 0.17 0.219 0.411t0.192 0.304q0 0.098-0.232 0.268zM9.473 14.42q0.348-0.232 1.174-0.424t1.308-0.192q0.080 0 0.201 0.138t0.25 0.379 0.232 0.446 0.214 0.455 0.129 0.295q-1.080 0.402-2.179 0.402-0.545 0-1.116-0.098zM7.339 8.643l0.429-0.107 0.973 1.58-0.652 0.429zM11.813 13.259q0.027 0.134 0.027 0.143 0 0.063-0.156 0.129t-0.411 0.116-0.482 0.085-0.478 0.067-0.286 0.040l-0.063-0.384q0.188-0.018 0.54-0.076t0.643-0.089 0.54-0.031h0.125zM7.732 7.652l-0.857 0.179-0.054-0.152q0.089-0.009 0.29-0.063t0.308-0.054q0.17 0 0.313 0.089zM9.473 13.313h0.277l0.089 0.741-0.366 0.107v-0.848zM17.411 0.009v0zM17.411 0.009l-0.009 0.045-0.018 0.018 0.009-0.027zM17.411 0.009l0.009-0.009z"></path>
</svg>
