<?xml version="1.0" encoding="utf-8"?>
<!-- Generated by IcoMoon.io -->
<!DOCTYPE svg PUBLIC "-//W3C//DTD SVG 1.1//EN" "http://www.w3.org/Graphics/SVG/1.1/DTD/svg11.dtd">
<svg version="1.1" xmlns="http://www.w3.org/2000/svg" xmlns:xlink="http://www.w3.org/1999/xlink" width="14" height="16" viewBox="0 0 14 16">
<path fill="#444444" d="M9.339 9.107q0 0.571-0.339 0.973t-0.813 0.402q-0.384 0-0.625-0.134v-2.473q0.25-0.152 0.625-0.152 0.473 0 0.813 0.406t0.339 0.978zM6.277 5.286q0 0.571-0.339 0.978t-0.813 0.406q-0.384 0-0.625-0.134v-2.473q0.25-0.152 0.625-0.152 0.473 0 0.813 0.402t0.339 0.973zM11.295 9.134q0-1.196-0.786-2.045t-1.902-0.848q-0.179 0-0.348 0.027-0.205 0.696-0.696 1.214-0.777 0.848-1.884 0.902v5.679l1.884-0.366v-1.839q0.455 0.17 1.045 0.17 1.116 0 1.902-0.848t0.786-2.045zM8.232 5.321q0-1.196-0.79-2.045t-1.906-0.848q-0.661 0-1.259 0.321h-1.661v7.5l1.884-0.366v-1.839q0.491 0.17 1.036 0.17 1.116 0 1.906-0.848t0.79-2.045zM13.714 3.714v8.571q0 1.063-0.754 1.817t-1.817 0.754h-8.571q-1.063 0-1.817-0.754t-0.754-1.817v-8.571q0-1.063 0.754-1.817t1.817-0.754h8.571q1.063 0 1.817 0.754t0.754 1.817z"></path>
</svg>
