<?xml version="1.0" encoding="utf-8"?>
<!-- Generated by IcoMoon.io -->
<!DOCTYPE svg PUBLIC "-//W3C//DTD SVG 1.1//EN" "http://www.w3.org/Graphics/SVG/1.1/DTD/svg11.dtd">
<svg version="1.1" xmlns="http://www.w3.org/2000/svg" xmlns:xlink="http://www.w3.org/1999/xlink" width="11" height="16" viewBox="0 0 11 16">
<path fill="#444444" d="M0 5.33q0-0.964 0.335-1.817t0.924-1.487 1.357-1.098 1.652-0.696 1.804-0.232q1.411 0 2.625 0.594t1.973 1.728 0.759 2.563q0 0.857-0.17 1.679t-0.536 1.58-0.893 1.335-1.295 0.92-1.688 0.344q-0.607 0-1.205-0.286t-0.857-0.786q-0.089 0.348-0.25 1.004t-0.21 0.848-0.183 0.634-0.232 0.634-0.286 0.558-0.411 0.692-0.554 0.772l-0.125 0.045-0.080-0.089q-0.134-1.402-0.134-1.679 0-0.821 0.192-1.844t0.594-2.567 0.464-1.813q-0.286-0.58-0.286-1.509 0-0.741 0.464-1.393t1.179-0.652q0.545 0 0.848 0.362t0.304 0.915q0 0.589-0.393 1.705t-0.393 1.67q0 0.563 0.402 0.933t0.973 0.371q0.491 0 0.911-0.223t0.701-0.607 0.5-0.848 0.339-0.987 0.179-0.991 0.058-0.888q0-1.545-0.978-2.406t-2.549-0.862q-1.786 0-2.982 1.156t-1.196 2.933q0 0.393 0.112 0.759t0.241 0.58 0.241 0.406 0.112 0.272q0 0.25-0.134 0.652t-0.33 0.402q-0.018 0-0.152-0.027-0.455-0.134-0.808-0.5t-0.545-0.844-0.29-0.964-0.098-0.951z"></path>
</svg>
