<?xml version="1.0" encoding="utf-8"?>
<!-- Generated by IcoMoon.io -->
<!DOCTYPE svg PUBLIC "-//W3C//DTD SVG 1.1//EN" "http://www.w3.org/Graphics/SVG/1.1/DTD/svg11.dtd">
<svg version="1.1" xmlns="http://www.w3.org/2000/svg" xmlns:xlink="http://www.w3.org/1999/xlink" width="14" height="16" viewBox="0 0 14 16">
<path fill="#444444" d="M11.143 1.143q1.063 0 1.817 0.754t0.754 1.817v8.571q0 1.063-0.754 1.817t-1.817 0.754h-6.473q0.759-1.089 0.964-1.875 0.080-0.304 0.473-1.866 0.188 0.348 0.656 0.598t1.004 0.25q1.616 0 2.638-1.317t1.022-3.335q0-0.75-0.313-1.451t-0.862-1.241-1.362-0.866-1.759-0.326q-0.929 0-1.737 0.254t-1.366 0.683-0.96 0.978-0.594 1.143-0.192 1.183q0 0.911 0.353 1.607t1.040 0.982q0.116 0.045 0.21 0t0.129-0.17q0.089-0.393 0.134-0.545 0.054-0.205-0.098-0.375-0.446-0.554-0.446-1.339 0-1.339 0.924-2.29t2.415-0.951q1.33 0 2.076 0.723t0.746 1.875q0 1.5-0.603 2.554t-1.549 1.054q-0.536 0-0.866-0.388t-0.205-0.924q0.071-0.304 0.237-0.826t0.263-0.911 0.098-0.665q0-0.438-0.237-0.728t-0.674-0.29q-0.545 0-0.924 0.504t-0.379 1.246q0 0.643 0.214 1.080l-0.875 3.696q-0.214 0.893-0.063 2.268h-1.634q-1.063 0-1.817-0.754t-0.754-1.817v-8.571q0-1.063 0.754-1.817t1.817-0.754h8.571z"></path>
</svg>
