<?xml version="1.0" encoding="utf-8"?>
<!-- Generated by IcoMoon.io -->
<!DOCTYPE svg PUBLIC "-//W3C//DTD SVG 1.1//EN" "http://www.w3.org/Graphics/SVG/1.1/DTD/svg11.dtd">
<svg version="1.1" xmlns="http://www.w3.org/2000/svg" xmlns:xlink="http://www.w3.org/1999/xlink" width="13" height="16" viewBox="0 0 13 16">
<path fill="#444444" d="M12.286 1.429q0.393 0.464 0.107 1.321t-0.964 1.536l-1.438 1.438 1.429 6.214q0.045 0.17-0.107 0.295l-1.143 0.857q-0.063 0.054-0.17 0.054-0.036 0-0.063-0.009-0.134-0.027-0.188-0.143l-2.491-4.536-2.313 2.313 0.473 1.732q0.045 0.152-0.071 0.277l-0.857 0.857q-0.080 0.080-0.205 0.080h-0.018q-0.134-0.018-0.214-0.116l-1.688-2.25-2.25-1.688q-0.098-0.063-0.116-0.205-0.009-0.116 0.080-0.223l0.857-0.866q0.080-0.080 0.205-0.080 0.054 0 0.071 0.009l1.732 0.473 2.313-2.313-4.536-2.491q-0.125-0.071-0.152-0.214-0.018-0.143 0.080-0.241l1.143-1.143q0.125-0.116 0.268-0.071l5.938 1.42 1.429-1.429q0.679-0.679 1.536-0.964t1.321 0.107z"></path>
</svg>
