<?xml version="1.0" encoding="utf-8"?>
<!-- Generated by IcoMoon.io -->
<!DOCTYPE svg PUBLIC "-//W3C//DTD SVG 1.1//EN" "http://www.w3.org/Graphics/SVG/1.1/DTD/svg11.dtd">
<svg version="1.1" xmlns="http://www.w3.org/2000/svg" xmlns:xlink="http://www.w3.org/1999/xlink" width="14" height="16" viewBox="0 0 14 16">
<path fill="#444444" d="M6.857 1.143q1.866 0 3.442 0.92t2.496 2.496 0.92 3.442-0.92 3.442-2.496 2.496-3.442 0.92-3.442-0.92-2.496-2.496-0.92-3.442 0.92-3.442 2.496-2.496 3.442-0.92zM10.286 8.491q0.286-0.161 0.286-0.491t-0.286-0.491l-4.857-2.857q-0.277-0.17-0.571-0.009-0.286 0.17-0.286 0.5v5.714q0 0.33 0.286 0.5 0.143 0.071 0.286 0.071 0.152 0 0.286-0.080z"></path>
</svg>
