<?xml version="1.0" encoding="utf-8"?>
<!-- Generated by IcoMoon.io -->
<!DOCTYPE svg PUBLIC "-//W3C//DTD SVG 1.1//EN" "http://www.w3.org/Graphics/SVG/1.1/DTD/svg11.dtd">
<svg version="1.1" xmlns="http://www.w3.org/2000/svg" xmlns:xlink="http://www.w3.org/1999/xlink" width="16" height="16" viewBox="0 0 16 16">
<path fill="#444444" d="M15.67 4.045q0.33 0.33 0.33 0.804t-0.33 0.813l-3.58 3.571 1.339 1.339-1.429 1.429q-1.455 1.455-3.478 1.665t-3.674-0.897l-3.232 3.232h-1.616v-1.616l3.232-3.232q-1.107-1.652-0.897-3.674t1.665-3.478l1.429-1.429 1.339 1.339 3.571-3.58q0.339-0.33 0.813-0.33t0.804 0.33 0.33 0.808-0.33 0.808l-3.571 3.58 2.089 2.089 3.58-3.571q0.339-0.33 0.813-0.33t0.804 0.33z"></path>
</svg>
