<?xml version="1.0" encoding="utf-8"?>
<!-- Generated by IcoMoon.io -->
<!DOCTYPE svg PUBLIC "-//W3C//DTD SVG 1.1//EN" "http://www.w3.org/Graphics/SVG/1.1/DTD/svg11.dtd">
<svg version="1.1" xmlns="http://www.w3.org/2000/svg" xmlns:xlink="http://www.w3.org/1999/xlink" width="15" height="16" viewBox="0 0 15 16">
<path fill="#444444" d="M3.429 13.714h8v-2.286h-8v2.286zM3.429 8h8v-3.429h-1.429q-0.357 0-0.607-0.25t-0.25-0.607v-1.429h-5.714v5.714zM13.714 8.571q0-0.232-0.17-0.402t-0.402-0.17-0.402 0.17-0.17 0.402 0.17 0.402 0.402 0.17 0.402-0.17 0.17-0.402zM14.857 8.571v3.714q0 0.116-0.085 0.201t-0.201 0.085h-2v1.429q0 0.357-0.25 0.607t-0.607 0.25h-8.571q-0.357 0-0.607-0.25t-0.25-0.607v-1.429h-2q-0.116 0-0.201-0.085t-0.085-0.201v-3.714q0-0.705 0.504-1.21t1.21-0.504h0.571v-4.857q0-0.357 0.25-0.607t0.607-0.25h6q0.357 0 0.786 0.179t0.679 0.429l1.357 1.357q0.25 0.25 0.429 0.679t0.179 0.786v2.286h0.571q0.705 0 1.21 0.504t0.504 1.21z"></path>
</svg>
