<?xml version="1.0" encoding="utf-8"?>
<!-- Generated by IcoMoon.io -->
<!DOCTYPE svg PUBLIC "-//W3C//DTD SVG 1.1//EN" "http://www.w3.org/Graphics/SVG/1.1/DTD/svg11.dtd">
<svg version="1.1" xmlns="http://www.w3.org/2000/svg" xmlns:xlink="http://www.w3.org/1999/xlink" width="16" height="16" viewBox="0 0 16 16">
<path fill="#444444" d="M2.411 7.196q-0.071-0.17-0.071-0.464 0-0.179 0.098-0.438t0.214-0.402q-0.009-0.196 0.067-0.473t0.201-0.384q0-1.241 0.826-2.576t1.942-1.871q1.241-0.589 2.893-0.589 1.188 0 2.375 0.491 0.438 0.188 0.804 0.429t0.634 0.5 0.491 0.607 0.375 0.661 0.29 0.754 0.228 0.799 0.196 0.875l0.009 0.045q0.491 0.741 0.491 1.339 0 0.125-0.080 0.357t-0.080 0.339q0 0.009 0.013 0.031t0.031 0.045 0.018 0.031q0.688 1.018 1.076 1.915t0.388 1.862q0 0.384-0.174 0.893t-0.496 0.509q-0.080 0-0.174-0.067t-0.17-0.156-0.17-0.232-0.143-0.237-0.121-0.232-0.080-0.156q-0.009-0.009-0.027-0.009l-0.045 0.036q-0.527 1.375-1.179 1.991 0.179 0.179 0.549 0.344t0.616 0.371 0.317 0.58q-0.018 0.036-0.036 0.143t-0.063 0.161q-0.571 0.866-2.696 0.866-0.473 0-0.987-0.080t-0.875-0.179-0.933-0.268q-0.134-0.045-0.205-0.063-0.125-0.036-0.411-0.040t-0.357-0.013q-0.366 0.402-1.138 0.58t-1.504 0.179q-0.313 0-0.616-0.013t-0.83-0.080-0.902-0.183-0.665-0.357-0.29-0.571q0-0.357 0.089-0.531t0.366-0.433q0.098-0.018 0.362-0.116t0.442-0.107q0.036 0 0.125-0.018 0.018-0.018 0.018-0.036l-0.018-0.027q-0.429-0.098-0.964-0.942t-0.652-1.397l-0.045-0.027q-0.036 0-0.107 0.179-0.161 0.366-0.487 0.665t-0.692 0.335h-0.009q-0.036 0-0.054-0.040t-0.045-0.049q-0.205-0.482-0.205-0.893 0-2.455 2.25-4.161z"></path>
</svg>
