<?xml version="1.0" encoding="utf-8"?>
<!-- Generated by IcoMoon.io -->
<!DOCTYPE svg PUBLIC "-//W3C//DTD SVG 1.1//EN" "http://www.w3.org/Graphics/SVG/1.1/DTD/svg11.dtd">
<svg version="1.1" xmlns="http://www.w3.org/2000/svg" xmlns:xlink="http://www.w3.org/1999/xlink" width="13" height="16" viewBox="0 0 13 16">
<path fill="#444444" d="M3.429 10.286v1.143h-1.143v-1.143h1.143zM3.429 3.429v1.143h-1.143v-1.143h1.143zM10.286 3.429v1.143h-1.143v-1.143h1.143zM1.143 12.563h3.429v-3.42h-3.429v3.42zM1.143 5.714h3.429v-3.429h-3.429v3.429zM8 5.714h3.429v-3.429h-3.429v3.429zM5.714 8v5.714h-5.714v-5.714h5.714zM10.286 12.571v1.143h-1.143v-1.143h1.143zM12.571 12.571v1.143h-1.143v-1.143h1.143zM12.571 8v3.429h-3.429v-1.143h-1.143v3.429h-1.143v-5.714h3.429v1.143h1.143v-1.143h1.143zM5.714 1.143v5.714h-5.714v-5.714h5.714zM12.571 1.143v5.714h-5.714v-5.714h5.714z"></path>
</svg>
