<?xml version="1.0" encoding="utf-8"?>
<!-- Generated by IcoMoon.io -->
<!DOCTYPE svg PUBLIC "-//W3C//DTD SVG 1.1//EN" "http://www.w3.org/Graphics/SVG/1.1/DTD/svg11.dtd">
<svg version="1.1" xmlns="http://www.w3.org/2000/svg" xmlns:xlink="http://www.w3.org/1999/xlink" width="14" height="16" viewBox="0 0 14 16">
<path fill="#444444" d="M8 12.286v-1.714q0-0.125-0.080-0.205t-0.205-0.080h-1.714q-0.125 0-0.205 0.080t-0.080 0.205v1.714q0 0.125 0.080 0.205t0.205 0.080h1.714q0.125 0 0.205-0.080t0.080-0.205zM10.286 6.286q0-0.786-0.496-1.455t-1.237-1.036-1.518-0.366q-2.17 0-3.313 1.902-0.134 0.214 0.071 0.375l1.179 0.893q0.063 0.054 0.17 0.054 0.143 0 0.223-0.107 0.473-0.607 0.768-0.821 0.304-0.214 0.768-0.214 0.429 0 0.763 0.232t0.335 0.527q0 0.339-0.179 0.545t-0.607 0.402q-0.563 0.25-1.031 0.772t-0.469 1.121v0.321q0 0.125 0.080 0.205t0.205 0.080h1.714q0.125 0 0.205-0.080t0.080-0.205q0-0.17 0.192-0.442t0.487-0.442q0.286-0.161 0.438-0.254t0.411-0.313 0.397-0.429 0.25-0.54 0.112-0.723zM13.714 8q0 1.866-0.92 3.442t-2.496 2.496-3.442 0.92-3.442-0.92-2.496-2.496-0.92-3.442 0.92-3.442 2.496-2.496 3.442-0.92 3.442 0.92 2.496 2.496 0.92 3.442z"></path>
</svg>
