<?xml version="1.0" encoding="utf-8"?>
<!-- Generated by IcoMoon.io -->
<!DOCTYPE svg PUBLIC "-//W3C//DTD SVG 1.1//EN" "http://www.w3.org/Graphics/SVG/1.1/DTD/svg11.dtd">
<svg version="1.1" xmlns="http://www.w3.org/2000/svg" xmlns:xlink="http://www.w3.org/1999/xlink" width="10" height="16" viewBox="0 0 10 16">
<path fill="#444444" d="M6.286 11.214v2.143q0 0.143-0.107 0.25t-0.25 0.107h-2.143q-0.143 0-0.25-0.107t-0.107-0.25v-2.143q0-0.143 0.107-0.25t0.25-0.107h2.143q0.143 0 0.25 0.107t0.107 0.25zM9.107 5.857q0 0.482-0.138 0.902t-0.313 0.683-0.491 0.531-0.513 0.388-0.545 0.317q-0.366 0.205-0.612 0.58t-0.246 0.598q0 0.152-0.107 0.29t-0.25 0.138h-2.143q-0.134 0-0.228-0.165t-0.094-0.335v-0.402q0-0.741 0.58-1.397t1.277-0.969q0.527-0.241 0.75-0.5t0.223-0.679q0-0.375-0.415-0.661t-0.96-0.286q-0.58 0-0.964 0.259-0.313 0.223-0.955 1.027-0.116 0.143-0.277 0.143-0.107 0-0.223-0.071l-1.464-1.116q-0.116-0.089-0.138-0.223t0.049-0.25q1.429-2.375 4.143-2.375 0.714 0 1.438 0.277t1.304 0.741 0.946 1.138 0.366 1.415z"></path>
</svg>
