<?xml version="1.0" encoding="utf-8"?>
<!-- Generated by IcoMoon.io -->
<!DOCTYPE svg PUBLIC "-//W3C//DTD SVG 1.1//EN" "http://www.w3.org/Graphics/SVG/1.1/DTD/svg11.dtd">
<svg version="1.1" xmlns="http://www.w3.org/2000/svg" xmlns:xlink="http://www.w3.org/1999/xlink" width="15" height="16" viewBox="0 0 15 16">
<path fill="#444444" d="M6.857 8.571v3.429q0 0.714-0.5 1.214t-1.214 0.5h-3.429q-0.714 0-1.214-0.5t-0.5-1.214v-6.286q0-0.929 0.362-1.772t0.978-1.46 1.46-0.978 1.772-0.362h0.571q0.232 0 0.402 0.17t0.17 0.402v1.143q0 0.232-0.17 0.402t-0.402 0.17h-0.571q-0.946 0-1.616 0.67t-0.67 1.616v0.286q0 0.357 0.25 0.607t0.607 0.25h2q0.714 0 1.214 0.5t0.5 1.214zM14.857 8.571v3.429q0 0.714-0.5 1.214t-1.214 0.5h-3.429q-0.714 0-1.214-0.5t-0.5-1.214v-6.286q0-0.929 0.362-1.772t0.978-1.46 1.46-0.978 1.772-0.362h0.571q0.232 0 0.402 0.17t0.17 0.402v1.143q0 0.232-0.17 0.402t-0.402 0.17h-0.571q-0.946 0-1.616 0.67t-0.67 1.616v0.286q0 0.357 0.25 0.607t0.607 0.25h2q0.714 0 1.214 0.5t0.5 1.214z"></path>
</svg>
