<?xml version="1.0" encoding="utf-8"?>
<!-- Generated by IcoMoon.io -->
<!DOCTYPE svg PUBLIC "-//W3C//DTD SVG 1.1//EN" "http://www.w3.org/Graphics/SVG/1.1/DTD/svg11.dtd">
<svg version="1.1" xmlns="http://www.w3.org/2000/svg" xmlns:xlink="http://www.w3.org/1999/xlink" width="15" height="16" viewBox="0 0 15 16">
<path fill="#444444" d="M6.857 2.857v6.286q0 0.929-0.362 1.772t-0.978 1.46-1.46 0.978-1.772 0.362h-0.571q-0.232 0-0.402-0.17t-0.17-0.402v-1.143q0-0.232 0.17-0.402t0.402-0.17h0.571q0.946 0 1.616-0.67t0.67-1.616v-0.286q0-0.357-0.25-0.607t-0.607-0.25h-2q-0.714 0-1.214-0.5t-0.5-1.214v-3.429q0-0.714 0.5-1.214t1.214-0.5h3.429q0.714 0 1.214 0.5t0.5 1.214zM14.857 2.857v6.286q0 0.929-0.362 1.772t-0.978 1.46-1.46 0.978-1.772 0.362h-0.571q-0.232 0-0.402-0.17t-0.17-0.402v-1.143q0-0.232 0.17-0.402t0.402-0.17h0.571q0.946 0 1.616-0.67t0.67-1.616v-0.286q0-0.357-0.25-0.607t-0.607-0.25h-2q-0.714 0-1.214-0.5t-0.5-1.214v-3.429q0-0.714 0.5-1.214t1.214-0.5h3.429q0.714 0 1.214 0.5t0.5 1.214z"></path>
</svg>
