<?xml version="1.0" encoding="utf-8"?>
<!-- Generated by IcoMoon.io -->
<!DOCTYPE svg PUBLIC "-//W3C//DTD SVG 1.1//EN" "http://www.w3.org/Graphics/SVG/1.1/DTD/svg11.dtd">
<svg version="1.1" xmlns="http://www.w3.org/2000/svg" xmlns:xlink="http://www.w3.org/1999/xlink" width="16" height="16" viewBox="0 0 16 16">
<path fill="#444444" d="M0.17 7.804q0.071-1.938 1.036-3.625t2.723-2.839h0.045q0 0.009-0.009 0.027-0.071 0.071-0.25 0.299t-0.464 0.683-0.536 0.987-0.397 1.21-0.125 1.344 0.348 1.406 0.969 1.375q0.446 0.446 0.911 0.621t0.808 0.103 0.621-0.21 0.42-0.29l0.143-0.143q0.348-0.455 0.473-1.040t0.058-1.094-0.188-0.955-0.237-0.714l-0.125-0.259q-0.089-0.223-0.272-0.442t-0.384-0.366-0.388-0.263-0.313-0.17l-0.116-0.054 0.929-1.027q0.348 0.152 0.696 0.464t0.527 0.545l0.17 0.241q0.009-0.429-0.165-0.924t-0.362-0.781l-0.179-0.277 1.438-1.634 1.429 1.616q-0.295 0.411-0.469 0.915t-0.201 0.808l-0.036 0.295q0.196-0.33 0.549-0.647t0.603-0.469l0.25-0.152 0.92 1.027q-0.393 0.125-0.759 0.446t-0.536 0.58l-0.17 0.259q-0.277 0.5-0.429 1.192t-0.063 1.518 0.509 1.397q0.295 0.402 0.692 0.54t0.759 0.049 0.679-0.237 0.513-0.299l0.188-0.143q0.536-0.473 0.862-1.027t0.433-1.085 0.089-1.085-0.161-1.054-0.33-0.96-0.406-0.83-0.402-0.643-0.308-0.424l-0.116-0.152q-0.125-0.116-0.063-0.116l0.089 0.027q0.357 0.259 0.558 0.411t0.554 0.446 0.571 0.518 0.522 0.58 0.496 0.688 0.406 0.786 0.339 0.92 0.21 1.045 0.094 1.214q0.027 2.313-0.964 4.152t-2.786 2.866-4.071 1.027q-1.652 0-3.134-0.661t-2.531-1.768-1.643-2.616-0.54-3.152z"></path>
</svg>
