<?xml version="1.0" encoding="utf-8"?>
<!-- Generated by IcoMoon.io -->
<!DOCTYPE svg PUBLIC "-//W3C//DTD SVG 1.1//EN" "http://www.w3.org/Graphics/SVG/1.1/DTD/svg11.dtd">
<svg version="1.1" xmlns="http://www.w3.org/2000/svg" xmlns:xlink="http://www.w3.org/1999/xlink" width="16" height="16" viewBox="0 0 16 16">
<path fill="#444444" d="M5.946 4.295q-0.536 0.821-1.223 2.438-0.196-0.402-0.33-0.647t-0.362-0.567-0.455-0.504-0.563-0.313-0.728-0.129h-2q-0.125 0-0.205-0.080t-0.080-0.205v-1.714q0-0.125 0.080-0.205t0.205-0.080h2q2.232 0 3.661 2.009zM16 11.429q0 0.125-0.080 0.205l-2.857 2.857q-0.080 0.080-0.205 0.080-0.116 0-0.201-0.085t-0.085-0.201v-1.714q-0.286 0-0.759 0.004t-0.723 0.009-0.652-0.009-0.634-0.045-0.571-0.094-0.563-0.165-0.518-0.254-0.527-0.357-0.491-0.478-0.5-0.621q0.527-0.83 1.214-2.438 0.196 0.402 0.33 0.647t0.362 0.567 0.455 0.504 0.563 0.313 0.728 0.129h2.286v-1.714q0-0.125 0.080-0.205t0.205-0.080q0.107 0 0.214 0.089l2.848 2.848q0.080 0.080 0.080 0.205zM16 3.429q0 0.125-0.080 0.205l-2.857 2.857q-0.080 0.080-0.205 0.080-0.116 0-0.201-0.085t-0.085-0.201v-1.714h-2.286q-0.429 0-0.777 0.134t-0.616 0.402-0.455 0.549-0.402 0.692q-0.286 0.554-0.696 1.527-0.259 0.589-0.442 0.991t-0.482 0.938-0.571 0.893-0.661 0.741-0.804 0.612-0.951 0.375-1.143 0.147h-2q-0.125 0-0.205-0.080t-0.080-0.205v-1.714q0-0.125 0.080-0.205t0.205-0.080h2q0.429 0 0.777-0.134t0.616-0.402 0.455-0.549 0.402-0.692q0.286-0.554 0.696-1.527 0.259-0.589 0.442-0.991t0.482-0.938 0.571-0.893 0.661-0.741 0.804-0.612 0.951-0.375 1.143-0.147h2.286v-1.714q0-0.125 0.080-0.205t0.205-0.080q0.107 0 0.214 0.089l2.848 2.848q0.080 0.080 0.080 0.205z"></path>
</svg>
