<?xml version="1.0" encoding="utf-8"?>
<!-- Generated by IcoMoon.io -->
<!DOCTYPE svg PUBLIC "-//W3C//DTD SVG 1.1//EN" "http://www.w3.org/Graphics/SVG/1.1/DTD/svg11.dtd">
<svg version="1.1" xmlns="http://www.w3.org/2000/svg" xmlns:xlink="http://www.w3.org/1999/xlink" width="16" height="16" viewBox="0 0 16 16">
<path fill="#444444" d="M7.464 10.438l-0.134 3.286-0.018 0.196-3.75-0.259q-0.321-0.027-0.598-0.281t-0.42-0.585q-0.098-0.241-0.129-0.491t0.036-0.58 0.107-0.491 0.192-0.571 0.17-0.473q0.696 0.107 4.545 0.25zM4.009 5.205l1.607 3.384-1.313-0.821q-0.563 0.643-0.996 1.29t-0.647 1.116-0.353 0.844-0.165 0.563l-0.036 0.188-1.696-3.188q-0.152-0.232-0.161-0.5t0.054-0.42l0.071-0.161q0.313-0.563 1.018-1.679l-1.25-0.768zM15 9.821l-1.679 3.205q-0.107 0.259-0.326 0.415t-0.388 0.183l-0.161 0.036q-0.634 0.063-1.955 0.107l0.071 1.464-2.054-3.277 1.884-3.232 0.063 1.545q1.518 0.143 2.527 0.045t1.518-0.295zM7.991 1.571q-0.42 0.563-2.366 3.884l-2.83-1.67-0.17-0.107 2.009-3.179q0.179-0.277 0.536-0.402t0.714-0.089q0.214 0.018 0.433 0.107t0.375 0.188 0.371 0.295 0.321 0.308 0.321 0.353 0.286 0.313zM13.839 4.313l1.893 3.241q0.161 0.33 0.112 0.679t-0.246 0.661q-0.116 0.179-0.295 0.33t-0.339 0.25-0.433 0.196-0.42 0.143-0.46 0.125-0.411 0.107q-0.304-0.643-2.366-3.893l2.795-1.741zM12.563 2.295l1.268-0.741-1.964 3.33-3.741-0.179 1.348-0.768q-0.304-0.795-0.67-1.482t-0.674-1.103-0.576-0.714-0.42-0.415l-0.152-0.116 3.616 0.009q0.277-0.027 0.518 0.094t0.348 0.254l0.098 0.134q0.348 0.545 1 1.696z"></path>
</svg>
