<?xml version="1.0" encoding="utf-8"?>
<!-- Generated by IcoMoon.io -->
<!DOCTYPE svg PUBLIC "-//W3C//DTD SVG 1.1//EN" "http://www.w3.org/Graphics/SVG/1.1/DTD/svg11.dtd">
<svg version="1.1" xmlns="http://www.w3.org/2000/svg" xmlns:xlink="http://www.w3.org/1999/xlink" width="16" height="16" viewBox="0 0 16 16">
<path fill="#444444" d="M16 7.554q0 0.518-0.263 0.942t-0.71 0.647q0.107 0.411 0.107 0.857 0 1.384-0.951 2.563t-2.594 1.862-3.571 0.683-3.567-0.683-2.589-1.862-0.951-2.563q0-0.42 0.098-0.839-0.455-0.223-0.732-0.656t-0.277-0.951q0-0.732 0.518-1.254t1.259-0.522q0.759 0 1.295 0.563 1.946-1.357 4.598-1.446l1.036-4.652q0.027-0.116 0.134-0.188t0.232-0.045l3.295 0.723q0.161-0.33 0.482-0.531t0.705-0.201q0.554 0 0.946 0.388t0.393 0.942-0.393 0.946-0.946 0.393-0.942-0.388-0.388-0.942l-2.982-0.661-0.929 4.214q2.679 0.080 4.634 1.429 0.518-0.545 1.277-0.545 0.741 0 1.259 0.522t0.518 1.254zM3.732 9.33q0 0.554 0.388 0.946t0.942 0.393 0.946-0.393 0.393-0.946-0.393-0.942-0.946-0.388q-0.545 0-0.938 0.393t-0.393 0.938zM10.964 12.5q0.098-0.098 0.098-0.232t-0.098-0.232q-0.089-0.089-0.223-0.089t-0.232 0.089q-0.366 0.375-1.080 0.554t-1.429 0.179-1.429-0.179-1.080-0.554q-0.098-0.089-0.232-0.089t-0.223 0.089q-0.098 0.089-0.098 0.228t0.098 0.237q0.384 0.384 1.058 0.607t1.094 0.263 0.813 0.040 0.813-0.040 1.094-0.263 1.058-0.607zM10.938 10.67q0.554 0 0.942-0.393t0.388-0.946q0-0.545-0.393-0.938t-0.938-0.393q-0.554 0-0.946 0.388t-0.393 0.942 0.393 0.946 0.946 0.393z"></path>
</svg>
