<?xml version="1.0" encoding="utf-8"?>
<!-- Generated by IcoMoon.io -->
<!DOCTYPE svg PUBLIC "-//W3C//DTD SVG 1.1//EN" "http://www.w3.org/Graphics/SVG/1.1/DTD/svg11.dtd">
<svg version="1.1" xmlns="http://www.w3.org/2000/svg" xmlns:xlink="http://www.w3.org/1999/xlink" width="14" height="16" viewBox="0 0 14 16">
<path fill="#444444" d="M8.384 10.080q0.116 0.116 0 0.232-0.473 0.473-1.527 0.473t-1.527-0.473q-0.116-0.116 0-0.232 0.045-0.054 0.116-0.054t0.116 0.054q0.375 0.375 1.295 0.375t1.295-0.375q0.045-0.054 0.116-0.054t0.116 0.054zM6.036 8.688q0 0.277-0.205 0.482t-0.482 0.205-0.482-0.205-0.205-0.482q0-0.286 0.201-0.487t0.487-0.201 0.487 0.201 0.201 0.487zM9.054 8.688q0 0.277-0.205 0.482t-0.482 0.205-0.482-0.205-0.205-0.482q0-0.286 0.201-0.487t0.487-0.201 0.487 0.201 0.201 0.487zM10.973 7.768q0-0.375-0.268-0.643t-0.652-0.268q-0.375 0-0.652 0.277-1.009-0.696-2.384-0.732l0.482-2.17 1.527 0.348q0.009 0.286 0.21 0.482t0.478 0.196q0.286 0 0.487-0.201t0.201-0.487-0.201-0.487-0.487-0.201q-0.429 0-0.616 0.384l-1.688-0.375q-0.152-0.045-0.188 0.116l-0.536 2.393q-1.375 0.054-2.366 0.741-0.268-0.286-0.661-0.286-0.384 0-0.652 0.268t-0.268 0.643q0 0.268 0.143 0.491t0.375 0.339q-0.045 0.223-0.045 0.429 0 1.089 1.071 1.862t2.58 0.772q1.518 0 2.589-0.772t1.071-1.862q0-0.223-0.054-0.438 0.223-0.116 0.362-0.335t0.138-0.487zM13.714 3.714v8.571q0 1.063-0.754 1.817t-1.817 0.754h-8.571q-1.063 0-1.817-0.754t-0.754-1.817v-8.571q0-1.063 0.754-1.817t1.817-0.754h8.571q1.063 0 1.817 0.754t0.754 1.817z"></path>
</svg>
