<?xml version="1.0" encoding="utf-8"?>
<!-- Generated by IcoMoon.io -->
<!DOCTYPE svg PUBLIC "-//W3C//DTD SVG 1.1//EN" "http://www.w3.org/Graphics/SVG/1.1/DTD/svg11.dtd">
<svg version="1.1" xmlns="http://www.w3.org/2000/svg" xmlns:xlink="http://www.w3.org/1999/xlink" width="16" height="16" viewBox="0 0 16 16">
<path fill="#444444" d="M9.777 10.42q0.143 0.143 0 0.277-0.554 0.554-1.777 0.554t-1.777-0.554q-0.143-0.134 0-0.277 0.054-0.054 0.134-0.054t0.134 0.054q0.429 0.438 1.509 0.438 1.071 0 1.509-0.438 0.054-0.054 0.134-0.054t0.134 0.054zM7.036 8.804q0 0.33-0.232 0.563t-0.563 0.232-0.567-0.232-0.237-0.563q0-0.339 0.237-0.571t0.567-0.232 0.563 0.237 0.232 0.567zM10.563 8.804q0 0.33-0.237 0.563t-0.567 0.232-0.563-0.232-0.232-0.563 0.232-0.567 0.563-0.237 0.567 0.232 0.237 0.571zM12.804 7.732q0-0.438-0.313-0.75t-0.759-0.313-0.768 0.321q-1.161-0.804-2.777-0.857l0.563-2.527 1.786 0.402q0 0.33 0.232 0.563t0.563 0.232 0.567-0.237 0.237-0.567-0.237-0.567-0.567-0.237q-0.482 0-0.714 0.446l-1.973-0.438q-0.17-0.045-0.223 0.143l-0.616 2.786q-1.607 0.063-2.759 0.866-0.313-0.33-0.777-0.33-0.446 0-0.759 0.313t-0.313 0.75q0 0.313 0.165 0.571t0.442 0.393q-0.054 0.241-0.054 0.5 0 1.268 1.25 2.17t3.009 0.902q1.768 0 3.018-0.902t1.25-2.17q0-0.286-0.063-0.509 0.268-0.134 0.429-0.388t0.161-0.567zM16 8q0 1.625-0.634 3.107t-1.705 2.554-2.554 1.705-3.107 0.634-3.107-0.634-2.554-1.705-1.705-2.554-0.634-3.107 0.634-3.107 1.705-2.554 2.554-1.705 3.107-0.634 3.107 0.634 2.554 1.705 1.705 2.554 0.634 3.107z"></path>
</svg>
