<?xml version="1.0" encoding="utf-8"?>
<!-- Generated by IcoMoon.io -->
<!DOCTYPE svg PUBLIC "-//W3C//DTD SVG 1.1//EN" "http://www.w3.org/Graphics/SVG/1.1/DTD/svg11.dtd">
<svg version="1.1" xmlns="http://www.w3.org/2000/svg" xmlns:xlink="http://www.w3.org/1999/xlink" width="16" height="16" viewBox="0 0 16 16">
<path fill="#444444" d="M9.304 6.277q0-0.786-0.536-1.080-0.295-0.161-1.045-0.161h-1.098v2.509h1.446q0.589 0 0.911-0.33t0.321-0.938zM9.768 8.821l1.83 3.33q0.071 0.152-0.009 0.277-0.071 0.143-0.241 0.143h-1.357q-0.179 0-0.25-0.152l-1.732-3.259h-1.384v3.125q0 0.125-0.080 0.205t-0.205 0.080h-1.196q-0.125 0-0.205-0.080t-0.080-0.205v-8.571q0-0.125 0.080-0.205t0.205-0.080h2.625q1.143 0 1.696 0.214 0.759 0.277 1.196 0.973t0.438 1.607q0 0.821-0.379 1.478t-1.031 0.978q0.054 0.089 0.080 0.143zM8 1.429q-1.339 0-2.554 0.522t-2.094 1.402-1.402 2.094-0.522 2.554 0.522 2.554 1.402 2.094 2.094 1.402 2.554 0.522 2.554-0.522 2.094-1.402 1.402-2.094 0.522-2.554-0.522-2.554-1.402-2.094-2.094-1.402-2.554-0.522zM16 8q0 1.625-0.634 3.107t-1.705 2.554-2.554 1.705-3.107 0.634-3.107-0.634-2.554-1.705-1.705-2.554-0.634-3.107 0.634-3.107 1.705-2.554 2.554-1.705 3.107-0.634 3.107 0.634 2.554 1.705 1.705 2.554 0.634 3.107z"></path>
</svg>
