<?xml version="1.0" encoding="utf-8"?>
<!-- Generated by IcoMoon.io -->
<!DOCTYPE svg PUBLIC "-//W3C//DTD SVG 1.1//EN" "http://www.w3.org/Graphics/SVG/1.1/DTD/svg11.dtd">
<svg version="1.1" xmlns="http://www.w3.org/2000/svg" xmlns:xlink="http://www.w3.org/1999/xlink" width="14" height="16" viewBox="0 0 14 16">
<path fill="#444444" d="M10.116 14.018q-1.527 0.839-3.286 0.839-1.75 0-3.277-0.839 1.232-0.777 2.103-1.884t1.174-2.393q0.313 1.286 1.183 2.393t2.103 1.884zM5.696 1.268v4.33q0 2.25-1.129 4.103t-2.951 2.737q-1.616-1.92-1.616-4.42 0-1.67 0.746-3.121t2.049-2.406 2.902-1.223zM13.714 8.018q0 2.5-1.616 4.42-1.821-0.884-2.951-2.737t-1.129-4.103v-4.33q1.598 0.268 2.902 1.223t2.049 2.406 0.746 3.121z"></path>
</svg>
