<?xml version="1.0" encoding="utf-8"?>
<!-- Generated by IcoMoon.io -->
<!DOCTYPE svg PUBLIC "-//W3C//DTD SVG 1.1//EN" "http://www.w3.org/Graphics/SVG/1.1/DTD/svg11.dtd">
<svg version="1.1" xmlns="http://www.w3.org/2000/svg" xmlns:xlink="http://www.w3.org/1999/xlink" width="14" height="16" viewBox="0 0 14 16">
<path fill="#444444" d="M13.714 2.286v4q0 0.232-0.17 0.402t-0.402 0.17h-4q-0.375 0-0.527-0.357-0.152-0.348 0.125-0.616l1.232-1.232q-1.321-1.223-3.116-1.223-0.929 0-1.772 0.362t-1.46 0.978-0.978 1.46-0.362 1.772 0.362 1.772 0.978 1.46 1.46 0.978 1.772 0.362q1.063 0 2.009-0.464t1.598-1.313q0.063-0.089 0.205-0.107 0.125 0 0.223 0.080l1.223 1.232q0.080 0.071 0.085 0.183t-0.067 0.201q-0.973 1.179-2.357 1.826t-2.92 0.647q-1.393 0-2.661-0.545t-2.188-1.464-1.464-2.188-0.545-2.661 0.545-2.661 1.464-2.188 2.188-1.464 2.661-0.545q1.313 0 2.54 0.496t2.183 1.397l1.161-1.152q0.259-0.277 0.625-0.125 0.348 0.152 0.348 0.527z"></path>
</svg>
