<?xml version="1.0" encoding="utf-8"?>
<!-- Generated by IcoMoon.io -->
<!DOCTYPE svg PUBLIC "-//W3C//DTD SVG 1.1//EN" "http://www.w3.org/Graphics/SVG/1.1/DTD/svg11.dtd">
<svg version="1.1" xmlns="http://www.w3.org/2000/svg" xmlns:xlink="http://www.w3.org/1999/xlink" width="17" height="16" viewBox="0 0 17 16">
<path fill="#444444" d="M11.429 13.429q0 0.116-0.085 0.201t-0.201 0.085h-8.571q-0.071 0-0.121-0.018t-0.080-0.063-0.049-0.071-0.027-0.103-0.009-0.103v-5.357h-1.714q-0.232 0-0.402-0.17t-0.17-0.402q0-0.214 0.134-0.366l2.857-3.429q0.17-0.196 0.438-0.196t0.438 0.196l2.857 3.429q0.134 0.152 0.134 0.366 0 0.232-0.17 0.402t-0.402 0.17h-1.714v3.429h5.143q0.143 0 0.223 0.098l1.429 1.714q0.063 0.098 0.063 0.188zM17.143 9.714q0 0.214-0.134 0.366l-2.857 3.429q-0.179 0.205-0.438 0.205t-0.438-0.205l-2.857-3.429q-0.134-0.152-0.134-0.366 0-0.232 0.17-0.402t0.402-0.17h1.714v-3.429h-5.143q-0.143 0-0.223-0.107l-1.429-1.714q-0.063-0.080-0.063-0.179 0-0.116 0.085-0.201t0.201-0.085h8.571q0.071 0 0.121 0.018t0.080 0.063 0.049 0.071 0.027 0.103 0.009 0.103v5.357h1.714q0.232 0 0.402 0.17t0.17 0.402z"></path>
</svg>
