<?xml version="1.0" encoding="utf-8"?>
<!-- Generated by IcoMoon.io -->
<!DOCTYPE svg PUBLIC "-//W3C//DTD SVG 1.1//EN" "http://www.w3.org/Graphics/SVG/1.1/DTD/svg11.dtd">
<svg version="1.1" xmlns="http://www.w3.org/2000/svg" xmlns:xlink="http://www.w3.org/1999/xlink" width="17" height="16" viewBox="0 0 17 16">
<path fill="#444444" d="M9.92 8.893v-0.036l-0.214-2.857q-0.009-0.116-0.098-0.201t-0.205-0.085h-1.661q-0.116 0-0.205 0.085t-0.098 0.201l-0.214 2.857v0.036q-0.009 0.107 0.071 0.179t0.188 0.071h2.179q0.107 0 0.188-0.071t0.071-0.179zM16.696 13.063q0 0.652-0.411 0.652h-6.286q0.116 0 0.196-0.085t0.071-0.201l-0.179-2.286q-0.009-0.116-0.098-0.201t-0.205-0.085h-2.429q-0.116 0-0.205 0.085t-0.098 0.201l-0.179 2.286q-0.009 0.116 0.071 0.201t0.196 0.085h-6.286q-0.411 0-0.411-0.652 0-0.482 0.232-1.036l3.723-9.321q0.071-0.17 0.232-0.295t0.339-0.125h3.027q-0.116 0-0.205 0.085t-0.098 0.201l-0.134 1.714q-0.009 0.125 0.071 0.205t0.196 0.080h1.482q0.116 0 0.196-0.080t0.071-0.205l-0.134-1.714q-0.009-0.116-0.098-0.201t-0.205-0.085h3.027q0.179 0 0.339 0.125t0.232 0.295l3.723 9.321q0.232 0.554 0.232 1.036z"></path>
</svg>
