<?xml version="1.0" encoding="utf-8"?>
<!-- Generated by IcoMoon.io -->
<!DOCTYPE svg PUBLIC "-//W3C//DTD SVG 1.1//EN" "http://www.w3.org/Graphics/SVG/1.1/DTD/svg11.dtd">
<svg version="1.1" xmlns="http://www.w3.org/2000/svg" xmlns:xlink="http://www.w3.org/1999/xlink" width="15" height="16" viewBox="0 0 15 16">
<path fill="#444444" d="M12.857 4q0-0.357-0.25-0.607t-0.607-0.25-0.607 0.25-0.25 0.607 0.25 0.607 0.607 0.25 0.607-0.25 0.25-0.607zM14.857 1.429q0 2.223-0.674 3.844t-2.263 3.219q-0.723 0.714-1.741 1.571l-0.179 3.384q-0.018 0.143-0.143 0.232l-3.429 2q-0.063 0.036-0.143 0.036-0.107 0-0.205-0.080l-0.571-0.571q-0.116-0.125-0.071-0.286l0.759-2.464-2.509-2.509-2.464 0.759q-0.027 0.009-0.080 0.009-0.125 0-0.205-0.080l-0.571-0.571q-0.152-0.17-0.045-0.348l2-3.429q0.089-0.125 0.232-0.143l3.384-0.179q0.857-1.018 1.571-1.741 1.679-1.67 3.196-2.304t3.848-0.634q0.125 0 0.214 0.085t0.089 0.201z"></path>
</svg>
