<?xml version="1.0" encoding="utf-8"?>
<!-- Generated by IcoMoon.io -->
<!DOCTYPE svg PUBLIC "-//W3C//DTD SVG 1.1//EN" "http://www.w3.org/Graphics/SVG/1.1/DTD/svg11.dtd">
<svg version="1.1" xmlns="http://www.w3.org/2000/svg" xmlns:xlink="http://www.w3.org/1999/xlink" width="11" height="16" viewBox="0 0 11 16">
<path fill="#444444" d="M9.313 5.045q0-0.893-0.58-1.446t-1.527-0.554h-2.857v4h2.857q0.946 0 1.527-0.554t0.58-1.446zM11.429 5.045q0 1.723-1.129 2.813t-2.915 1.089h-3.036v1.054h4.509q0.125 0 0.205 0.080t0.080 0.205v1.143q0 0.125-0.080 0.205t-0.205 0.080h-4.509v1.714q0 0.125-0.085 0.205t-0.201 0.080h-1.491q-0.125 0-0.205-0.080t-0.080-0.205v-1.714h-2q-0.125 0-0.205-0.080t-0.080-0.205v-1.143q0-0.125 0.080-0.205t0.205-0.080h2v-1.054h-2q-0.125 0-0.205-0.080t-0.080-0.205v-1.33q0-0.116 0.080-0.201t0.205-0.085h2v-5.616q0-0.125 0.080-0.205t0.205-0.080h4.813q1.786 0 2.915 1.089t1.129 2.813z"></path>
</svg>
