<?xml version="1.0" encoding="utf-8"?>
<!-- Generated by IcoMoon.io -->
<!DOCTYPE svg PUBLIC "-//W3C//DTD SVG 1.1//EN" "http://www.w3.org/Graphics/SVG/1.1/DTD/svg11.dtd">
<svg version="1.1" xmlns="http://www.w3.org/2000/svg" xmlns:xlink="http://www.w3.org/1999/xlink" width="14" height="16" viewBox="0 0 14 16">
<path fill="#444444" d="M4.571 11.429q0-0.473-0.335-0.808t-0.808-0.335-0.808 0.335-0.335 0.808 0.335 0.808 0.808 0.335 0.808-0.335 0.335-0.808zM7.705 12.268q-0.116-2.071-1.58-3.536t-3.536-1.58q-0.125-0.009-0.214 0.080t-0.089 0.205v1.143q0 0.116 0.076 0.196t0.192 0.089q1.375 0.098 2.357 1.080t1.080 2.357q0.009 0.116 0.089 0.192t0.196 0.076h1.143q0.116 0 0.205-0.089t0.080-0.214zM11.134 12.277q-0.045-1.375-0.5-2.656t-1.246-2.321-1.83-1.83-2.321-1.246-2.656-0.5q-0.125-0.009-0.205 0.080-0.089 0.089-0.089 0.205v1.143q0 0.116 0.080 0.196t0.196 0.089q1.821 0.063 3.375 0.996t2.487 2.487 0.996 3.375q0.009 0.116 0.089 0.196t0.196 0.080h1.143q0.116 0 0.205-0.089 0.098-0.080 0.080-0.205zM13.714 3.714v8.571q0 1.063-0.754 1.817t-1.817 0.754h-8.571q-1.063 0-1.817-0.754t-0.754-1.817v-8.571q0-1.063 0.754-1.817t1.817-0.754h8.571q1.063 0 1.817 0.754t0.754 1.817z"></path>
</svg>
