<?xml version="1.0" encoding="utf-8"?>
<!-- Generated by IcoMoon.io -->
<!DOCTYPE svg PUBLIC "-//W3C//DTD SVG 1.1//EN" "http://www.w3.org/Graphics/SVG/1.1/DTD/svg11.dtd">
<svg version="1.1" xmlns="http://www.w3.org/2000/svg" xmlns:xlink="http://www.w3.org/1999/xlink" width="16" height="16" viewBox="0 0 16 16">
<path fill="#444444" d="M8.473 7.973q0 0.232-0.147 0.402t-0.371 0.17q-0.232 0-0.402-0.147t-0.17-0.371q0-0.232 0.152-0.402t0.375-0.17 0.393 0.147 0.17 0.371zM8.607 8.491l3.125-5.188q-0.080 0.071-0.603 0.558t-1.121 1.040-1.219 1.134-1.045 0.987-0.451 0.46l-3.116 5.179q0.063-0.063 0.598-0.554t1.125-1.040 1.214-1.134 1.045-0.991 0.446-0.451zM14.384 8q0 1.795-0.929 3.313-0.027-0.018-0.152-0.098t-0.237-0.147-0.147-0.067q-0.116 0-0.116 0.116 0 0.089 0.527 0.393-0.661 1-1.647 1.701t-2.156 0.987l-0.143-0.598q-0.009-0.089-0.134-0.089-0.045 0-0.071 0.049t-0.018 0.085l0.143 0.607q-0.643 0.134-1.304 0.134-1.777 0-3.321-0.938 0.009-0.018 0.116-0.183t0.192-0.299 0.085-0.17q0-0.116-0.116-0.116-0.054 0-0.152 0.129t-0.201 0.308-0.121 0.205q-1.009-0.67-1.714-1.674t-0.982-2.183l0.616-0.134q0.089-0.027 0.089-0.134 0-0.045-0.049-0.071t-0.094-0.018l-0.607 0.134q-0.125-0.643-0.125-1.241 0-1.839 0.973-3.384 0.018 0.009 0.165 0.107t0.268 0.17 0.156 0.071q0.116 0 0.116-0.107 0-0.054-0.112-0.138t-0.29-0.192l-0.179-0.107q0.688-1 1.688-1.688t2.179-0.955l0.134 0.598q0.018 0.089 0.134 0.089 0.045 0 0.071-0.049t0.018-0.094l-0.134-0.589q0.634-0.116 1.196-0.116 1.821 0 3.384 0.973-0.348 0.5-0.348 0.58 0 0.116 0.107 0.116 0.098 0 0.429-0.571 0.991 0.67 1.674 1.661t0.96 2.152l-0.5 0.107q-0.089 0.018-0.089 0.143 0 0.045 0.049 0.071t0.085 0.018l0.509-0.116q0.125 0.643 0.125 1.25zM15.143 8q0-1.455-0.567-2.777t-1.522-2.277-2.277-1.522-2.777-0.567-2.777 0.567-2.277 1.522-1.522 2.277-0.567 2.777 0.567 2.777 1.522 2.277 2.277 1.522 2.777 0.567 2.777-0.567 2.277-1.522 1.522-2.277 0.567-2.777zM16 8q0 1.625-0.634 3.107t-1.705 2.554-2.554 1.705-3.107 0.634-3.107-0.634-2.554-1.705-1.705-2.554-0.634-3.107 0.634-3.107 1.705-2.554 2.554-1.705 3.107-0.634 3.107 0.634 2.554 1.705 1.705 2.554 0.634 3.107z"></path>
</svg>
