<?xml version="1.0" encoding="utf-8"?>
<!-- Generated by IcoMoon.io -->
<!DOCTYPE svg PUBLIC "-//W3C//DTD SVG 1.1//EN" "http://www.w3.org/Graphics/SVG/1.1/DTD/svg11.dtd">
<svg version="1.1" xmlns="http://www.w3.org/2000/svg" xmlns:xlink="http://www.w3.org/1999/xlink" width="14" height="16" viewBox="0 0 14 16">
<path fill="#444444" d="M11.311 11.321c-0.686 0.089-1.257 0.393-1.718 0.914s-0.693 1.132-0.693 1.836c0 0.439 0.096 0.85 0.293 1.232-0.868 0.464-1.996 0.696-3.382 0.696-0.65 0-1.246-0.061-1.796-0.186-0.546-0.125-1.004-0.286-1.371-0.486-0.364-0.2-0.696-0.429-0.986-0.682-0.293-0.257-0.518-0.507-0.679-0.761-0.161-0.25-0.293-0.496-0.396-0.739s-0.175-0.443-0.211-0.593c-0.036-0.154-0.054-0.268-0.054-0.354 0-0.114 0.014-0.239 0.039-0.379s0.082-0.307 0.164-0.5c0.082-0.193 0.193-0.364 0.325-0.518s0.325-0.282 0.571-0.389c0.246-0.107 0.529-0.161 0.843-0.161s0.596 0.054 0.839 0.157c0.243 0.104 0.432 0.225 0.561 0.368 0.132 0.139 0.236 0.296 0.318 0.475 0.079 0.175 0.132 0.321 0.157 0.436s0.036 0.214 0.036 0.3c0 0.204-0.068 0.443-0.204 0.721 0.168 0.161 0.411 0.286 0.732 0.375s0.596 0.139 0.829 0.154l0.357 0.007c0.686 0 1.25-0.154 1.696-0.454 0.446-0.304 0.671-0.7 0.671-1.189 0-0.154-0.025-0.3-0.079-0.432s-0.146-0.268-0.282-0.396c-0.132-0.132-0.282-0.254-0.443-0.364-0.161-0.114-0.382-0.243-0.661-0.393s-0.557-0.289-0.836-0.425c-0.279-0.132-0.632-0.304-1.068-0.504-0.168-0.079-0.293-0.136-0.386-0.179-0.689-0.329-1.246-0.625-1.668-0.893s-0.786-0.571-1.093-0.911c-0.307-0.339-0.521-0.714-0.643-1.121s-0.182-0.893-0.182-1.45c0-0.464 0.061-0.911 0.182-1.339s0.318-0.839 0.589-1.229c0.271-0.389 0.607-0.729 1.004-1.018 0.4-0.289 0.893-0.518 1.486-0.686 0.593-0.171 1.25-0.254 1.979-0.254 0.714 0 1.368 0.079 1.964 0.232s1.086 0.354 1.468 0.596c0.386 0.243 0.711 0.525 0.979 0.839s0.457 0.629 0.571 0.943c0.114 0.311 0.168 0.621 0.168 0.925 0 0.275-0.043 0.518-0.132 0.736s-0.196 0.389-0.325 0.518c-0.129 0.129-0.271 0.236-0.432 0.321s-0.307 0.143-0.439 0.175c-0.132 0.029-0.246 0.043-0.346 0.043-0.011 0-0.036 0-0.071 0-0.114 0-0.207 0-0.286 0s-0.193-0.014-0.346-0.043c-0.154-0.029-0.286-0.071-0.393-0.125s-0.229-0.136-0.368-0.25c-0.136-0.114-0.246-0.25-0.329-0.411s-0.154-0.371-0.214-0.629c-0.061-0.261-0.089-0.55-0.089-0.871-0.089-0.096-0.264-0.171-0.525-0.229s-0.504-0.089-0.725-0.093l-0.329-0.011c-0.404 0-0.754 0.093-1.050 0.279-0.293 0.186-0.504 0.393-0.629 0.625s-0.186 0.457-0.186 0.679c0 0.143 0.014 0.271 0.043 0.386s0.1 0.25 0.214 0.411c0.114 0.161 0.271 0.311 0.475 0.454s0.493 0.304 0.864 0.479c0.375 0.175 0.821 0.35 1.339 0.521 0.454 0.15 0.864 0.307 1.236 0.479s0.696 0.336 0.975 0.496c0.275 0.161 0.525 0.336 0.743 0.525s0.396 0.368 0.539 0.532c0.143 0.164 0.264 0.35 0.364 0.557s0.179 0.393 0.236 0.554c0.057 0.161 0.1 0.35 0.129 0.568s0.046 0.404 0.054 0.554c0.011 0.139 0.011 0.325 0.011 0.546zM13.393 13.829c0 0.529-0.186 0.982-0.561 1.361-0.379 0.382-0.832 0.571-1.368 0.571s-0.993-0.189-1.371-0.568c-0.379-0.379-0.568-0.832-0.568-1.361 0-0.536 0.189-0.993 0.568-1.371s0.836-0.568 1.371-0.568 0.989 0.189 1.368 0.568c0.375 0.379 0.561 0.832 0.561 1.368z"></path>
</svg>
