<?xml version="1.0" encoding="utf-8"?>
<!-- Generated by IcoMoon.io -->
<!DOCTYPE svg PUBLIC "-//W3C//DTD SVG 1.1//EN" "http://www.w3.org/Graphics/SVG/1.1/DTD/svg11.dtd">
<svg version="1.1" xmlns="http://www.w3.org/2000/svg" xmlns:xlink="http://www.w3.org/1999/xlink" width="16" height="16" viewBox="0 0 16 16">
<path fill="#444444" d="M10 0.003c-3.313 0-6 2.687-6 6 0 1.013 0.253 1.966 0.697 2.804l-4.172 4.171 0.003 0.003c-0.326 0.32-0.529 0.764-0.529 1.258 0 0.975 0.79 1.765 1.764 1.765 0.493 0 0.937-0.203 1.258-0.53l-0.001-0.001 4.17-4.17c0.838 0.446 1.793 0.7 2.809 0.7 3.313 0 6-2.687 6-6s-2.687-6-6-6zM2.397 14.848c-0.161 0.167-0.384 0.271-0.633 0.271-0.488 0-0.882-0.395-0.882-0.882 0-0.249 0.105-0.472 0.271-0.633l-0.004-0.004 4.033-4.033c0.353 0.476 0.772 0.896 1.247 1.249l-4.032 4.031zM10 11.003c-2.761 0-5-2.239-5-5s2.239-5 5-5c2.761 0 5 2.239 5 5s-2.239 5-5 5zM10 2.502c0.137 0 0.25 0.112 0.25 0.25s-0.113 0.25-0.25 0.25c-1.657 0-3 1.344-3 3 0 0.138-0.112 0.25-0.25 0.25s-0.25-0.112-0.25-0.25c0-1.933 1.566-3.5 3.5-3.5z"></path>
</svg>
