<?xml version="1.0" encoding="utf-8"?>
<!-- Generated by IcoMoon.io -->
<!DOCTYPE svg PUBLIC "-//W3C//DTD SVG 1.1//EN" "http://www.w3.org/Graphics/SVG/1.1/DTD/svg11.dtd">
<svg version="1.1" xmlns="http://www.w3.org/2000/svg" xmlns:xlink="http://www.w3.org/1999/xlink" width="18" height="16" viewBox="0 0 18 16">
<path fill="#444444" d="M13.393 12.241v-6.545q0-0.188-0.134-0.321t-0.313-0.134h-0.83q-0.179 0-0.313 0.134t-0.134 0.321v6.545q0 0.179 0.134 0.313t0.313 0.134h0.83q0.179 0 0.313-0.134t0.134-0.313zM10.857 12.241v-4.741q0-0.179-0.134-0.313t-0.313-0.134h-0.902q-0.179 0-0.313 0.134t-0.134 0.313v4.741q0 0.179 0.134 0.313t0.313 0.134h0.902q0.179 0 0.313-0.134t0.134-0.313zM8.25 12.241v-3.83q0-0.179-0.134-0.313t-0.313-0.134h-0.902q-0.179 0-0.313 0.134t-0.134 0.313v3.83q0 0.179 0.134 0.313t0.313 0.134h0.902q0.179 0 0.313-0.134t0.134-0.313zM5.643 12.241v-3.232q0-0.179-0.134-0.313t-0.313-0.134h-0.902q-0.179 0-0.313 0.134t-0.134 0.313v3.232q0 0.179 0.134 0.313t0.313 0.134h0.902q0.179 0 0.313-0.134t0.134-0.313zM18.286 10.938q0 1.482-1.054 2.536t-2.536 1.054h-11.107q-1.482 0-2.536-1.054t-1.054-2.536q0-1.036 0.563-1.915t1.5-1.326q-0.089-0.304-0.089-0.652 0-1.009 0.719-1.728t1.728-0.719q0.911 0 1.607 0.598 0.402-1.634 1.732-2.679t3.018-1.045q1.33 0 2.455 0.656t1.781 1.781 0.656 2.455q0 0.589-0.125 1.089 1.205 0.295 1.973 1.272t0.768 2.21z"></path>
</svg>
