<?xml version="1.0" encoding="utf-8"?>
<!-- Generated by IcoMoon.io -->
<!DOCTYPE svg PUBLIC "-//W3C//DTD SVG 1.1//EN" "http://www.w3.org/Graphics/SVG/1.1/DTD/svg11.dtd">
<svg version="1.1" xmlns="http://www.w3.org/2000/svg" xmlns:xlink="http://www.w3.org/1999/xlink" width="16" height="16" viewBox="0 0 16 16">
<path fill="#444444" d="M1.143 12.571h9.143v-1.143h-9.143v1.143zM1.143 8h9.143v-1.143h-9.143v1.143zM15.143 12q0-0.357-0.25-0.607t-0.607-0.25-0.607 0.25-0.25 0.607 0.25 0.607 0.607 0.25 0.607-0.25 0.25-0.607zM1.143 3.429h9.143v-1.143h-9.143v1.143zM15.143 7.429q0-0.357-0.25-0.607t-0.607-0.25-0.607 0.25-0.25 0.607 0.25 0.607 0.607 0.25 0.607-0.25 0.25-0.607zM15.143 2.857q0-0.357-0.25-0.607t-0.607-0.25-0.607 0.25-0.25 0.607 0.25 0.607 0.607 0.25 0.607-0.25 0.25-0.607zM16 10.286v3.429h-16v-3.429h16zM16 5.714v3.429h-16v-3.429h16zM16 1.143v3.429h-16v-3.429h16z"></path>
</svg>
