<?xml version="1.0" encoding="utf-8"?>
<!-- Generated by IcoMoon.io -->
<!DOCTYPE svg PUBLIC "-//W3C//DTD SVG 1.1//EN" "http://www.w3.org/Graphics/SVG/1.1/DTD/svg11.dtd">
<svg version="1.1" xmlns="http://www.w3.org/2000/svg" xmlns:xlink="http://www.w3.org/1999/xlink" width="16" height="16" viewBox="0 0 16 16">
<path fill="#444444" d="M15.195 6.34l-1.532-0.307c-0.077-0.221-0.168-0.436-0.268-0.644l0.868-1.302c0.264-0.397 0.212-0.925-0.125-1.261l-0.962-0.962c-0.194-0.194-0.449-0.293-0.708-0.293-0.191 0-0.385 0.055-0.553 0.168l-1.302 0.867c-0.209-0.101-0.424-0.191-0.646-0.268l-0.307-1.532c-0.093-0.468-0.504-0.804-0.98-0.804h-1.36c-0.476 0-0.887 0.337-0.981 0.804l-0.307 1.532c-0.221 0.077-0.436 0.167-0.644 0.268l-1.301-0.868c-0.17-0.113-0.362-0.168-0.554-0.168-0.259 0-0.514 0.099-0.708 0.293l-0.962 0.962c-0.337 0.337-0.389 0.865-0.125 1.261l0.868 1.302c-0.101 0.208-0.191 0.423-0.268 0.645l-1.533 0.306c-0.468 0.093-0.804 0.504-0.804 0.981v1.36c0 0.476 0.337 0.887 0.804 0.98l1.533 0.307c0.077 0.222 0.167 0.437 0.268 0.645l-0.867 1.302c-0.264 0.396-0.212 0.925 0.125 1.261l0.962 0.962c0.194 0.194 0.449 0.293 0.708 0.293 0.192 0 0.385-0.056 0.554-0.168l1.302-0.868c0.208 0.101 0.423 0.191 0.645 0.268l0.306 1.532c0.093 0.468 0.504 0.804 0.981 0.804h1.36c0.476 0 0.887-0.337 0.98-0.805l0.307-1.532c0.222-0.077 0.437-0.168 0.645-0.268l1.302 0.868c0.169 0.113 0.363 0.168 0.553 0.168 0.259 0 0.514-0.1 0.708-0.293l0.962-0.962c0.337-0.337 0.389-0.865 0.125-1.261l-0.868-1.302c0.101-0.209 0.191-0.424 0.268-0.646l1.532-0.306c0.467-0.092 0.804-0.504 0.804-0.98v-1.36c0-0.476-0.337-0.887-0.805-0.981zM13.467 8.988c-0.348 0.069-0.632 0.318-0.748 0.652-0.065 0.184-0.139 0.364-0.223 0.537-0.155 0.319-0.129 0.697 0.068 0.991l0.868 1.302-0.962 0.962-1.302-0.868c-0.167-0.111-0.361-0.168-0.554-0.168-0.149 0-0.298 0.033-0.435 0.1-0.174 0.084-0.352 0.16-0.538 0.225-0.334 0.116-0.582 0.4-0.652 0.748l-0.307 1.533h-1.36l-0.306-1.533c-0.069-0.348-0.317-0.632-0.652-0.748-0.184-0.065-0.364-0.139-0.537-0.223-0.138-0.068-0.287-0.101-0.436-0.101-0.194 0-0.388 0.056-0.554 0.168l-1.302 0.868-0.962-0.962 0.868-1.302c0.196-0.295 0.222-0.672 0.068-0.99-0.084-0.174-0.159-0.352-0.224-0.538-0.116-0.334-0.401-0.582-0.748-0.652l-1.532-0.307-0.001-1.361 1.533-0.306c0.347-0.069 0.632-0.317 0.748-0.652 0.064-0.184 0.139-0.364 0.224-0.537 0.155-0.319 0.129-0.696-0.068-0.99l-0.867-1.302 0.962-0.962 1.302 0.868c0.167 0.111 0.361 0.168 0.554 0.168 0.149 0 0.298-0.033 0.436-0.099 0.173-0.084 0.353-0.159 0.537-0.224 0.335-0.116 0.582-0.401 0.652-0.748l0.307-1.532 1.36-0 0.306 1.533c0.069 0.347 0.318 0.632 0.652 0.748 0.184 0.064 0.364 0.139 0.537 0.224 0.139 0.067 0.287 0.1 0.437 0.1 0.194 0 0.387-0.057 0.554-0.168l1.302-0.868 0.962 0.962-0.868 1.302c-0.197 0.295-0.222 0.671-0.069 0.99 0.084 0.173 0.16 0.353 0.225 0.537 0.116 0.335 0.4 0.582 0.748 0.652l1.532 0.307 0.002 1.36-1.533 0.307zM8 4.5c-1.933 0-3.5 1.567-3.5 3.5s1.567 3.5 3.5 3.5 3.5-1.567 3.5-3.5c0-1.933-1.567-3.5-3.5-3.5zM8 11.063c-1.691 0-3.063-1.372-3.063-3.063s1.372-3.063 3.063-3.063c1.691 0 3.063 1.372 3.063 3.063s-1.372 3.063-3.063 3.063zM8 6c-1.105 0-2 0.895-2 2s0.895 2 2 2c1.104 0 2-0.896 2-2s-0.896-2-2-2zM8 9.501c-0.828 0-1.5-0.672-1.5-1.5s0.672-1.5 1.5-1.5 1.5 0.672 1.5 1.5c0 0.828-0.672 1.5-1.5 1.5z"></path>
</svg>
