<?xml version="1.0" encoding="utf-8"?>
<!-- Generated by IcoMoon.io -->
<!DOCTYPE svg PUBLIC "-//W3C//DTD SVG 1.1//EN" "http://www.w3.org/Graphics/SVG/1.1/DTD/svg11.dtd">
<svg version="1.1" xmlns="http://www.w3.org/2000/svg" xmlns:xlink="http://www.w3.org/1999/xlink" width="14" height="16" viewBox="0 0 14 16">
<path fill="#444444" d="M10.857 9.143q1.188 0 2.022 0.835t0.835 2.022-0.835 2.022-2.022 0.835-2.022-0.835-0.835-2.022q0-0.107 0.018-0.304l-3.214-1.607q-0.821 0.768-1.946 0.768-1.188 0-2.022-0.835t-0.835-2.022 0.835-2.022 2.022-0.835q1.125 0 1.946 0.768l3.214-1.607q-0.018-0.196-0.018-0.304 0-1.188 0.835-2.022t2.022-0.835 2.022 0.835 0.835 2.022-0.835 2.022-2.022 0.835q-1.125 0-1.946-0.768l-3.214 1.607q0.018 0.196 0.018 0.304t-0.018 0.304l3.214 1.607q0.821-0.768 1.946-0.768z"></path>
</svg>
