<?xml version="1.0" encoding="utf-8"?>
<!-- Generated by IcoMoon.io -->
<!DOCTYPE svg PUBLIC "-//W3C//DTD SVG 1.1//EN" "http://www.w3.org/Graphics/SVG/1.1/DTD/svg11.dtd">
<svg version="1.1" xmlns="http://www.w3.org/2000/svg" xmlns:xlink="http://www.w3.org/1999/xlink" width="14" height="16" viewBox="0 0 14 16">
<path fill="#444444" d="M8.973 9.83l3.143-3.143q0.17-0.17 0.17-0.402t-0.17-0.402l-3.143-3.143q-0.268-0.277-0.616-0.125-0.357 0.152-0.357 0.527v1.429q-1.063 0-1.929 0.174t-1.451 0.455-1.018 0.705-0.683 0.853-0.397 0.973-0.192 0.996-0.045 0.987q0 1.616 1.491 3.607 0.089 0.107 0.223 0.107 0.063 0 0.116-0.027 0.196-0.080 0.17-0.295-0.393-3.161 0.554-4.223 0.411-0.464 1.161-0.674t2-0.21v1.429q0 0.375 0.357 0.527 0.107 0.045 0.214 0.045 0.232 0 0.402-0.17zM13.714 3.714v8.571q0 1.063-0.754 1.817t-1.817 0.754h-8.571q-1.063 0-1.817-0.754t-0.754-1.817v-8.571q0-1.063 0.754-1.817t1.817-0.754h8.571q1.063 0 1.817 0.754t0.754 1.817z"></path>
</svg>
