<?xml version="1.0" encoding="utf-8"?>
<!-- Generated by IcoMoon.io -->
<!DOCTYPE svg PUBLIC "-//W3C//DTD SVG 1.1//EN" "http://www.w3.org/Graphics/SVG/1.1/DTD/svg11.dtd">
<svg version="1.1" xmlns="http://www.w3.org/2000/svg" xmlns:xlink="http://www.w3.org/1999/xlink" width="14" height="16" viewBox="0 0 14 16">
<path fill="#444444" d="M11.429 10.67q0-0.786-0.558-1.348t-1.344-0.563q-0.75 0-1.295 0.518l-2.152-1.071q0.018-0.143 0.018-0.205t-0.018-0.205l2.152-1.071q0.545 0.518 1.295 0.518 0.786 0 1.344-0.563t0.558-1.348-0.558-1.344-1.344-0.558-1.348 0.558-0.563 1.344q0 0.063 0.018 0.205l-2.152 1.071q-0.554-0.509-1.295-0.509-0.786 0-1.344 0.558t-0.558 1.344 0.558 1.344 1.344 0.558q0.741 0 1.295-0.509l2.152 1.071q-0.018 0.143-0.018 0.205 0 0.786 0.563 1.344t1.348 0.558 1.344-0.558 0.558-1.344zM13.714 3.714v8.571q0 1.063-0.754 1.817t-1.817 0.754h-8.571q-1.063 0-1.817-0.754t-0.754-1.817v-8.571q0-1.063 0.754-1.817t1.817-0.754h8.571q1.063 0 1.817 0.754t0.754 1.817z"></path>
</svg>
