<?xml version="1.0" encoding="utf-8"?>
<!-- Generated by IcoMoon.io -->
<!DOCTYPE svg PUBLIC "-//W3C//DTD SVG 1.1//EN" "http://www.w3.org/Graphics/SVG/1.1/DTD/svg11.dtd">
<svg version="1.1" xmlns="http://www.w3.org/2000/svg" xmlns:xlink="http://www.w3.org/1999/xlink" width="18" height="16" viewBox="0 0 18 16">
<path fill="#444444" d="M16.17 13.884q0.17-0.17 0.402-0.17t0.402 0.17l1.143 1.143-0.804 0.804-0.741-0.741-0.741 0.741q-0.161 0.17-0.402 0.17t-0.402-0.17l-0.741-0.741-0.741 0.741q-0.17 0.17-0.402 0.17t-0.402-0.17l-0.741-0.741-0.741 0.741q-0.17 0.17-0.402 0.17t-0.402-0.17l-0.741-0.741-0.741 0.741q-0.17 0.17-0.402 0.17t-0.402-0.17l-0.741-0.741-0.741 0.741q-0.17 0.17-0.402 0.17t-0.402-0.17l-0.741-0.741-0.741 0.741q-0.17 0.17-0.402 0.17t-0.402-0.17l-0.741-0.741-0.741 0.741q-0.17 0.17-0.402 0.17t-0.402-0.17l-1.143-1.143 0.804-0.804 0.741 0.741 0.741-0.741q0.17-0.17 0.402-0.17t0.402 0.17l0.741 0.741 0.741-0.741q0.17-0.17 0.402-0.17t0.402 0.17l0.741 0.741 0.741-0.741q0.17-0.17 0.402-0.17t0.402 0.17l0.741 0.741 0.741-0.741q0.17-0.17 0.402-0.17t0.402 0.17l0.741 0.741 0.741-0.741q0.17-0.17 0.402-0.17t0.402 0.17l0.741 0.741 0.741-0.741q0.17-0.17 0.402-0.17t0.402 0.17l0.741 0.741zM2.116 13.545q-0.17 0.17-0.402 0.17t-0.402-0.17l-1.143-1.143 0.804-0.804 0.741 0.732 0.741-0.732q0.17-0.17 0.402-0.17t0.402 0.17l0.741 0.732 0.571-0.571v-2.616l-1.875-2.804q-0.152-0.232-0.063-0.504t0.357-0.362l1.58-0.518v-2.67h1.143v-1.143h2.286v-1.143h2.286v1.143h2.286v1.143h1.143v2.67l1.58 0.518q0.268 0.089 0.357 0.362t-0.063 0.504l-1.875 2.804v2.616l0.17-0.161q0.17-0.17 0.402-0.17t0.402 0.17l0.741 0.732 0.741-0.732q0.17-0.17 0.402-0.17t0.402 0.17l1.143 1.143-0.804 0.804-0.741-0.741-0.741 0.741q-0.161 0.17-0.402 0.17t-0.402-0.17l-0.741-0.741-0.741 0.741q-0.17 0.17-0.402 0.17t-0.402-0.17l-0.741-0.741-0.741 0.741q-0.17 0.17-0.402 0.17t-0.402-0.17l-0.741-0.741-0.741 0.741q-0.17 0.17-0.402 0.17t-0.402-0.17l-0.741-0.741-0.741 0.741q-0.17 0.17-0.402 0.17t-0.402-0.17l-0.741-0.741-0.741 0.741q-0.17 0.17-0.402 0.17t-0.402-0.17l-0.741-0.741zM5.714 3.429v1.143l3.429-1.143 3.429 1.143v-1.143h-1.143v-1.143h-4.571v1.143h-1.143z"></path>
</svg>
