<?xml version="1.0" encoding="utf-8"?>
<!-- Generated by IcoMoon.io -->
<!DOCTYPE svg PUBLIC "-//W3C//DTD SVG 1.1//EN" "http://www.w3.org/Graphics/SVG/1.1/DTD/svg11.dtd">
<svg version="1.1" xmlns="http://www.w3.org/2000/svg" xmlns:xlink="http://www.w3.org/1999/xlink" width="14" height="16" viewBox="0 0 14 16">
<path fill="#444444" d="M0 0h13.714v12.429l-6.929 3.018-6.786-3.018v-12.429zM12.821 11.848v-8.268h-11.929v8.268l5.902 2.625zM12.821 2.688v-1.795h-11.929v1.795h11.929zM1.616 5.348v1.027h-0.33v-1.027h0.33zM1.616 6.67v1.027h-0.33v-1.027h0.33zM1.616 7.991v1.027h-0.33v-1.027h0.33zM1.616 9.313v1.027h-0.33v-1.027h0.33zM1.616 10.634v1.027h-0.33v-1.027h0.33zM1.848 11.911l0.134-0.304 0.938 0.42-0.134 0.295zM3.063 12.446l0.134-0.304 0.938 0.411-0.134 0.304zM4.268 12.982l0.134-0.304 0.938 0.411-0.134 0.304zM5.482 13.509l0.134-0.295 0.929 0.411-0.134 0.304zM7.116 13.625l0.938-0.411 0.134 0.295-0.938 0.42zM8.321 13.089l0.938-0.411 0.134 0.304-0.938 0.411zM9.536 12.554l0.938-0.411 0.134 0.304-0.938 0.411zM10.741 12.027l0.938-0.42 0.134 0.304-0.938 0.411zM2.313 1.313v0.321h-1.018v-0.321h1.018zM3.759 1.313v0.321h-1.027v-0.321h1.027zM5.205 1.313v0.321h-1.027v-0.321h1.027zM6.643 1.313v0.321h-1.018v-0.321h1.018zM8.089 1.313v0.321h-1.018v-0.321h1.018zM9.536 1.313v0.321h-1.027v-0.321h1.027zM10.982 1.313v0.321h-1.027v-0.321h1.027zM12.42 1.313v0.321h-1.018v-0.321h1.018zM1.616 4.348v0.705h-0.33v-1.027h1.027v0.321h-0.696zM3.759 4.027v0.321h-1.027v-0.321h1.027zM5.205 4.027v0.321h-1.027v-0.321h1.027zM6.643 4.027v0.321h-1.018v-0.321h1.018zM8.089 4.027v0.321h-1.018v-0.321h1.018zM9.536 4.027v0.321h-1.027v-0.321h1.027zM10.982 4.027v0.321h-1.027v-0.321h1.027zM12.098 5.054v-0.705h-0.696v-0.321h1.027v1.027h-0.33zM12.098 6.375v-1.027h0.33v1.027h-0.33zM12.098 7.696v-1.027h0.33v1.027h-0.33zM12.098 9.018v-1.027h0.33v1.027h-0.33zM12.098 10.339v-1.027h0.33v1.027h-0.33zM12.098 11.661v-1.027h0.33v1.027h-0.33zM6.786 11.348q-1.152 0-1.973-0.817t-0.821-1.978q0-1.152 0.821-1.973t1.973-0.821q1.161 0 1.978 0.821t0.817 1.973q0 1.161-0.817 1.978t-1.978 0.817zM5.313 7.946q0 0.321 0.174 0.504t0.442 0.223 0.571 0.063 0.571 0.018 0.442 0.080 0.174 0.272q0 0.438-1 0.438-0.866 0-1.098-0.455h-0.027l-0.277 0.563q0.598 0.375 1.446 0.375 0.259 0 0.504-0.045t0.496-0.143 0.406-0.295 0.156-0.473q0-0.411-0.246-0.621t-0.603-0.241-0.71-0.027-0.598-0.045-0.246-0.228q0-0.188 0.183-0.295t0.362-0.134 0.366-0.027q0.304 0 0.629 0.098t0.46 0.304h0.027l0.268-0.518q-0.027-0.009-0.188-0.076t-0.201-0.080-0.174-0.063-0.196-0.063-0.179-0.040-0.214-0.036-0.205-0.009q-0.259 0-0.504 0.045t-0.482 0.147-0.384 0.304-0.147 0.478z"></path>
</svg>
