<?xml version="1.0" encoding="utf-8"?>
<!-- Generated by IcoMoon.io -->
<!DOCTYPE svg PUBLIC "-//W3C//DTD SVG 1.1//EN" "http://www.w3.org/Graphics/SVG/1.1/DTD/svg11.dtd">
<svg version="1.1" xmlns="http://www.w3.org/2000/svg" xmlns:xlink="http://www.w3.org/1999/xlink" width="16" height="16" viewBox="0 0 16 16">
<path fill="#444444" d="M15.7 5.6l-1.5-1.999c-0.059-0.079-0.128-0.147-0.2-0.212v-2.389c0-0.552-0.448-1-1-1h-10c-0.553 0-1 0.448-1 1v2.39c-0.072 0.064-0.141 0.132-0.2 0.21l-1.5 2c-0.194 0.258-0.3 0.577-0.3 0.901v0.5c0 0.827 0.673 1.5 1.5 1.5v0 6.5c0 0.552 0.448 1 1 1h11c0.552 0 1-0.448 1-1v-6.5c0.827 0 1.5-0.673 1.5-1.5v-0.5c0-0.323-0.107-0.643-0.3-0.9zM13 1v2h-10v-2h10zM5.096 7.5h-2.095l2-3.5h1.095l-1 3.5zM6.617 4h1.133v3.5h-2.133l1-3.5zM8.25 4h1.133l1 3.5h-2.133v-3.5zM9.902 4h1.095l2 3.5h-2.095l-1-3.5zM1 7v-0.5c0-0.109 0.035-0.213 0.1-0.3l1.5-2c0.095-0.126 0.243-0.2 0.4-0.2h1.426l-2 3.5h-0.926c-0.276 0-0.5-0.223-0.5-0.5zM10 15h-3.75v-5h3.75v5zM13.5 15h-3v-5c0-0.277-0.225-0.5-0.5-0.5h-3.75c-0.276 0-0.5 0.223-0.5 0.5v5h-3.25v-6.5h11v6.5zM15 7c0 0.277-0.223 0.5-0.5 0.5h-0.927l-2-3.5h1.427c0.157 0 0.306 0.074 0.399 0.2l1.5 2c0.066 0.087 0.101 0.192 0.101 0.3v0.5z"></path>
</svg>
