<?xml version="1.0" encoding="utf-8"?>
<!-- Generated by IcoMoon.io -->
<!DOCTYPE svg PUBLIC "-//W3C//DTD SVG 1.1//EN" "http://www.w3.org/Graphics/SVG/1.1/DTD/svg11.dtd">
<svg version="1.1" xmlns="http://www.w3.org/2000/svg" xmlns:xlink="http://www.w3.org/1999/xlink" width="15" height="16" viewBox="0 0 15 16">
<path fill="#444444" d="M5.714 13.714q0 0.464-0.339 0.804t-0.804 0.339-0.804-0.339-0.339-0.804 0.339-0.804 0.804-0.339 0.804 0.339 0.339 0.804zM13.714 13.714q0 0.464-0.339 0.804t-0.804 0.339-0.804-0.339-0.339-0.804 0.339-0.804 0.804-0.339 0.804 0.339 0.339 0.804zM14.857 4v4.571q0 0.214-0.147 0.379t-0.362 0.192l-9.321 1.089q0.116 0.536 0.116 0.625 0 0.143-0.214 0.571h8.214q0.232 0 0.402 0.17t0.17 0.402-0.17 0.402-0.402 0.17h-9.143q-0.232 0-0.402-0.17t-0.17-0.402q0-0.098 0.071-0.281t0.143-0.321 0.192-0.357 0.138-0.263l-1.58-7.348h-1.821q-0.232 0-0.402-0.17t-0.17-0.402 0.17-0.402 0.402-0.17h2.286q0.143 0 0.254 0.058t0.174 0.138 0.116 0.219 0.071 0.232 0.049 0.263 0.040 0.232h10.723q0.232 0 0.402 0.17t0.17 0.402z"></path>
</svg>
