<?xml version="1.0" encoding="utf-8"?>
<!-- Generated by IcoMoon.io -->
<!DOCTYPE svg PUBLIC "-//W3C//DTD SVG 1.1//EN" "http://www.w3.org/Graphics/SVG/1.1/DTD/svg11.dtd">
<svg version="1.1" xmlns="http://www.w3.org/2000/svg" xmlns:xlink="http://www.w3.org/1999/xlink" width="18" height="16" viewBox="0 0 18 16">
<path fill="#444444" d="M17.143 6.857q0.473 0 0.808 0.335t0.335 0.808-0.335 0.808-0.808 0.335h-0.134l-1.027 5.911q-0.071 0.411-0.393 0.679t-0.732 0.268h-11.429q-0.411 0-0.732-0.268t-0.393-0.679l-1.027-5.911h-0.134q-0.473 0-0.808-0.335t-0.335-0.808 0.335-0.808 0.808-0.335h16zM4.33 14q0.232-0.018 0.388-0.201t0.138-0.415l-0.286-3.714q-0.018-0.232-0.201-0.388t-0.415-0.138-0.388 0.201-0.138 0.415l0.286 3.714q0.018 0.223 0.183 0.375t0.388 0.152h0.045zM8 13.429v-3.714q0-0.232-0.17-0.402t-0.402-0.17-0.402 0.17-0.17 0.402v3.714q0 0.232 0.17 0.402t0.402 0.17 0.402-0.17 0.17-0.402zM11.429 13.429v-3.714q0-0.232-0.17-0.402t-0.402-0.17-0.402 0.17-0.17 0.402v3.714q0 0.232 0.17 0.402t0.402 0.17 0.402-0.17 0.17-0.402zM14.571 13.473l0.286-3.714q0.018-0.232-0.138-0.415t-0.388-0.201-0.415 0.138-0.201 0.388l-0.286 3.714q-0.018 0.232 0.138 0.415t0.388 0.201h0.045q0.223 0 0.388-0.152t0.183-0.375zM4.25 2.607l-0.83 3.679h-1.179l0.902-3.938q0.17-0.786 0.795-1.281t1.429-0.496h1.491q0-0.232 0.17-0.402t0.402-0.17h3.429q0.232 0 0.402 0.17t0.17 0.402h1.491q0.804 0 1.429 0.496t0.795 1.281l0.902 3.938h-1.179l-0.83-3.679q-0.098-0.393-0.406-0.643t-0.71-0.25h-1.491q0 0.232-0.17 0.402t-0.402 0.17h-3.429q-0.232 0-0.402-0.17t-0.17-0.402h-1.491q-0.402 0-0.71 0.25t-0.406 0.643z"></path>
</svg>
