<?xml version="1.0" encoding="utf-8"?>
<!-- Generated by IcoMoon.io -->
<!DOCTYPE svg PUBLIC "-//W3C//DTD SVG 1.1//EN" "http://www.w3.org/Graphics/SVG/1.1/DTD/svg11.dtd">
<svg version="1.1" xmlns="http://www.w3.org/2000/svg" xmlns:xlink="http://www.w3.org/1999/xlink" width="14" height="16" viewBox="0 0 14 16">
<path fill="#444444" d="M5.714 12.857q0 0.036 0.009 0.179t0.004 0.237-0.027 0.21-0.089 0.174-0.183 0.058h-2.857q-1.063 0-1.817-0.754t-0.754-1.817v-6.286q0-1.063 0.754-1.817t1.817-0.754h2.857q0.116 0 0.201 0.085t0.085 0.201q0 0.036 0.009 0.179t0.004 0.237-0.027 0.21-0.089 0.174-0.183 0.058h-2.857q-0.589 0-1.009 0.42t-0.42 1.009v6.286q0 0.589 0.42 1.009t1.009 0.42h2.786t0.103 0.009 0.103 0.027 0.071 0.049 0.063 0.080 0.018 0.121zM14 8q0 0.232-0.17 0.402l-4.857 4.857q-0.17 0.17-0.402 0.17t-0.402-0.17-0.17-0.402v-2.571h-4q-0.232 0-0.402-0.17t-0.17-0.402v-3.429q0-0.232 0.17-0.402t0.402-0.17h4v-2.571q0-0.232 0.17-0.402t0.402-0.17 0.402 0.17l4.857 4.857q0.17 0.17 0.17 0.402z"></path>
</svg>
