<?xml version="1.0" encoding="utf-8"?>
<!-- Generated by IcoMoon.io -->
<!DOCTYPE svg PUBLIC "-//W3C//DTD SVG 1.1//EN" "http://www.w3.org/Graphics/SVG/1.1/DTD/svg11.dtd">
<svg version="1.1" xmlns="http://www.w3.org/2000/svg" xmlns:xlink="http://www.w3.org/1999/xlink" width="16" height="16" viewBox="0 0 16 16">
<path fill="#444444" d="M2.286 12.857v1.714q0 0.125-0.080 0.205t-0.205 0.080h-1.714q-0.125 0-0.205-0.080t-0.080-0.205v-1.714q0-0.125 0.080-0.205t0.205-0.080h1.714q0.125 0 0.205 0.080t0.080 0.205zM5.714 11.714v2.857q0 0.125-0.080 0.205t-0.205 0.080h-1.714q-0.125 0-0.205-0.080t-0.080-0.205v-2.857q0-0.125 0.080-0.205t0.205-0.080h1.714q0.125 0 0.205 0.080t0.080 0.205zM9.143 9.429v5.143q0 0.125-0.080 0.205t-0.205 0.080h-1.714q-0.125 0-0.205-0.080t-0.080-0.205v-5.143q0-0.125 0.080-0.205t0.205-0.080h1.714q0.125 0 0.205 0.080t0.080 0.205zM12.571 6v8.571q0 0.125-0.080 0.205t-0.205 0.080h-1.714q-0.125 0-0.205-0.080t-0.080-0.205v-8.571q0-0.125 0.080-0.205t0.205-0.080h1.714q0.125 0 0.205 0.080t0.080 0.205zM16 1.429v13.143q0 0.125-0.080 0.205t-0.205 0.080h-1.714q-0.125 0-0.205-0.080t-0.080-0.205v-13.143q0-0.125 0.080-0.205t0.205-0.080h1.714q0.125 0 0.205 0.080t0.080 0.205z"></path>
</svg>
