<?xml version="1.0" encoding="utf-8"?>
<!-- Generated by IcoMoon.io -->
<!DOCTYPE svg PUBLIC "-//W3C//DTD SVG 1.1//EN" "http://www.w3.org/Graphics/SVG/1.1/DTD/svg11.dtd">
<svg version="1.1" xmlns="http://www.w3.org/2000/svg" xmlns:xlink="http://www.w3.org/1999/xlink" width="18" height="16" viewBox="0 0 18 16">
<path fill="#444444" d="M7.705 9.214q0-1-0.71-1.71t-1.71-0.71-1.705 0.71-0.705 1.71 0.705 1.705 1.705 0.705 1.71-0.705 0.71-1.705zM15.411 9.205q0-1-0.705-1.705t-1.705-0.705-1.71 0.705-0.71 1.705q0 1.009 0.71 1.714t1.71 0.705 1.705-0.71 0.705-1.71zM18.286 1.982v12.036q0 0.393-0.281 0.674t-0.683 0.281h-16.357q-0.402 0-0.683-0.281t-0.281-0.674v-12.036q0-0.393 0.281-0.674t0.683-0.281h3.848q0.393 0 0.679 0.281t0.286 0.674v1.438h6.732v-1.438q0-0.393 0.286-0.674t0.679-0.281h3.848q0.402 0 0.683 0.281t0.281 0.674z"></path>
</svg>
