<?xml version="1.0" encoding="utf-8"?>
<!-- Generated by IcoMoon.io -->
<!DOCTYPE svg PUBLIC "-//W3C//DTD SVG 1.1//EN" "http://www.w3.org/Graphics/SVG/1.1/DTD/svg11.dtd">
<svg version="1.1" xmlns="http://www.w3.org/2000/svg" xmlns:xlink="http://www.w3.org/1999/xlink" width="18" height="16" viewBox="0 0 18 16">
<path fill="#444444" d="M15.089 7.027q1.321 0 2.259 0.879t0.938 2.183q0 1.402-0.973 2.335t-2.384 0.933q-0.759 0-1.446-0.246t-1.232-0.656-1.054-0.946-0.973-1.129-0.924-1.183-0.969-1.125-1.045-0.946-1.214-0.656-1.42-0.246q-1.375 0-2.246 0.817t-0.871 2.183q0 1.402 0.929 2.232t2.348 0.83q0.893 0 1.857-0.335t1.723-0.879q0.045-0.036 0.188-0.165t0.268-0.214 0.196-0.085q0.125 0 0.219 0.094t0.094 0.219q0 0.214-0.536 0.688-0.902 0.786-2.094 1.268t-2.326 0.482q-1.188 0-2.192-0.518t-1.607-1.473-0.603-2.152q0-1.83 1.263-3.045t3.103-1.214q1.071 0 2.022 0.388t1.656 1.009 1.353 1.366 1.241 1.496 1.192 1.371 1.335 1.009 1.54 0.388q0.911 0 1.504-0.549t0.594-1.451q0-0.848-0.576-1.42t-1.424-0.571q-0.268 0-0.728 0.165t-0.612 0.165q-0.179 0-0.317-0.134t-0.138-0.313q0-0.161 0.076-0.509t0.076-0.527q0-1.42-0.96-2.348t-2.379-0.929q-0.518 0-0.996 0.165t-0.75 0.362-0.496 0.362-0.295 0.165q-0.134 0-0.228-0.094t-0.094-0.228q0-0.17 0.223-0.411 0.527-0.598 1.313-0.924t1.625-0.326q1.705 0 2.839 1.121t1.134 2.817q0 0.33-0.036 0.589 0.509-0.134 1.027-0.134z"></path>
</svg>
