<?xml version="1.0" encoding="utf-8"?>
<!-- Generated by IcoMoon.io -->
<!DOCTYPE svg PUBLIC "-//W3C//DTD SVG 1.1//EN" "http://www.w3.org/Graphics/SVG/1.1/DTD/svg11.dtd">
<svg version="1.1" xmlns="http://www.w3.org/2000/svg" xmlns:xlink="http://www.w3.org/1999/xlink" width="15" height="16" viewBox="0 0 15 16">
<path fill="#444444" d="M13.563 6.929q0.554 0 0.924 0.362t0.371 0.906q0 0.866-0.83 1.161l-1.536 0.527 0.5 1.491q0.063 0.188 0.063 0.42 0 0.527-0.375 0.911t-0.902 0.384q-0.42 0-0.763-0.241t-0.478-0.643l-0.491-1.473-2.768 0.946 0.491 1.464q0.071 0.214 0.071 0.42 0 0.527-0.375 0.911t-0.911 0.384q-0.42 0-0.759-0.241t-0.473-0.643l-0.491-1.455-1.366 0.473q-0.259 0.080-0.446 0.080-0.545 0-0.906-0.357t-0.362-0.902q0-0.42 0.246-0.759t0.638-0.473l1.393-0.473-0.938-2.795-1.393 0.482q-0.232 0.071-0.429 0.071-0.536 0-0.902-0.362t-0.366-0.897q0-0.42 0.246-0.759t0.638-0.473l1.402-0.473-0.473-1.42q-0.071-0.214-0.071-0.42 0-0.536 0.375-0.915t0.911-0.379q0.42 0 0.759 0.241t0.473 0.643l0.482 1.429 2.768-0.938-0.482-1.429q-0.071-0.214-0.071-0.42 0-0.527 0.379-0.911t0.906-0.384q0.42 0 0.763 0.246t0.478 0.638l0.473 1.438 1.446-0.491q0.188-0.054 0.384-0.054 0.536 0 0.915 0.353t0.379 0.879q0 0.402-0.268 0.728t-0.661 0.46l-1.402 0.482 0.938 2.821 1.464-0.5q0.214-0.071 0.411-0.071zM6.473 9.268l2.768-0.938-0.938-2.813-2.768 0.955z"></path>
</svg>
