<?xml version="1.0" encoding="utf-8"?>
<!-- Generated by IcoMoon.io -->
<!DOCTYPE svg PUBLIC "-//W3C//DTD SVG 1.1//EN" "http://www.w3.org/Graphics/SVG/1.1/DTD/svg11.dtd">
<svg version="1.1" xmlns="http://www.w3.org/2000/svg" xmlns:xlink="http://www.w3.org/1999/xlink" width="16" height="16" viewBox="0 0 16 16">
<path fill="#444444" d="M7.795 6.607q0 0.741-0.567 1.272t-1.362 0.531-1.362-0.531-0.567-1.272q0-0.75 0.567-1.277t1.362-0.527 1.362 0.527 0.567 1.277zM12.277 6.607q0 0.741-0.563 1.272t-1.366 0.531q-0.795 0-1.362-0.531t-0.567-1.272q0-0.75 0.567-1.277t1.362-0.527q0.804 0 1.366 0.527t0.563 1.277zM14.286 8.214v-5.955q0-0.777-0.286-1.103t-0.991-0.326h-9.929q-0.741 0-1.004 0.304t-0.263 1.125v6.009q0.384 0.205 0.79 0.357t0.723 0.25 0.723 0.165 0.634 0.098 0.625 0.036 0.522 0.004 0.504-0.018 0.397-0.018q0.607-0.009 0.848 0.241 0.054 0.054 0.089 0.080 0.232 0.223 0.545 0.455 0.063-0.813 1.054-0.777 0.045 0 0.326 0.013t0.384 0.018 0.406 0.009 0.473-0.009 0.487-0.040 0.545-0.076 0.554-0.121 0.598-0.174 0.603-0.241 0.643-0.308zM15.741 8.17q-1.080 1.33-3.321 2.25 0.75 2.545-0.205 4.152-0.589 1.009-1.634 1.321-0.929 0.286-1.625-0.134-0.768-0.455-0.732-1.464l-0.009-2.911v-0.009q-0.071-0.018-0.219-0.054t-0.21-0.045l-0.009 3.018q0.036 1.018-0.741 1.464-0.705 0.42-1.634 0.134-1.045-0.321-1.625-1.339-0.938-1.607-0.196-4.134-2.241-0.92-3.321-2.25-0.223-0.33-0.036-0.563t0.536 0.009q0.027 0.018 0.098 0.063t0.098 0.071v-6.196q0-0.643 0.42-1.098t1.018-0.455h11.223q0.598 0 1.018 0.455t0.42 1.098v6.196l0.188-0.134q0.348-0.241 0.536-0.009t-0.036 0.563z"></path>
</svg>
