<?xml version="1.0" encoding="utf-8"?>
<!-- Generated by IcoMoon.io -->
<!DOCTYPE svg PUBLIC "-//W3C//DTD SVG 1.1//EN" "http://www.w3.org/Graphics/SVG/1.1/DTD/svg11.dtd">
<svg version="1.1" xmlns="http://www.w3.org/2000/svg" xmlns:xlink="http://www.w3.org/1999/xlink" width="14" height="16" viewBox="0 0 14 16">
<path fill="#444444" d="M3.143 12.571v1.143h-3.143v-1.143h3.143zM6.286 11.429q0.232 0 0.402 0.17t0.17 0.402v2.286q0 0.232-0.17 0.402t-0.402 0.17h-2.286q-0.232 0-0.402-0.17t-0.17-0.402v-2.286q0-0.232 0.17-0.402t0.402-0.17h2.286zM7.714 8v1.143h-7.714v-1.143h7.714zM2 3.429v1.143h-2v-1.143h2zM13.714 12.571v1.143h-6.571v-1.143h6.571zM5.143 2.286q0.232 0 0.402 0.17t0.17 0.402v2.286q0 0.232-0.17 0.402t-0.402 0.17h-2.286q-0.232 0-0.402-0.17t-0.17-0.402v-2.286q0-0.232 0.17-0.402t0.402-0.17h2.286zM10.857 6.857q0.232 0 0.402 0.17t0.17 0.402v2.286q0 0.232-0.17 0.402t-0.402 0.17h-2.286q-0.232 0-0.402-0.17t-0.17-0.402v-2.286q0-0.232 0.17-0.402t0.402-0.17h2.286zM13.714 8v1.143h-2v-1.143h2zM13.714 3.429v1.143h-7.714v-1.143h7.714z"></path>
</svg>
