<?xml version="1.0" encoding="utf-8"?>
<!-- Generated by IcoMoon.io -->
<!DOCTYPE svg PUBLIC "-//W3C//DTD SVG 1.1//EN" "http://www.w3.org/Graphics/SVG/1.1/DTD/svg11.dtd">
<svg version="1.1" xmlns="http://www.w3.org/2000/svg" xmlns:xlink="http://www.w3.org/1999/xlink" width="14" height="16" viewBox="0 0 14 16">
<path fill="#444444" d="M10.125 9.598q-0.33 1.080-1.232 1.741t-2.036 0.661-2.036-0.661-1.232-1.741q-0.071-0.223 0.036-0.433t0.339-0.281q0.223-0.071 0.433 0.036t0.281 0.339q0.223 0.714 0.826 1.156t1.353 0.442 1.353-0.442 0.826-1.156q0.071-0.232 0.286-0.339t0.438-0.036 0.33 0.281 0.036 0.433zM5.714 5.714q0 0.473-0.335 0.808t-0.808 0.335-0.808-0.335-0.335-0.808 0.335-0.808 0.808-0.335 0.808 0.335 0.335 0.808zM10.286 5.714q0 0.473-0.335 0.808t-0.808 0.335-0.808-0.335-0.335-0.808 0.335-0.808 0.808-0.335 0.808 0.335 0.335 0.808zM12.571 8q0-1.161-0.455-2.219t-1.219-1.821-1.821-1.219-2.219-0.455-2.219 0.455-1.821 1.219-1.219 1.821-0.455 2.219 0.455 2.219 1.219 1.821 1.821 1.219 2.219 0.455 2.219-0.455 1.821-1.219 1.219-1.821 0.455-2.219zM13.714 8q0 1.866-0.92 3.442t-2.496 2.496-3.442 0.92-3.442-0.92-2.496-2.496-0.92-3.442 0.92-3.442 2.496-2.496 3.442-0.92 3.442 0.92 2.496 2.496 0.92 3.442z"></path>
</svg>
