<?xml version="1.0" encoding="utf-8"?>
<!-- Generated by IcoMoon.io -->
<!DOCTYPE svg PUBLIC "-//W3C//DTD SVG 1.1//EN" "http://www.w3.org/Graphics/SVG/1.1/DTD/svg11.dtd">
<svg version="1.1" xmlns="http://www.w3.org/2000/svg" xmlns:xlink="http://www.w3.org/1999/xlink" width="14" height="16" viewBox="0 0 14 16">
<path fill="#444444" d="M12.018 11.723q0-0.563-0.393-1.036t-0.92-0.473q-0.464 0-0.741 0.33t-0.277 0.839 0.326 0.848 0.933 0.339q0.446 0 0.759-0.241t0.313-0.607zM6.571 12.857q0 0.107-0.089 0.214l-2.848 2.848q-0.089 0.080-0.205 0.080-0.107 0-0.205-0.080l-2.857-2.857q-0.134-0.143-0.063-0.313 0.071-0.179 0.268-0.179h1.714v-12.286q0-0.125 0.080-0.205t0.205-0.080h1.714q0.125 0 0.205 0.080t0.080 0.205v12.286h1.714q0.125 0 0.205 0.080t0.080 0.205zM13.268 12.241q0 0.554-0.116 1.085t-0.366 1.018-0.607 0.853-0.879 0.585-1.138 0.219q-0.554 0-0.964-0.143-0.214-0.071-0.375-0.134l0.348-1.009q0.134 0.063 0.277 0.098 0.33 0.116 0.67 0.116 0.75 0 1.201-0.522t0.594-1.299h-0.018q-0.188 0.205-0.549 0.33t-0.754 0.125q-0.946 0-1.545-0.638t-0.598-1.54q0-0.938 0.643-1.589t1.616-0.652q1.098 0 1.83 0.844t0.732 2.254zM13 5.839v1.018h-4.188v-1.018h1.491v-3.857q0-0.063 0.004-0.17t0.004-0.152v-0.143h-0.018l-0.063 0.107q-0.071 0.116-0.232 0.277l-0.554 0.518-0.732-0.768 1.714-1.652h1.098v5.839h1.473z"></path>
</svg>
