<?xml version="1.0" encoding="utf-8"?>
<!-- Generated by IcoMoon.io -->
<!DOCTYPE svg PUBLIC "-//W3C//DTD SVG 1.1//EN" "http://www.w3.org/Graphics/SVG/1.1/DTD/svg11.dtd">
<svg version="1.1" xmlns="http://www.w3.org/2000/svg" xmlns:xlink="http://www.w3.org/1999/xlink" width="15" height="16" viewBox="0 0 15 16">
<path fill="#444444" d="M10.634 12.786h1.58l-0.643-1.946-0.107-0.42q-0.018-0.143-0.018-0.179h-0.036l-0.027 0.179q0 0.009-0.031 0.161t-0.067 0.259zM6.571 12.857q0 0.107-0.089 0.214l-2.848 2.848q-0.089 0.080-0.205 0.080-0.107 0-0.205-0.080l-2.857-2.857q-0.134-0.143-0.063-0.313 0.071-0.179 0.268-0.179h1.714v-12.286q0-0.125 0.080-0.205t0.205-0.080h1.714q0.125 0 0.205 0.080t0.080 0.205v12.286h1.714q0.125 0 0.205 0.080t0.080 0.205zM14.83 15.054v0.946h-2.571v-0.946h0.67l-0.42-1.286h-2.17l-0.42 1.286h0.67v0.946h-2.563v-0.946h0.625l2.054-5.911h1.446l2.054 5.911h0.625zM14.036 4.777v2.080h-5.214v-0.804l3.295-4.723q0.107-0.161 0.188-0.241l0.098-0.080v-0.027q-0.018 0-0.058 0.004t-0.067 0.004q-0.107 0.027-0.268 0.027h-2.071v1.027h-1.071v-2.045h5.063v0.795l-3.295 4.732q-0.054 0.071-0.188 0.232l-0.098 0.089v0.027l0.125-0.027q0.080-0.009 0.268-0.009h2.214v-1.063h1.080z"></path>
</svg>
