<?xml version="1.0" encoding="utf-8"?>
<!-- Generated by IcoMoon.io -->
<!DOCTYPE svg PUBLIC "-//W3C//DTD SVG 1.1//EN" "http://www.w3.org/Graphics/SVG/1.1/DTD/svg11.dtd">
<svg version="1.1" xmlns="http://www.w3.org/2000/svg" xmlns:xlink="http://www.w3.org/1999/xlink" width="21" height="16" viewBox="0 0 21 16">
<path fill="#444444" d="M7 12.25l0.143-2.152-0.143-4.67q-0.009-0.089-0.067-0.152t-0.147-0.063q-0.080 0-0.143 0.063t-0.063 0.152l-0.125 4.67 0.125 2.152q0.009 0.089 0.067 0.147t0.138 0.058q0.196 0 0.214-0.205zM9.643 11.991l0.098-1.884-0.107-5.232q0-0.143-0.116-0.214-0.071-0.045-0.143-0.045t-0.143 0.045q-0.116 0.071-0.116 0.214l-0.009 0.054-0.089 5.17q0 0.009 0.098 2.107v0.009q0 0.089 0.054 0.152 0.080 0.098 0.205 0.098 0.098 0 0.179-0.080 0.080-0.063 0.080-0.179zM0.313 8.955l0.179 1.143-0.179 1.125q-0.018 0.080-0.080 0.080t-0.080-0.080l-0.152-1.125 0.152-1.143q0.018-0.080 0.080-0.080t0.080 0.080zM1.080 8.25l0.232 1.848-0.232 1.813q-0.018 0.080-0.089 0.080-0.080 0-0.080-0.089l-0.205-1.804 0.205-1.848q0-0.080 0.080-0.080 0.071 0 0.089 0.080zM1.902 7.911l0.223 2.188-0.223 2.116q0 0.098-0.098 0.098-0.089 0-0.107-0.098l-0.188-2.116 0.188-2.188q0.018-0.107 0.107-0.107 0.098 0 0.098 0.107zM2.741 7.848l0.205 2.25-0.205 2.179q-0.018 0.116-0.125 0.116-0.116 0-0.116-0.116l-0.188-2.179 0.188-2.25q0-0.116 0.116-0.116 0.107 0 0.125 0.116zM3.58 8.009l0.188 2.089-0.188 2.196q-0.018 0.143-0.143 0.143-0.054 0-0.094-0.040t-0.040-0.103l-0.179-2.196 0.179-2.089q0-0.054 0.040-0.094t0.094-0.040q0.125 0 0.143 0.134zM4.42 6.705l0.188 3.393-0.188 2.196q0 0.063-0.045 0.112t-0.107 0.049q-0.143 0-0.161-0.161l-0.161-2.196 0.161-3.393q0.018-0.161 0.161-0.161 0.063 0 0.107 0.049t0.045 0.112zM5.259 5.938l0.17 4.179-0.17 2.179q0 0.071-0.049 0.121t-0.121 0.049q-0.161 0-0.179-0.17l-0.143-2.179 0.143-4.179q0.018-0.17 0.179-0.17 0.071 0 0.121 0.049t0.049 0.121zM6.134 5.58l0.161 4.518-0.161 2.161q-0.018 0.188-0.196 0.188-0.17 0-0.188-0.188l-0.143-2.161 0.143-4.518q0-0.080 0.058-0.138t0.129-0.058q0.080 0 0.134 0.058t0.063 0.138zM9.634 12.205v0 0zM7.866 5.545l0.134 4.554-0.134 2.134q0 0.089-0.067 0.156t-0.156 0.067-0.152-0.063-0.071-0.161l-0.125-2.134 0.125-4.554q0-0.098 0.067-0.161t0.156-0.063 0.156 0.063 0.067 0.161zM8.75 5.714l0.125 4.393-0.125 2.107q0 0.098-0.071 0.17t-0.17 0.071-0.17-0.071-0.080-0.17l-0.107-2.107 0.107-4.393q0.009-0.107 0.080-0.179t0.17-0.071 0.165 0.071 0.076 0.179zM10.643 10.107l-0.125 2.063q0 0.116-0.080 0.196t-0.196 0.080-0.196-0.080-0.089-0.196l-0.054-1.018-0.054-1.045 0.107-5.679v-0.027q0.018-0.134 0.107-0.214 0.080-0.063 0.179-0.063 0.071 0 0.134 0.045 0.125 0.071 0.143 0.232zM20.571 9.938q0 1.045-0.741 1.781t-1.786 0.737h-7.018q-0.116-0.018-0.196-0.098t-0.080-0.196v-8.027q0-0.205 0.25-0.295 0.759-0.304 1.616-0.304 1.741 0 3.018 1.174t1.429 2.888q0.473-0.196 0.982-0.196 1.045 0 1.786 0.741t0.741 1.795z"></path>
</svg>
