<?xml version="1.0" encoding="utf-8"?>
<!-- Generated by IcoMoon.io -->
<!DOCTYPE svg PUBLIC "-//W3C//DTD SVG 1.1//EN" "http://www.w3.org/Graphics/SVG/1.1/DTD/svg11.dtd">
<svg version="1.1" xmlns="http://www.w3.org/2000/svg" xmlns:xlink="http://www.w3.org/1999/xlink" width="16" height="16" viewBox="0 0 16 16">
<path fill="#444444" d="M13.499 7.002c0-2.481-2.018-4.5-4.5-4.5v-0.002c-0.137-0.001-0.249-0.112-0.249-0.25s0.111-0.25 0.25-0.25c0.005 0 0.009 0.002 0.012 0.003 2.754 0.006 4.983 2.239 4.986 4.993 0 0.002 0.001 0.003 0.001 0.004 0 0.138-0.113 0.25-0.25 0.25s-0.249-0.111-0.25-0.248h-0.001zM4.561 0.439c-0.287-0.287-0.671-0.439-1.061-0.439-0.193 0-0.388 0.037-0.573 0.114-0.561 0.232-0.926 0.779-0.926 1.386l-0 6.878-1.56 1.561c-0.586 0.585-0.586 1.535 0 2.121l3.5 3.5c0.293 0.293 0.676 0.44 1.061 0.44s0.768-0.146 1.061-0.44l1.561-1.56h6.878c0.607 0 1.155-0.365 1.386-0.926 0.233-0.56 0.104-1.206-0.325-1.635l-10.999-11zM6.914 13.293l-1.561 1.56c-0.128 0.127-0.277 0.146-0.354 0.146s-0.226-0.020-0.354-0.146l-3.5-3.5c-0.127-0.128-0.146-0.277-0.146-0.354s0.019-0.226 0.146-0.354l1.56-1.56c0.005-0.005 0.006-0.011 0.010-0.015l4.213 4.213c-0.005 0.004-0.011 0.005-0.016 0.009zM7.621 13c-0.077 0-0.149 0.027-0.223 0.044l-4.442-4.442c0.017-0.074 0.045-0.146 0.045-0.223l0.001-6.023 10.643 10.645h-6.022zM14.961 12.691c-0.077 0.188-0.259 0.309-0.462 0.309h-0.149l-11.351-11.351v-0.149c0-0.203 0.121-0.385 0.308-0.462 0.062-0.026 0.126-0.038 0.191-0.038 0.134 0 0.26 0.052 0.353 0.146l10.999 11.001c0.143 0.143 0.187 0.357 0.108 0.545zM8.999 1c-0.275-0-0.499-0.225-0.499-0.5 0-0.277 0.223-0.5 0.5-0.5 0.005 0 0.009 0.002 0.012 0.003 3.858 0.007 6.983 3.135 6.986 6.994 0 0.002 0.001 0.003 0.001 0.004 0 0.277-0.223 0.5-0.5 0.5-0.275 0-0.499-0.223-0.5-0.498h-0.001c0-3.308-2.691-6-6-6v-0.002z"></path>
</svg>
