<?xml version="1.0" encoding="utf-8"?>
<!-- Generated by IcoMoon.io -->
<!DOCTYPE svg PUBLIC "-//W3C//DTD SVG 1.1//EN" "http://www.w3.org/Graphics/SVG/1.1/DTD/svg11.dtd">
<svg version="1.1" xmlns="http://www.w3.org/2000/svg" xmlns:xlink="http://www.w3.org/1999/xlink" width="19" height="16" viewBox="0 0 19 16">
<path fill="#444444" d="M5.536 10q-0.982 0.571-2.393 0.571h-1.143v-0.571h-0.571q-0.116 0-0.201-0.21t-0.085-0.504q0-0.214 0.063-0.438-0.518-0.018-0.862-0.094t-0.344-0.183 0.344-0.183 0.862-0.094q-0.063-0.223-0.063-0.438 0-0.295 0.085-0.504t0.201-0.21h0.571v-0.571h1.143q1.411 0 2.393 0.571h9.938q0.375 0.063 0.951 0.161t0.719 0.125q0.795 0.134 1.339 0.362t0.746 0.424 0.201 0.357-0.201 0.357-0.746 0.424-1.339 0.362q-0.143 0.027-0.719 0.125t-0.951 0.161h-9.938zM15.527 7.75q0.473 0.321 0.473 0.821t-0.473 0.821l0.723 0.268q0.607-0.429 0.607-1.089t-0.607-1.089zM5.58 10.143h9.063q-1.938 0.339-4.071 0.714-0.509 0-1.009 0.214t-0.741 0.429l-0.25 0.214-2.571 2.571q-0.232 0.232-0.629 0.402t-0.799 0.17h-0.857l-0.83-4.143h0.259q1.402 0 2.438-0.571zM3.143 6.429h-0.259l0.83-4.143h0.857q0.411 0 0.804 0.17t0.625 0.402l2.571 2.571q0.036 0.036 0.098 0.094t0.272 0.205 0.433 0.259 0.549 0.205 0.647 0.094l4.071 0.714h-9.063q-1.036-0.571-2.438-0.571z"></path>
</svg>
