<?xml version="1.0" encoding="utf-8"?>
<!-- Generated by IcoMoon.io -->
<!DOCTYPE svg PUBLIC "-//W3C//DTD SVG 1.1//EN" "http://www.w3.org/Graphics/SVG/1.1/DTD/svg11.dtd">
<svg version="1.1" xmlns="http://www.w3.org/2000/svg" xmlns:xlink="http://www.w3.org/1999/xlink" width="16" height="16" viewBox="0 0 16 16">
<path fill="#444444" d="M4.696 12.446q0 0.473-0.335 0.808t-0.808 0.335q-0.464 0-0.804-0.339t-0.339-0.804q0-0.473 0.335-0.808t0.808-0.335 0.808 0.335 0.335 0.808zM9.143 14.286q0 0.473-0.335 0.808t-0.808 0.335-0.808-0.335-0.335-0.808 0.335-0.808 0.808-0.335 0.808 0.335 0.335 0.808zM2.857 8q0 0.473-0.335 0.808t-0.808 0.335-0.808-0.335-0.335-0.808 0.335-0.808 0.808-0.335 0.808 0.335 0.335 0.808zM13.589 12.446q0 0.464-0.339 0.804t-0.804 0.339q-0.473 0-0.808-0.335t-0.335-0.808 0.335-0.808 0.808-0.335 0.808 0.335 0.335 0.808zM4.982 3.554q0 0.589-0.42 1.009t-1.009 0.42-1.009-0.42-0.42-1.009 0.42-1.009 1.009-0.42 1.009 0.42 0.42 1.009zM15.429 8q0 0.473-0.335 0.808t-0.808 0.335-0.808-0.335-0.335-0.808 0.335-0.808 0.808-0.335 0.808 0.335 0.335 0.808zM9.714 1.714q0 0.714-0.5 1.214t-1.214 0.5-1.214-0.5-0.5-1.214 0.5-1.214 1.214-0.5 1.214 0.5 0.5 1.214zM14.446 3.554q0 0.83-0.589 1.415t-1.411 0.585q-0.83 0-1.415-0.585t-0.585-1.415q0-0.821 0.585-1.411t1.415-0.589q0.821 0 1.411 0.589t0.589 1.411z"></path>
</svg>
