<?xml version="1.0" encoding="utf-8"?>
<!-- Generated by IcoMoon.io -->
<!DOCTYPE svg PUBLIC "-//W3C//DTD SVG 1.1//EN" "http://www.w3.org/Graphics/SVG/1.1/DTD/svg11.dtd">
<svg version="1.1" xmlns="http://www.w3.org/2000/svg" xmlns:xlink="http://www.w3.org/1999/xlink" width="14" height="16" viewBox="0 0 14 16">
<path fill="#444444" d="M10.063 10.804q0-0.286-0.268-0.455-1.723-1.027-3.991-1.027-1.188 0-2.563 0.304-0.375 0.080-0.375 0.464 0 0.179 0.121 0.308t0.317 0.129q0.045 0 0.33-0.071 1.179-0.241 2.17-0.241 2.018 0 3.545 0.92 0.17 0.098 0.295 0.098 0.17 0 0.295-0.121t0.125-0.308zM10.92 8.884q0-0.357-0.313-0.545-2.116-1.259-4.893-1.259-1.366 0-2.705 0.375-0.429 0.116-0.429 0.571 0 0.223 0.156 0.379t0.379 0.156q0.063 0 0.33-0.071 1.089-0.295 2.241-0.295 2.491 0 4.357 1.107 0.214 0.116 0.339 0.116 0.223 0 0.379-0.156t0.156-0.379zM11.884 6.67q0-0.42-0.357-0.625-1.125-0.652-2.616-0.987t-3.063-0.335q-1.821 0-3.25 0.42-0.205 0.063-0.344 0.228t-0.138 0.433q0 0.277 0.183 0.464t0.46 0.188q0.098 0 0.357-0.071 1.188-0.33 2.741-0.33 1.42 0 2.763 0.304t2.263 0.848q0.188 0.107 0.357 0.107 0.259 0 0.451-0.183t0.192-0.46zM13.714 8q0 1.866-0.92 3.442t-2.496 2.496-3.442 0.92-3.442-0.92-2.496-2.496-0.92-3.442 0.92-3.442 2.496-2.496 3.442-0.92 3.442 0.92 2.496 2.496 0.92 3.442z"></path>
</svg>
