<?xml version="1.0" encoding="utf-8"?>
<!-- Generated by IcoMoon.io -->
<!DOCTYPE svg PUBLIC "-//W3C//DTD SVG 1.1//EN" "http://www.w3.org/Graphics/SVG/1.1/DTD/svg11.dtd">
<svg version="1.1" xmlns="http://www.w3.org/2000/svg" xmlns:xlink="http://www.w3.org/1999/xlink" width="13" height="16" viewBox="0 0 13 16">
<path fill="#444444" d="M10 2.286h-7.429q-0.589 0-1.009 0.42t-0.42 1.009v7.429q0 0.589 0.42 1.009t1.009 0.42h7.429q0.589 0 1.009-0.42t0.42-1.009v-7.429q0-0.589-0.42-1.009t-1.009-0.42zM12.571 3.714v7.429q0 1.063-0.754 1.817t-1.817 0.754h-7.429q-1.063 0-1.817-0.754t-0.754-1.817v-7.429q0-1.063 0.754-1.817t1.817-0.754h7.429q1.063 0 1.817 0.754t0.754 1.817z"></path>
</svg>
