<?xml version="1.0" encoding="utf-8"?>
<!-- Generated by IcoMoon.io -->
<!DOCTYPE svg PUBLIC "-//W3C//DTD SVG 1.1//EN" "http://www.w3.org/Graphics/SVG/1.1/DTD/svg11.dtd">
<svg version="1.1" xmlns="http://www.w3.org/2000/svg" xmlns:xlink="http://www.w3.org/1999/xlink" width="16" height="16" viewBox="0 0 16 16">
<path fill="#444444" d="M15.962 9.227l-2.001-7.503c-0.121-0.426-0.517-0.725-0.961-0.725h-10c-0.445 0-0.84 0.298-0.961 0.725l-2.001 7.503c-0.025 0.091-0.038 0.182-0.038 0.273v3.5c0 1.104 0.895 2 2 2h12c1.104 0 2-0.896 2-2v-3.5c0-0.090-0.012-0.181-0.038-0.273zM15 13c0 0.551-0.449 1-1 1h-12c-0.551 0-1-0.449-1-1v-3.5l2.001-7.5h9.998l2.001 7.5v3.5zM11.871 3h-7.742c-0.227 0-0.425 0.152-0.483 0.372l-1.722 6c-0.040 0.15-0.008 0.31 0.087 0.434s0.241 0.195 0.396 0.195h2.284l0.723 1.447c0.17 0.338 0.516 0.553 0.895 0.553h3.383c0.379 0 0.725-0.214 0.895-0.553l0.723-1.447h2.284c0.155 0 0.302-0.072 0.396-0.196s0.126-0.283 0.087-0.434l-1.723-6c-0.059-0.219-0.257-0.371-0.483-0.371zM12.14 9h-0.831c-0.381 0-0.723 0.211-0.895 0.553l-0.723 1.447h-3.383l-0.724-1.447c-0.171-0.341-0.513-0.553-0.894-0.553h-2.023l1.462-5.5h7.742l1.462 5.5h-1.192z"></path>
</svg>
