<?xml version="1.0" encoding="utf-8"?>
<!-- Generated by IcoMoon.io -->
<!DOCTYPE svg PUBLIC "-//W3C//DTD SVG 1.1//EN" "http://www.w3.org/Graphics/SVG/1.1/DTD/svg11.dtd">
<svg version="1.1" xmlns="http://www.w3.org/2000/svg" xmlns:xlink="http://www.w3.org/1999/xlink" width="15" height="16" viewBox="0 0 15 16">
<path fill="#444444" d="M10.589 8.545l2.295-2.232-3.768-0.554-0.268-0.536-1.42-2.875v8.598l0.527 0.277 2.839 1.5-0.536-3.17-0.107-0.589zM14.625 6.205l-3.241 3.161 0.768 4.464q0.045 0.295-0.054 0.46t-0.304 0.165q-0.152 0-0.357-0.107l-4.009-2.107-4.009 2.107q-0.205 0.107-0.357 0.107-0.205 0-0.304-0.165t-0.054-0.46l0.768-4.464-3.25-3.161q-0.286-0.286-0.205-0.531t0.482-0.308l4.482-0.652 2.009-4.063q0.179-0.366 0.438-0.366 0.25 0 0.438 0.366l2.009 4.063 4.482 0.652q0.402 0.063 0.482 0.308t-0.214 0.531z"></path>
</svg>
