<?xml version="1.0" encoding="utf-8"?>
<!-- Generated by IcoMoon.io -->
<!DOCTYPE svg PUBLIC "-//W3C//DTD SVG 1.1//EN" "http://www.w3.org/Graphics/SVG/1.1/DTD/svg11.dtd">
<svg version="1.1" xmlns="http://www.w3.org/2000/svg" xmlns:xlink="http://www.w3.org/1999/xlink" width="16" height="16" viewBox="0 0 16 16">
<path fill="#444444" d="M15.941 6.279c-0.139-0.399-0.494-0.692-0.922-0.755l-4.163-0.619-1.809-3.757c-0.191-0.395-0.598-0.647-1.046-0.647s-0.856 0.252-1.046 0.647l-1.809 3.757-4.163 0.619c-0.427 0.064-0.783 0.356-0.921 0.755-0.138 0.401-0.034 0.841 0.269 1.143l3.051 3.046-0.708 4.226c-0.072 0.425 0.112 0.853 0.474 1.101 0.199 0.136 0.432 0.206 0.665 0.206 0.192 0 0.385-0.047 0.559-0.14l3.63-1.954 3.63 1.954c0.175 0.094 0.367 0.14 0.559 0.14 0.233 0 0.467-0.069 0.666-0.206 0.361-0.249 0.545-0.676 0.473-1.101l-0.708-4.226 3.052-3.046c0.302-0.301 0.405-0.742 0.268-1.143zM11.794 9.681c-0.256 0.255-0.372 0.614-0.313 0.967l0.708 4.226-3.63-1.953c-0.174-0.094-0.366-0.14-0.559-0.14-0.192 0-0.385 0.047-0.558 0.14l-3.63 1.953 0.708-4.226c0.059-0.352-0.057-0.712-0.313-0.967l-3.051-3.046 4.163-0.62c0.38-0.056 0.708-0.295 0.872-0.634l1.811-3.756 1.81 3.756c0.164 0.34 0.491 0.577 0.871 0.634l4.164 0.62-3.051 3.045z"></path>
</svg>
