<?xml version="1.0" encoding="utf-8"?>
<!-- Generated by IcoMoon.io -->
<!DOCTYPE svg PUBLIC "-//W3C//DTD SVG 1.1//EN" "http://www.w3.org/Graphics/SVG/1.1/DTD/svg11.dtd">
<svg version="1.1" xmlns="http://www.w3.org/2000/svg" xmlns:xlink="http://www.w3.org/1999/xlink" width="15" height="16" viewBox="0 0 15 16">
<path fill="#444444" d="M10.152 8.964l2.732-2.652-3.768-0.554-1.688-3.411-1.688 3.411-3.768 0.554 2.732 2.652-0.652 3.759 3.375-1.777 3.366 1.777zM14.857 5.777q0 0.196-0.232 0.429l-3.241 3.161 0.768 4.464q0.009 0.063 0.009 0.179 0 0.446-0.366 0.446-0.17 0-0.357-0.107l-4.009-2.107-4.009 2.107q-0.196 0.107-0.357 0.107-0.188 0-0.281-0.129t-0.094-0.317q0-0.054 0.018-0.179l0.768-4.464-3.25-3.161q-0.223-0.241-0.223-0.429 0-0.33 0.5-0.411l4.482-0.652 2.009-4.063q0.17-0.366 0.438-0.366t0.438 0.366l2.009 4.063 4.482 0.652q0.5 0.080 0.5 0.411z"></path>
</svg>
