<?xml version="1.0" encoding="utf-8"?>
<!-- Generated by IcoMoon.io -->
<!DOCTYPE svg PUBLIC "-//W3C//DTD SVG 1.1//EN" "http://www.w3.org/Graphics/SVG/1.1/DTD/svg11.dtd">
<svg version="1.1" xmlns="http://www.w3.org/2000/svg" xmlns:xlink="http://www.w3.org/1999/xlink" width="14" height="16" viewBox="0 0 14 16">
<path fill="#444444" d="M11.089 5.777q0-0.714-0.509-1.219t-1.223-0.504-1.219 0.509-0.504 1.214q0 0.714 0.504 1.219t1.219 0.504 1.223-0.504 0.509-1.219zM5.643 11.027q0 0.741-0.518 1.254t-1.25 0.513q-0.5 0-0.92-0.259t-0.643-0.688q0.464 0.179 0.875 0.357 0.536 0.214 1.071-0.013t0.759-0.772q0.214-0.536-0.013-1.071t-0.772-0.75l-0.732-0.295q0.196-0.045 0.375-0.045 0.732 0 1.25 0.513t0.518 1.254zM13.714 3.714v8.571q0 1.063-0.754 1.817t-1.817 0.754h-8.571q-1.063 0-1.817-0.754t-0.754-1.817v-1.366l1.536 0.616q0.179 0.821 0.835 1.357t1.504 0.536q0.929 0 1.616-0.625t0.777-1.545l3.080-2.25q1.339 0 2.281-0.942t0.942-2.272q0-1.339-0.942-2.281t-2.281-0.942q-1.321 0-2.259 0.933t-0.955 2.254l-2.009 2.875q-0.080-0.009-0.25-0.009-0.67 0-1.223 0.33l-2.652-1.063v-4.179q0-1.063 0.754-1.817t1.817-0.754h8.571q1.063 0 1.817 0.754t0.754 1.817zM11.509 5.795q0 0.893-0.634 1.522t-1.527 0.629-1.522-0.629-0.629-1.522 0.629-1.527 1.522-0.634q0.902 0 1.531 0.629t0.629 1.531z"></path>
</svg>
