<?xml version="1.0" encoding="utf-8"?>
<!-- Generated by IcoMoon.io -->
<!DOCTYPE svg PUBLIC "-//W3C//DTD SVG 1.1//EN" "http://www.w3.org/Graphics/SVG/1.1/DTD/svg11.dtd">
<svg version="1.1" xmlns="http://www.w3.org/2000/svg" xmlns:xlink="http://www.w3.org/1999/xlink" width="16" height="16" viewBox="0 0 16 16">
<path fill="#444444" d="M14.125 5.196q0 0.902-0.638 1.54t-1.54 0.638-1.54-0.638-0.638-1.54 0.638-1.54 1.54-0.638 1.54 0.638 0.638 1.54zM7.25 11.821q0-0.929-0.652-1.58t-1.58-0.652q-0.241 0-0.482 0.054l0.929 0.375q0.688 0.277 0.978 0.951t0.013 1.353q-0.277 0.688-0.955 0.973t-1.357 0.009q-0.188-0.071-0.554-0.219t-0.545-0.219q0.286 0.536 0.813 0.862t1.161 0.326q0.929 0 1.58-0.652t0.652-1.58zM14.661 5.205q0-1.125-0.799-1.924t-1.924-0.799q-1.134 0-1.933 0.799t-0.799 1.924q0 1.134 0.799 1.929t1.933 0.795q1.125 0 1.924-0.795t0.799-1.929zM16 5.205q0 1.688-1.192 2.875t-2.871 1.188l-3.902 2.848q-0.107 1.152-0.973 1.946t-2.045 0.795q-1.080 0-1.911-0.679t-1.054-1.714l-2.054-0.821v-3.83l3.473 1.402q0.705-0.429 1.545-0.429 0.116 0 0.313 0.018l2.536-3.634q0.018-1.67 1.21-2.848t2.862-1.179q1.679 0 2.871 1.192t1.192 2.871z"></path>
</svg>
