<?xml version="1.0" encoding="utf-8"?>
<!-- Generated by IcoMoon.io -->
<!DOCTYPE svg PUBLIC "-//W3C//DTD SVG 1.1//EN" "http://www.w3.org/Graphics/SVG/1.1/DTD/svg11.dtd">
<svg version="1.1" xmlns="http://www.w3.org/2000/svg" xmlns:xlink="http://www.w3.org/1999/xlink" width="13" height="16" viewBox="0 0 13 16">
<path fill="#444444" d="M11.429 6.286q0-0.232-0.17-0.402t-0.402-0.17-0.402 0.17-0.17 0.402 0.17 0.402 0.402 0.17 0.402-0.17 0.17-0.402zM12.571 6.286q0 0.554-0.317 0.991t-0.826 0.625v3.527q0 1.42-1.174 2.424t-2.826 1.004-2.826-1.004-1.174-2.424v-1.179q-1.464-0.179-2.446-1.143t-0.982-2.25v-4.571q0-0.232 0.17-0.402t0.402-0.17q0.054 0 0.143 0.018 0.152-0.268 0.42-0.429t0.58-0.161q0.473 0 0.808 0.335t0.335 0.808-0.335 0.808-0.808 0.335q-0.295 0-0.571-0.161v3.589q0 0.946 0.839 1.616t2.018 0.67 2.018-0.67 0.839-1.616v-3.589q-0.277 0.161-0.571 0.161-0.473 0-0.808-0.335t-0.335-0.808 0.335-0.808 0.808-0.335q0.313 0 0.58 0.161t0.42 0.429q0.089-0.018 0.143-0.018 0.232 0 0.402 0.17t0.17 0.402v4.571q0 1.286-0.982 2.25t-2.446 1.143v1.179q0 0.946 0.839 1.616t2.018 0.67 2.018-0.67 0.839-1.616v-3.527q-0.509-0.188-0.826-0.625t-0.317-0.991q0-0.714 0.5-1.214t1.214-0.5 1.214 0.5 0.5 1.214z"></path>
</svg>
