<?xml version="1.0" encoding="utf-8"?>
<!-- Generated by IcoMoon.io -->
<!DOCTYPE svg PUBLIC "-//W3C//DTD SVG 1.1//EN" "http://www.w3.org/Graphics/SVG/1.1/DTD/svg11.dtd">
<svg version="1.1" xmlns="http://www.w3.org/2000/svg" xmlns:xlink="http://www.w3.org/1999/xlink" width="14" height="16" viewBox="0 0 14 16">
<path fill="#444444" d="M12.5 11.429h-2.214v2.214q0.259-0.089 0.366-0.196l1.652-1.652q0.107-0.107 0.196-0.366zM10 10.286h2.571v-8h-11.429v11.429h8v-2.571q0-0.357 0.25-0.607t0.607-0.25zM13.714 2v9.143q0 0.357-0.179 0.786t-0.429 0.679l-1.643 1.643q-0.25 0.25-0.679 0.429t-0.786 0.179h-9.143q-0.357 0-0.607-0.25t-0.25-0.607v-12q0-0.357 0.25-0.607t0.607-0.25h12q0.357 0 0.607 0.25t0.25 0.607z"></path>
</svg>
