<?xml version="1.0" encoding="utf-8"?>
<!-- Generated by IcoMoon.io -->
<!DOCTYPE svg PUBLIC "-//W3C//DTD SVG 1.1//EN" "http://www.w3.org/Graphics/SVG/1.1/DTD/svg11.dtd">
<svg version="1.1" xmlns="http://www.w3.org/2000/svg" xmlns:xlink="http://www.w3.org/1999/xlink" width="14" height="16" viewBox="0 0 14 16">
<path fill="#444444" d="M6.857 1.143q1.866 0 3.442 0.92t2.496 2.496 0.92 3.442-0.92 3.442-2.496 2.496-3.442 0.92-3.442-0.92-2.496-2.496-0.92-3.442 0.92-3.442 2.496-2.496 3.442-0.92zM6.857 12.857q1.321 0 2.437-0.652t1.768-1.768 0.652-2.438-0.652-2.438-1.768-1.768-2.438-0.652-2.438 0.652-1.768 1.768-0.652 2.438 0.652 2.438 1.768 1.768 2.438 0.652zM4.286 10.857q-0.125 0-0.205-0.080t-0.080-0.205v-5.143q0-0.125 0.080-0.205t0.205-0.080h5.143q0.125 0 0.205 0.080t0.080 0.205v5.143q0 0.125-0.080 0.205t-0.205 0.080h-5.143z"></path>
</svg>
