<?xml version="1.0" encoding="utf-8"?>
<!-- Generated by IcoMoon.io -->
<!DOCTYPE svg PUBLIC "-//W3C//DTD SVG 1.1//EN" "http://www.w3.org/Graphics/SVG/1.1/DTD/svg11.dtd">
<svg version="1.1" xmlns="http://www.w3.org/2000/svg" xmlns:xlink="http://www.w3.org/1999/xlink" width="16" height="16" viewBox="0 0 16 16">
<path fill="#444444" d="M16 4c0-0.703-0.479-1.304-1.163-1.462l-6.506-1.502c-0.109-0.024-0.22-0.036-0.331-0.036s-0.221 0.012-0.338 0.038l-6.5 1.5c-0.685 0.158-1.163 0.759-1.163 1.462s0.478 1.304 1.163 1.462l1.337 0.309v4.229c0 1.327 1.519 2.5 5.5 2.5s5.5-1.173 5.5-2.5v-4.229l1.337-0.309c0.684-0.158 1.163-0.759 1.163-1.462zM12.5 10c0 0.553-1.5 1.5-4.5 1.5s-4.5-0.947-4.5-1.5v-3.998l4.169 0.962c0.109 0.024 0.221 0.037 0.331 0.037s0.222-0.012 0.337-0.038l4.163-0.96v3.998zM8.113 5.987c-0.037 0.008-0.075 0.013-0.113 0.013s-0.075-0.005-0.112-0.013l-6.5-1.5c-0.227-0.053-0.387-0.255-0.387-0.487s0.161-0.435 0.387-0.487l6.5-1.5c0.037-0.008 0.074-0.013 0.112-0.013s0.075 0.005 0.113 0.013l6.5 1.5c0.226 0.053 0.387 0.255 0.387 0.487s-0.161 0.435-0.387 0.487l-6.5 1.5zM14.5 6.5c0-0.277 0.223-0.5 0.5-0.5s0.5 0.223 0.5 0.5v4.5c0 0.277-0.224 0.5-0.5 0.5s-0.5-0.223-0.5-0.5v-4.5zM15 12c0.552 0 1 1.448 1 2s-0.448 1-1 1c-0.553 0-1-0.448-1-1s0.447-2 1-2z"></path>
</svg>
