<?xml version="1.0" encoding="utf-8"?>
<!-- Generated by IcoMoon.io -->
<!DOCTYPE svg PUBLIC "-//W3C//DTD SVG 1.1//EN" "http://www.w3.org/Graphics/SVG/1.1/DTD/svg11.dtd">
<svg version="1.1" xmlns="http://www.w3.org/2000/svg" xmlns:xlink="http://www.w3.org/1999/xlink" width="14" height="16" viewBox="0 0 14 16">
<path fill="#444444" d="M7.732 7.491l0.804-0.241v-0.554q0-0.705-0.518-1.205t-1.232-0.5-1.232 0.496-0.518 1.201v2.527q0 0.179-0.125 0.299t-0.295 0.121-0.29-0.121-0.121-0.299v-1.071h-1.348v1.089q0 0.732 0.513 1.241t1.246 0.509q0.723 0 1.237-0.504t0.513-1.219v-2.5q0-0.17 0.121-0.295t0.299-0.125q0.17 0 0.29 0.125t0.121 0.295v0.482zM10.705 9.232v-1.089h-1.339v1.125q0 0.179-0.121 0.299t-0.299 0.121q-0.17 0-0.29-0.125t-0.121-0.295v-1.098l-0.804 0.232-0.536-0.25v1.098q0 0.714 0.518 1.223t1.241 0.509 1.237-0.509 0.513-1.241zM13.714 8q0 1.866-0.92 3.442t-2.496 2.496-3.442 0.92-3.442-0.92-2.496-2.496-0.92-3.442 0.92-3.442 2.496-2.496 3.442-0.92 3.442 0.92 2.496 2.496 0.92 3.442z"></path>
</svg>
