<?xml version="1.0" encoding="utf-8"?>
<!-- Generated by IcoMoon.io -->
<!DOCTYPE svg PUBLIC "-//W3C//DTD SVG 1.1//EN" "http://www.w3.org/Graphics/SVG/1.1/DTD/svg11.dtd">
<svg version="1.1" xmlns="http://www.w3.org/2000/svg" xmlns:xlink="http://www.w3.org/1999/xlink" width="14" height="16" viewBox="0 0 14 16">
<path fill="#444444" d="M8.009 12.223v1.491h-2.214l-1.42-2.25-0.214-0.375q-0.071-0.080-0.098-0.188h-0.027l-0.080 0.188q-0.089 0.179-0.223 0.393l-1.384 2.232h-2.304v-1.491h1.143l1.759-2.598-1.652-2.429h-1.223v-1.5h2.464l1.241 2.036q0.018 0.036 0.205 0.375 0.071 0.080 0.098 0.188h0.027q0.027-0.080 0.098-0.188l0.223-0.375 1.25-2.036h2.295v1.5h-1.116l-1.643 2.384 1.821 2.643h0.973zM13.714 14.161v1.839h-4.589l-0.036-0.241q-0.027-0.402-0.027-0.411 0-0.571 0.232-1.045t0.58-0.772 0.75-0.58 0.75-0.487 0.58-0.482 0.232-0.571q0-0.339-0.263-0.558t-0.629-0.219q-0.455 0-0.866 0.348-0.125 0.098-0.321 0.339l-0.938-0.821q0.232-0.33 0.563-0.589 0.714-0.58 1.679-0.58 0.982 0 1.589 0.531t0.607 1.415q0 0.589-0.308 1.058t-0.75 0.768-0.888 0.558-0.777 0.563-0.366 0.652h2.071v-0.714h1.125z"></path>
</svg>
