<?xml version="1.0" encoding="utf-8"?>
<!-- Generated by IcoMoon.io -->
<!DOCTYPE svg PUBLIC "-//W3C//DTD SVG 1.1//EN" "http://www.w3.org/Graphics/SVG/1.1/DTD/svg11.dtd">
<svg version="1.1" xmlns="http://www.w3.org/2000/svg" xmlns:xlink="http://www.w3.org/1999/xlink" width="14" height="16" viewBox="0 0 14 16">
<path fill="#444444" d="M9.714 0q1.652 0 2.826 0.835t1.174 2.022v8q0 1.161-1.121 1.982t-2.728 0.866l1.902 1.804q0.143 0.134 0.071 0.313t-0.268 0.179h-9.429q-0.196 0-0.268-0.179t0.071-0.313l1.902-1.804q-1.607-0.045-2.728-0.866t-1.121-1.982v-8q0-1.188 1.174-2.022t2.826-0.835h5.714zM2.571 11.714q0.589 0 1.009-0.42t0.42-1.009-0.42-1.009-1.009-0.42-1.009 0.42-0.42 1.009 0.42 1.009 1.009 0.42zM6.286 6.857v-4.571h-4.857v4.571h4.857zM11.143 11.714q0.589 0 1.009-0.42t0.42-1.009-0.42-1.009-1.009-0.42-1.009 0.42-0.42 1.009 0.42 1.009 1.009 0.42zM12.571 6.857v-4.571h-5.143v4.571h5.143z"></path>
</svg>
