<?xml version="1.0" encoding="utf-8"?>
<!-- Generated by IcoMoon.io -->
<!DOCTYPE svg PUBLIC "-//W3C//DTD SVG 1.1//EN" "http://www.w3.org/Graphics/SVG/1.1/DTD/svg11.dtd">
<svg version="1.1" xmlns="http://www.w3.org/2000/svg" xmlns:xlink="http://www.w3.org/1999/xlink" width="16" height="16" viewBox="0 0 16 16">
<path fill="#444444" d="M5.714 3.429h4.571v-1.143h-4.571v1.143zM2.571 3.429v11.429h-0.571q-0.821 0-1.411-0.589t-0.589-1.411v-7.429q0-0.821 0.589-1.411t1.411-0.589h0.571zM12.571 3.429v11.429h-9.143v-11.429h1.143v-1.429q0-0.357 0.25-0.607t0.607-0.25h5.143q0.357 0 0.607 0.25t0.25 0.607v1.429h1.143zM16 5.429v7.429q0 0.821-0.589 1.411t-1.411 0.589h-0.571v-11.429h0.571q0.821 0 1.411 0.589t0.589 1.411z"></path>
</svg>
