<?xml version="1.0" encoding="utf-8"?>
<!-- Generated by IcoMoon.io -->
<!DOCTYPE svg PUBLIC "-//W3C//DTD SVG 1.1//EN" "http://www.w3.org/Graphics/SVG/1.1/DTD/svg11.dtd">
<svg version="1.1" xmlns="http://www.w3.org/2000/svg" xmlns:xlink="http://www.w3.org/1999/xlink" width="16" height="16" viewBox="0 0 16 16">
<path fill="#444444" d="M13.143 8q0-1.045-0.406-1.996t-1.098-1.643-1.643-1.098-1.996-0.406-1.996 0.406-1.643 1.098-1.098 1.643-0.406 1.996 0.406 1.996 1.098 1.643 1.643 1.098 1.996 0.406 1.996-0.406 1.643-1.098 1.098-1.643 0.406-1.996zM15.607 10.473q-0.036 0.134-0.179 0.179l-2.607 0.857v2.732q0 0.143-0.116 0.232-0.134 0.089-0.259 0.036l-2.607-0.839-1.607 2.214q-0.089 0.116-0.232 0.116t-0.232-0.116l-1.607-2.214-2.607 0.839q-0.125 0.054-0.259-0.036-0.116-0.089-0.116-0.232v-2.732l-2.607-0.857q-0.143-0.045-0.179-0.179-0.045-0.152 0.036-0.259l1.607-2.214-1.607-2.214q-0.080-0.116-0.036-0.259 0.036-0.134 0.179-0.179l2.607-0.857v-2.732q0-0.143 0.116-0.232 0.134-0.089 0.259-0.036l2.607 0.839 1.607-2.214q0.080-0.107 0.232-0.107t0.232 0.107l1.607 2.214 2.607-0.839q0.125-0.054 0.259 0.036 0.116 0.089 0.116 0.232v2.732l2.607 0.857q0.143 0.045 0.179 0.179 0.045 0.143-0.036 0.259l-1.607 2.214 1.607 2.214q0.080 0.107 0.036 0.259z"></path>
</svg>
