<?xml version="1.0" encoding="utf-8"?>
<!-- Generated by IcoMoon.io -->
<!DOCTYPE svg PUBLIC "-//W3C//DTD SVG 1.1//EN" "http://www.w3.org/Graphics/SVG/1.1/DTD/svg11.dtd">
<svg version="1.1" xmlns="http://www.w3.org/2000/svg" xmlns:xlink="http://www.w3.org/1999/xlink" width="16" height="16" viewBox="0 0 16 16">
<path fill="#444444" d="M15.625 3.219l-2.5-2c-0.178-0.142-0.399-0.219-0.625-0.219h-9c-0.227 0-0.447 0.077-0.625 0.219l-2.5 2c-0.327 0.262-0.456 0.7-0.324 1.097l1 3c0.099 0.295 0.329 0.529 0.625 0.63 0.105 0.036 0.215 0.054 0.324 0.054 0.174 0 0.346-0.045 0.5-0.134v6.134c0 0.552 0.448 1 1 1h9c0.552 0 1-0.448 1-1v-6.134c0.153 0.088 0.326 0.134 0.5 0.134 0.11 0 0.219-0.018 0.324-0.054 0.295-0.101 0.525-0.334 0.624-0.63l1-3c0.133-0.397 0.004-0.836-0.323-1.098zM9.877 2c-0.277 0.58-1.009 1-1.877 1s-1.601-0.42-1.877-1h3.754zM14 7l-1.5-1v8h-9v-8l-1.5 1-1-3 2.5-2h2.088c0.279 0.861 1.248 1.5 2.412 1.5s2.133-0.639 2.411-1.5h2.089l2.5 2-1 3z"></path>
</svg>
