<?xml version="1.0" encoding="utf-8"?>
<!-- Generated by IcoMoon.io -->
<!DOCTYPE svg PUBLIC "-//W3C//DTD SVG 1.1//EN" "http://www.w3.org/Graphics/SVG/1.1/DTD/svg11.dtd">
<svg version="1.1" xmlns="http://www.w3.org/2000/svg" xmlns:xlink="http://www.w3.org/1999/xlink" width="10" height="16" viewBox="0 0 10 16">
<path fill="#444444" d="M5.714 12.571q0-0.232-0.17-0.402t-0.402-0.17-0.402 0.17-0.17 0.402 0.17 0.402 0.402 0.17 0.402-0.17 0.17-0.402zM9.143 11.143v-8.571q0-0.116-0.085-0.201t-0.201-0.085h-7.429q-0.116 0-0.201 0.085t-0.085 0.201v8.571q0 0.116 0.085 0.201t0.201 0.085h7.429q0.116 0 0.201-0.085t0.085-0.201zM10.286 2.571v9.714q0 0.589-0.42 1.009t-1.009 0.42h-7.429q-0.589 0-1.009-0.42t-0.42-1.009v-9.714q0-0.589 0.42-1.009t1.009-0.42h7.429q0.589 0 1.009 0.42t0.42 1.009z"></path>
</svg>
