<?xml version="1.0" encoding="utf-8"?>
<!-- Generated by IcoMoon.io -->
<!DOCTYPE svg PUBLIC "-//W3C//DTD SVG 1.1//EN" "http://www.w3.org/Graphics/SVG/1.1/DTD/svg11.dtd">
<svg version="1.1" xmlns="http://www.w3.org/2000/svg" xmlns:xlink="http://www.w3.org/1999/xlink" width="16" height="16" viewBox="0 0 16 16">
<path fill="#444444" d="M15.695 6.941l-2.5-4c-0.365-0.585-1.006-0.94-1.695-0.94h-9.5c-1.105 0-2 0.895-2 2v8c0 1.104 0.895 2 2 2h9.5c0.69 0 1.33-0.355 1.695-0.941l2.5-4c0.406-0.648 0.406-1.471 0-2.12zM14.848 8.531l-2.5 4.001c-0.184 0.294-0.501 0.47-0.848 0.47h-9.5c-0.551 0-1-0.449-1-1v-8c0-0.551 0.449-1 1-1h9.5c0.347 0 0.664 0.176 0.848 0.47l2.5 4c0.201 0.322 0.201 0.739 0 1.060zM11.5 6.502c-0.829 0-1.5 0.671-1.5 1.5s0.671 1.5 1.5 1.5c0.828 0 1.5-0.672 1.5-1.5s-0.672-1.5-1.5-1.5zM11.5 9.002c-0.553 0-1-0.448-1-1s0.447-1 1-1c0.552 0 1 0.448 1 1s-0.448 1-1 1z"></path>
</svg>
