<?xml version="1.0" encoding="utf-8"?>
<!-- Generated by IcoMoon.io -->
<!DOCTYPE svg PUBLIC "-//W3C//DTD SVG 1.1//EN" "http://www.w3.org/Graphics/SVG/1.1/DTD/svg11.dtd">
<svg version="1.1" xmlns="http://www.w3.org/2000/svg" xmlns:xlink="http://www.w3.org/1999/xlink" width="16" height="16" viewBox="0 0 16 16">
<path fill="#444444" d="M9.143 12.571h5.714v-1.143h-5.714v1.143zM5.714 8h9.143v-1.143h-9.143v1.143zM11.429 3.429h3.429v-1.143h-3.429v1.143zM16 10.857v2.286q0 0.232-0.17 0.402t-0.402 0.17h-14.857q-0.232 0-0.402-0.17t-0.17-0.402v-2.286q0-0.232 0.17-0.402t0.402-0.17h14.857q0.232 0 0.402 0.17t0.17 0.402zM16 6.286v2.286q0 0.232-0.17 0.402t-0.402 0.17h-14.857q-0.232 0-0.402-0.17t-0.17-0.402v-2.286q0-0.232 0.17-0.402t0.402-0.17h14.857q0.232 0 0.402 0.17t0.17 0.402zM16 1.714v2.286q0 0.232-0.17 0.402t-0.402 0.17h-14.857q-0.232 0-0.402-0.17t-0.17-0.402v-2.286q0-0.232 0.17-0.402t0.402-0.17h14.857q0.232 0 0.402 0.17t0.17 0.402z"></path>
</svg>
