<?xml version="1.0" encoding="utf-8"?>
<!-- Generated by IcoMoon.io -->
<!DOCTYPE svg PUBLIC "-//W3C//DTD SVG 1.1//EN" "http://www.w3.org/Graphics/SVG/1.1/DTD/svg11.dtd">
<svg version="1.1" xmlns="http://www.w3.org/2000/svg" xmlns:xlink="http://www.w3.org/1999/xlink" width="17" height="16" viewBox="0 0 17 16">
<path fill="#444444" d="M16 11.143v-8.571q0-0.116-0.085-0.201t-0.201-0.085h-14.286q-0.116 0-0.201 0.085t-0.085 0.201v8.571q0 0.116 0.085 0.201t0.201 0.085h14.286q0.116 0 0.201-0.085t0.085-0.201zM17.143 2.571v8.571q0 0.589-0.42 1.009t-1.009 0.42h-6.571v1.143h3.143q0.125 0 0.205 0.080t0.080 0.205v0.571q0 0.125-0.080 0.205t-0.205 0.080h-7.429q-0.125 0-0.205-0.080t-0.080-0.205v-0.571q0-0.125 0.080-0.205t0.205-0.080h3.143v-1.143h-6.571q-0.589 0-1.009-0.42t-0.42-1.009v-8.571q0-0.589 0.42-1.009t1.009-0.42h14.286q0.589 0 1.009 0.42t0.42 1.009z"></path>
</svg>
