<?xml version="1.0" encoding="utf-8"?>
<!-- Generated by IcoMoon.io -->
<!DOCTYPE svg PUBLIC "-//W3C//DTD SVG 1.1//EN" "http://www.w3.org/Graphics/SVG/1.1/DTD/svg11.dtd">
<svg version="1.1" xmlns="http://www.w3.org/2000/svg" xmlns:xlink="http://www.w3.org/1999/xlink" width="11" height="16" viewBox="0 0 11 16">
<path fill="#444444" d="M7.518 5.107q0 0.714-0.509 1.219t-1.214 0.504q-0.536 0-0.991-0.313-0.554 0.598-1.027 1.304-2.205 3.313-1.804 7.67 0.009 0.196-0.112 0.344t-0.308 0.165h-0.045q-0.179 0-0.313-0.121t-0.152-0.299q-0.125-1.125-0.031-2.21t0.263-1.938 0.482-1.661 0.616-1.388 0.661-1.116q0.545-0.804 1.179-1.473-0.143-0.313-0.143-0.688 0-0.714 0.504-1.219t1.219-0.504 1.219 0.504 0.504 1.219zM10.92 5.205q0 1.411-0.696 2.607t-1.897 1.893-2.612 0.696q-0.571 0-1.17-0.125-0.188-0.045-0.29-0.21t-0.058-0.353q0.045-0.179 0.205-0.281t0.348-0.067q0.455 0.116 0.964 0.116 0.866 0 1.661-0.339t1.366-0.911 0.911-1.366 0.339-1.661-0.339-1.661-0.911-1.366-1.366-0.911-1.661-0.339-1.661 0.339-1.366 0.911-0.911 1.366-0.339 1.661q0 1.018 0.464 1.946 0.089 0.179 0.031 0.357t-0.228 0.268-0.353 0.027-0.272-0.232q-0.571-1.098-0.571-2.366 0-1.063 0.415-2.027t1.112-1.661 1.661-1.107 2.018-0.411q1.411 0 2.612 0.696t1.897 1.897 0.696 2.612z"></path>
</svg>
