<?xml version="1.0" encoding="utf-8"?>
<!-- Generated by IcoMoon.io -->
<!DOCTYPE svg PUBLIC "-//W3C//DTD SVG 1.1//EN" "http://www.w3.org/Graphics/SVG/1.1/DTD/svg11.dtd">
<svg version="1.1" xmlns="http://www.w3.org/2000/svg" xmlns:xlink="http://www.w3.org/1999/xlink" width="15" height="16" viewBox="0 0 15 16">
<path fill="#444444" d="M5.223 8.777l-4.161 4.161q-0.089 0.089-0.205 0.089t-0.205-0.089l-0.446-0.446q-0.089-0.089-0.089-0.205t0.089-0.205l3.509-3.509-3.509-3.509q-0.089-0.089-0.089-0.205t0.089-0.205l0.446-0.446q0.089-0.089 0.205-0.089t0.205 0.089l4.161 4.161q0.089 0.089 0.089 0.205t-0.089 0.205zM14.857 12.857v0.571q0 0.125-0.080 0.205t-0.205 0.080h-8.571q-0.125 0-0.205-0.080t-0.080-0.205v-0.571q0-0.125 0.080-0.205t0.205-0.080h8.571q0.125 0 0.205 0.080t0.080 0.205z"></path>
</svg>
