<?xml version="1.0" encoding="utf-8"?>
<!-- Generated by IcoMoon.io -->
<!DOCTYPE svg PUBLIC "-//W3C//DTD SVG 1.1//EN" "http://www.w3.org/Graphics/SVG/1.1/DTD/svg11.dtd">
<svg version="1.1" xmlns="http://www.w3.org/2000/svg" xmlns:xlink="http://www.w3.org/1999/xlink" width="14" height="16" viewBox="0 0 14 16">
<path fill="#444444" d="M0.723 1.152l0.482 0.241q0.107 0.045 1.884 0.045 0.393 0 1.179-0.018t1.179-0.018q0.625 0 2.201-0.009t2.719-0.004 2.205 0.040q0.295 0.009 0.5-0.277l0.375-0.009q0.036 0 0.125 0.004t0.125 0.004q0.018 1 0.018 3 0 0.714-0.045 0.973-0.348 0.125-0.607 0.161-0.223-0.393-0.482-1.143-0.027-0.080-0.098-0.424t-0.134-0.656-0.063-0.321q-0.089-0.116-0.241-0.17-0.045-0.018-0.589-0.018-0.268 0-0.83-0.009t-0.92-0.009-0.839 0.018-0.857 0.063q-0.080 0.723-0.071 1.214l0.009 1.357v-0.464q0 0.491 0.009 1.375t0.013 1.607 0.004 1.366q0 0.143-0.022 0.638t0 0.817 0.112 0.616q0.357 0.188 1.107 0.379t1.071 0.335q0.045 0.357 0.045 0.446 0 0.125-0.027 0.259l-0.304 0.009q-0.679 0.018-1.946-0.071t-1.848-0.089q-0.446 0-1.348 0.080t-1.357 0.080q-0.027-0.455-0.027-0.464v-0.080q0.152-0.241 0.549-0.384t0.879-0.259 0.696-0.241q0.063-0.143 0.103-0.661t0.054-1.299 0.013-1.384-0.004-1.371-0.004-0.795q0-0.063-0.022-0.192t-0.022-0.201q0-0.063 0.004-0.393t0.009-0.652 0-0.683-0.027-0.603-0.058-0.286q-0.098-0.107-1.446-0.107-0.366 0-1.455 0.121t-1.232 0.219q-0.17 0.107-0.304 0.638t-0.281 0.996-0.379 0.482q-0.375-0.232-0.5-0.393v-3.42zM11.696 12.598q0.107 0 0.375 0.174t0.513 0.371 0.531 0.438 0.321 0.268q0.232 0.188 0.232 0.438t-0.232 0.438q-0.036 0.027-0.321 0.268t-0.531 0.438-0.513 0.371-0.375 0.174q-0.116 0-0.183-0.094t-0.089-0.254-0.022-0.299 0.013-0.295 0.013-0.174h-9.143q0 0.018 0.013 0.174t0.013 0.295-0.022 0.299-0.089 0.254-0.183 0.094q-0.107 0-0.375-0.174t-0.513-0.371-0.531-0.438-0.321-0.268q-0.232-0.188-0.232-0.438t0.232-0.438q0.036-0.027 0.321-0.268t0.531-0.438 0.513-0.371 0.375-0.174q0.116 0 0.183 0.094t0.089 0.254 0.022 0.299-0.013 0.295-0.013 0.174h9.143q0-0.018-0.013-0.174t-0.013-0.295 0.022-0.299 0.089-0.254 0.183-0.094z"></path>
</svg>
