<?xml version="1.0" encoding="utf-8"?>
<!-- Generated by IcoMoon.io -->
<!DOCTYPE svg PUBLIC "-//W3C//DTD SVG 1.1//EN" "http://www.w3.org/Graphics/SVG/1.1/DTD/svg11.dtd">
<svg version="1.1" xmlns="http://www.w3.org/2000/svg" xmlns:xlink="http://www.w3.org/1999/xlink" width="14" height="16" viewBox="0 0 14 16">
<path fill="#444444" d="M2.286 5.143q0 0.232-0.17 0.402t-0.402 0.17q-0.241 0-0.406-0.17t-0.165-0.402q0-0.241 0.165-0.406t0.406-0.165q0.232 0 0.402 0.165t0.17 0.406zM3.714 9.714v-5.714q0-0.232-0.17-0.402t-0.402-0.17h-2.571q-0.232 0-0.402 0.17t-0.17 0.402v5.714q0 0.232 0.17 0.402t0.402 0.17h2.571q0.232 0 0.402-0.17t0.17-0.402zM13.795 8.384q0.491 0.545 0.491 1.33-0.009 0.696-0.513 1.205t-1.201 0.509h-2.473q0.036 0.125 0.071 0.214t0.098 0.196 0.089 0.161q0.161 0.33 0.241 0.509t0.17 0.522 0.089 0.683q0 0.214-0.004 0.348t-0.045 0.402-0.107 0.446-0.214 0.402-0.357 0.362-0.536 0.232-0.737 0.094q-0.232 0-0.402-0.17-0.179-0.179-0.304-0.446t-0.174-0.464-0.112-0.545q-0.080-0.375-0.121-0.54t-0.156-0.433-0.277-0.429q-0.295-0.295-0.902-1.071-0.438-0.571-0.902-1.080t-0.679-0.527q-0.223-0.018-0.384-0.183t-0.161-0.388v-5.723q0-0.232 0.17-0.397t0.402-0.174q0.313-0.009 1.411-0.393 0.688-0.232 1.076-0.353t1.085-0.259 1.286-0.138h1.152q1.188 0.018 1.759 0.696 0.518 0.616 0.438 1.616 0.348 0.33 0.482 0.839 0.152 0.545 0 1.045 0.411 0.545 0.384 1.223 0 0.286-0.134 0.679z"></path>
</svg>
