<?xml version="1.0" encoding="utf-8"?>
<!-- Generated by IcoMoon.io -->
<!DOCTYPE svg PUBLIC "-//W3C//DTD SVG 1.1//EN" "http://www.w3.org/Graphics/SVG/1.1/DTD/svg11.dtd">
<svg version="1.1" xmlns="http://www.w3.org/2000/svg" xmlns:xlink="http://www.w3.org/1999/xlink" width="14" height="16" viewBox="0 0 14 16">
<path fill="#444444" d="M2.286 12q0-0.232-0.17-0.402t-0.402-0.17q-0.241 0-0.406 0.17t-0.165 0.402q0 0.241 0.165 0.406t0.406 0.165q0.232 0 0.402-0.165t0.17-0.406zM3.714 7.429v5.714q0 0.232-0.17 0.402t-0.402 0.17h-2.571q-0.232 0-0.402-0.17t-0.17-0.402v-5.714q0-0.232 0.17-0.402t0.402-0.17h2.571q0.232 0 0.402 0.17t0.17 0.402zM14.286 7.429q0 0.768-0.491 1.33 0.134 0.393 0.134 0.679 0.027 0.679-0.384 1.223 0.152 0.5 0 1.045-0.134 0.509-0.482 0.839 0.080 1-0.438 1.616-0.571 0.679-1.759 0.696h-1.152q-0.589 0-1.286-0.138t-1.085-0.259-1.076-0.353q-1.098-0.384-1.411-0.393-0.232-0.009-0.402-0.174t-0.17-0.397v-5.723q0-0.223 0.161-0.388t0.384-0.183q0.214-0.018 0.679-0.527t0.902-1.080q0.607-0.777 0.902-1.071 0.161-0.161 0.277-0.429t0.156-0.433 0.121-0.54q0.063-0.348 0.112-0.545t0.174-0.464 0.304-0.446q0.17-0.17 0.402-0.17 0.411 0 0.737 0.094t0.536 0.232 0.357 0.362 0.214 0.402 0.107 0.446 0.045 0.402 0.004 0.348q0 0.339-0.085 0.679t-0.17 0.536-0.246 0.5q-0.027 0.054-0.089 0.161t-0.098 0.196-0.071 0.214h2.473q0.696 0 1.205 0.509t0.509 1.205z"></path>
</svg>
