<?xml version="1.0" encoding="utf-8"?>
<!-- Generated by IcoMoon.io -->
<!DOCTYPE svg PUBLIC "-//W3C//DTD SVG 1.1//EN" "http://www.w3.org/Graphics/SVG/1.1/DTD/svg11.dtd">
<svg version="1.1" xmlns="http://www.w3.org/2000/svg" xmlns:xlink="http://www.w3.org/1999/xlink" width="14" height="16" viewBox="0 0 14 16">
<path fill="#444444" d="M2.286 12q0-0.232-0.17-0.402t-0.402-0.17-0.402 0.17-0.17 0.402 0.17 0.402 0.402 0.17 0.402-0.17 0.17-0.402zM12.571 6.857q0-0.455-0.348-0.799t-0.795-0.344h-3.143q0-0.518 0.429-1.424t0.429-1.433q0-0.875-0.286-1.295t-1.143-0.42q-0.232 0.232-0.339 0.759t-0.272 1.121-0.531 0.978q-0.196 0.205-0.688 0.813-0.036 0.045-0.205 0.268t-0.281 0.366-0.308 0.379-0.357 0.393-0.344 0.317-0.357 0.241-0.317 0.080h-0.286v5.714h0.286q0.116 0 0.281 0.027t0.295 0.058 0.339 0.098 0.313 0.103 0.317 0.112 0.259 0.094q1.884 0.652 3.054 0.652h1.080q1.714 0 1.714-1.491 0-0.232-0.045-0.5 0.268-0.143 0.424-0.469t0.156-0.656-0.161-0.616q0.473-0.446 0.473-1.063 0-0.223-0.089-0.496t-0.223-0.424q0.286-0.009 0.478-0.42t0.192-0.723zM13.714 6.848q0 0.795-0.438 1.455 0.080 0.295 0.080 0.616 0 0.688-0.339 1.286 0.027 0.188 0.027 0.384 0 0.902-0.536 1.589 0.009 1.241-0.759 1.96t-2.027 0.719h-1.152q-0.857 0-1.692-0.201t-1.933-0.585q-1.036-0.357-1.232-0.357h-2.571q-0.473 0-0.808-0.335t-0.335-0.808v-5.714q0-0.473 0.335-0.808t0.808-0.335h2.446q0.321-0.214 1.223-1.384 0.518-0.67 0.955-1.143 0.214-0.223 0.317-0.763t0.272-1.129 0.554-0.964q0.348-0.33 0.804-0.33 0.75 0 1.348 0.29t0.911 0.906 0.313 1.661q0 0.83-0.429 1.714h1.571q0.929 0 1.607 0.679t0.679 1.598z"></path>
</svg>
