<?xml version="1.0" encoding="utf-8"?>
<!-- Generated by IcoMoon.io -->
<!DOCTYPE svg PUBLIC "-//W3C//DTD SVG 1.1//EN" "http://www.w3.org/Graphics/SVG/1.1/DTD/svg11.dtd">
<svg version="1.1" xmlns="http://www.w3.org/2000/svg" xmlns:xlink="http://www.w3.org/1999/xlink" width="10" height="16" viewBox="0 0 10 16">
<path fill="#444444" d="M4.286 7.714v-4q0-0.125-0.080-0.205t-0.205-0.080-0.205 0.080-0.080 0.205v4q0 0.125 0.080 0.205t0.205 0.080 0.205-0.080 0.080-0.205zM10.286 10.857q0 0.232-0.17 0.402t-0.402 0.17h-3.83l-0.455 4.313q-0.018 0.107-0.094 0.183t-0.183 0.076h-0.009q-0.241 0-0.286-0.241l-0.679-4.33h-3.607q-0.232 0-0.402-0.17t-0.17-0.402q0-1.098 0.701-1.978t1.585-0.879v-4.571q-0.464 0-0.804-0.339t-0.339-0.804 0.339-0.804 0.804-0.339h5.714q0.464 0 0.804 0.339t0.339 0.804-0.339 0.804-0.804 0.339v4.571q0.884 0 1.585 0.879t0.701 1.978z"></path>
</svg>
