<?xml version="1.0" encoding="utf-8"?>
<!-- Generated by IcoMoon.io -->
<!DOCTYPE svg PUBLIC "-//W3C//DTD SVG 1.1//EN" "http://www.w3.org/Graphics/SVG/1.1/DTD/svg11.dtd">
<svg version="1.1" xmlns="http://www.w3.org/2000/svg" xmlns:xlink="http://www.w3.org/1999/xlink" width="14" height="16" viewBox="0 0 14 16">
<path fill="#444444" d="M2.286 4q0-0.232-0.17-0.402t-0.402-0.17-0.402 0.17-0.17 0.402 0.17 0.402 0.402 0.17 0.402-0.17 0.17-0.402zM12.571 9.143q0-0.313-0.192-0.723t-0.478-0.42q0.134-0.152 0.223-0.424t0.089-0.496q0-0.616-0.473-1.063 0.161-0.286 0.161-0.616t-0.156-0.656-0.424-0.469q0.045-0.268 0.045-0.5 0-0.759-0.438-1.125t-1.214-0.366h-1.143q-1.17 0-3.054 0.652-0.045 0.018-0.259 0.094t-0.317 0.112-0.313 0.103-0.339 0.098-0.295 0.058-0.281 0.027h-0.286v5.714h0.286q0.143 0 0.317 0.080t0.357 0.241 0.344 0.317 0.357 0.393 0.308 0.379 0.281 0.366 0.205 0.268q0.491 0.607 0.688 0.813 0.366 0.384 0.531 0.978t0.272 1.121 0.339 0.759q0.857 0 1.143-0.42t0.286-1.295q0-0.527-0.429-1.433t-0.429-1.424h3.143q0.446 0 0.795-0.344t0.348-0.799zM13.714 9.152q0 0.92-0.679 1.598t-1.607 0.679h-1.571q0.429 0.884 0.429 1.714 0 1.054-0.313 1.661-0.313 0.616-0.911 0.906t-1.348 0.29q-0.455 0-0.804-0.33-0.304-0.295-0.482-0.732t-0.228-0.808-0.156-0.754-0.277-0.571q-0.429-0.446-0.955-1.134-0.902-1.17-1.223-1.384h-2.446q-0.473 0-0.808-0.335t-0.335-0.808v-5.714q0-0.473 0.335-0.808t0.808-0.335h2.571q0.196 0 1.232-0.357 1.143-0.393 1.991-0.589t1.786-0.196h1q1.25 0 2.022 0.705t0.763 1.929v0.045q0.536 0.688 0.536 1.589 0 0.196-0.027 0.384 0.339 0.598 0.339 1.286 0 0.321-0.080 0.616 0.438 0.661 0.438 1.455z"></path>
</svg>
