<?xml version="1.0" encoding="utf-8"?>
<!-- Generated by IcoMoon.io -->
<!DOCTYPE svg PUBLIC "-//W3C//DTD SVG 1.1//EN" "http://www.w3.org/Graphics/SVG/1.1/DTD/svg11.dtd">
<svg version="1.1" xmlns="http://www.w3.org/2000/svg" xmlns:xlink="http://www.w3.org/1999/xlink" width="14" height="16" viewBox="0 0 14 16">
<path fill="#444444" d="M10.259 10.018q0-0.232-0.17-0.402l-1.616-1.616 1.616-1.616q0.17-0.17 0.17-0.402 0-0.241-0.17-0.411l-0.804-0.804q-0.17-0.17-0.411-0.17-0.232 0-0.402 0.17l-1.616 1.616-1.616-1.616q-0.17-0.17-0.402-0.17-0.241 0-0.411 0.17l-0.804 0.804q-0.17 0.17-0.17 0.411 0 0.232 0.17 0.402l1.616 1.616-1.616 1.616q-0.17 0.17-0.17 0.402 0 0.241 0.17 0.411l0.804 0.804q0.17 0.17 0.411 0.17 0.232 0 0.402-0.17l1.616-1.616 1.616 1.616q0.17 0.17 0.402 0.17 0.241 0 0.411-0.17l0.804-0.804q0.17-0.17 0.17-0.411zM13.714 8q0 1.866-0.92 3.442t-2.496 2.496-3.442 0.92-3.442-0.92-2.496-2.496-0.92-3.442 0.92-3.442 2.496-2.496 3.442-0.92 3.442 0.92 2.496 2.496 0.92 3.442z"></path>
</svg>
