<?xml version="1.0" encoding="utf-8"?>
<!-- Generated by IcoMoon.io -->
<!DOCTYPE svg PUBLIC "-//W3C//DTD SVG 1.1//EN" "http://www.w3.org/Graphics/SVG/1.1/DTD/svg11.dtd">
<svg version="1.1" xmlns="http://www.w3.org/2000/svg" xmlns:xlink="http://www.w3.org/1999/xlink" width="9" height="16" viewBox="0 0 9 16">
<path fill="#444444" d="M4.571 10.286q0-0.321-0.179-0.616-0.009-0.009-0.138-0.201t-0.228-0.339-0.223-0.393-0.188-0.451q-0.036-0.143-0.188-0.143t-0.188 0.143q-0.063 0.205-0.188 0.451t-0.223 0.393-0.228 0.339-0.138 0.201q-0.179 0.295-0.179 0.616 0 0.473 0.335 0.808t0.808 0.335 0.808-0.335 0.335-0.808zM9.143 9.143q0 1.893-1.339 3.232t-3.232 1.339-3.232-1.339-1.339-3.232q0-1.295 0.723-2.455 0.054-0.080 0.558-0.808t0.902-1.348 0.888-1.589 0.741-1.799q0.080-0.268 0.304-0.42t0.455-0.152 0.46 0.152 0.299 0.42q0.25 0.83 0.741 1.799t0.888 1.589 0.902 1.348 0.558 0.808q0.723 1.134 0.723 2.455z"></path>
</svg>
