<?xml version="1.0" encoding="utf-8"?>
<!-- Generated by IcoMoon.io -->
<!DOCTYPE svg PUBLIC "-//W3C//DTD SVG 1.1//EN" "http://www.w3.org/Graphics/SVG/1.1/DTD/svg11.dtd">
<svg version="1.1" xmlns="http://www.w3.org/2000/svg" xmlns:xlink="http://www.w3.org/1999/xlink" width="18" height="16" viewBox="0 0 18 16">
<path fill="#444444" d="M0 8q0-1.161 0.455-2.219t1.219-1.821 1.821-1.219 2.219-0.455h6.857q1.161 0 2.219 0.455t1.821 1.219 1.219 1.821 0.455 2.219-0.455 2.219-1.219 1.821-1.821 1.219-2.219 0.455h-6.857q-1.161 0-2.219-0.455t-1.821-1.219-1.219-1.821-0.455-2.219zM12.571 12.571q0.929 0 1.772-0.362t1.46-0.978 0.978-1.46 0.362-1.772-0.362-1.772-0.978-1.46-1.46-0.978-1.772-0.362-1.772 0.362-1.46 0.978-0.978 1.46-0.362 1.772 0.362 1.772 0.978 1.46 1.46 0.978 1.772 0.362z"></path>
</svg>
