<?xml version="1.0" encoding="utf-8"?>
<!-- Generated by IcoMoon.io -->
<!DOCTYPE svg PUBLIC "-//W3C//DTD SVG 1.1//EN" "http://www.w3.org/Graphics/SVG/1.1/DTD/svg11.dtd">
<svg version="1.1" xmlns="http://www.w3.org/2000/svg" xmlns:xlink="http://www.w3.org/1999/xlink" width="18" height="16" viewBox="0 0 18 16">
<path fill="#444444" d="M7.652 4.857v1.045q0 0.116-0.085 0.196t-0.201 0.080h-2.661v7.25q0 0.116-0.080 0.201t-0.196 0.085h-1.205q-0.116 0-0.201-0.080t-0.085-0.205v-7.25h-2.652q-0.116 0-0.201-0.080t-0.085-0.196v-1.045q0-0.125 0.080-0.205t0.205-0.080h7.080q0.116 0 0.201 0.085t0.085 0.201zM16.92 4.83l0.688 8.58q0.009 0.116-0.071 0.214-0.089 0.089-0.205 0.089h-1.196q-0.107 0-0.188-0.076t-0.089-0.183l-0.411-5.25-1.688 3.795q-0.071 0.17-0.259 0.17h-1.071q-0.179 0-0.259-0.17l-1.679-3.813-0.402 5.268q-0.009 0.107-0.089 0.183t-0.188 0.076h-1.205q-0.116 0-0.205-0.089-0.080-0.089-0.080-0.214l0.696-8.58q0.009-0.107 0.089-0.183t0.188-0.076h1.268q0.179 0 0.259 0.17l1.964 4.643q0.089 0.214 0.179 0.455 0.027-0.063 0.085-0.219t0.094-0.237l1.973-4.643q0.080-0.17 0.259-0.17h1.259q0.116 0 0.196 0.076t0.089 0.183z"></path>
</svg>
