<?xml version="1.0" encoding="utf-8"?>
<!-- Generated by IcoMoon.io -->
<!DOCTYPE svg PUBLIC "-//W3C//DTD SVG 1.1//EN" "http://www.w3.org/Graphics/SVG/1.1/DTD/svg11.dtd">
<svg version="1.1" xmlns="http://www.w3.org/2000/svg" xmlns:xlink="http://www.w3.org/1999/xlink" width="15" height="16" viewBox="0 0 15 16">
<path fill="#444444" d="M11.429 0.286q0-0.125 0.080-0.205t0.205-0.080h2.571q0.232 0 0.402 0.17t0.17 0.402v2.571q0 0.125-0.080 0.205t-0.205 0.080h-0.571q-0.125 0-0.205-0.080t-0.080-0.205v-1.196l-2.268 2.277q1.125 1.411 1.125 3.205 0 1.973-1.317 3.433t-3.254 1.674v1.179h0.857q0.125 0 0.205 0.080t0.080 0.205v0.571q0 0.125-0.080 0.205t-0.205 0.080h-0.857v0.857q0 0.125-0.080 0.205t-0.205 0.080h-0.571q-0.125 0-0.205-0.080t-0.080-0.205v-0.857h-0.857q-0.125 0-0.205-0.080t-0.080-0.205v-0.571q0-0.125 0.080-0.205t0.205-0.080h0.857v-1.179q-1.938-0.214-3.254-1.674t-1.317-3.433q0-1.795 1.125-3.205l-0.464-0.473-0.902 0.991q-0.080 0.089-0.196 0.094t-0.205-0.067l-0.429-0.393q-0.089-0.071-0.094-0.192t0.076-0.21l0.938-1.027-0.991-1v1.196q0 0.125-0.080 0.205t-0.205 0.080h-0.571q-0.125 0-0.205-0.080t-0.080-0.205v-2.571q0-0.232 0.17-0.402t0.402-0.17h2.571q0.125 0 0.205 0.080t0.080 0.205v0.571q0 0.125-0.080 0.205t-0.205 0.080h-1.188l0.946 0.955 0.768-0.839q0.080-0.089 0.196-0.094t0.205 0.067l0.429 0.393q0.089 0.071 0.094 0.192t-0.076 0.21l-0.804 0.884 0.509 0.5q1.411-1.125 3.205-1.125t3.205 1.125l2.277-2.268h-1.196q-0.125 0-0.205-0.080t-0.080-0.205v-0.571zM7.429 11.429q1.652 0 2.826-1.174t1.174-2.826-1.174-2.826-2.826-1.174-2.826 1.174-1.174 2.826 1.174 2.826 2.826 1.174z"></path>
</svg>
