<?xml version="1.0" encoding="utf-8"?>
<!-- Generated by IcoMoon.io -->
<!DOCTYPE svg PUBLIC "-//W3C//DTD SVG 1.1//EN" "http://www.w3.org/Graphics/SVG/1.1/DTD/svg11.dtd">
<svg version="1.1" xmlns="http://www.w3.org/2000/svg" xmlns:xlink="http://www.w3.org/1999/xlink" width="16" height="16" viewBox="0 0 16 16">
<path fill="#444444" d="M14.99 3.409c-0.048-0.785-0.694-1.408-1.49-1.408h-1.5v-0.501c0-0.829-0.672-1.5-1.5-1.5h-5c-0.829 0-1.5 0.671-1.5 1.5v0.501h-1.5c-0.797 0-1.442 0.623-1.49 1.408h-0.010v1.092c0 0.552 0.448 1 1 1v0 8.5c0 1.104 0.896 2 2 2h8c1.104 0 2-0.896 2-2v-8.5c0.552 0 1-0.448 1-1v-1.091h-0.010zM5 1.501c0-0.276 0.223-0.5 0.5-0.5h5c0.277 0 0.5 0.224 0.5 0.5v0.5h-6v-0.5zM13 14.001c0 0.551-0.449 1-1 1h-8c-0.551 0-1-0.449-1-1v-8.5h10v8.5zM14 4v0.5h-12v-0.999c0-0.276 0.224-0.5 0.5-0.5h11c0.277 0 0.5 0.224 0.5 0.5v0.499zM4.5 14.003h1c0.277 0 0.5-0.223 0.5-0.5v-6.5c0-0.277-0.223-0.5-0.5-0.5h-1c-0.277 0-0.5 0.223-0.5 0.5v6.5c0 0.277 0.223 0.5 0.5 0.5zM4.5 7.003h1v6.5h-1v-6.5zM7.5 14.003h1c0.277 0 0.5-0.223 0.5-0.5v-6.5c0-0.277-0.223-0.5-0.5-0.5h-1c-0.277 0-0.5 0.223-0.5 0.5v6.5c0 0.277 0.223 0.5 0.5 0.5zM7.5 7.003h1v6.5h-1v-6.5zM10.5 14.003h1c0.277 0 0.5-0.223 0.5-0.5v-6.5c0-0.277-0.223-0.5-0.5-0.5h-1c-0.277 0-0.5 0.223-0.5 0.5v6.5c0 0.277 0.223 0.5 0.5 0.5zM10.5 7.003h1v6.5h-1v-6.5z"></path>
</svg>
