<?xml version="1.0" encoding="utf-8"?>
<!-- Generated by IcoMoon.io -->
<!DOCTYPE svg PUBLIC "-//W3C//DTD SVG 1.1//EN" "http://www.w3.org/Graphics/SVG/1.1/DTD/svg11.dtd">
<svg version="1.1" xmlns="http://www.w3.org/2000/svg" xmlns:xlink="http://www.w3.org/1999/xlink" width="14" height="16" viewBox="0 0 14 16">
<path fill="#444444" d="M13.429 13.143q0 0.232-0.17 0.402t-0.402 0.17h-4.125q0.009 0.152 0.054 0.781t0.045 0.969q0 0.223-0.161 0.379t-0.384 0.156h-2.857q-0.223 0-0.384-0.156t-0.161-0.379q0-0.339 0.045-0.969t0.054-0.781h-4.125q-0.232 0-0.402-0.17t-0.17-0.402 0.17-0.402l3.589-3.598h-2.045q-0.232 0-0.402-0.17t-0.17-0.402 0.17-0.402l3.589-3.598h-1.759q-0.232 0-0.402-0.17t-0.17-0.402 0.17-0.402l3.429-3.429q0.17-0.17 0.402-0.17t0.402 0.17l3.429 3.429q0.17 0.17 0.17 0.402t-0.17 0.402-0.402 0.17h-1.759l3.589 3.598q0.17 0.17 0.17 0.402t-0.17 0.402-0.402 0.17h-2.045l3.589 3.598q0.17 0.17 0.17 0.402z"></path>
</svg>
