<?xml version="1.0" encoding="utf-8"?>
<!-- Generated by IcoMoon.io -->
<!DOCTYPE svg PUBLIC "-//W3C//DTD SVG 1.1//EN" "http://www.w3.org/Graphics/SVG/1.1/DTD/svg11.dtd">
<svg version="1.1" xmlns="http://www.w3.org/2000/svg" xmlns:xlink="http://www.w3.org/1999/xlink" width="14" height="16" viewBox="0 0 14 16">
<path fill="#444444" d="M6.286 12v-9.143q0-0.125-0.080-0.205t-0.205-0.080h-4.286q-0.125 0-0.205 0.080t-0.080 0.205v9.143q0 0.125 0.080 0.205t0.205 0.080h4.286q0.125 0 0.205-0.080t0.080-0.205zM12.286 8.571v-5.714q0-0.125-0.080-0.205t-0.205-0.080h-4.286q-0.125 0-0.205 0.080t-0.080 0.205v5.714q0 0.125 0.080 0.205t0.205 0.080h4.286q0.125 0 0.205-0.080t0.080-0.205zM13.714 1.714v12.571q0 0.232-0.17 0.402t-0.402 0.17h-12.571q-0.232 0-0.402-0.17t-0.17-0.402v-12.571q0-0.232 0.17-0.402t0.402-0.17h12.571q0.232 0 0.402 0.17t0.17 0.402z"></path>
</svg>
