<?xml version="1.0" encoding="utf-8"?>
<!-- Generated by IcoMoon.io -->
<!DOCTYPE svg PUBLIC "-//W3C//DTD SVG 1.1//EN" "http://www.w3.org/Graphics/SVG/1.1/DTD/svg11.dtd">
<svg version="1.1" xmlns="http://www.w3.org/2000/svg" xmlns:xlink="http://www.w3.org/1999/xlink" width="21" height="16" viewBox="0 0 21 16">
<path fill="#444444" d="M5.813 8.902q0 0.348-0.246 0.594t-0.585 0.246q-0.348 0-0.594-0.246t-0.246-0.594q0-0.339 0.246-0.585t0.594-0.246q0.339 0 0.585 0.246t0.246 0.585zM16.116 8.893q0 0.348-0.246 0.594t-0.594 0.246-0.594-0.246-0.246-0.594 0.246-0.589 0.594-0.241 0.594 0.241 0.246 0.589zM6.83 8.902q0-0.705-0.504-1.214t-1.219-0.509-1.219 0.504-0.504 1.219 0.504 1.219 1.219 0.504 1.219-0.504 0.504-1.219zM17.125 8.893q0-0.714-0.504-1.219t-1.219-0.504q-0.705 0-1.214 0.504t-0.509 1.219 0.504 1.219 1.219 0.504 1.219-0.504 0.504-1.219zM7.589 8.902q0 1.036-0.728 1.763t-1.754 0.728q-1.036 0-1.763-0.732t-0.728-1.759 0.732-1.754 1.759-0.728 1.754 0.728 0.728 1.754zM17.893 8.893q0 1.027-0.728 1.754t-1.763 0.728q-1.027 0-1.754-0.728t-0.728-1.754 0.728-1.754 1.754-0.728q1.036 0 1.763 0.728t0.728 1.754zM9.286 8.92q0-1.705-1.21-2.915t-2.915-1.21q-1.116 0-2.063 0.554t-1.5 1.504-0.554 2.067 0.554 2.067 1.5 1.504 2.063 0.554q1.705 0 2.915-1.21t1.21-2.915zM15.25 3.804q-2.268-0.991-4.964-0.991-2.848 0-5.116 0.982 1.045 0 1.991 0.406t1.629 1.094 1.089 1.634 0.406 1.991q0-1.027 0.388-1.96t1.054-1.612 1.585-1.098 1.938-0.446zM19.527 8.92q0-1.705-1.205-2.915t-2.911-1.21-2.915 1.21-1.21 2.915 1.21 2.915 2.915 1.21 2.911-1.21 1.205-2.915zM17.152 3.866h3.42q-0.393 0.455-0.67 1.022t-0.357 1.022q0.982 1.348 0.982 3.009 0 1.393-0.688 2.571t-1.866 1.862-2.563 0.683q-1.188 0-2.223-0.5t-1.75-1.384q-0.42 0.5-1.152 1.598-0.098-0.196-0.478-0.737t-0.665-0.871q-0.714 0.884-1.754 1.388t-2.228 0.504q-1.384 0-2.563-0.683t-1.866-1.862-0.688-2.571q0-1.661 0.982-3.009-0.080-0.455-0.357-1.022t-0.67-1.022h3.259q1.33-0.893 3.17-1.397t3.857-0.504q2 0 3.759 0.5t3.107 1.402z"></path>
</svg>
