<?xml version="1.0" encoding="utf-8"?>
<!-- Generated by IcoMoon.io -->
<!DOCTYPE svg PUBLIC "-//W3C//DTD SVG 1.1//EN" "http://www.w3.org/Graphics/SVG/1.1/DTD/svg11.dtd">
<svg version="1.1" xmlns="http://www.w3.org/2000/svg" xmlns:xlink="http://www.w3.org/1999/xlink" width="16" height="16" viewBox="0 0 16 16">
<path fill="#444444" d="M12.416 5.723c-0.093-0.139-0.249-0.223-0.416-0.223h-0.5c-0.277 0-0.5 0.223-0.5 0.5v3c0 0.277 0.223 0.5 0.5 0.5h2c0.277 0 0.5-0.223 0.5-0.5v-0.75c0-0.098-0.030-0.195-0.084-0.277l-1.5-2.25zM13.5 9h-2v-3h0.5l1.5 2.25v0.75zM15.748 7.668l-2-3c-0.279-0.418-0.746-0.668-1.248-0.668h-2v-1c0-0.827-0.673-1.5-1.5-1.5h-7.5c-0.827 0-1.5 0.673-1.5 1.5v5.5c0 0.827 0.673 1.5 1.5 1.5v0 1.5c0 0.827 0.673 1.5 1.5 1.5h0.571c0.224 0.861 1 1.5 1.929 1.5 0.928 0 1.705-0.639 1.929-1.5h2.641c0.223 0.861 1 1.5 1.93 1.5 0.928 0 1.705-0.639 1.928-1.5h0.572c0.827 0 1.5-0.673 1.5-1.5v-3c0-0.297-0.087-0.585-0.252-0.832zM1.5 9c-0.276 0-0.5-0.223-0.5-0.5v-5.5c0-0.276 0.224-0.5 0.5-0.5h7.5c0.277 0 0.5 0.224 0.5 0.5v5.5c0 0.277-0.223 0.5-0.5 0.5h-7.5zM5.5 13.5c-0.553 0-1-0.448-1-1s0.447-1 1-1c0.552 0 1 0.448 1 1s-0.449 1-1 1zM12 13.5c-0.553 0-1-0.448-1-1s0.447-1 1-1c0.552 0 1 0.448 1 1s-0.448 1-1 1zM15 11.5c0 0.277-0.223 0.5-0.5 0.5h-0.572c-0.223-0.861-1-1.5-1.928-1.5-0.93 0-1.706 0.639-1.93 1.5h-2.641c-0.223-0.861-1-1.5-1.928-1.5-0.929 0-1.706 0.639-1.929 1.5h-0.571c-0.276 0-0.5-0.223-0.5-0.5v-1.5h6.5c0.827 0 1.5-0.673 1.5-1.5v-3.5h2c0.167 0 0.323 0.083 0.416 0.223l2 3c0.055 0.082 0.084 0.179 0.084 0.277v3z"></path>
</svg>
