<?xml version="1.0" encoding="utf-8"?>
<!-- Generated by IcoMoon.io -->
<!DOCTYPE svg PUBLIC "-//W3C//DTD SVG 1.1//EN" "http://www.w3.org/Graphics/SVG/1.1/DTD/svg11.dtd">
<svg version="1.1" xmlns="http://www.w3.org/2000/svg" xmlns:xlink="http://www.w3.org/1999/xlink" width="10" height="16" viewBox="0 0 10 16">
<path fill="#444444" d="M10.286 7.429q0 1.705-0.844 3.152t-2.29 2.29-3.152 0.844h-1.429q-0.125 0-0.205-0.080t-0.080-0.205v-5.455l-1.92 0.589q-0.027 0.009-0.080 0.009-0.089 0-0.17-0.054-0.116-0.089-0.116-0.232v-1.143q0-0.205 0.205-0.277l2.080-0.634v-0.83l-1.92 0.589q-0.027 0.009-0.080 0.009-0.089 0-0.17-0.054-0.116-0.089-0.116-0.232v-1.143q0-0.205 0.205-0.277l2.080-0.634v-2.232q0-0.125 0.080-0.205t0.205-0.080h1.429q0.125 0 0.205 0.080t0.080 0.205v1.616l3.348-1.036q0.134-0.045 0.25 0.045t0.116 0.232v1.143q0 0.205-0.205 0.277l-3.509 1.080v0.83l3.348-1.036q0.134-0.045 0.25 0.045t0.116 0.232v1.143q0 0.205-0.205 0.277l-3.509 1.080v4.348q1.679-0.116 2.839-1.348t1.161-2.929q0-0.125 0.080-0.205t0.205-0.080h1.429q0.125 0 0.205 0.080t0.080 0.205z"></path>
</svg>
