<?xml version="1.0" encoding="utf-8"?>
<!-- Generated by IcoMoon.io -->
<!DOCTYPE svg PUBLIC "-//W3C//DTD SVG 1.1//EN" "http://www.w3.org/Graphics/SVG/1.1/DTD/svg11.dtd">
<svg version="1.1" xmlns="http://www.w3.org/2000/svg" xmlns:xlink="http://www.w3.org/1999/xlink" width="16" height="16" viewBox="0 0 16 16">
<path fill="#444444" d="M4 11.714v1.714q0 0.125-0.080 0.205t-0.205 0.080h-1.714q-0.125 0-0.205-0.080t-0.080-0.205v-1.714q0-0.125 0.080-0.205t0.205-0.080h1.714q0.125 0 0.205 0.080t0.080 0.205zM2.286 8.286v1.714q0 0.125-0.080 0.205t-0.205 0.080h-1.714q-0.125 0-0.205-0.080t-0.080-0.205v-1.714q0-0.125 0.080-0.205t0.205-0.080h1.714q0.125 0 0.205 0.080t0.080 0.205zM7.429 11.714v1.714q0 0.125-0.080 0.205t-0.205 0.080h-1.714q-0.125 0-0.205-0.080t-0.080-0.205v-1.714q0-0.125 0.080-0.205t0.205-0.080h1.714q0.125 0 0.205 0.080t0.080 0.205zM5.714 8.286v1.714q0 0.125-0.080 0.205t-0.205 0.080h-1.714q-0.125 0-0.205-0.080t-0.080-0.205v-1.714q0-0.125 0.080-0.205t0.205-0.080h1.714q0.125 0 0.205 0.080t0.080 0.205zM0.589 6.857q-0.25 0-0.42-0.17t-0.17-0.411v-1.152h4.589v1.152q0 0.241-0.17 0.411t-0.411 0.17h-3.42zM10.857 11.714v1.714q0 0.125-0.080 0.205t-0.205 0.080h-1.714q-0.125 0-0.205-0.080t-0.080-0.205v-1.714q0-0.125 0.080-0.205t0.205-0.080h1.714q0.125 0 0.205 0.080t0.080 0.205zM9.143 8.286v1.714q0 0.125-0.080 0.205t-0.205 0.080h-1.714q-0.125 0-0.205-0.080t-0.080-0.205v-1.714q0-0.125 0.080-0.205t0.205-0.080h1.714q0.125 0 0.205 0.080t0.080 0.205zM14.286 11.714v1.714q0 0.125-0.080 0.205t-0.205 0.080h-1.714q-0.125 0-0.205-0.080t-0.080-0.205v-1.714q0-0.125 0.080-0.205t0.205-0.080h1.714q0.125 0 0.205 0.080t0.080 0.205zM12.571 8.286v1.714q0 0.125-0.080 0.205t-0.205 0.080h-1.714q-0.125 0-0.205-0.080t-0.080-0.205v-1.714q0-0.125 0.080-0.205t0.205-0.080h1.714q0.125 0 0.205 0.080t0.080 0.205zM16 4.643v0.116h-4.589v-0.089q0-0.929-3.411-0.911-3.411 0.009-3.411 0.911v0.089h-4.589v-0.116q0-0.152 0.076-0.384t0.304-0.571 0.585-0.674 0.987-0.679 1.429-0.603 2-0.424 2.621-0.165 2.616 0.165 2 0.424 1.433 0.603 0.987 0.679 0.585 0.674 0.304 0.571 0.076 0.384zM16 8.286v1.714q0 0.125-0.080 0.205t-0.205 0.080h-1.714q-0.125 0-0.205-0.080t-0.080-0.205v-1.714q0-0.125 0.080-0.205t0.205-0.080h1.714q0.125 0 0.205 0.080t0.080 0.205zM16 5.125v1.152q0 0.241-0.17 0.411t-0.411 0.17h-3.429q-0.241 0-0.411-0.17t-0.17-0.411v-1.152h4.589z"></path>
</svg>
