<?xml version="1.0" encoding="utf-8"?>
<!-- Generated by IcoMoon.io -->
<!DOCTYPE svg PUBLIC "-//W3C//DTD SVG 1.1//EN" "http://www.w3.org/Graphics/SVG/1.1/DTD/svg11.dtd">
<svg version="1.1" xmlns="http://www.w3.org/2000/svg" xmlns:xlink="http://www.w3.org/1999/xlink" width="10" height="16" viewBox="0 0 10 16">
<path fill="#444444" d="M8.429 11.866l0.714 2.116q-0.205 0.313-0.991 0.589t-1.58 0.286q-0.929 0.018-1.701-0.232t-1.272-0.661-0.848-0.946-0.496-1.071-0.147-1.054v-4.857h-1.5v-1.92q0.643-0.232 1.152-0.621t0.813-0.804 0.518-0.911 0.304-0.884 0.134-0.79q0.009-0.045 0.040-0.076t0.067-0.031h2.179v3.786h2.973v2.25h-2.982v4.625q0 0.268 0.058 0.5t0.201 0.469 0.442 0.371 0.728 0.125q0.696-0.018 1.196-0.259z"></path>
</svg>
