<?xml version="1.0" encoding="utf-8"?>
<!-- Generated by IcoMoon.io -->
<!DOCTYPE svg PUBLIC "-//W3C//DTD SVG 1.1//EN" "http://www.w3.org/Graphics/SVG/1.1/DTD/svg11.dtd">
<svg version="1.1" xmlns="http://www.w3.org/2000/svg" xmlns:xlink="http://www.w3.org/1999/xlink" width="16" height="16" viewBox="0 0 16 16">
<path fill="#444444" d="M11.085 4.312c-1.354-0.279-2.727-0.42-4.082-0.42s-2.729 0.141-4.082 0.42c-0.175 0.036-0.318 0.163-0.374 0.333-0.721 2.191-0.721 4.412 0 6.602 0.056 0.17 0.199 0.297 0.374 0.333 1.354 0.278 2.728 0.419 4.082 0.419s2.729-0.142 4.082-0.42c0.176-0.036 0.319-0.163 0.375-0.333 0.72-2.191 0.72-4.412 0-6.602-0.056-0.17-0.2-0.297-0.375-0.333zM10.985 11.091c-2.655 0.545-5.309 0.545-7.963 0-0.691-2.097-0.691-4.192 0-6.29 2.655-0.545 5.309-0.545 7.963 0 0.691 2.096 0.691 4.193 0 6.29zM15.427 3.16c-0.097-0.407-0.438-0.711-0.852-0.761-2.18-0.265-4.391-0.399-6.572-0.399s-4.391 0.134-6.572 0.398c-0.415 0.050-0.755 0.354-0.852 0.761-0.764 3.211-0.764 6.468 0 9.68 0.097 0.407 0.437 0.711 0.852 0.761 1.050 0.128 2.108 0.222 3.165 0.288-0.057 0.037-0.094 0.073-0.094 0.111 0 0.277 1.567 0.5 3.5 0.5s3.5-0.223 3.5-0.5c0-0.038-0.037-0.075-0.094-0.111 1.057-0.066 2.115-0.16 3.165-0.288 0.415-0.050 0.756-0.354 0.852-0.761 0.765-3.212 0.765-6.468 0.001-9.68zM14.454 12.608c-4.301 0.521-8.602 0.521-12.902 0-0.732-3.072-0.732-6.145 0-9.217 4.301-0.522 8.602-0.522 12.902 0 0.732 3.072 0.732 6.144 0 9.217zM13.253 6c0.414 0 0.75-0.336 0.75-0.75s-0.336-0.75-0.75-0.75-0.75 0.336-0.75 0.75 0.336 0.75 0.75 0.75zM13.253 5c0.137 0 0.25 0.112 0.25 0.25s-0.113 0.25-0.25 0.25-0.25-0.112-0.25-0.25 0.112-0.25 0.25-0.25zM13.753 11c0.137 0 0.25 0.111 0.25 0.25 0 0.137-0.113 0.25-0.25 0.25h-1.5c-0.139 0-0.25-0.113-0.25-0.25 0-0.139 0.111-0.25 0.25-0.25h1.5zM14.253 9.5c0.137 0 0.25 0.111 0.25 0.25 0 0.137-0.113 0.25-0.25 0.25h-1.5c-0.139 0-0.25-0.113-0.25-0.25 0-0.139 0.111-0.25 0.25-0.25h1.5zM14.253 8c0.137 0 0.25 0.112 0.25 0.25s-0.113 0.25-0.25 0.25h-1.5c-0.139 0-0.25-0.112-0.25-0.25s0.111-0.25 0.25-0.25h1.5zM6.753 5.902c0.138-0.005 0.25 0.102 0.25 0.24s-0.112 0.254-0.25 0.259l-1.875 0.128c-0.136 0.014-0.263 0.137-0.282 0.273l-0.083 0.947c-0.005 0.138-0.122 0.25-0.259 0.25s-0.244-0.112-0.237-0.25l0.152-1.393c0.023-0.136 0.154-0.26 0.29-0.276l2.293-0.179z"></path>
</svg>
