<?xml version="1.0" encoding="utf-8"?>
<!-- Generated by IcoMoon.io -->
<!DOCTYPE svg PUBLIC "-//W3C//DTD SVG 1.1//EN" "http://www.w3.org/Graphics/SVG/1.1/DTD/svg11.dtd">
<svg version="1.1" xmlns="http://www.w3.org/2000/svg" xmlns:xlink="http://www.w3.org/1999/xlink" width="15" height="16" viewBox="0 0 15 16">
<path fill="#444444" d="M8 7.393v5.179q0 0.929-0.679 1.607t-1.607 0.679-1.607-0.679-0.679-1.607q0-0.232 0.17-0.402t0.402-0.17 0.402 0.17 0.17 0.402q0 0.446 0.348 0.795t0.795 0.348 0.795-0.348 0.348-0.795v-5.179q0.295-0.098 0.571-0.098t0.571 0.098zM14.857 7.634q0 0.116-0.085 0.201t-0.201 0.085q-0.098 0-0.205-0.089-0.438-0.411-0.83-0.616t-0.911-0.205q-0.607 0-1.143 0.33t-0.92 0.866q-0.063 0.089-0.156 0.25t-0.129 0.214q-0.098 0.152-0.25 0.152-0.161 0-0.259-0.152-0.036-0.054-0.129-0.214t-0.156-0.25q-0.384-0.536-0.915-0.866t-1.138-0.33-1.138 0.33-0.915 0.866q-0.063 0.089-0.156 0.25t-0.129 0.214q-0.098 0.152-0.259 0.152-0.152 0-0.25-0.152-0.036-0.054-0.129-0.214t-0.156-0.25q-0.384-0.536-0.92-0.866t-1.143-0.33q-0.518 0-0.911 0.205t-0.83 0.616q-0.107 0.089-0.205 0.089-0.116 0-0.201-0.085t-0.085-0.201q0-0.045 0.009-0.063 0.402-1.634 1.54-2.853t2.661-1.826 3.219-0.607q1.25 0 2.451 0.357t2.201 1.013 1.737 1.67 1.031 2.246q0.009 0.018 0.009 0.063zM8 1.143v0.875q-0.375-0.018-0.571-0.018t-0.571 0.018v-0.875q0-0.232 0.17-0.402t0.402-0.17 0.402 0.17 0.17 0.402z"></path>
</svg>
