<?xml version="1.0" encoding="utf-8"?>
<!-- Generated by IcoMoon.io -->
<!DOCTYPE svg PUBLIC "-//W3C//DTD SVG 1.1//EN" "http://www.w3.org/Graphics/SVG/1.1/DTD/svg11.dtd">
<svg version="1.1" xmlns="http://www.w3.org/2000/svg" xmlns:xlink="http://www.w3.org/1999/xlink" width="15" height="16" viewBox="0 0 15 16">
<path fill="#444444" d="M14.857 5.143v2.286q0 0.232-0.17 0.402t-0.402 0.17h-0.571q-0.232 0-0.402-0.17t-0.17-0.402v-2.286q0-0.946-0.67-1.616t-1.616-0.67-1.616 0.67-0.67 1.616v1.714h0.857q0.357 0 0.607 0.25t0.25 0.607v5.143q0 0.357-0.25 0.607t-0.607 0.25h-8.571q-0.357 0-0.607-0.25t-0.25-0.607v-5.143q0-0.357 0.25-0.607t0.607-0.25h6v-1.714q0-1.652 1.174-2.826t2.826-1.174 2.826 1.174 1.174 2.826z"></path>
</svg>
