<?xml version="1.0" encoding="utf-8"?>
<!-- Generated by IcoMoon.io -->
<!DOCTYPE svg PUBLIC "-//W3C//DTD SVG 1.1//EN" "http://www.w3.org/Graphics/SVG/1.1/DTD/svg11.dtd">
<svg version="1.1" xmlns="http://www.w3.org/2000/svg" xmlns:xlink="http://www.w3.org/1999/xlink" width="21" height="16" viewBox="0 0 21 16">
<path fill="#444444" d="M20.429 7.188q0.143 0.071 0.143 0.241t-0.143 0.241l-2.857 1.714q-0.071 0.045-0.143 0.045-0.080 0-0.143-0.036-0.143-0.089-0.143-0.25v-1.143h-7.661q0.33 0.518 0.741 1.473 0.143 0.33 0.219 0.491t0.214 0.438 0.241 0.42 0.241 0.304 0.281 0.232 0.295 0.071h0.857v-0.857q0-0.125 0.080-0.205t0.205-0.080h2.857q0.125 0 0.205 0.080t0.080 0.205v2.857q0 0.125-0.080 0.205t-0.205 0.080h-2.857q-0.125 0-0.205-0.080t-0.080-0.205v-0.857h-0.857q-0.286 0-0.545-0.089t-0.455-0.21-0.402-0.362-0.33-0.411-0.299-0.509-0.254-0.513-0.25-0.54q-0.205-0.473-0.33-0.728t-0.321-0.58-0.397-0.478-0.415-0.152h-3.214q-0.196 0.75-0.813 1.232t-1.402 0.482q-0.946 0-1.616-0.67t-0.67-1.616 0.67-1.616 1.616-0.67q0.786 0 1.402 0.482t0.813 1.232h0.929q0.214 0 0.415-0.152t0.397-0.478 0.321-0.58 0.33-0.728q0.17-0.366 0.25-0.54t0.254-0.513 0.299-0.509 0.33-0.411 0.402-0.362 0.455-0.21 0.545-0.089h0.955q0.188-0.509 0.625-0.826t0.991-0.317q0.714 0 1.214 0.5t0.5 1.214-0.5 1.214-1.214 0.5q-0.554 0-0.991-0.317t-0.625-0.826h-0.955q-0.152 0-0.295 0.071t-0.281 0.232-0.241 0.304-0.241 0.42-0.214 0.438-0.219 0.491q-0.411 0.955-0.741 1.473h9.946v-1.143q0-0.161 0.143-0.25t0.286 0.009z"></path>
</svg>
