<?xml version="1.0" encoding="utf-8"?>
<!-- Generated by IcoMoon.io -->
<!DOCTYPE svg PUBLIC "-//W3C//DTD SVG 1.1//EN" "http://www.w3.org/Graphics/SVG/1.1/DTD/svg11.dtd">
<svg version="1.1" xmlns="http://www.w3.org/2000/svg" xmlns:xlink="http://www.w3.org/1999/xlink" width="18" height="16" viewBox="0 0 18 16">
<path fill="#444444" d="M6.286 8q-1.42 0-2.424-1.004t-1.004-2.424 1.004-2.424 2.424-1.004 2.424 1.004 1.004 2.424-1.004 2.424-2.424 1.004zM15.902 10.857l2.223 2.223q0.080 0.080 0.080 0.205 0 0.116-0.080 0.196l-1.214 1.214q-0.080 0.080-0.196 0.080-0.125 0-0.205-0.080l-2.223-2.223-2.223 2.223q-0.080 0.080-0.205 0.080-0.116 0-0.196-0.080l-1.214-1.214q-0.080-0.080-0.080-0.196 0-0.125 0.080-0.205l2.223-2.223-2.223-2.223q-0.080-0.080-0.080-0.205 0-0.116 0.080-0.196l1.214-1.214q0.080-0.080 0.196-0.080 0.125 0 0.205 0.080l2.223 2.223 2.223-2.223q0.080-0.080 0.205-0.080 0.116 0 0.196 0.080l1.214 1.214q0.080 0.080 0.080 0.196 0 0.125-0.080 0.205zM11.455 10.857l-1.616 1.616q-0.33 0.33-0.33 0.813 0 0.473 0.33 0.804l0.741 0.741q-0.188 0.027-0.393 0.027h-7.804q-1.080 0-1.732-0.616t-0.652-1.696q0-0.473 0.031-0.924t0.125-0.973 0.237-0.969 0.384-0.871 0.554-0.723 0.763-0.478 0.996-0.179q0.17 0 0.348 0.152 1.375 1.089 2.848 1.089t2.848-1.089q0.179-0.152 0.348-0.152 0.25 0 0.509 0.054-0.25 0.241-0.366 0.446t-0.116 0.5q0 0.482 0.33 0.813z"></path>
</svg>
