<?xml version="1.0" encoding="utf-8"?>
<!-- Generated by IcoMoon.io -->
<!DOCTYPE svg PUBLIC "-//W3C//DTD SVG 1.1//EN" "http://www.w3.org/Graphics/SVG/1.1/DTD/svg11.dtd">
<svg version="1.1" xmlns="http://www.w3.org/2000/svg" xmlns:xlink="http://www.w3.org/1999/xlink" width="13" height="16" viewBox="0 0 13 16">
<path fill="#444444" d="M5.143 13.714l0.857-4-0.857-1.143-1.143-0.571zM7.429 13.714l1.143-5.714-1.143 0.571-0.857 1.143zM8.857 4.696q-0.018-0.036-0.036-0.054-0.089-0.071-0.857-0.071-0.625 0-1.491 0.17-0.063 0.018-0.188 0.018t-0.188-0.018q-0.866-0.17-1.491-0.17-0.768 0-0.857 0.071-0.018 0.018-0.036 0.054 0.018 0.161 0.036 0.241 0.018 0.027 0.067 0.058t0.067 0.094q0.018 0.036 0.067 0.183t0.062 0.183 0.067 0.152 0.076 0.152 0.080 0.125 0.107 0.121 0.125 0.085 0.156 0.071 0.183 0.036 0.219 0.018q0.321 0 0.527-0.112t0.29-0.268 0.129-0.308 0.103-0.263 0.156-0.112h0.107q0.098 0 0.156 0.112t0.103 0.263 0.129 0.308 0.29 0.268 0.527 0.112q0.116 0 0.219-0.018t0.183-0.036 0.156-0.071 0.125-0.085 0.107-0.121 0.080-0.125 0.076-0.152 0.067-0.152 0.063-0.183 0.067-0.183q0.018-0.063 0.067-0.094t0.067-0.058q0.018-0.080 0.036-0.241zM12.571 12.545q0 1.080-0.652 1.696t-1.732 0.616h-7.804q-1.080 0-1.732-0.616t-0.652-1.696q0-0.545 0.040-1.054t0.17-1.121 0.335-1.103 0.567-0.924 0.835-0.665l-0.804-1.964h1.911q-0.196-0.571-0.196-1.143 0-0.107 0.018-0.286-1.732-0.357-1.732-0.857 0-0.509 1.875-0.884 0.152-0.554 0.46-1.196t0.629-1.018q0.286-0.33 0.679-0.33 0.268 0 0.75 0.277t0.75 0.277 0.75-0.277 0.75-0.277q0.393 0 0.679 0.33 0.321 0.375 0.629 1.018t0.46 1.196q1.875 0.375 1.875 0.884 0 0.5-1.732 0.857 0.063 0.723-0.179 1.429h1.911l-0.732 2.009q0.563 0.295 0.96 0.862t0.585 1.281 0.259 1.353 0.071 1.326z"></path>
</svg>
