<?xml version="1.0" encoding="utf-8"?>
<!-- Generated by IcoMoon.io -->
<!DOCTYPE svg PUBLIC "-//W3C//DTD SVG 1.1//EN" "http://www.w3.org/Graphics/SVG/1.1/DTD/svg11.dtd">
<svg version="1.1" xmlns="http://www.w3.org/2000/svg" xmlns:xlink="http://www.w3.org/1999/xlink" width="18" height="16" viewBox="0 0 18 16">
<path fill="#444444" d="M6.286 8q-1.42 0-2.424-1.004t-1.004-2.424 1.004-2.424 2.424-1.004 2.424 1.004 1.004 2.424-1.004 2.424-2.424 1.004zM14.857 9.143h3.143q0.116 0 0.201 0.085t0.085 0.201v1.714q0 0.116-0.085 0.201t-0.201 0.085h-3.143v3.143q0 0.116-0.085 0.201t-0.201 0.085h-1.714q-0.116 0-0.201-0.085t-0.085-0.201v-3.143h-3.143q-0.116 0-0.201-0.085t-0.085-0.201v-1.714q0-0.116 0.085-0.201t0.201-0.085h3.143v-3.143q0-0.116 0.085-0.201t0.201-0.085h1.714q0.116 0 0.201 0.085t0.085 0.201v3.143zM8.286 11.143q0 0.464 0.339 0.804t0.804 0.339h2.286v2.125q-0.607 0.446-1.527 0.446h-7.804q-1.080 0-1.732-0.616t-0.652-1.696q0-0.473 0.031-0.924t0.125-0.973 0.237-0.969 0.384-0.871 0.554-0.723 0.763-0.478 0.996-0.179q0.17 0 0.348 0.152 0.705 0.545 1.379 0.817t1.469 0.272 1.469-0.272 1.379-0.817q0.179-0.152 0.348-0.152 1.179 0 1.938 0.857h-1.991q-0.464 0-0.804 0.339t-0.339 0.804v1.714z"></path>
</svg>
