<?xml version="1.0" encoding="utf-8"?>
<!-- Generated by IcoMoon.io -->
<!DOCTYPE svg PUBLIC "-//W3C//DTD SVG 1.1//EN" "http://www.w3.org/Graphics/SVG/1.1/DTD/svg11.dtd">
<svg version="1.1" xmlns="http://www.w3.org/2000/svg" xmlns:xlink="http://www.w3.org/1999/xlink" width="16" height="16" viewBox="0 0 16 16">
<path fill="#444444" d="M15.555 14.168c-0.101-0.066-1.924-1.262-4.636-1.849 0.995-1.261 1.634-2.956 1.905-4.085 0.377-1.564 0.23-4.624-1.271-6.531-0.878-1.115-2.107-1.703-3.553-1.703s-2.675 0.589-3.552 1.703c-1.502 1.907-1.648 4.966-1.272 6.53 0.272 1.129 0.91 2.824 1.906 4.085-2.712 0.587-4.536 1.783-4.636 1.85-0.366 0.244-0.53 0.7-0.403 1.121 0.127 0.422 0.516 0.711 0.957 0.711h14c0.441 0 0.829-0.289 0.957-0.711 0.128-0.421-0.036-0.877-0.402-1.121zM10.133 11.699l-0.163 0.207c-1.193 1.37-2.748 1.37-3.939 0l-0.163-0.207c-1.393-1.764-2.083-4.098-1.786-6.325 0.272-2.139 1.498-4.374 3.918-4.374s3.646 2.235 3.919 4.375c0.296 2.228-0.392 4.559-1.786 6.324zM1 15c0.069-0.046 1.763-1.157 4.293-1.704l1.242-0.268c0.444 0.291 0.93 0.473 1.465 0.473s1.021-0.181 1.465-0.473l1.242 0.268c2.51 0.543 4.198 1.642 4.293 1.704h-14z"></path>
</svg>
