<?xml version="1.0" encoding="utf-8"?>
<!-- Generated by IcoMoon.io -->
<!DOCTYPE svg PUBLIC "-//W3C//DTD SVG 1.1//EN" "http://www.w3.org/Graphics/SVG/1.1/DTD/svg11.dtd">
<svg version="1.1" xmlns="http://www.w3.org/2000/svg" xmlns:xlink="http://www.w3.org/1999/xlink" width="13" height="16" viewBox="0 0 13 16">
<path fill="#444444" d="M3.429 12q0 0.232-0.17 0.402t-0.402 0.17-0.402-0.17-0.17-0.402 0.17-0.402 0.402-0.17 0.402 0.17 0.17 0.402zM12.571 12.545q0 1.080-0.652 1.696t-1.732 0.616h-7.804q-1.080 0-1.732-0.616t-0.652-1.696q0-0.607 0.049-1.17t0.214-1.232 0.424-1.183 0.723-0.92 1.071-0.54q-0.196 0.464-0.196 1.071v1.813q-0.518 0.179-0.83 0.625t-0.313 0.991q0 0.714 0.5 1.214t1.214 0.5 1.214-0.5 0.5-1.214q0-0.545-0.317-0.991t-0.826-0.625v-1.813q0-0.554 0.223-0.83 1.179 0.929 2.634 0.929t2.634-0.929q0.223 0.277 0.223 0.83v0.571q-0.946 0-1.616 0.67t-0.67 1.616v0.795q-0.286 0.259-0.286 0.634 0 0.357 0.25 0.607t0.607 0.25 0.607-0.25 0.25-0.607q0-0.375-0.286-0.634v-0.795q0-0.464 0.339-0.804t0.804-0.339 0.804 0.339 0.339 0.804v0.795q-0.286 0.259-0.286 0.634 0 0.357 0.25 0.607t0.607 0.25 0.607-0.25 0.25-0.607q0-0.375-0.286-0.634v-0.795q0-0.607-0.308-1.138t-0.835-0.835q0-0.089 0.004-0.379t0-0.429-0.022-0.371-0.063-0.42-0.116-0.357q0.607 0.134 1.071 0.54t0.723 0.92 0.424 1.183 0.214 1.232 0.049 1.17zM9.714 4.571q0 1.42-1.004 2.424t-2.424 1.004-2.424-1.004-1.004-2.424 1.004-2.424 2.424-1.004 2.424 1.004 1.004 2.424z"></path>
</svg>
