<?xml version="1.0" encoding="utf-8"?>
<!-- Generated by IcoMoon.io -->
<!DOCTYPE svg PUBLIC "-//W3C//DTD SVG 1.1//EN" "http://www.w3.org/Graphics/SVG/1.1/DTD/svg11.dtd">
<svg version="1.1" xmlns="http://www.w3.org/2000/svg" xmlns:xlink="http://www.w3.org/1999/xlink" width="18" height="16" viewBox="0 0 18 16">
<path fill="#444444" d="M14.857 0.286q0-0.125 0.080-0.205t0.205-0.080h2.571q0.232 0 0.402 0.17t0.17 0.402v2.571q0 0.125-0.080 0.205t-0.205 0.080h-0.571q-0.125 0-0.205-0.080t-0.080-0.205v-1.196l-2.268 2.277q0.679 0.848 0.96 1.911t0.085 2.205q-0.286 1.607-1.469 2.768t-2.799 1.402q-1.991 0.304-3.652-0.804-1.045 0.696-2.286 0.83v1.179h0.857q0.125 0 0.205 0.080t0.080 0.205v0.571q0 0.125-0.080 0.205t-0.205 0.080h-0.857v0.857q0 0.125-0.080 0.205t-0.205 0.080h-0.571q-0.125 0-0.205-0.080t-0.080-0.205v-0.857h-0.857q-0.125 0-0.205-0.080t-0.080-0.205v-0.571q0-0.125 0.080-0.205t0.205-0.080h0.857v-1.179q-1.384-0.152-2.496-0.978t-1.67-2.121-0.353-2.741q0.223-1.67 1.424-2.879t2.862-1.469q2-0.304 3.661 0.804 1.304-0.866 2.857-0.866 1.795 0 3.205 1.125l2.277-2.268h-1.196q-0.125 0-0.205-0.080t-0.080-0.205v-0.571zM8 10.223q1.143-1.17 1.143-2.795t-1.143-2.795q-1.143 1.17-1.143 2.795t1.143 2.795zM1.143 7.429q0 1.652 1.174 2.826t2.826 1.174q1.045 0 1.946-0.509-1.375-1.491-1.375-3.491t1.375-3.491q-0.902-0.509-1.946-0.509-1.652 0-2.826 1.174t-1.174 2.826zM10.857 11.429q1.652 0 2.826-1.174t1.174-2.826-1.174-2.826-2.826-1.174q-1.045 0-1.946 0.509 1.375 1.491 1.375 3.491t-1.375 3.491q0.902 0.509 1.946 0.509z"></path>
</svg>
