<?xml version="1.0" encoding="utf-8"?>
<!-- Generated by IcoMoon.io -->
<!DOCTYPE svg PUBLIC "-//W3C//DTD SVG 1.1//EN" "http://www.w3.org/Graphics/SVG/1.1/DTD/svg11.dtd">
<svg version="1.1" xmlns="http://www.w3.org/2000/svg" xmlns:xlink="http://www.w3.org/1999/xlink" width="16" height="16" viewBox="0 0 16 16">
<path fill="#444444" d="M15.982 4.723q0.107 1.384-0.469 2.607t-1.661 2-2.424 0.92v2.321h2q0.125 0 0.205 0.080t0.080 0.205v0.571q0 0.125-0.080 0.205t-0.205 0.080h-2v2q0 0.125-0.080 0.205t-0.205 0.080h-0.571q-0.125 0-0.205-0.080t-0.080-0.205v-2h-4.571v2q0 0.125-0.080 0.205t-0.205 0.080h-0.571q-0.125 0-0.205-0.080t-0.080-0.205v-2h-2q-0.125 0-0.205-0.080t-0.080-0.205v-0.571q0-0.125 0.080-0.205t0.205-0.080h2v-2.321q-1.339-0.143-2.424-0.92t-1.661-2-0.469-2.607q0.152-1.839 1.469-3.183t3.147-1.513q1.839-0.188 3.366 0.839 1.527-1.027 3.366-0.839 1.83 0.17 3.147 1.513t1.469 3.183zM8 7.938q1.143-1.17 1.143-2.795t-1.143-2.795q-1.143 1.17-1.143 2.795t1.143 2.795zM5.143 9.143q1.027 0 1.946-0.509-1.375-1.473-1.375-3.491 0-2 1.375-3.491-0.92-0.509-1.946-0.509-1.652 0-2.826 1.174t-1.174 2.826 1.174 2.826 2.826 1.174zM10.286 12.571v-2.321q-1.223-0.134-2.286-0.839-1.063 0.705-2.286 0.839v2.321h4.571zM10.857 9.143q1.652 0 2.826-1.174t1.174-2.826-1.174-2.826-2.826-1.174q-1.027 0-1.946 0.509 1.375 1.491 1.375 3.491 0 2.018-1.375 3.491 0.92 0.509 1.946 0.509z"></path>
</svg>
