<?xml version="1.0" encoding="utf-8"?>
<!-- Generated by IcoMoon.io -->
<!DOCTYPE svg PUBLIC "-//W3C//DTD SVG 1.1//EN" "http://www.w3.org/Graphics/SVG/1.1/DTD/svg11.dtd">
<svg version="1.1" xmlns="http://www.w3.org/2000/svg" xmlns:xlink="http://www.w3.org/1999/xlink" width="10" height="16" viewBox="0 0 10 16">
<path fill="#444444" d="M10.286 5.143q0 1.973-1.317 3.433t-3.254 1.674v2.321h2q0.125 0 0.205 0.080t0.080 0.205v0.571q0 0.125-0.080 0.205t-0.205 0.080h-2v2q0 0.125-0.080 0.205t-0.205 0.080h-0.571q-0.125 0-0.205-0.080t-0.080-0.205v-2h-2q-0.125 0-0.205-0.080t-0.080-0.205v-0.571q0-0.125 0.080-0.205t0.205-0.080h2v-2.321q-1.339-0.143-2.424-0.92t-1.661-2-0.469-2.607q0.098-1.196 0.719-2.223t1.625-1.679 2.192-0.786q1.518-0.17 2.848 0.482t2.107 1.893 0.777 2.732zM1.143 5.143q0 1.652 1.174 2.826t2.826 1.174 2.826-1.174 1.174-2.826-1.174-2.826-2.826-1.174-2.826 1.174-1.174 2.826z"></path>
</svg>
