<?xml version="1.0" encoding="utf-8"?>
<!-- Generated by IcoMoon.io -->
<!DOCTYPE svg PUBLIC "-//W3C//DTD SVG 1.1//EN" "http://www.w3.org/Graphics/SVG/1.1/DTD/svg11.dtd">
<svg version="1.1" xmlns="http://www.w3.org/2000/svg" xmlns:xlink="http://www.w3.org/1999/xlink" width="16" height="16" viewBox="0 0 16 16">
<path fill="#444444" d="M15 3h-0.444c-0.262 0-0.514 0.103-0.702 0.288l-1.354 1.336v-0.624c0-0.829-0.672-1.5-1.5-1.5h-9.5c-0.827 0-1.5 0.672-1.5 1.5v8c0 0.828 0.671 1.5 1.5 1.5h9.5c0.828 0 1.5-0.672 1.5-1.5v-0.611l1.354 1.336c0.188 0.184 0.44 0.288 0.702 0.288h0.444c0.552 0 1-0.447 1-1v-8.014c0-0.553-0.448-1-1-1zM1.5 12.5c-0.276 0-0.5-0.225-0.5-0.5v-8c0-0.276 0.224-0.5 0.5-0.5h9.5c0.275 0 0.5 0.224 0.5 0.5v8c0 0.275-0.225 0.5-0.5 0.5h-9.5zM15 12.014h-0.5l-2-2v-0.014l-0.5-0.5v-3l2.5-2.5h0.5v8.014z"></path>
</svg>
