<?xml version="1.0" encoding="utf-8"?>
<!-- Generated by IcoMoon.io -->
<!DOCTYPE svg PUBLIC "-//W3C//DTD SVG 1.1//EN" "http://www.w3.org/Graphics/SVG/1.1/DTD/svg11.dtd">
<svg version="1.1" xmlns="http://www.w3.org/2000/svg" xmlns:xlink="http://www.w3.org/1999/xlink" width="16" height="16" viewBox="0 0 16 16">
<path fill="#444444" d="M16 3.143v9.714q0 0.375-0.348 0.527-0.116 0.045-0.223 0.045-0.241 0-0.402-0.17l-3.598-3.598v1.482q0 1.063-0.754 1.817t-1.817 0.754h-6.286q-1.063 0-1.817-0.754t-0.754-1.817v-6.286q0-1.063 0.754-1.817t1.817-0.754h6.286q1.063 0 1.817 0.754t0.754 1.817v1.473l3.598-3.589q0.161-0.17 0.402-0.17 0.107 0 0.223 0.045 0.348 0.152 0.348 0.527z"></path>
</svg>
