<?xml version="1.0" encoding="utf-8"?>
<!-- Generated by IcoMoon.io -->
<!DOCTYPE svg PUBLIC "-//W3C//DTD SVG 1.1//EN" "http://www.w3.org/Graphics/SVG/1.1/DTD/svg11.dtd">
<svg version="1.1" xmlns="http://www.w3.org/2000/svg" xmlns:xlink="http://www.w3.org/1999/xlink" width="16" height="16" viewBox="0 0 16 16">
<path fill="#444444" d="M15.259 4.625q-0.089 2.107-2.964 5.813-2.973 3.848-5.018 3.848-1.268 0-2.143-2.348-0.393-1.429-1.179-4.304-0.643-2.339-1.402-2.339-0.161 0-1.134 0.679l-0.688-0.875q0.214-0.188 0.964-0.862t1.161-1.031q1.393-1.232 2.152-1.304 0.848-0.080 1.366 0.496t0.723 1.817q0.393 2.563 0.589 3.33 0.491 2.223 1.071 2.223 0.455 0 1.375-1.438 0.902-1.438 0.973-2.196 0.116-1.241-0.973-1.241-0.509 0-1.080 0.232 1.071-3.509 4.098-3.411 2.241 0.071 2.107 2.911z"></path>
</svg>
