<?xml version="1.0" encoding="utf-8"?>
<!-- Generated by IcoMoon.io -->
<!DOCTYPE svg PUBLIC "-//W3C//DTD SVG 1.1//EN" "http://www.w3.org/Graphics/SVG/1.1/DTD/svg11.dtd">
<svg version="1.1" xmlns="http://www.w3.org/2000/svg" xmlns:xlink="http://www.w3.org/1999/xlink" width="14" height="16" viewBox="0 0 14 16">
<path fill="#444444" d="M11.536 5.696q0.089-1.929-1.438-1.982-2.063-0.071-2.786 2.33 0.393-0.17 0.732-0.17 0.759 0 0.661 0.857-0.036 0.509-0.661 1.491t-0.938 0.982q-0.384 0-0.732-1.509-0.116-0.482-0.402-2.277-0.268-1.688-1.429-1.58-0.527 0.063-1.464 0.893l-1.446 1.286 0.464 0.598q0.679-0.464 0.777-0.464 0.509 0 0.955 1.598 0.134 0.491 0.402 1.469t0.402 1.469q0.607 1.598 1.464 1.598 1.402 0 3.42-2.625 1.964-2.527 2.018-3.964zM13.714 3.714v8.571q0 1.063-0.754 1.817t-1.817 0.754h-8.571q-1.063 0-1.817-0.754t-0.754-1.817v-8.571q0-1.063 0.754-1.817t1.817-0.754h8.571q1.063 0 1.817 0.754t0.754 1.817z"></path>
</svg>
