<?xml version="1.0" encoding="utf-8"?>
<!-- Generated by IcoMoon.io -->
<!DOCTYPE svg PUBLIC "-//W3C//DTD SVG 1.1//EN" "http://www.w3.org/Graphics/SVG/1.1/DTD/svg11.dtd">
<svg version="1.1" xmlns="http://www.w3.org/2000/svg" xmlns:xlink="http://www.w3.org/1999/xlink" width="14" height="16" viewBox="0 0 14 16">
<path fill="#444444" d="M13.366 7.384v1.768q-0.902 0.205-1.768 0.205-0.58 1.214-1.478 2.42t-1.621 1.924-1.143 0.951q-0.714 0.402-1.446-0.027-0.25-0.152-0.54-0.388t-0.759-0.746-0.915-1.147-0.96-1.643-0.942-2.179-0.817-2.808-0.629-3.482h2.527q0.232 1.946 0.625 3.558t0.933 2.83 1.085 2.103 1.25 1.741q1.509-1.509 2.563-3.625-1.268-0.643-1.991-1.964t-0.723-2.973q0-1.714 0.929-2.808t2.536-1.094q1.589 0 2.438 0.942t0.848 2.656q0 1.42-0.518 2.554-0.063 0.009-0.174 0.027t-0.411 0.018-0.563-0.054-0.554-0.228-0.451-0.46q0.277-0.92 0.277-1.643 0-0.777-0.259-1.179t-0.705-0.402q-0.473 0-0.759 0.442t-0.286 1.254q0 1.661 0.938 2.621t2.384 0.96q0.554 0 1.080-0.125z"></path>
</svg>
