<?xml version="1.0" encoding="utf-8"?>
<!-- Generated by IcoMoon.io -->
<!DOCTYPE svg PUBLIC "-//W3C//DTD SVG 1.1//EN" "http://www.w3.org/Graphics/SVG/1.1/DTD/svg11.dtd">
<svg version="1.1" xmlns="http://www.w3.org/2000/svg" xmlns:xlink="http://www.w3.org/1999/xlink" width="17" height="16" viewBox="0 0 17 16">
<path fill="#444444" d="M17.116 4.643q0.205 0.571-1.339 2.625-0.214 0.286-0.58 0.759-0.696 0.893-0.804 1.17-0.152 0.366 0.125 0.723 0.152 0.188 0.723 0.732h0.009l0.036 0.036q1.259 1.17 1.705 1.973 0.027 0.045 0.058 0.112t0.063 0.237-0.004 0.304-0.223 0.246-0.527 0.112l-2.286 0.036q-0.214 0.045-0.5-0.045t-0.464-0.196l-0.179-0.107q-0.268-0.188-0.625-0.571t-0.612-0.692-0.545-0.518-0.504-0.138q-0.027 0.009-0.071 0.031t-0.152 0.129-0.192 0.263-0.152 0.464-0.058 0.692q0 0.134-0.031 0.246t-0.067 0.165l-0.036 0.045q-0.161 0.17-0.473 0.196h-1.027q-0.634 0.036-1.304-0.147t-1.174-0.473-0.92-0.589-0.629-0.513l-0.223-0.214q-0.089-0.089-0.246-0.268t-0.638-0.813-0.946-1.348-1.094-1.884-1.165-2.429q-0.054-0.143-0.054-0.241t0.027-0.143l0.036-0.054q0.134-0.17 0.509-0.17l2.446-0.018q0.107 0.018 0.205 0.058t0.143 0.076l0.045 0.027q0.143 0.098 0.214 0.286 0.179 0.446 0.411 0.924t0.366 0.728l0.143 0.259q0.259 0.536 0.5 0.929t0.433 0.612 0.371 0.344 0.304 0.125 0.241-0.045q0.018-0.009 0.045-0.045t0.107-0.196 0.121-0.42 0.085-0.723 0-1.116q-0.018-0.357-0.080-0.652t-0.125-0.411l-0.054-0.107q-0.223-0.304-0.759-0.384-0.116-0.018 0.045-0.214 0.152-0.17 0.339-0.268 0.473-0.232 2.134-0.214 0.732 0.009 1.205 0.116 0.179 0.045 0.299 0.121t0.183 0.214 0.094 0.286 0.031 0.406-0.009 0.491-0.022 0.629-0.013 0.737q0 0.098-0.009 0.375t-0.004 0.429 0.031 0.362 0.103 0.348 0.201 0.219q0.071 0.018 0.152 0.036t0.232-0.098 0.339-0.308 0.464-0.598 0.607-0.96q0.536-0.929 0.955-2.009 0.036-0.089 0.089-0.156t0.098-0.094l0.036-0.027 0.045-0.022t0.116-0.027 0.179-0.004l2.571-0.018q0.348-0.045 0.571 0.022t0.277 0.147z"></path>
</svg>
