<?xml version="1.0" encoding="utf-8"?>
<!-- Generated by IcoMoon.io -->
<!DOCTYPE svg PUBLIC "-//W3C//DTD SVG 1.1//EN" "http://www.w3.org/Graphics/SVG/1.1/DTD/svg11.dtd">
<svg version="1.1" xmlns="http://www.w3.org/2000/svg" xmlns:xlink="http://www.w3.org/1999/xlink" width="15" height="16" viewBox="0 0 15 16">
<path fill="#444444" d="M6.857 3.143v9.714q0 0.232-0.17 0.402t-0.402 0.17-0.402-0.17l-2.973-2.973h-2.339q-0.232 0-0.402-0.17t-0.17-0.402v-3.429q0-0.232 0.17-0.402t0.402-0.17h2.339l2.973-2.973q0.17-0.17 0.402-0.17t0.402 0.17 0.17 0.402zM10.286 8q0 0.679-0.379 1.263t-1.004 0.835q-0.089 0.045-0.223 0.045-0.232 0-0.402-0.165t-0.17-0.406q0-0.188 0.107-0.317t0.259-0.223 0.304-0.205 0.259-0.317 0.107-0.509-0.107-0.509-0.259-0.317-0.304-0.205-0.259-0.223-0.107-0.317q0-0.241 0.17-0.406t0.402-0.165q0.134 0 0.223 0.045 0.625 0.241 1.004 0.83t0.379 1.268zM12.571 8q0 1.366-0.759 2.522t-2.009 1.683q-0.116 0.045-0.223 0.045-0.241 0-0.411-0.17t-0.17-0.402q0-0.348 0.348-0.527 0.5-0.259 0.679-0.393 0.661-0.482 1.031-1.21t0.371-1.549-0.371-1.549-1.031-1.21q-0.179-0.134-0.679-0.393-0.348-0.179-0.348-0.527 0-0.232 0.17-0.402t0.402-0.17q0.116 0 0.232 0.045 1.25 0.527 2.009 1.683t0.759 2.522zM14.857 8q0 2.054-1.134 3.772t-3.018 2.531q-0.116 0.045-0.232 0.045-0.232 0-0.402-0.17t-0.17-0.402q0-0.321 0.348-0.527 0.063-0.036 0.201-0.094t0.201-0.094q0.411-0.223 0.732-0.455 1.098-0.813 1.714-2.027t0.616-2.58-0.616-2.58-1.714-2.027q-0.321-0.232-0.732-0.455-0.063-0.036-0.201-0.094t-0.201-0.094q-0.348-0.205-0.348-0.527 0-0.232 0.17-0.402t0.402-0.17q0.116 0 0.232 0.045 1.884 0.813 3.018 2.531t1.134 3.772z"></path>
</svg>
