<?xml version="1.0" encoding="utf-8"?>
<!-- Generated by IcoMoon.io -->
<!DOCTYPE svg PUBLIC "-//W3C//DTD SVG 1.1//EN" "http://www.w3.org/Graphics/SVG/1.1/DTD/svg11.dtd">
<svg version="1.1" xmlns="http://www.w3.org/2000/svg" xmlns:xlink="http://www.w3.org/1999/xlink" width="16" height="16" viewBox="0 0 16 16">
<path fill="#444444" d="M10.976 0.575c-4.101-1.642-8.758 0.351-10.4 4.452s0.351 8.759 4.452 10.401c4.102 1.642 8.758-0.351 10.401-4.453s-0.351-8.758-4.453-10.401zM5.4 14.501c-3.583-1.435-5.331-5.517-3.897-9.101s5.518-5.332 9.101-3.896c3.583 1.434 5.331 5.517 3.896 9.1s-5.518 5.331-9.101 3.896zM8.374 7.074c-0.513-0.205-1.095 0.044-1.3 0.556s0.044 1.094 0.556 1.3c0.513 0.206 1.096-0.044 1.301-0.556s-0.044-1.095-0.556-1.3zM7.816 8.466c-0.256-0.103-0.38-0.394-0.279-0.651 0.103-0.256 0.394-0.38 0.65-0.279s0.38 0.394 0.278 0.65c-0.102 0.256-0.394 0.38-0.65 0.278zM9.117 5.218c-1.538-0.616-3.284 0.132-3.9 1.67s0.132 3.284 1.67 3.9c1.538 0.616 3.284-0.132 3.9-1.669s-0.131-3.284-1.669-3.9zM7.259 9.858c-1.024-0.409-1.523-1.576-1.114-2.6s1.576-1.523 2.6-1.114c1.024 0.41 1.524 1.577 1.114 2.601-0.411 1.024-1.577 1.524-2.601 1.113zM11.716 9.489h-0.001c-0.409 1.020-1.191 1.778-2.128 2.183-0.004 0.002-0.005 0.005-0.011 0.008-0.127 0.054-0.274-0.005-0.328-0.132s0.005-0.274 0.131-0.328c0.823-0.352 1.512-1.019 1.872-1.917v0.001c0.052-0.129 0.197-0.191 0.325-0.139 0.128 0.051 0.191 0.197 0.139 0.325zM13.432 9.907c0.128 0.052 0.191 0.197 0.139 0.325-0.613 1.529-1.788 2.668-3.192 3.274-0.006 0.002-0.011 0.008-0.017 0.011-0.127 0.054-0.274-0.004-0.328-0.132s0.005-0.274 0.131-0.328c1.294-0.554 2.377-1.601 2.941-3.011 0.052-0.128 0.197-0.191 0.325-0.139zM12.504 9.536c0.128 0.052 0.191 0.197 0.139 0.325-0.511 1.274-1.49 2.223-2.66 2.728-0.005 0.003-0.008 0.008-0.014 0.010-0.127 0.054-0.274-0.005-0.328-0.132s0.005-0.274 0.132-0.329h-0.001c1.059-0.454 1.945-1.31 2.406-2.464 0.052-0.129 0.197-0.191 0.325-0.139zM6.756 4.456c0.054 0.128-0.005 0.274-0.131 0.329-0.823 0.352-1.513 1.019-1.872 1.916h-0c-0.051 0.128-0.197 0.191-0.325 0.139s-0.191-0.197-0.139-0.325h0c0.408-1.019 1.192-1.778 2.128-2.183 0.003-0.002 0.006-0.005 0.011-0.007 0.127-0.054 0.274 0.003 0.329 0.131zM5.969 2.618c0.054 0.127-0.005 0.273-0.131 0.329-1.294 0.554-2.377 1.602-2.942 3.011-0.051 0.128-0.197 0.191-0.325 0.139s-0.191-0.197-0.139-0.325c0.612-1.529 1.788-2.667 3.192-3.274 0.005-0.002 0.010-0.008 0.016-0.010 0.127-0.054 0.274 0.005 0.329 0.131zM6.231 3.865v0.002c-1.059 0.453-1.944 1.31-2.406 2.464-0.051 0.128-0.197 0.19-0.325 0.139s-0.191-0.197-0.139-0.325c0.51-1.274 1.489-2.223 2.66-2.729 0.005-0.002 0.008-0.007 0.013-0.009 0.127-0.054 0.274 0.005 0.329 0.131 0.054 0.127-0.005 0.274-0.131 0.328z"></path>
</svg>
