<?xml version="1.0" encoding="utf-8"?>
<!-- Generated by IcoMoon.io -->
<!DOCTYPE svg PUBLIC "-//W3C//DTD SVG 1.1//EN" "http://www.w3.org/Graphics/SVG/1.1/DTD/svg11.dtd">
<svg version="1.1" xmlns="http://www.w3.org/2000/svg" xmlns:xlink="http://www.w3.org/1999/xlink" width="16" height="16" viewBox="0 0 16 16">
<path fill="#444444" d="M8 10c0-0.552 0.448-1 1-1s1 0.448 1 1c0 0.552-0.448 1-1 1s-1-0.448-1-1zM14.501 6.5c-0.001 0-0.001 0 0 0l-0.001-3v-1.5c0-0.829-0.672-1.5-1.5-1.5h-10.25c-1.516 0-2.75 1.234-2.75 2.75v10c0 1.516 1.234 2.75 2.75 2.75h9c1.516 0 2.75-1.234 2.75-2.75v-0.75c0 0 0 0 0.001 0 1.999-1.501 1.999-4.5 0-6zM2.75 1.5h10.25c0.275 0 0.5 0.224 0.5 0.5v3.092c-0.157-0.056-0.324-0.092-0.5-0.092h-0.001v-2.5c0-0.276-0.224-0.5-0.5-0.5h-10.5c-0.276 0-0.5 0.224-0.5 0.5v1.971c-0.308-0.316-0.5-0.745-0.5-1.221 0-0.966 0.783-1.75 1.75-1.75zM12.499 3h-10.5v-0.5h10.5v0.5zM12.499 3.5v0.5h-10.5v-0.5h10.5zM12.499 4.5v0.5h-9.749c-0.27 0-0.522-0.066-0.75-0.175v-0.325h10.499zM13.5 13.25c0 0.966-0.784 1.75-1.75 1.75h-9c-0.967 0-1.75-0.784-1.75-1.75v-7.88c0.476 0.394 1.085 0.63 1.75 0.63h10.25c0.275 0 0.5 0.224 0.5 0.5v1h-4.5c-1.381 0-2.5 1.119-2.5 2.5s1.12 2.5 2.5 2.5h4.5v0.75zM14.139 11.5h-5.139c-0.827 0-1.5-0.673-1.5-1.5s0.673-1.5 1.5-1.5h4.5c0.309-0.004 0.614-0.153 0.801-0.402 0.052-0.070 0.092-0.149 0.125-0.231 0.005-0.011 0.012-0.019 0.017-0.031 0.36 0.472 0.557 1.050 0.557 1.663 0 0.769-0.31 1.482-0.861 2z"></path>
</svg>
