<?xml version="1.0" encoding="utf-8"?>
<!-- Generated by IcoMoon.io -->
<!DOCTYPE svg PUBLIC "-//W3C//DTD SVG 1.1//EN" "http://www.w3.org/Graphics/SVG/1.1/DTD/svg11.dtd">
<svg version="1.1" xmlns="http://www.w3.org/2000/svg" xmlns:xlink="http://www.w3.org/1999/xlink" width="18" height="16" viewBox="0 0 18 16">
<path fill="#444444" d="M5.179 4.116q0-0.366-0.223-0.589t-0.589-0.223q-0.384 0-0.679 0.228t-0.295 0.585q0 0.348 0.295 0.576t0.679 0.228q0.366 0 0.589-0.219t0.223-0.585zM11.813 8.643q0-0.25-0.228-0.446t-0.585-0.196q-0.241 0-0.442 0.201t-0.201 0.442q0 0.25 0.201 0.451t0.442 0.201q0.357 0 0.585-0.196t0.228-0.455zM9.705 4.116q0-0.366-0.219-0.589t-0.585-0.223q-0.384 0-0.679 0.228t-0.295 0.585q0 0.348 0.295 0.576t0.679 0.228q0.366 0 0.585-0.219t0.219-0.585zM15.375 8.643q0-0.25-0.232-0.446t-0.58-0.196q-0.241 0-0.442 0.201t-0.201 0.442q0 0.25 0.201 0.451t0.442 0.201q0.348 0 0.58-0.196t0.232-0.455zM13 5.098q-0.277-0.036-0.625-0.036-1.509 0-2.777 0.688t-1.996 1.862-0.728 2.567q0 0.696 0.205 1.357-0.313 0.027-0.607 0.027-0.232 0-0.446-0.013t-0.491-0.058-0.397-0.063-0.487-0.094-0.446-0.094l-2.259 1.134 0.643-1.946q-2.589-1.813-2.589-4.375 0-1.509 0.871-2.777t2.357-1.996 3.246-0.728q1.571 0 2.969 0.589t2.339 1.629 1.219 2.326zM18.286 10.107q0 1.045-0.612 1.996t-1.656 1.728l0.491 1.616-1.777-0.973q-1.339 0.33-1.946 0.33-1.509 0-2.777-0.629t-1.996-1.71-0.728-2.357 0.728-2.357 1.996-1.71 2.777-0.629q1.438 0 2.705 0.629t2.031 1.714 0.763 2.353z"></path>
</svg>
