<?xml version="1.0" encoding="utf-8"?>
<!-- Generated by IcoMoon.io -->
<!DOCTYPE svg PUBLIC "-//W3C//DTD SVG 1.1//EN" "http://www.w3.org/Graphics/SVG/1.1/DTD/svg11.dtd">
<svg version="1.1" xmlns="http://www.w3.org/2000/svg" xmlns:xlink="http://www.w3.org/1999/xlink" width="16" height="16" viewBox="0 0 16 16">
<path fill="#444444" d="M6.027 11.464q0.188-0.304 0.098-0.616t-0.402-0.446q-0.304-0.125-0.652-0.009t-0.536 0.411q-0.196 0.304-0.116 0.612t0.384 0.451 0.665 0.022 0.558-0.424zM6.866 10.384q0.071-0.116 0.031-0.237t-0.156-0.165q-0.125-0.045-0.254 0.004t-0.192 0.165q-0.152 0.277 0.116 0.402 0.125 0.045 0.259-0.004t0.196-0.165zM8.42 11.339q-0.402 0.911-1.411 1.339t-2 0.107q-0.955-0.304-1.317-1.129t0.058-1.674q0.42-0.83 1.353-1.241t1.879-0.17q0.991 0.259 1.415 1.067t0.022 1.701zM11.205 9.911q-0.080-0.857-0.795-1.518t-1.862-0.973-2.451-0.188q-1.991 0.205-3.299 1.263t-1.183 2.362q0.080 0.857 0.795 1.518t1.862 0.973 2.451 0.188q1.991-0.205 3.299-1.263t1.183-2.362zM13.955 9.946q0 0.607-0.33 1.246t-0.973 1.223-1.504 1.049-2.018 0.741-2.415 0.277-2.455-0.299-2.147-0.83-1.531-1.348-0.58-1.781q0-1.027 0.621-2.188t1.763-2.304q1.509-1.509 3.049-2.107t2.201 0.063q0.58 0.571 0.179 1.866-0.036 0.125-0.009 0.179t0.089 0.063 0.129-0.004 0.121-0.031l0.054-0.018q1.241-0.527 2.196-0.527t1.366 0.545q0.402 0.563 0 1.589-0.018 0.116-0.040 0.179t0.040 0.112 0.107 0.067 0.152 0.054q0.509 0.161 0.92 0.42t0.714 0.728 0.304 1.040zM13.295 4.375q0.375 0.42 0.487 0.969t-0.058 1.049q-0.071 0.205-0.263 0.304t-0.397 0.036q-0.205-0.071-0.304-0.263t-0.036-0.397q0.179-0.563-0.214-0.991t-0.955-0.313q-0.214 0.045-0.402-0.071t-0.223-0.33q-0.045-0.214 0.071-0.397t0.33-0.228q0.536-0.116 1.063 0.049t0.902 0.585zM14.911 2.92q0.777 0.857 1.004 1.987t-0.121 2.156q-0.080 0.241-0.304 0.357t-0.464 0.036-0.357-0.304-0.045-0.464q0.25-0.732 0.089-1.536t-0.714-1.411q-0.554-0.616-1.321-0.853t-1.545-0.076q-0.25 0.054-0.464-0.085t-0.268-0.388 0.085-0.46 0.388-0.263q1.098-0.232 2.179 0.103t1.857 1.201z"></path>
</svg>
