<?xml version="1.0" encoding="utf-8"?>
<!-- Generated by IcoMoon.io -->
<!DOCTYPE svg PUBLIC "-//W3C//DTD SVG 1.1//EN" "http://www.w3.org/Graphics/SVG/1.1/DTD/svg11.dtd">
<svg version="1.1" xmlns="http://www.w3.org/2000/svg" xmlns:xlink="http://www.w3.org/1999/xlink" width="14" height="16" viewBox="0 0 14 16">
<path fill="#444444" d="M8.795 8.696q0.116 0 0.871 0.393t0.799 0.473q0.018 0.045 0.018 0.134 0 0.295-0.152 0.679-0.143 0.348-0.634 0.585t-0.911 0.237q-0.509 0-1.696-0.554-0.875-0.402-1.518-1.054t-1.321-1.652q-0.643-0.955-0.634-1.732v-0.071q0.027-0.813 0.661-1.411 0.214-0.196 0.464-0.196 0.054 0 0.161 0.013t0.17 0.013q0.17 0 0.237 0.058t0.138 0.246q0.071 0.179 0.295 0.786t0.223 0.67q0 0.188-0.308 0.513t-0.308 0.415q0 0.063 0.045 0.134 0.304 0.652 0.911 1.223 0.5 0.473 1.348 0.902 0.107 0.063 0.196 0.063 0.134 0 0.482-0.433t0.464-0.433zM6.982 13.429q1.134 0 2.174-0.446t1.79-1.196 1.196-1.79 0.446-2.174-0.446-2.174-1.196-1.79-1.79-1.196-2.174-0.446-2.174 0.446-1.79 1.196-1.196 1.79-0.446 2.174q0 1.813 1.071 3.286l-0.705 2.080 2.161-0.688q1.411 0.929 3.080 0.929zM6.982 1.089q1.366 0 2.612 0.536t2.147 1.438 1.438 2.147 0.536 2.612-0.536 2.612-1.438 2.147-2.147 1.438-2.612 0.536q-1.741 0-3.259-0.839l-3.723 1.196 1.214-3.616q-0.964-1.589-0.964-3.473 0-1.366 0.536-2.612t1.438-2.147 2.147-1.438 2.612-0.536z"></path>
</svg>
