<?xml version="1.0" encoding="utf-8"?>
<!-- Generated by IcoMoon.io -->
<!DOCTYPE svg PUBLIC "-//W3C//DTD SVG 1.1//EN" "http://www.w3.org/Graphics/SVG/1.1/DTD/svg11.dtd">
<svg version="1.1" xmlns="http://www.w3.org/2000/svg" xmlns:xlink="http://www.w3.org/1999/xlink" width="15" height="16" viewBox="0 0 15 16">
<path fill="#444444" d="M9.134 10.598l0.911 1.821q-0.518 1.598-1.875 2.589t-3.027 0.991q-1.393 0-2.576-0.692t-1.875-1.875-0.692-2.576q0-1.616 0.933-2.946t2.451-1.884l0.152 1.17q-1.089 0.482-1.741 1.478t-0.652 2.183q0 1.652 1.174 2.826t2.826 1.174q1.125 0 2.076-0.58t1.473-1.567 0.442-2.112zM14.027 11.491l0.518 1.018-2.286 1.143q-0.116 0.063-0.259 0.063-0.357 0-0.509-0.313l-2.134-4.259h-4.214q-0.214 0-0.379-0.147t-0.192-0.362l-0.857-6.955q-0.018-0.143 0.054-0.375 0.125-0.455 0.509-0.737t0.866-0.281q0.589 0 1.009 0.42t0.42 1.009q0 0.616-0.464 1.049t-1.071 0.371l0.33 2.58h3.777v1.143h-3.634l0.143 1.143h4.063q0.357 0 0.509 0.313l2.036 4.063z"></path>
</svg>
