<?xml version="1.0" encoding="utf-8"?>
<!-- Generated by IcoMoon.io -->
<!DOCTYPE svg PUBLIC "-//W3C//DTD SVG 1.1//EN" "http://www.w3.org/Graphics/SVG/1.1/DTD/svg11.dtd">
<svg version="1.1" xmlns="http://www.w3.org/2000/svg" xmlns:xlink="http://www.w3.org/1999/xlink" width="18" height="16" viewBox="0 0 18 16">
<path fill="#444444" d="M9.143 13.598q-0.179 0-0.83-0.656t-0.652-0.835q0-0.286 0.558-0.482t0.924-0.196 0.924 0.196 0.558 0.482q0 0.179-0.652 0.835t-0.83 0.656zM11.554 11.179q-0.018 0-0.357-0.223t-0.906-0.446-1.147-0.223-1.147 0.223-0.902 0.446-0.362 0.223q-0.161 0-0.835-0.67t-0.674-0.83q0-0.116 0.089-0.205 0.696-0.688 1.75-1.080t2.080-0.393 2.080 0.393 1.75 1.080q0.089 0.089 0.089 0.205 0 0.161-0.674 0.83t-0.835 0.67zM13.991 8.75q-0.098 0-0.205-0.071-1.214-0.938-2.25-1.379t-2.393-0.442q-0.759 0-1.522 0.196t-1.33 0.473-1.013 0.554-0.705 0.473-0.277 0.196q-0.152 0-0.821-0.67t-0.67-0.83q0-0.107 0.089-0.196 1.179-1.179 2.857-1.83t3.393-0.652 3.393 0.652 2.857 1.83q0.089 0.089 0.089 0.196 0 0.161-0.67 0.83t-0.821 0.67zM16.411 6.33q-0.098 0-0.196-0.080-1.598-1.402-3.317-2.112t-3.754-0.71-3.754 0.71-3.317 2.112q-0.098 0.080-0.196 0.080-0.152 0-0.826-0.67t-0.674-0.83q0-0.116 0.089-0.205 1.67-1.661 3.973-2.571t4.705-0.911 4.705 0.911 3.973 2.571q0.089 0.089 0.089 0.205 0 0.161-0.674 0.83t-0.826 0.67z"></path>
</svg>
