<?xml version="1.0" encoding="utf-8"?>
<!-- Generated by IcoMoon.io -->
<!DOCTYPE svg PUBLIC "-//W3C//DTD SVG 1.1//EN" "http://www.w3.org/Graphics/SVG/1.1/DTD/svg11.dtd">
<svg version="1.1" xmlns="http://www.w3.org/2000/svg" xmlns:xlink="http://www.w3.org/1999/xlink" width="21" height="16" viewBox="0 0 21 16">
<path fill="#444444" d="M13.339 14.634l-2.634-6.205q-0.223 0.438-1.415 2.728t-1.772 3.478q-0.009 0.009-0.246 0.004t-0.237-0.013q-0.732-1.723-2.281-5.241t-2.317-5.321q-0.188-0.446-0.594-0.96t-0.924-0.897-0.911-0.384q0-0.045-0.004-0.214t-0.004-0.241h5.205v0.446q-0.348 0.018-0.71 0.143t-0.594 0.384-0.089 0.571q0.232 0.527 1.933 4.455t2.103 4.821q0.277-0.545 1.25-2.379t1.17-2.21q-0.17-0.348-1.125-2.509t-1.214-2.634q-0.339-0.616-1.795-0.634v-0.446l4.58 0.009v0.42q-0.536 0.018-0.835 0.223t-0.112 0.616q0.295 0.625 0.777 1.692t0.768 1.674q0.982-1.911 1.545-3.241 0.214-0.491-0.089-0.71t-1.152-0.237q0.009-0.063 0.009-0.223v-0.214q0.571 0 1.522-0.004t1.607-0.009 0.826-0.004v0.438q-0.554 0.018-1.063 0.295t-0.804 0.723l-1.902 3.946q0.116 0.295 1.138 2.589t1.085 2.446l3.937-9.080q-0.125-0.339-0.442-0.558t-0.58-0.281-0.496-0.071v-0.446l4.107 0.036 0.009 0.018-0.009 0.393q-1.241 0.036-1.795 1.295-4.696 10.857-4.991 11.527h-0.438z"></path>
</svg>
