<?xml version="1.0" encoding="utf-8"?>
<!-- Generated by IcoMoon.io -->
<!DOCTYPE svg PUBLIC "-//W3C//DTD SVG 1.1//EN" "http://www.w3.org/Graphics/SVG/1.1/DTD/svg11.dtd">
<svg version="1.1" xmlns="http://www.w3.org/2000/svg" xmlns:xlink="http://www.w3.org/1999/xlink" width="16" height="16" viewBox="0 0 16 16">
<path fill="#444444" d="M1.134 8q0-1.455 0.598-2.795l3.277 8.973q-1.75-0.848-2.813-2.509t-1.063-3.67zM12.634 7.652q0 0.17-0.022 0.344t-0.089 0.442-0.103 0.393-0.156 0.527-0.156 0.518l-0.679 2.286-2.482-7.375q0.411-0.027 0.786-0.071 0.17-0.018 0.232-0.165t-0.022-0.277-0.254-0.121l-1.83 0.089q-0.67-0.009-1.804-0.089-0.107-0.009-0.183 0.045t-0.103 0.134-0.013 0.165 0.080 0.147 0.174 0.071l0.714 0.071 1.071 2.929-1.5 4.5-2.5-7.429q0.411-0.027 0.786-0.071 0.17-0.018 0.232-0.165t-0.022-0.277-0.254-0.121l-1.83 0.089q-0.063 0-0.205-0.004t-0.232-0.004q0.938-1.429 2.451-2.263t3.281-0.835q1.313 0 2.504 0.473t2.129 1.33h-0.089q-0.491 0-0.821 0.362t-0.33 0.853q0 0.107 0.018 0.214t0.036 0.192 0.071 0.205 0.080 0.188 0.107 0.201 0.112 0.188 0.129 0.214 0.125 0.205q0.563 0.955 0.563 1.893zM8.116 8.598l2.116 5.777q0.009 0.054 0.045 0.098-1.125 0.393-2.277 0.393-1 0-1.938-0.286zM14.018 4.705q0.848 1.554 0.848 3.295 0 1.866-0.929 3.442t-2.491 2.487l2.098-6.054q0.527-1.509 0.527-2.464 0-0.375-0.054-0.705zM8 0q1.625 0 3.107 0.634t2.554 1.705 1.705 2.554 0.634 3.107-0.634 3.107-1.705 2.554-2.554 1.705-3.107 0.634-3.107-0.634-2.554-1.705-1.705-2.554-0.634-3.107 0.634-3.107 1.705-2.554 2.554-1.705 3.107-0.634zM8 15.634q1.545 0 2.96-0.607t2.438-1.629 1.629-2.438 0.607-2.96-0.607-2.96-1.629-2.438-2.438-1.629-2.96-0.607-2.96 0.607-2.438 1.629-1.629 2.438-0.607 2.96 0.607 2.96 1.629 2.438 2.438 1.629 2.96 0.607z"></path>
</svg>
