<?xml version="1.0" encoding="utf-8"?>
<!-- Generated by IcoMoon.io -->
<!DOCTYPE svg PUBLIC "-//W3C//DTD SVG 1.1//EN" "http://www.w3.org/Graphics/SVG/1.1/DTD/svg11.dtd">
<svg version="1.1" xmlns="http://www.w3.org/2000/svg" xmlns:xlink="http://www.w3.org/1999/xlink" width="16" height="16" viewBox="0 0 16 16">
<path fill="#444444" d="M7.75 0c-4.28 0-7.75 3.47-7.75 7.75s3.47 7.75 7.75 7.75 7.75-3.47 7.75-7.75-3.47-7.75-7.75-7.75zM14.488 7.5h-2.998c-0.027-1.107-0.225-2.165-0.574-3.134 0.675-0.282 1.299-0.656 1.868-1.099 1.011 1.135 1.644 2.61 1.704 4.232zM7.473 14.486c-0.831-0.692-1.528-1.591-2.038-2.634 0.654-0.204 1.348-0.316 2.064-0.339v2.975c-0.009 0-0.018-0.001-0.027-0.001zM8.025 1.014c0.943 0.785 1.713 1.837 2.233 3.063-0.713 0.244-1.47 0.385-2.259 0.41v-3.474c0.009 0 0.018 0.001 0.026 0.002zM8.858 1.099c1.38 0.23 2.618 0.874 3.582 1.807-0.524 0.401-1.095 0.742-1.714 0.999-0.455-1.079-1.094-2.032-1.868-2.806zM7.5 1.012v3.474c-0.788-0.026-1.546-0.167-2.259-0.41 0.521-1.226 1.29-2.278 2.233-3.063 0.009-0 0.017-0.001 0.026-0.002zM4.773 3.905c-0.617-0.257-1.19-0.598-1.713-0.999 0.963-0.933 2.202-1.577 3.582-1.807-0.775 0.773-1.413 1.727-1.869 2.806zM5.053 4.538c0.771 0.268 1.593 0.423 2.447 0.45v2.513h-2.989c0.027-1.047 0.213-2.048 0.542-2.962zM7.5 8v3.012c-0.788 0.024-1.551 0.153-2.269 0.384-0.433-1.031-0.689-2.18-0.72-3.397h2.989zM6.641 14.401c-1.237-0.206-2.359-0.744-3.272-1.526 0.493-0.341 1.025-0.63 1.594-0.85 0.436 0.904 1.006 1.707 1.679 2.376zM8 14.488v-2.974c0.716 0.023 1.41 0.135 2.064 0.339-0.511 1.043-1.207 1.942-2.038 2.634-0.008 0-0.018 0.001-0.027 0.001zM10.537 12.025c0.569 0.22 1.101 0.509 1.594 0.85-0.913 0.781-2.036 1.32-3.273 1.526 0.672-0.669 1.242-1.472 1.678-2.376zM10.27 11.397c-0.719-0.232-1.482-0.361-2.27-0.384v-3.013h2.989c-0.031 1.217-0.287 2.366-0.72 3.397zM8 7.5v-2.513c0.854-0.026 1.676-0.181 2.447-0.449 0.329 0.915 0.514 1.915 0.542 2.962h-2.989zM2.717 3.268c0.569 0.442 1.193 0.817 1.868 1.098-0.349 0.968-0.546 2.027-0.574 3.134h-2.998c0.060-1.623 0.692-3.097 1.704-4.232zM1.012 8h2.998c0.031 1.277 0.298 2.484 0.752 3.569-0.633 0.247-1.224 0.576-1.769 0.966-1.174-1.168-1.915-2.766-1.98-4.534zM12.507 12.534c-0.545-0.389-1.136-0.719-1.77-0.966 0.454-1.085 0.72-2.291 0.752-3.569h2.998c-0.066 1.768-0.807 3.366-1.98 4.534z"></path>
</svg>
