<?xml version="1.0" encoding="utf-8"?>
<!-- Generated by IcoMoon.io -->
<!DOCTYPE svg PUBLIC "-//W3C//DTD SVG 1.1//EN" "http://www.w3.org/Graphics/SVG/1.1/DTD/svg11.dtd">
<svg version="1.1" xmlns="http://www.w3.org/2000/svg" xmlns:xlink="http://www.w3.org/1999/xlink" width="15" height="16" viewBox="0 0 15 16">
<path fill="#444444" d="M3.429 13.143q0-0.232-0.17-0.402t-0.402-0.17-0.402 0.17-0.17 0.402 0.17 0.402 0.402 0.17 0.402-0.17 0.17-0.402zM9.179 9.393l-6.089 6.089q-0.33 0.33-0.804 0.33-0.464 0-0.813-0.33l-0.946-0.964q-0.339-0.321-0.339-0.804 0-0.473 0.339-0.813l6.080-6.080q0.348 0.875 1.022 1.549t1.549 1.022zM14.839 5.509q0 0.348-0.205 0.946-0.42 1.196-1.469 1.942t-2.308 0.746q-1.652 0-2.826-1.174t-1.174-2.826 1.174-2.826 2.826-1.174q0.518 0 1.085 0.147t0.96 0.415q0.143 0.098 0.143 0.25t-0.143 0.25l-2.616 1.509v2l1.723 0.955q0.045-0.027 0.705-0.433t1.21-0.723 0.629-0.317q0.134 0 0.21 0.089t0.076 0.223z"></path>
</svg>
