<?xml version="1.0" encoding="utf-8"?>
<!-- Generated by IcoMoon.io -->
<!DOCTYPE svg PUBLIC "-//W3C//DTD SVG 1.1//EN" "http://www.w3.org/Graphics/SVG/1.1/DTD/svg11.dtd">
<svg version="1.1" xmlns="http://www.w3.org/2000/svg" xmlns:xlink="http://www.w3.org/1999/xlink" width="13" height="16" viewBox="0 0 13 16">
<path fill="#444444" d="M5.33 5.955q-0.089 0.161-2.295 4.071-0.241 0.411-0.58 0.411h-2.134q-0.188 0-0.277-0.152t0-0.321l2.259-4q0.009 0 0-0.009l-1.438-2.491q-0.107-0.196-0.009-0.33 0.080-0.134 0.286-0.134h2.134q0.357 0 0.589 0.402zM12.527 0.223q0.098 0.143 0 0.33l-4.714 8.339v0.009l3 5.491q0.098 0.179 0.009 0.33-0.089 0.134-0.286 0.134h-2.134q-0.375 0-0.589-0.402l-3.027-5.554q0.161-0.286 4.741-8.411 0.223-0.402 0.571-0.402h2.152q0.196 0 0.277 0.134z"></path>
</svg>
