<?xml version="1.0" encoding="utf-8"?>
<!-- Generated by IcoMoon.io -->
<!DOCTYPE svg PUBLIC "-//W3C//DTD SVG 1.1//EN" "http://www.w3.org/Graphics/SVG/1.1/DTD/svg11.dtd">
<svg version="1.1" xmlns="http://www.w3.org/2000/svg" xmlns:xlink="http://www.w3.org/1999/xlink" width="14" height="16" viewBox="0 0 14 16">
<path fill="#444444" d="M6.116 6.83q0-0.009-1.125-1.982-0.188-0.304-0.464-0.304h-1.643q-0.161 0-0.232 0.098-0.063 0.107 0.009 0.259l1.116 1.929v0.009l-1.75 3.089q-0.080 0.125 0 0.25 0.071 0.116 0.214 0.116h1.652q0.277 0 0.446-0.321zM11.688 2.393q-0.063-0.107-0.214-0.107h-1.67q-0.268 0-0.438 0.313l-3.67 6.509q0.009 0.018 2.339 4.295 0.179 0.313 0.464 0.313h1.643q0.161 0 0.223-0.107 0.071-0.116-0.009-0.25l-2.321-4.25v-0.009l3.652-6.455q0.071-0.143 0-0.25zM13.714 3.714v8.571q0 1.063-0.754 1.817t-1.817 0.754h-8.571q-1.063 0-1.817-0.754t-0.754-1.817v-8.571q0-1.063 0.754-1.817t1.817-0.754h8.571q1.063 0 1.817 0.754t0.754 1.817z"></path>
</svg>
