<?xml version="1.0" encoding="utf-8"?>
<!-- Generated by IcoMoon.io -->
<!DOCTYPE svg PUBLIC "-//W3C//DTD SVG 1.1//EN" "http://www.w3.org/Graphics/SVG/1.1/DTD/svg11.dtd">
<svg version="1.1" xmlns="http://www.w3.org/2000/svg" xmlns:xlink="http://www.w3.org/1999/xlink" width="15" height="16" viewBox="0 0 15 16">
<path fill="rgb(238, 240, 119)" d="M0.307 10.229c-0 0-0.001 0-0.001 0-0.168 0-0.304 0.136-0.304 0.304 0 0.031 0.005 0.062 0.014 0.090 0.836 2.905 3.644 4.92 6.498 5.347 0.037 0.017 0.080 0.027 0.126 0.027 0.168 0 0.304-0.136 0.304-0.304 0-0.094-0.043-0.178-0.109-0.233l-0.008-0.007c-0.048-0.041-0.109-0.067-0.177-0.072-2.632-0.369-5.288-2.278-6.050-4.929-0.036-0.13-0.153-0.224-0.292-0.224z"></path>
<path fill="rgb(238, 240, 119)" d="M7.963 0.002v0.608l-0.015-0c1.675 0.085 3.144 0.912 4.248 2.029s1.829 2.529 2.015 3.705c0.024 0.146 0.149 0.257 0.3 0.257 0.168 0 0.304-0.136 0.304-0.304 0-0.017-0.001-0.033-0.004-0.049-0.211-1.338-0.994-2.832-2.183-4.035-1.179-1.194-2.771-2.099-4.609-2.205-0.016-0.003-0.035-0.005-0.054-0.005-0.001 0-0.002 0-0.003 0z"></path>
<path fill="rgb(238, 240, 119)" d="M4.302 12.042h-0.647l3.24-4.212-1.815-2.658q-0.169-0.245-0.351-0.486-0.18-0.241-0.415-0.44-0.233-0.201-0.551-0.337-0.316-0.136-0.758-0.163v-0.26h1.555q0.312 0 0.578 0.13t0.486 0.337 0.402 0.46 0.35 0.498l1.296 1.945 2.593-3.37h0.647l-2.916 3.824 2.074 3.046q0.168 0.247 0.362 0.487 0.195 0.239 0.427 0.44 0.234 0.201 0.506 0.337t0.584 0.161v0.26h-1.361q-0.312 0-0.578-0.13t-0.486-0.337-0.408-0.459q-0.188-0.253-0.343-0.5l-1.555-2.334-2.918 3.76z"></path>
</svg>
