<?xml version="1.0" encoding="utf-8"?>
<!-- Generated by IcoMoon.io -->
<!DOCTYPE svg PUBLIC "-//W3C//DTD SVG 1.1//EN" "http://www.w3.org/Graphics/SVG/1.1/DTD/svg11.dtd">
<svg version="1.1" xmlns="http://www.w3.org/2000/svg" xmlns:xlink="http://www.w3.org/1999/xlink" width="15" height="16" viewBox="0 0 15 16">
<path fill="rgb(238, 240, 119)" d="M4.301 12.043h-0.647l3.241-4.213-1.815-2.659q-0.169-0.245-0.351-0.486-0.18-0.241-0.415-0.44-0.233-0.201-0.551-0.337-0.317-0.136-0.758-0.163v-0.26h1.556q0.312 0 0.578 0.13t0.486 0.337 0.402 0.461 0.35 0.499l1.296 1.945 2.594-3.371h0.647l-2.917 3.825 2.075 3.047q0.168 0.247 0.362 0.487 0.195 0.239 0.427 0.44 0.234 0.201 0.506 0.337t0.584 0.161v0.26h-1.361q-0.312 0-0.578-0.13t-0.486-0.337-0.408-0.459q-0.188-0.253-0.343-0.5l-1.556-2.334-2.918 3.76z"></path>
</svg>
