<?xml version="1.0" encoding="utf-8"?>
<!-- Generated by IcoMoon.io -->
<!DOCTYPE svg PUBLIC "-//W3C//DTD SVG 1.1//EN" "http://www.w3.org/Graphics/SVG/1.1/DTD/svg11.dtd">
<svg version="1.1" xmlns="http://www.w3.org/2000/svg" xmlns:xlink="http://www.w3.org/1999/xlink" width="14" height="16" viewBox="0 0 14 16">
<path fill="#444444" d="M7.67 8.545l0.116 6.313q-0.554-0.098-0.938-0.098-0.366 0-0.938 0.098l0.116-6.313q-0.357-0.616-1.504-2.638t-1.933-3.344-1.616-2.563q0.518 0.134 0.964 0.134 0.384 0 0.991-0.134 0.563 0.991 1.192 2.049t1.491 2.469 1.237 2.027q0.33-0.545 0.978-1.585t1.049-1.696 0.938-1.571 0.955-1.692q0.482 0.125 0.955 0.125 0.5 0 1.018-0.125v0q-0.25 0.348-0.536 0.79t-0.442 0.701-0.504 0.857-0.438 0.75q-1.304 2.214-3.152 5.446z"></path>
</svg>
