<?xml version="1.0" encoding="utf-8"?>
<!-- Generated by IcoMoon.io -->
<!DOCTYPE svg PUBLIC "-//W3C//DTD SVG 1.1//EN" "http://www.w3.org/Graphics/SVG/1.1/DTD/svg11.dtd">
<svg version="1.1" xmlns="http://www.w3.org/2000/svg" xmlns:xlink="http://www.w3.org/1999/xlink" width="14" height="16" viewBox="0 0 14 16">
<path fill="#444444" d="M6.902 11.777v1.134q-0.009 2.607-0.054 2.723-0.107 0.286-0.455 0.357-0.482 0.080-1.621-0.339t-1.451-0.795q-0.116-0.134-0.152-0.321-0.009-0.107 0.036-0.232 0.036-0.089 0.304-0.42t1.616-1.929q0.009 0 0.536-0.625 0.134-0.17 0.353-0.219t0.442 0.031q0.214 0.089 0.335 0.259t0.112 0.375zM5.571 9.536q-0.027 0.491-0.464 0.625l-1.071 0.348q-2.455 0.786-2.607 0.786-0.313-0.018-0.482-0.321-0.107-0.223-0.152-0.67-0.071-0.679 0.009-1.487t0.268-1.112 0.5-0.286q0.116 0 1.804 0.688 0.625 0.259 1.027 0.42l0.75 0.304q0.205 0.080 0.317 0.272t0.103 0.433zM12.946 12.188q-0.063 0.482-0.817 1.438t-1.21 1.134q-0.33 0.125-0.563-0.063-0.125-0.089-1.643-2.563l-0.42-0.688q-0.125-0.188-0.103-0.411t0.174-0.411q0.313-0.384 0.741-0.232 0.009 0.009 1.063 0.357 1.813 0.589 2.161 0.71t0.42 0.183q0.25 0.196 0.196 0.545zM6.946 6.545q0.045 0.911-0.482 1.089-0.518 0.152-1.018-0.634l-3.375-5.339q-0.071-0.313 0.17-0.554 0.366-0.384 1.853-0.799t2.004-0.281q0.357 0.089 0.438 0.402 0.027 0.161 0.196 2.728t0.214 3.388zM12.857 7.509q0.027 0.348-0.232 0.527-0.134 0.089-2.938 0.768-0.598 0.134-0.813 0.205l0.009-0.018q-0.205 0.054-0.411-0.036t-0.33-0.286q-0.268-0.42 0-0.777 0.009-0.009 0.67-0.911 1.116-1.527 1.339-1.821t0.304-0.348q0.25-0.17 0.58-0.018 0.429 0.205 1.098 1.192t0.723 1.496v0.027z"></path>
</svg>
