<?xml version="1.0" encoding="utf-8"?>
<!-- Generated by IcoMoon.io -->
<!DOCTYPE svg PUBLIC "-//W3C//DTD SVG 1.1//EN" "http://www.w3.org/Graphics/SVG/1.1/DTD/svg11.dtd">
<svg version="1.1" xmlns="http://www.w3.org/2000/svg" xmlns:xlink="http://www.w3.org/1999/xlink" width="14" height="16" viewBox="0 0 14 16">
<path fill="#444444" d="M8.205 11.634v-1.402q0-0.446-0.259-0.446-0.152 0-0.295 0.143v2q0.143 0.143 0.295 0.143 0.259 0 0.259-0.438zM9.848 10.545h0.589v-0.304q0-0.455-0.295-0.455t-0.295 0.455v0.304zM4.75 8.17v0.625h-0.714v3.777h-0.661v-3.777h-0.696v-0.625h2.071zM6.545 9.295v3.277h-0.598v-0.357q-0.348 0.402-0.679 0.402-0.295 0-0.375-0.25-0.054-0.143-0.054-0.482v-2.589h0.589v2.411q0 0.214 0.009 0.232 0.009 0.134 0.134 0.134 0.179 0 0.375-0.277v-2.5h0.598zM8.795 10.286v1.304q0 0.464-0.063 0.652-0.107 0.375-0.473 0.375-0.313 0-0.607-0.366v0.321h-0.598v-4.402h0.598v1.438q0.286-0.357 0.607-0.357 0.366 0 0.473 0.375 0.063 0.188 0.063 0.661zM11.036 11.438v0.080q0 0.259-0.018 0.384-0.027 0.196-0.134 0.357-0.241 0.357-0.714 0.357-0.464 0-0.723-0.339-0.188-0.241-0.188-0.768v-1.152q0-0.527 0.179-0.768 0.259-0.339 0.714-0.339t0.696 0.339q0.188 0.25 0.188 0.768v0.679h-1.188v0.58q0 0.455 0.304 0.455 0.214 0 0.268-0.232 0-0.009 0.004-0.063t0.004-0.147v-0.192h0.607zM7.009 4.080v1.393q0 0.455-0.286 0.455t-0.286-0.455v-1.393q0-0.464 0.286-0.464t0.286 0.464zM11.768 10.446q0-1.58-0.17-2.321-0.089-0.393-0.384-0.656t-0.679-0.308q-1.214-0.134-3.679-0.134-2.455 0-3.67 0.134-0.393 0.045-0.683 0.308t-0.379 0.656q-0.179 0.777-0.179 2.321 0 1.571 0.179 2.321 0.089 0.384 0.379 0.652t0.674 0.313q1.223 0.134 3.679 0.134t3.679-0.134q0.384-0.045 0.674-0.313t0.379-0.652q0.179-0.75 0.179-2.321zM5.027 4.634l0.804-2.643h-0.67l-0.455 1.741-0.473-1.741h-0.696l0.214 0.616t0.205 0.616q0.313 0.92 0.411 1.411v1.795h0.661v-1.795zM7.607 5.357v-1.161q0-0.518-0.188-0.777-0.259-0.339-0.696-0.339-0.455 0-0.696 0.339-0.188 0.259-0.188 0.777v1.161q0 0.518 0.188 0.777 0.241 0.339 0.696 0.339 0.438 0 0.696-0.339 0.188-0.241 0.188-0.777zM9.223 6.429h0.598v-3.304h-0.598v2.527q-0.196 0.277-0.375 0.277-0.134 0-0.143-0.143-0.009-0.018-0.009-0.232v-2.429h-0.598v2.616q0 0.33 0.054 0.491 0.098 0.241 0.384 0.241 0.321 0 0.688-0.402v0.357zM13.714 3.714v8.571q0 1.063-0.754 1.817t-1.817 0.754h-8.571q-1.063 0-1.817-0.754t-0.754-1.817v-8.571q0-1.063 0.754-1.817t1.817-0.754h8.571q1.063 0 1.817 0.754t0.754 1.817z"></path>
</svg>
